g awm_qiangguan
v 0.05472122 0.1183427 -0.1300907
v 0.06141781 0.1061879 -0.1222486
v 0.07590578 0.115288 -0.1348018
v 0.07587032 0.1005548 -0.1185773
v 0.07590578 0.115288 -0.1348018
v 0.06141781 0.1061879 -0.1222486
v 0.09033542 0.1062076 -0.1221676
v 0.09705934 0.1183713 -0.1299722
v 0.07590578 0.115288 -0.1348018
v 0.1008677 0.1056986 -0.1033785
v 0.09705934 0.1183713 -0.1299722
v 0.112514 0.1267674 -0.1168967
v 0.1046807 0.1138975 -0.08346886
v 0.1009148 0.1478201 -0.1304798
v 0.09036256 0.1305264 -0.1378144
v 0.07591014 0.13616 -0.1414859
v 0.1181282 0.1382253 -0.09907833
v 0.1007524 0.1286072 -0.06777352
v 0.1047351 0.1625348 -0.1147626
v 0.07588243 0.1575771 -0.1368387
v 0.05082815 0.147786 -0.13062
v 0.06144514 0.1305067 -0.1378953
v 0.05472122 0.1183427 -0.1300907
v 0.0758303 0.1738017 -0.1221052
v 0.07576732 0.1804861 -0.1012338
v 0.1007997 0.1707288 -0.09487481
v 0.1123985 0.1496759 -0.08129163
v 0.09685954 0.1580504 -0.06830276
v 0.09013563 0.1458865 -0.06049807
v 0.09016315 0.1702052 -0.07614505
v 0.07571045 0.1758385 -0.07981624
v 0.06124553 0.1701855 -0.07622597
v 0.04690029 0.1624956 -0.1149246
v 0.05071304 0.1706947 -0.09501504
v 0.05452143 0.1580216 -0.0684213
v 0.03918215 0.1267174 -0.117102
v 0.03345207 0.1381678 -0.09931534
v 0.03906695 0.149626 -0.08149692
v 0.05066585 0.1285731 -0.06791371
v 0.06121821 0.1458668 -0.06057908
v 0.05078115 0.1056646 -0.1035188
v 0.06141781 0.1061879 -0.1222486
v 0.04684573 0.1138581 -0.08363076
v 0.07581335 0.09590708 -0.09715971
v 0.07587032 0.1005548 -0.1185773
v 0.07569833 0.1188157 -0.06155473
v 0.07567082 0.1402336 -0.05690772
v 0.07575046 0.1025914 -0.07628819
v 0.09013563 0.1458865 -0.06049807
v 0.07567508 0.1611054 -0.06359183
v 0.1007524 0.1286072 -0.06777352
v 0.1046807 0.1138975 -0.08346886
v 0.1008677 0.1056986 -0.1033785
v 0.09033542 0.1062076 -0.1221676
v 0.07590578 0.115288 -0.1348018
v 0.05472122 0.1183427 -0.1300907
v 0.07590578 0.115288 -0.1348018
v 0.06144514 0.1305067 -0.1378953
v 0.09036256 0.1305264 -0.1378144
v 0.07590578 0.115288 -0.1348018
v 0.09705934 0.1183713 -0.1299722
v 0.07591014 0.13616 -0.1414859
v 0.07590578 0.115288 -0.1348018
v 0.09036256 0.1305264 -0.1378144
v 0.07591014 0.13616 -0.1414859
v 0.06144514 0.1305067 -0.1378953
v 0.07590578 0.115288 -0.1348018
v 0.05452143 0.1580216 -0.0684213
v 0.07567508 0.1611054 -0.06359183
v 0.06121821 0.1458668 -0.06057908
v 0.06121821 0.1458668 -0.06057908
v 0.07567508 0.1611054 -0.06359183
v 0.07567082 0.1402336 -0.05690772
v 0.07567508 0.1611054 -0.06359183
v 0.09685954 0.1580504 -0.06830276
v 0.05452143 0.1580216 -0.0684213
v 0.06124553 0.1701855 -0.07622597
v 0.07567508 0.1611054 -0.06359183
v 0.09016315 0.1702052 -0.07614505
v 0.09685954 0.1580504 -0.06830276
v 0.07567508 0.1611054 -0.06359183
v 0.07571045 0.1758385 -0.07981624
v 0.09016315 0.1702052 -0.07614505
v 0.07567508 0.1611054 -0.06359183
v 0.07571045 0.1758385 -0.07981624
v 0.07567508 0.1611054 -0.06359183
v 0.06124553 0.1701855 -0.07622597
v -0.01252167 0.01285536 -0.01842915
v -0.01059456 0.04188197 -0.02212955
v -0.01062227 0.02019244 -0.007022851
v -0.01055943 0.03600932 -0.03332011
v -0.01054844 0.005521205 -0.02982459
v -0.009556635 0.02919815 -0.04390386
v 0.01655446 0.03602781 -0.03324424
v 0.01649177 0.02021093 -0.006946984
v 0.016519 0.04190041 -0.02205364
v 0.0184651 0.01287652 -0.01834242
v 0.01562196 0.02775276 -0.04404387
v 0.01656541 0.005539693 -0.02974869
v 0.002960817 0.04335377 -0.02188119
v -0.01062227 0.02019244 -0.007022851
v -0.01059456 0.04188197 -0.02212955
v 0.002929715 0.02124951 -0.005356165
v 0.016519 0.04190041 -0.02205364
v 0.01649177 0.02021093 -0.006946984
v 0.003013818 0.004482605 -0.0314154
v -0.009556635 0.02919815 -0.04390386
v -0.01054844 0.005521205 -0.02982459
v 0.003034553 0.02868272 -0.04468293
v 0.01656541 0.005539693 -0.02974869
v 0.01562196 0.02775276 -0.04404387
v 0.003034553 0.02868272 -0.04468293
v -0.01055943 0.03600932 -0.03332011
v -0.009556635 0.02919815 -0.04390386
v 0.002999768 0.03789589 -0.03448994
v -0.01059456 0.04188197 -0.02212955
v 0.01562196 0.02775276 -0.04404387
v 0.002960817 0.04335377 -0.02188119
v 0.01655446 0.03602781 -0.03324424
v 0.016519 0.04190041 -0.02205364
v -0.0002760975 0.08433752 -0.07212721
v 0.07547761 0.1322946 -0.1084453
v 0.07023888 0.140321 -0.1079195
v 0.007118315 0.07857872 -0.07410521
v 0.002036649 0.06273359 -0.06392663
v -0.006289393 0.06532508 -0.05991378
v -0.008365042 0.02731421 -0.03536579
v 0.003222526 0.02370972 -0.04061323
v -0.0003025494 0.08953157 -0.06405503
v 0.07023888 0.140321 -0.1079195
v 0.07021292 0.1455155 -0.09984725
v -0.0002760975 0.08433752 -0.07212721
v -0.006289393 0.06532508 -0.05991378
v -0.006315554 0.07051872 -0.0518414
v -0.008399536 0.03454059 -0.02480658
v -0.008365042 0.02731421 -0.03536579
v 0.01448695 0.07801328 -0.06801026
v 0.08066392 0.1346561 -0.09282649
v 0.08069018 0.1294622 -0.1008989
v 0.01446089 0.083207 -0.05993786
v 0.01033672 0.06533644 -0.05986726
v 0.01031047 0.07053003 -0.05179482
v 0.01477531 0.02733003 -0.03530101
v 0.01474082 0.03455629 -0.0247418
v 0.00706609 0.08896662 -0.05796049
v 0.07021292 0.1455155 -0.09984725
v 0.07542539 0.1426826 -0.09230066
v -0.0003025494 0.08953157 -0.06405503
v 0.001984423 0.07312161 -0.04778197
v -0.006315554 0.07051872 -0.0518414
v 0.003153441 0.03816102 -0.01949455
v -0.008399536 0.03454059 -0.02480658
v 0.07547761 0.1322946 -0.1084453
v 0.01448695 0.07801328 -0.06801026
v 0.08069018 0.1294622 -0.1008989
v 0.007118315 0.07857872 -0.07410521
v 0.01033672 0.06533644 -0.05986726
v 0.002036649 0.06273359 -0.06392663
v 0.01477531 0.02733003 -0.03530101
v 0.003222526 0.02370972 -0.04061323
v 0.01446089 0.083207 -0.05993786
v 0.07542539 0.1426826 -0.09230066
v 0.08066392 0.1346561 -0.09282649
v 0.00706609 0.08896662 -0.05796049
v 0.01031047 0.07053003 -0.05179482
v 0.001984423 0.07312161 -0.04778197
v 0.01474082 0.03455629 -0.0247418
v 0.003153441 0.03816102 -0.01949455
v 0.05888492 -0.03562032 -0.003100374
v -0.4440893 -0.02645552 -0.02523697
v -0.4441409 -0.0359627 -0.004508427
v 0.05893628 -0.02611312 -0.02382898
v -0.4440761 -0.00581315 -0.03493012
v 0.05894926 -0.005470754 -0.03352213
v 0.05894926 -0.005470754 -0.03352213
v -0.4441169 0.01491538 -0.02542306
v -0.4440761 -0.00581315 -0.03493012
v 0.05890856 0.01525777 -0.02401507
v -0.4441814 0.02460866 -0.004780813
v 0.05884432 0.02495104 -0.00337282
v 0.05884432 0.02495104 -0.00337282
v -0.4442329 0.01510133 0.01594776
v -0.4441814 0.02460866 -0.004780813
v 0.05879268 0.01544371 0.01735577
v -0.444246 -0.005540905 0.02564088
v 0.0587796 -0.00519852 0.02704889
v 0.0587796 -0.00519852 0.02704889
v -0.4442052 -0.02626953 0.01613382
v -0.444246 -0.005540905 0.02564088
v 0.05882039 -0.02592714 0.01754176
v -0.4441409 -0.0359627 -0.004508427
v 0.05888492 -0.03562032 -0.003100374
v -0.4440893 -0.02645552 -0.02523697
v -0.4442052 -0.02626953 0.01613382
v -0.4441409 -0.0359627 -0.004508427
v -0.444246 -0.005540905 0.02564088
v -0.4442329 0.01510133 0.01594776
v -0.4441814 0.02460866 -0.004780813
v -0.4441169 0.01491538 -0.02542306
v -0.4440761 -0.00581315 -0.03493012
vt 0.949551 0.7197087
vt 0.952265 0.7197087
vt 0.9508902 0.7159771
vt 0.9575701 0.7197087
vt 0.9562653 0.7159771
vt 0.9550073 0.7197087
vt 0.9323598 0.7197087
vt 0.9346102 0.7197087
vt 0.9334999 0.7159771
vt 0.9313599 0.723527
vt 0.9346102 0.7197087
vt 0.9346102 0.723527
vt 0.9313599 0.7266643
vt 0.9381788 0.723527
vt 0.9381788 0.7197087
vt 0.9418468 0.7197087
vt 0.9346102 0.7266643
vt 0.9313599 0.7293277
vt 0.9381788 0.7266643
vt 0.9418468 0.723527
vt 0.945635 0.723527
vt 0.945635 0.7197087
vt 0.949551 0.7197087
vt 0.9418468 0.7266643
vt 0.9418468 0.7293277
vt 0.9381788 0.7293277
vt 0.9346102 0.7293277
vt 0.9346102 0.7334819
vt 0.9313599 0.7334819
vt 0.9381788 0.7334819
vt 0.9418468 0.7334819
vt 0.945635 0.7334819
vt 0.945635 0.7266643
vt 0.945635 0.7293277
vt 0.949551 0.7334819
vt 0.949551 0.723527
vt 0.949551 0.7266643
vt 0.949551 0.7293277
vt 0.9536362 0.7293277
vt 0.9536362 0.7334819
vt 0.9536362 0.723527
vt 0.9536362 0.7197087
vt 0.9536362 0.7266643
vt 0.9575701 0.723527
vt 0.9575701 0.7197087
vt 0.9575701 0.7293277
vt 0.9575701 0.7334819
vt 0.9575701 0.7266643
vt 0.9599219 0.7334819
vt 0.9587533 0.7372136
vt 0.9599219 0.7293277
vt 0.9599219 0.7266643
vt 0.9599219 0.723527
vt 0.9599219 0.7197087
vt 0.9587675 0.7159771
vt 0.949551 0.7197087
vt 0.9482512 0.7159771
vt 0.9469166 0.7197087
vt 0.9369705 0.7197087
vt 0.9357749 0.7159771
vt 0.9346102 0.7197087
vt 0.9418468 0.7197087
vt 0.9405944 0.7159771
vt 0.9393872 0.7197087
vt 0.9418468 0.7197087
vt 0.9443532 0.7197087
vt 0.9431232 0.7159771
vt 0.949551 0.7334819
vt 0.9509063 0.7372136
vt 0.952265 0.7334819
vt 0.9550073 0.7334819
vt 0.9562809 0.7372136
vt 0.9575701 0.7334819
vt 0.9334865 0.7372136
vt 0.9346102 0.7334819
vt 0.949551 0.7334819
vt 0.9469166 0.7334819
vt 0.9482354 0.7372136
vt 0.9369705 0.7334819
vt 0.9346102 0.7334819
vt 0.935789 0.7372136
vt 0.9418468 0.7334819
vt 0.9393872 0.7334819
vt 0.9406095 0.7372136
vt 0.9418468 0.7334819
vt 0.9431078 0.7372136
vt 0.9443532 0.7334819
vt 0.9455212 0.7383437
vt 0.9484097 0.7447355
vt 0.9484387 0.7383437
vt 0.9455212 0.7447355
vt 0.9425044 0.7383437
vt 0.9426646 0.7450501
vt 0.9455212 0.7510749
vt 0.9484387 0.7580106
vt 0.9484097 0.7510749
vt 0.9455212 0.7580106
vt 0.9424138 0.7507622
vt 0.9425044 0.7580106
vt 0.9483806 0.7479241
vt 0.9548827 0.7447355
vt 0.9484097 0.7447355
vt 0.9548827 0.7479241
vt 0.9484097 0.7510749
vt 0.9548827 0.7510749
vt 0.9362097 0.7479241
vt 0.9426646 0.7450501
vt 0.9362097 0.7447355
vt 0.9425508 0.7479241
vt 0.9362097 0.7510749
vt 0.9424138 0.7507622
vt 0.9425508 0.7479241
vt 0.9455212 0.7447355
vt 0.9426646 0.7450501
vt 0.9455212 0.7479241
vt 0.9484097 0.7447355
vt 0.9424138 0.7507622
vt 0.9483806 0.7479241
vt 0.9455212 0.7510749
vt 0.9484097 0.7510749
vt 0.9496009 0.6874703
vt 0.951953 0.6692771
vt 0.9496009 0.6692771
vt 0.951953 0.6874703
vt 0.951953 0.6905838
vt 0.9496009 0.6905838
vt 0.9496009 0.7018981
vt 0.951953 0.7018981
vt 0.9470334 0.6874703
vt 0.9496009 0.6692771
vt 0.9470334 0.6692771
vt 0.9496009 0.6874703
vt 0.9496009 0.6905838
vt 0.9470334 0.6905838
vt 0.9470334 0.7018981
vt 0.9496009 0.7018981
vt 0.9389862 0.6874703
vt 0.9415806 0.6692771
vt 0.9389862 0.6692771
vt 0.9415806 0.6874703
vt 0.9389862 0.6905838
vt 0.9415806 0.6905838
vt 0.9389862 0.7018981
vt 0.9415806 0.7018981
vt 0.9443042 0.6874703
vt 0.9470334 0.6692771
vt 0.9443042 0.6692771
vt 0.9470334 0.6874703
vt 0.9443042 0.6905838
vt 0.9470334 0.6905838
vt 0.9443042 0.7018981
vt 0.9470334 0.7018981
vt 0.936372 0.6692771
vt 0.9389862 0.6874703
vt 0.9389862 0.6692771
vt 0.936372 0.6874703
vt 0.9389862 0.6905838
vt 0.936372 0.6905838
vt 0.9389862 0.7018981
vt 0.936372 0.7018981
vt 0.9415806 0.6874703
vt 0.9443042 0.6692771
vt 0.9415806 0.6692771
vt 0.9443042 0.6874703
vt 0.9415806 0.6905838
vt 0.9443042 0.6905838
vt 0.9415806 0.7018981
vt 0.9443042 0.7018981
vt 0.02260545 0.8038066
vt 0.01364788 0.9956319
vt 0.02260545 0.9956609
vt 0.01364788 0.8037776
vt 0.00469046 0.9956028
vt 0.00469046 0.8037485
vt 0.07635077 0.8039808
vt 0.0673933 0.9958062
vt 0.07635077 0.9958352
vt 0.0673933 0.8039517
vt 0.05843575 0.9957771
vt 0.05843575 0.8039226
vt 0.05843575 0.8039226
vt 0.04947815 0.995748
vt 0.05843575 0.9957771
vt 0.04947815 0.8038937
vt 0.04052059 0.9957191
vt 0.04052059 0.8038647
vt 0.04052059 0.8038647
vt 0.03156309 0.9956899
vt 0.04052059 0.9957191
vt 0.03156309 0.8038356
vt 0.02260545 0.9956609
vt 0.02260545 0.8038066
vt 0.08553804 0.990962
vt 0.08553804 0.971038
vt 0.08091466 0.981
vt 0.09550001 0.9664147
vt 0.105462 0.971038
vt 0.1100854 0.981
vt 0.105462 0.990962
vt 0.09550001 0.9955854
vn -0.5472598 -0.4524362 -0.7041366
vn -0.3883433 -0.7796697 -0.4912279
vn 0.002722713 -0.5410841 -0.8409641
vn 0.001762568 -0.9142006 -0.4052581
vn 0.002722713 -0.5410841 -0.8409641
vn -0.3883433 -0.7796697 -0.4912279
vn 0.3921449 -0.779144 -0.4890369
vn 0.55181 -0.4516874 -0.7010594
vn 0.002722713 -0.5410841 -0.8409641
vn 0.6261867 -0.7779387 -0.05197846
vn 0.55181 -0.4516874 -0.7010594
vn 0.8828887 -0.2547783 -0.3944561
vn 0.7064413 -0.594169 0.3845828
vn 0.6273614 0.2741297 -0.728883
vn 0.3928863 -0.1227686 -0.9113552
vn 0.002792958 0.01008622 -0.9999453
vn 0.9999958 0.0006809924 0.002802529
vn 0.6236507 -0.2732686 0.7323824
vn 0.7077738 0.5951307 -0.3806254
vn 0.002114438 0.4860168 -0.8739469
vn -0.6236504 0.273276 -0.7323801
vn -0.3876089 -0.123306 -0.9135398
vn -0.5472598 -0.4524362 -0.7041366
vn 0.0009436616 0.8409657 -0.5410876
vn -0.0004545391 0.9967867 -0.08010025
vn 0.6248296 0.7787877 0.05547439
vn 0.8803177 0.2559842 0.3993905
vn 0.547262 0.4524311 0.704138
vn 0.3876101 0.123301 0.9135399
vn 0.3883481 0.779667 0.4912281
vn -0.001761225 0.9142001 0.4052592
vn -0.392146 0.7791398 0.4890427
vn -0.7064363 0.594173 -0.3845858
vn -0.6261865 0.7779391 0.05197374
vn -0.5518115 0.4516858 0.7010593
vn -0.8803145 -0.2559861 -0.3993962
vn -0.9999958 -0.00068163 -0.002802618
vn -0.8828835 0.2547882 0.3944614
vn -0.6273645 -0.2741244 0.7288824
vn -0.3928825 0.1227676 0.911357
vn -0.6248303 -0.7787869 -0.05548042
vn -0.3883433 -0.7796697 -0.4912279
vn -0.7077693 -0.5951366 0.3806244
vn 0.0004528213 -0.9967872 0.08009491
vn 0.001762568 -0.9142006 -0.4052581
vn -0.002114467 -0.4860164 0.8739471
vn -0.002789764 -0.01007701 0.9999454
vn -0.0009443359 -0.8409678 0.5410843
vn 0.3876101 0.123301 0.9135399
vn -0.002723367 0.541088 0.8409616
vn 0.6236507 -0.2732686 0.7323824
vn 0.7064413 -0.594169 0.3845828
vn 0.6261867 -0.7779387 -0.05197846
vn 0.3921449 -0.779144 -0.4890369
vn 0.002722713 -0.5410841 -0.8409641
vn -0.5472598 -0.4524362 -0.7041366
vn 0.002722713 -0.5410841 -0.8409641
vn -0.3876089 -0.123306 -0.9135398
vn 0.3928863 -0.1227686 -0.9113552
vn 0.002722713 -0.5410841 -0.8409641
vn 0.55181 -0.4516874 -0.7010594
vn 0.002792958 0.01008622 -0.9999453
vn 0.002722713 -0.5410841 -0.8409641
vn 0.3928863 -0.1227686 -0.9113552
vn 0.002792958 0.01008622 -0.9999453
vn -0.3876089 -0.123306 -0.9135398
vn 0.002722713 -0.5410841 -0.8409641
vn -0.5518115 0.4516858 0.7010593
vn -0.002723367 0.541088 0.8409616
vn -0.3928825 0.1227676 0.911357
vn -0.3928825 0.1227676 0.911357
vn -0.002723367 0.541088 0.8409616
vn -0.002789764 -0.01007701 0.9999454
vn -0.002723367 0.541088 0.8409616
vn 0.547262 0.4524311 0.704138
vn -0.5518115 0.4516858 0.7010593
vn -0.392146 0.7791398 0.4890427
vn -0.002723367 0.541088 0.8409616
vn 0.3883481 0.779667 0.4912281
vn 0.547262 0.4524311 0.704138
vn -0.002723367 0.541088 0.8409616
vn -0.001761225 0.9142001 0.4052592
vn 0.3883481 0.779667 0.4912281
vn -0.002723367 0.541088 0.8409616
vn -0.001761225 0.9142001 0.4052592
vn -0.002723367 0.541088 0.8409616
vn -0.392146 0.7791398 0.4890427
vn -0.9986182 0.02850294 -0.04415114
vn -0.9977196 0.06713154 0.006995202
vn -0.9903163 0.08019517 0.113324
vn -0.9970373 0.02333042 -0.07329715
vn -0.9900946 -0.01634508 -0.1394476
vn -0.9960944 -0.01041178 -0.0876782
vn 0.9988871 0.03035213 -0.03610143
vn 0.9931847 0.09881615 0.06180208
vn 0.9999958 0.0006970887 0.002803162
vn 0.9982653 0.05511171 -0.02071353
vn 0.9939172 -0.0003129267 -0.11013
vn 0.989714 -0.04529394 -0.1357005
vn -0.01177108 0.5893919 0.8077615
vn -0.1243222 0.5863954 0.8004276
vn -0.07686828 0.5699068 0.818106
vn -0.0123529 0.5893236 0.8078026
vn 0.09284343 0.588373 0.8032418
vn 0.138669 0.5658925 0.812734
vn 0.01158032 -0.4902397 -0.8715107
vn -0.09265472 -0.4861846 -0.8689301
vn -0.138578 -0.5018784 -0.8537647
vn -0.01536009 -0.5011897 -0.8652011
vn 0.1055022 -0.4949026 -0.8625201
vn 0.002719685 -0.5410851 -0.8409634
vn 0.004555357 0.7664985 -0.6422299
vn -0.1244097 0.8360214 -0.5344066
vn 0.0009445121 0.8409537 -0.5411063
vn 0.00112096 0.8410643 -0.540934
vn -0.126759 0.894849 -0.4279924
vn 0.1258549 0.7586783 -0.6391931
vn 0.01757373 0.9103968 -0.4133629
vn 0.1444867 0.8423079 -0.5192698
vn 0.08867233 0.8821058 -0.4626303
vn -0.4296084 -0.2546812 -0.8663569
vn -0.3420979 -0.1607397 -0.9258141
vn -0.3412748 -0.1620915 -0.9258823
vn -0.4244805 -0.2457173 -0.8714582
vn -0.494168 -0.4016135 -0.7710413
vn -0.4963055 -0.4077595 -0.7664288
vn -0.4832813 -0.4591401 -0.7454056
vn -0.4810665 -0.4603459 -0.7460943
vn -0.8589441 0.4293428 -0.2790693
vn -0.6857975 0.6110176 -0.3953977
vn -0.6857975 0.6110179 -0.3953972
vn -0.8589442 0.4293396 -0.279074
vn -0.9882892 0.126783 -0.08491381
vn -0.9886625 0.1247985 -0.08349744
vn -0.9989403 0.03650254 -0.02803397
vn -0.9989418 0.03636781 -0.0281522
vn 0.8539394 -0.4363601 0.2835092
vn 0.6779873 -0.617168 0.3992954
vn 0.6779872 -0.6171672 0.3992968
vn 0.85394 -0.4363581 0.2835104
vn 0.9963329 -0.07044519 0.04856004
vn 0.9966955 -0.06693985 0.04601214
vn 0.9951739 0.08267011 -0.05286514
vn 0.9951659 0.0825303 -0.05322918
vn -0.4293619 0.6887937 0.5841332
vn -0.3451324 0.7762139 0.5276131
vn -0.3439995 0.7758702 0.528857
vn -0.4354858 0.6809764 0.5887471
vn -0.4989158 0.5557826 0.6649728
vn -0.4980335 0.553978 0.6671365
vn -0.4873845 0.5418637 0.6847191
vn -0.4852697 0.5430468 0.6852835
vn 0.3431009 -0.7777923 -0.5266126
vn 0.4278405 -0.6910319 -0.582604
vn 0.341889 -0.7774228 -0.5279448
vn 0.4346825 -0.6825241 -0.5875474
vn 0.5010782 -0.507365 -0.7010716
vn 0.5003535 -0.499163 -0.707448
vn 0.4874882 -0.4361686 -0.756381
vn 0.4852184 -0.4375295 -0.7570542
vn 0.4231146 0.2450827 0.8723007
vn 0.3383906 0.1579119 0.9276614
vn 0.3371746 0.1592727 0.9278715
vn 0.4299607 0.2531244 0.8666382
vn 0.4968622 0.4545442 0.7392681
vn 0.4961874 0.4692734 0.7304659
vn 0.4819551 0.5613476 0.6727615
vn 0.4799312 0.5614771 0.674099
vn 0.001785596 -0.9089556 -0.4168891
vn 0.002453781 -0.710278 -0.703917
vn 0.001785625 -0.9089553 -0.4168896
vn 0.002453762 -0.7102789 -0.7039161
vn 0.002822926 -0.4250463 -0.9051672
vn 0.002822921 -0.4250464 -0.9051672
vn 0.002260445 0.4168926 -0.9089529
vn 0.001508971 0.7039198 -0.7102779
vn 0.002260431 0.4168923 -0.9089531
vn 0.001508983 0.7039202 -0.7102774
vn 0.0005736366 0.905169 -0.4250516
vn 0.0005736462 0.9051691 -0.4250513
vn -0.001785585 0.9089532 0.4168942
vn -0.002453755 0.7102764 0.7039187
vn -0.001785576 0.9089532 0.4168944
vn -0.002453763 0.7102766 0.7039185
vn -0.002822931 0.4250474 0.9051667
vn -0.002822936 0.4250475 0.9051666
vn -0.00226035 -0.4168931 0.9089527
vn -0.001508954 -0.7039201 0.7102776
vn -0.002260471 -0.4168907 0.9089538
vn -0.001508948 -0.7039211 0.7102765
vn -0.0005735646 -0.9051708 0.4250476
vn -0.000573682 -0.9051698 0.4250499
vn -0.9999958 -0.0006804919 -0.00280087
vn -0.9999958 -0.0006835526 -0.002798032
vn -0.9999958 -0.0006787021 -0.002798054
vn -0.9999958 -0.0006821381 -0.00279904
vn -0.9999958 -0.0006810814 -0.00279938
vn -0.9999958 -0.0006804781 -0.002801123
vn -0.9999958 -0.0006789317 -0.00280504
vn -0.9999958 -0.0006789329 -0.002805302
g awm_qiangguan_0
f 3/3/3 2/2/2 1/1/1
f 6/6/6 5/5/5 4/4/4
f 9/9/9 8/8/8 7/7/7
f 7/7/7 11/11/11 10/10/10
f 12/12/12 10/10/10 11/11/11
f 10/10/10 12/12/12 13/13/13
f 12/12/12 11/11/11 14/14/14
f 15/15/15 14/14/14 11/11/11
f 15/15/15 16/16/16 14/14/14
f 17/17/17 13/13/13 12/12/12
f 13/13/13 17/17/17 18/18/18
f 14/14/14 19/19/19 12/12/12
f 17/17/17 12/12/12 19/19/19
f 20/20/20 14/14/14 16/16/16
f 20/20/20 16/16/16 21/21/21
f 22/22/22 21/21/21 16/16/16
f 22/22/22 23/23/23 21/21/21
f 20/20/20 24/24/24 14/14/14
f 19/19/19 14/14/14 24/24/24
f 20/20/20 21/21/21 24/24/24
f 24/24/24 25/25/25 19/19/19
f 19/19/19 26/26/26 17/17/17
f 26/26/26 19/19/19 25/25/25
f 27/27/27 18/18/18 17/17/17
f 27/27/27 17/17/17 26/26/26
f 27/27/27 28/28/28 18/18/18
f 27/27/27 26/26/26 28/28/28
f 29/29/29 18/18/18 28/28/28
f 30/30/30 28/28/28 26/26/26
f 26/26/26 25/25/25 30/30/30
f 31/31/31 30/30/30 25/25/25
f 31/31/31 25/25/25 32/32/32
f 33/33/33 24/24/24 21/21/21
f 24/24/24 33/33/33 25/25/25
f 34/34/34 32/32/32 25/25/25
f 34/34/34 25/25/25 33/33/33
f 32/32/32 34/34/34 35/35/35
f 21/21/21 36/36/36 33/33/33
f 36/36/36 21/21/21 23/23/23
f 33/33/33 37/37/37 34/34/34
f 37/37/37 33/33/33 36/36/36
f 38/38/38 35/35/35 34/34/34
f 38/38/38 34/34/34 37/37/37
f 38/38/38 39/39/39 35/35/35
f 38/38/38 37/37/37 39/39/39
f 40/40/40 35/35/35 39/39/39
f 36/36/36 23/23/23 41/41/41
f 42/42/42 41/41/41 23/23/23
f 37/37/37 36/36/36 43/43/43
f 41/41/41 43/43/43 36/36/36
f 43/43/43 39/39/39 37/37/37
f 41/41/41 42/42/42 44/44/44
f 41/41/41 44/44/44 43/43/43
f 45/45/45 44/44/44 42/42/42
f 39/39/39 46/46/46 40/40/40
f 47/47/47 40/40/40 46/46/46
f 43/43/43 48/48/48 39/39/39
f 48/48/48 43/43/43 44/44/44
f 46/46/46 39/39/39 48/48/48
f 47/47/47 46/46/46 49/49/49
f 50/50/50 47/47/47 49/49/49
f 51/51/51 49/49/49 46/46/46
f 51/51/51 46/46/46 52/52/52
f 48/48/48 52/52/52 46/46/46
f 48/48/48 44/44/44 52/52/52
f 53/53/53 52/52/52 44/44/44
f 44/44/44 45/45/45 53/53/53
f 54/54/54 53/53/53 45/45/45
f 55/55/55 54/54/54 45/45/45
f 58/58/58 57/57/57 56/56/56
f 61/61/61 60/60/60 59/59/59
f 64/64/64 63/63/63 62/62/62
f 67/67/67 66/66/66 65/65/65
f 70/70/70 69/69/69 68/68/68
f 73/73/73 72/72/72 71/71/71
f 75/75/75 74/74/74 29/29/29
f 78/78/78 77/77/77 76/76/76
f 81/81/81 80/80/80 79/79/79
f 84/84/84 83/83/83 82/82/82
f 87/87/87 86/86/86 85/85/85
f 90/90/90 89/89/89 88/88/88
f 91/91/91 88/88/88 89/89/89
f 88/88/88 91/91/91 92/92/92
f 93/93/93 92/92/92 91/91/91
f 96/96/96 95/95/95 94/94/94
f 97/97/97 94/94/94 95/95/95
f 94/94/94 97/97/97 98/98/98
f 99/99/99 98/98/98 97/97/97
f 102/102/102 101/101/101 100/100/100
f 103/103/103 100/100/100 101/101/101
f 100/100/100 103/103/103 104/104/104
f 105/105/105 104/104/104 103/103/103
f 108/108/108 107/107/107 106/106/106
f 109/109/109 106/106/106 107/107/107
f 106/106/106 109/109/109 110/110/110
f 111/111/111 110/110/110 109/109/109
f 114/114/114 113/113/113 112/112/112
f 115/115/115 112/112/112 113/113/113
f 113/113/113 116/116/116 115/115/115
f 112/112/112 115/115/115 117/117/117
f 118/118/118 115/115/115 116/116/116
f 119/119/119 117/117/117 115/115/115
f 115/115/115 118/118/118 119/119/119
f 120/120/120 119/119/119 118/118/118
f 123/123/123 122/122/122 121/121/121
f 124/124/124 121/121/121 122/122/122
f 124/124/124 125/125/125 121/121/121
f 126/126/126 121/121/121 125/125/125
f 126/126/126 125/125/125 127/127/127
f 128/128/128 127/127/127 125/125/125
f 131/131/131 130/130/130 129/129/129
f 132/132/132 129/129/129 130/130/130
f 132/132/132 133/133/133 129/129/129
f 134/134/134 129/129/129 133/133/133
f 134/134/134 133/133/133 135/135/135
f 136/136/136 135/135/135 133/133/133
f 139/139/139 138/138/138 137/137/137
f 140/140/140 137/137/137 138/138/138
f 137/137/137 140/140/140 141/141/141
f 142/142/142 141/141/141 140/140/140
f 141/141/141 142/142/142 143/143/143
f 144/144/144 143/143/143 142/142/142
f 147/147/147 146/146/146 145/145/145
f 148/148/148 145/145/145 146/146/146
f 145/145/145 148/148/148 149/149/149
f 150/150/150 149/149/149 148/148/148
f 149/149/149 150/150/150 151/151/151
f 152/152/152 151/151/151 150/150/150
f 155/155/155 154/154/154 153/153/153
f 156/156/156 153/153/153 154/154/154
f 154/154/154 157/157/157 156/156/156
f 158/158/158 156/156/156 157/157/157
f 157/157/157 159/159/159 158/158/158
f 160/160/160 158/158/158 159/159/159
f 163/163/163 162/162/162 161/161/161
f 164/164/164 161/161/161 162/162/162
f 161/161/161 164/164/164 165/165/165
f 166/166/166 165/165/165 164/164/164
f 165/165/165 166/166/166 167/167/167
f 168/168/168 167/167/167 166/166/166
f 171/171/171 170/170/170 169/169/169
f 172/172/172 169/169/169 170/170/170
f 170/170/170 173/173/173 172/172/172
f 174/174/174 172/172/172 173/173/173
f 177/177/177 176/176/176 175/175/175
f 178/178/178 175/175/175 176/176/176
f 176/176/176 179/179/179 178/178/178
f 180/180/180 178/178/178 179/179/179
f 183/183/183 182/182/182 181/181/181
f 184/184/184 181/181/181 182/182/182
f 182/182/182 185/185/185 184/184/184
f 186/186/186 184/184/184 185/185/185
f 189/189/189 188/188/188 187/187/187
f 190/190/190 187/187/187 188/188/188
f 188/188/188 191/191/191 190/190/190
f 192/192/192 190/190/190 191/191/191
f 195/195/195 194/194/194 193/193/193
f 194/194/194 196/196/196 193/193/193
f 196/196/196 197/197/197 193/193/193
f 197/197/197 198/198/198 193/193/193
f 198/198/198 199/199/199 193/193/193
f 199/199/199 200/200/200 193/193/193
