g carbine_loader1
v -0.127256 -0.009929817 0.0131579
v 0.01308733 -0.009929839 0.01315795
v -0.127256 -0.02686788 0.0131579
v 0.07928793 0.000499068 0.01315798
v 0.07928793 -0.02686791 0.01315798
v 0.01308733 0.010928 0.01315795
v 0.08980511 -0.0236623 0.01315799
v 0.0898051 -0.07524247 0.01315799
v 0.1127045 -0.02366201 0.01315799
v 0.07928793 0.02786605 0.01315798
v -0.127256 0.02786608 0.0131579
v -0.127256 0.01092802 0.0131579
v 0.08980512 0.02466043 0.01315799
v 0.08980512 0.07624061 0.01315799
v 0.0817308 0.0946832 0.01315798
v 0.1051051 0.09801736 0.01315799
v 0.1037779 0.07630419 0.01315799
v 0.1118805 0.09180468 0.01315799
v 0.127256 0.04282651 0.013158
v 0.1142545 0.04404419 0.01315799
v 0.1127045 0.02466014 0.01315799
v 0.127256 0.0004990602 0.013158
v 0.127256 -0.04182838 0.013158
v 0.1142545 -0.04304606 0.01315799
v 0.1037778 -0.07530606 0.01315799
v 0.1100158 -0.09341381 0.01315799
v 0.102059 -0.09801736 0.01315799
v 0.08362021 -0.09557451 0.01315798
v 0.08980511 -0.07524247 -0.01315791
v 0.07928793 -0.02686791 -0.01315791
v 0.08362022 -0.09557451 -0.01315791
v -0.127256 -0.02686788 0.0131579
v 0.01308733 -0.009929839 0.01315795
v 0.07928793 -0.02686791 0.01315798
v 0.08362021 -0.09557451 0.01315798
v 0.07928793 -0.02686791 0.01315798
v 0.0898051 -0.07524247 0.01315799
v 0.102059 -0.09801736 -0.0131579
v 0.08980511 -0.07524247 -0.01315791
v 0.08362022 -0.09557451 -0.01315791
v 0.1037778 -0.07530606 -0.0131579
v 0.1100158 -0.09341381 -0.0131579
v 0.127256 -0.04182838 -0.01315789
v 0.1142545 -0.04304606 -0.01315789
v 0.1127045 -0.02366201 -0.0131579
v 0.127256 0.0004990602 -0.01315789
v 0.07928794 0.000499068 -0.01315791
v 0.08980512 -0.0236623 -0.01315791
v 0.07928793 -0.02686791 -0.01315791
v 0.01308734 -0.009929839 -0.01315794
v 0.01308734 0.010928 -0.01315794
v 0.1127045 0.02466014 -0.0131579
v 0.127256 0.04282651 -0.01315789
v 0.1143463 0.0388002 -0.01315789
v 0.1037779 0.07630419 -0.0131579
v 0.1118805 0.09180468 -0.0131579
v 0.1051051 0.09801736 -0.0131579
v 0.08980513 0.07624061 -0.01315791
v 0.08173081 0.0946832 -0.01315791
v 0.07928795 0.02786605 -0.01315791
v 0.08980512 0.02466043 -0.01315791
v -0.127256 0.02786608 -0.01315799
v -0.127256 0.01092802 -0.01315799
v 0.01308734 -0.009929839 -0.01315794
v -0.127256 -0.02686788 -0.01315799
v 0.07928793 -0.02686791 -0.01315791
v -0.127256 -0.009929817 -0.01315799
v 0.08980512 -0.0236623 -0.01315791
v 0.0898051 -0.07524247 0.01315799
v 0.08980511 -0.0236623 0.01315799
v 0.08980511 -0.07524247 -0.01315791
v 0.0898051 -0.07524247 0.01315799
v 0.1037778 -0.07530606 -0.0131579
v 0.1037778 -0.07530606 0.01315799
v 0.08980511 -0.07524247 -0.01315791
v 0.1127045 -0.02366201 0.01315799
v 0.1142545 -0.04304606 -0.01315789
v 0.1127045 -0.02366201 -0.0131579
v 0.1142545 -0.04304606 0.01315799
v 0.1037778 -0.07530606 0.01315799
v 0.1037778 -0.07530606 -0.0131579
v 0.1118805 0.09180468 -0.0131579
v 0.1051051 0.09801736 0.01315799
v 0.1051051 0.09801736 -0.0131579
v 0.1118805 0.09180468 0.01315799
v 0.127256 0.04282651 -0.01315789
v 0.127256 0.04282651 0.013158
v 0.127256 0.0004990602 -0.01315789
v 0.127256 0.0004990602 0.013158
v 0.127256 -0.04182838 0.013158
v 0.127256 -0.04182838 -0.01315789
v 0.1100158 -0.09341381 0.01315799
v 0.1100158 -0.09341381 -0.0131579
v 0.102059 -0.09801736 0.01315799
v 0.102059 -0.09801736 -0.0131579
v 0.08362022 -0.09557451 -0.01315791
v 0.08362021 -0.09557451 0.01315798
v 0.08980512 0.02466043 -0.01315791
v 0.08980512 0.07624061 0.01315799
v 0.08980513 0.07624061 -0.01315791
v 0.08980512 0.02466043 0.01315799
v 0.1127045 -0.02366201 0.01315799
v 0.08980512 -0.0236623 -0.01315791
v 0.08980511 -0.0236623 0.01315799
v 0.1127045 -0.02366201 -0.0131579
v 0.1037779 0.07630419 0.01315799
v 0.08980513 0.07624061 -0.01315791
v 0.08980512 0.07624061 0.01315799
v 0.1037779 0.07630419 -0.0131579
v 0.1127045 0.02466014 -0.0131579
v 0.1142545 0.04404419 0.01315799
v 0.1127045 0.02466014 0.01315799
v 0.1143463 0.0388002 -0.01315789
v 0.1037779 0.07630419 -0.0131579
v 0.1037779 0.07630419 0.01315799
v 0.08980512 0.02466043 0.01315799
v 0.1127045 0.02466014 -0.0131579
v 0.1127045 0.02466014 0.01315799
v 0.08980512 0.02466043 -0.01315791
v 0.08362022 -0.09557451 -0.01315791
v 0.07928793 -0.02686791 0.01315798
v 0.08362021 -0.09557451 0.01315798
v 0.07928793 -0.02686791 -0.01315791
v -0.127256 -0.009929817 0.0131579
v -0.127256 -0.02686788 -0.01315799
v -0.127256 -0.009929817 -0.01315799
v -0.127256 -0.02686788 0.0131579
v 0.07928793 -0.02686791 -0.01315791
v -0.127256 -0.02686788 0.0131579
v 0.07928793 -0.02686791 0.01315798
v -0.127256 -0.02686788 -0.01315799
v 0.07928793 0.02786605 0.01315798
v 0.08173081 0.0946832 -0.01315791
v 0.0817308 0.0946832 0.01315798
v 0.07928795 0.02786605 -0.01315791
v 0.08173081 0.0946832 -0.01315791
v 0.1051051 0.09801736 0.01315799
v 0.0817308 0.0946832 0.01315798
v 0.1051051 0.09801736 -0.0131579
v 0.07928795 0.02786605 -0.01315791
v -0.127256 0.02786608 0.0131579
v -0.127256 0.02786608 -0.01315799
v 0.07928793 0.02786605 0.01315798
v -0.127256 0.01092802 -0.01315799
v -0.127256 0.02786608 0.0131579
v -0.127256 0.01092802 0.0131579
v -0.127256 0.02786608 -0.01315799
v 0.01308734 0.010928 -0.01315794
v 0.01308733 -0.009929839 0.01315795
v 0.01308734 -0.009929839 -0.01315794
v 0.01308733 0.010928 0.01315795
v 0.01308733 0.010928 0.01315795
v -0.127256 0.01092802 -0.01315799
v -0.127256 0.01092802 0.0131579
v 0.01308734 0.010928 -0.01315794
v -0.127256 -0.009929817 0.0131579
v 0.01308734 -0.009929839 -0.01315794
v 0.01308733 -0.009929839 0.01315795
v -0.127256 -0.009929817 -0.01315799
vt 0.1143013 0.151715
vt 0.0686871 0.1515384
vt 0.11428 0.15722
vt 0.04718382 0.1480652
vt 0.04714936 0.1569601
vt 0.06871337 0.1447589
vt 0.04373494 0.1559047
vt 0.04366845 0.1726701
vt 0.03629217 0.1558755
vt 0.04721832 0.1391704
vt 0.1143482 0.1394297
vt 0.1143269 0.1449348
vt 0.04379611 0.1401989
vt 0.04386133 0.1234357
vt 0.04650878 0.1174521
vt 0.03891649 0.1163389
vt 0.03932035 0.1233973
vt 0.03670672 0.1183496
vt 0.03164722 0.1342478
vt 0.0358744 0.1338683
vt 0.03635358 0.1401704
vt 0.03159333 0.1480043
vt 0.0315393 0.1617614
vt 0.03576351 0.1621739
vt 0.03912677 0.1726726
vt 0.0370756 0.1785502
vt 0.03965599 0.1800568
vt 0.04565241 0.1792867
vt 0.9133894 0.2806132
vt 0.913408 0.2654935
vt 0.9133803 0.288529
vt 0.9220501 0.1983194
vt 0.9219937 0.24397
vt 0.921967 0.2655036
vt 0.9219383 0.2885391
vt 0.921967 0.2655036
vt 0.9219485 0.2806233
vt 0.6389472 0.1885247
vt 0.6428971 0.1811042
vt 0.6449368 0.187704
vt 0.6383557 0.1811454
vt 0.6363542 0.18704
vt 0.6306762 0.1702988
vt 0.6349037 0.1706756
vt 0.6353793 0.164373
vt 0.6306145 0.1565416
vt 0.6462049 0.1564714
vt 0.642822 0.1643397
vt 0.6462452 0.1653661
vt 0.6677365 0.1597633
vt 0.6677059 0.1529843
vt 0.6353085 0.1486678
vt 0.6305525 0.1427848
vt 0.6347541 0.1440743
vt 0.6381342 0.1318698
vt 0.6354781 0.1268439
vt 0.6376711 0.1248151
vt 0.6426754 0.13187
vt 0.6452727 0.1258644
vt 0.6461647 0.1475768
vt 0.6427511 0.1486341
vt 0.7132946 0.1472719
vt 0.7133195 0.152777
vt 0.9134344 0.2439599
vt 0.9134903 0.1983094
vt 0.913408 0.2654935
vt 0.9134904 0.1983094
vt 0.1565282 0.2399344
vt 0.1392514 0.2313892
vt 0.1565246 0.2313823
vt 0.1392551 0.2399428
vt 0.1392514 0.2313892
vt 0.1342574 0.2399451
vt 0.1342542 0.2313918
vt 0.1392551 0.2399428
vt 0.1164962 0.2313995
vt 0.1230473 0.2399507
vt 0.1164998 0.2399532
vt 0.1230435 0.2313969
vt 0.1342542 0.2313918
vt 0.1342574 0.2399451
vt 0.913298 0.3599428
vt 0.9218454 0.3630778
vt 0.9132946 0.3630674
vt 0.9218498 0.3599532
vt 0.9133173 0.3432597
vt 0.9218701 0.3432689
vt 0.9133336 0.3295016
vt 0.9218866 0.329512
vt 0.9219035 0.3157538
vt 0.9133493 0.3157436
vt 0.9219257 0.2980238
vt 0.9133702 0.2980136
vt 0.92193 0.2948972
vt 0.9133734 0.2948872
vt 0.9133803 0.288529
vt 0.9219383 0.2885391
vt 0.8965346 0.415227
vt 0.9051461 0.432471
vt 0.8965931 0.4324999
vt 0.9050881 0.4151981
vt 0.1636174 0.2313787
vt 0.1565282 0.2399344
vt 0.1565246 0.2313823
vt 0.1636226 0.2399306
vt 0.9051632 0.4374683
vt 0.8965931 0.4324999
vt 0.9051461 0.432471
vt 0.8966098 0.4374973
vt 0.8966368 0.4552118
vt 0.9052004 0.4486785
vt 0.9051894 0.455226
vt 0.8966442 0.4503689
vt 0.8966098 0.4374973
vt 0.9051632 0.4374683
vt 0.9050881 0.4151981
vt 0.8965105 0.4081335
vt 0.9050644 0.4081042
vt 0.8965346 0.415227
vt 0.9133803 0.288529
vt 0.921967 0.2655036
vt 0.9219383 0.2885391
vt 0.913408 0.2654935
vt 0.9220577 0.1928097
vt 0.9134903 0.1983094
vt 0.9134967 0.1927996
vt 0.9220501 0.1983194
vt 0.913408 0.2654935
vt 0.9220501 0.1983194
vt 0.921967 0.2655036
vt 0.9134903 0.1983094
vt 0.9218086 0.393476
vt 0.9132861 0.371401
vt 0.9218346 0.3714109
vt 0.9132611 0.3934666
vt 0.9132861 0.371401
vt 0.9218454 0.3630778
vt 0.9218346 0.3714109
vt 0.9132946 0.3630674
vt 0.9132611 0.3934666
vt 0.9217296 0.4605589
vt 0.9131835 0.4605482
vt 0.9218086 0.393476
vt 0.9131774 0.4660493
vt 0.9217296 0.4605589
vt 0.921723 0.4660589
vt 0.9131835 0.4605482
vt 0.9131243 0.5116224
vt 0.9216614 0.5184043
vt 0.9131165 0.5183949
vt 0.9216692 0.5116318
vt 0.9216692 0.5116318
vt 0.9131774 0.4660493
vt 0.921723 0.4660589
vt 0.9131243 0.5116224
vt 0.9220577 0.1928097
vt 0.9135534 0.1471435
vt 0.9221141 0.147155
vt 0.9134967 0.1927996
vn -3.991387E-07 0 1
vn -3.931812E-07 0 1
vn -3.988848E-07 0 1
vn -4.076096E-07 0 1
vn -5.160018E-07 0 1
vn -3.931813E-07 0 1
vn -4.72694E-07 0 1
vn -5.200739E-07 0 1
vn -4.086505E-07 0 1
vn -5.130141E-07 0 1
vn -3.988848E-07 0 1
vn -3.991388E-07 0 1
vn -4.726937E-07 0 1
vn -4.597203E-07 0 1
vn -4.420108E-07 0 1
vn -3.877459E-07 0 1
vn -3.898853E-07 0 1
vn -4.88011E-07 0 1
vn -4.565648E-07 0 1
vn -4.648221E-07 0 1
vn -4.086505E-07 0 1
vn -4.123267E-07 0 1
vn -4.526642E-07 0 1
vn -4.648226E-07 0 1
vn -3.731124E-07 0 1
vn -4.154574E-07 0 1
vn -3.659947E-07 0 1
vn -4.728369E-07 0 1
vn 3.912739E-07 0 -1
vn 4.141335E-07 0 -1
vn 3.87605E-07 0 -1
vn -3.988848E-07 0 1
vn -3.931812E-07 0 1
vn -5.160018E-07 0 1
vn -4.728369E-07 0 1
vn -5.160018E-07 0 1
vn -5.200739E-07 0 1
vn 4.175082E-07 0 -1
vn 3.912739E-07 0 -1
vn 3.87605E-07 0 -1
vn 4.189745E-07 0 -1
vn 3.527026E-07 0 -1
vn 4.688961E-07 0 -1
vn 4.705566E-07 0 -1
vn 4.718612E-07 0 -1
vn 4.68901E-07 0 -1
vn 4.063292E-07 0 -1
vn 4.170648E-07 0 -1
vn 4.141335E-07 0 -1
vn 3.931813E-07 0 -1
vn 3.931813E-07 0 -1
vn 4.697469E-07 0 -1
vn 4.529816E-07 0 -1
vn 4.530638E-07 0 -1
vn 3.93123E-07 0 -1
vn 0 0 -1
vn 3.780546E-07 0 -1
vn 4.375449E-07 0 -1
vn 4.346797E-07 0 -1
vn 4.163171E-07 0 -1
vn 4.170649E-07 0 -1
vn 3.988848E-07 0 -1
vn 3.991387E-07 0 -1
vn 3.931813E-07 0 -1
vn 3.988848E-07 0 -1
vn 4.141335E-07 0 -1
vn 3.991387E-07 0 -1
vn 1 0 2.992347E-07
vn 1 0 3.911275E-07
vn 1 0 0
vn 1 0 4.602415E-07
vn 0.004550693 0.9999896 0
vn 0.004550693 0.9999896 0
vn 0.004550693 0.9999896 0
vn 0.004550693 0.9999896 0
vn -0.9968181 -0.0797102 -4.58777E-07
vn -0.9931505 0.1168416 -4.57089E-07
vn -0.9968181 -0.0797102 -4.587771E-07
vn -0.9931505 0.1168416 -4.57089E-07
vn -0.9511017 0.308878 -4.377364E-07
vn -0.9511017 0.308878 -4.377365E-07
vn 0.8438172 0.5366306 0
vn 0.6758385 0.7370497 0
vn 0.6758391 0.7370492 3.110491E-07
vn 0.8438171 0.5366309 0
vn 0.9884564 0.1515063 3.879441E-07
vn 0.9884564 0.1515062 6.198092E-07
vn 1 0 1.136259E-06
vn 1 -2.861421E-07 1.380724E-06
vn 0.9870244 -0.1605701 9.910991E-07
vn 0.9870244 -0.1605702 7.816664E-07
vn 0.7747917 -0.6322168 0
vn 0.7747918 -0.6322164 0
vn 0.1951367 -0.9807761 0
vn 0.1951375 -0.980776 0
vn -0.1313368 -0.9913378 0
vn -0.1313369 -0.9913378 0
vn 1 0 2.992347E-07
vn 1 0 3.911275E-07
vn 1 0 4.602415E-07
vn 1 0 0
vn 1.256157E-05 -1 0
vn 1.256157E-05 -1 0
vn 1.256157E-05 -1 0
vn 1.256157E-05 -1 0
vn 0.004550257 -0.9999896 0
vn 0.004550259 -0.9999896 0
vn 0.004550256 -0.9999896 0
vn 0.00455026 -0.9999896 0
vn -0.9947712 0.1009089 -0.01573532
vn -0.9923869 -0.1223251 0.01430738
vn -0.9968181 0.07971019 0
vn -0.9984453 -0.05522953 0.007521972
vn -0.9558597 -0.2930508 0.02129554
vn -0.9511018 -0.3088773 0
vn 1.289213E-05 1 0
vn 1.289214E-05 1 0
vn 1.289213E-05 1 0
vn 1.289214E-05 1 0
vn -0.998018 -0.06292971 -5.288426E-07
vn -0.998018 -0.06292986 0
vn -0.998018 -0.06292966 -6.889939E-07
vn -0.998018 -0.06292992 0
vn -1 1.364158E-06 -8.780317E-07
vn -1 7.810107E-07 -5.026927E-07
vn -1 0 0
vn -1 2.145169E-06 -1.380724E-06
vn 0 -1 0
vn 0 -1 0
vn 0 -1 0
vn 0 -1 0
vn -0.9993322 0.03653592 -4.050387E-07
vn -0.9993322 0.03653597 -2.848626E-07
vn -0.9993322 0.03653599 0
vn -0.9993322 0.0365359 -4.599341E-07
vn -0.1412131 0.9899793 0
vn -0.1412131 0.9899793 0
vn -0.1412131 0.9899793 0
vn -0.1412131 0.9899793 0
vn 0 1 0
vn 0 1 0
vn 0 1 0
vn 0 1 0
vn -1 4.547192E-07 -2.926772E-07
vn -1 2.603369E-07 0
vn -1 0 0
vn -1 7.150561E-07 -4.602415E-07
vn -1 0 -4.027114E-07
vn -1 0 -4.027114E-07
vn -1 0 -4.027113E-07
vn -1 0 -4.027113E-07
vn 0 -1 0
vn 0 -1 0
vn 0 -1 0
vn 0 -1 0
vn 0 1 0
vn 0 1 0
vn 0 1 0
vn 0 1 0
g carbine_loader1_0
f 3/3/3 2/2/2 1/1/1
f 5/5/5 4/4/4 2/2/2
f 6/6/6 2/2/2 4/4/4
f 5/5/5 7/7/7 4/4/4
f 5/5/5 8/8/8 7/7/7
f 7/7/7 9/9/9 4/4/4
f 6/6/6 4/4/4 10/10/10
f 11/11/11 6/6/6 10/10/10
f 12/12/12 6/6/6 11/11/11
f 4/4/4 13/13/13 10/10/10
f 13/13/13 14/14/14 10/10/10
f 10/10/10 14/14/14 15/15/15
f 15/15/15 14/14/14 16/16/16
f 17/17/17 16/16/16 14/14/14
f 16/16/16 17/17/17 18/18/18
f 18/18/18 17/17/17 19/19/19
f 20/20/20 19/19/19 17/17/17
f 20/20/20 21/21/21 19/19/19
f 4/4/4 21/21/21 13/13/13
f 22/22/22 19/19/19 21/21/21
f 21/21/21 4/4/4 22/22/22
f 9/9/9 22/22/22 4/4/4
f 22/22/22 9/9/9 23/23/23
f 24/24/24 23/23/23 9/9/9
f 24/24/24 25/25/25 23/23/23
f 26/26/26 23/23/23 25/25/25
f 26/26/26 25/25/25 27/27/27
f 25/25/25 8/8/8 27/27/27
f 28/28/28 27/27/27 8/8/8
f 31/31/31 30/30/30 29/29/29
f 34/34/34 33/33/33 32/32/32
f 37/37/37 36/36/36 35/35/35
f 40/40/40 39/39/39 38/38/38
f 41/41/41 38/38/38 39/39/39
f 38/38/38 41/41/41 42/42/42
f 42/42/42 41/41/41 43/43/43
f 44/44/44 43/43/43 41/41/41
f 44/44/44 45/45/45 43/43/43
f 46/46/46 43/43/43 45/45/45
f 45/45/45 47/47/47 46/46/46
f 47/47/47 45/45/45 48/48/48
f 39/39/39 49/49/49 48/48/48
f 47/47/47 48/48/48 49/49/49
f 47/47/47 49/49/49 50/50/50
f 50/50/50 51/51/51 47/47/47
f 52/52/52 46/46/46 47/47/47
f 46/46/46 52/52/52 53/53/53
f 54/54/54 53/53/53 52/52/52
f 54/54/54 55/55/55 53/53/53
f 53/53/53 55/55/55 56/56/56
f 56/56/56 55/55/55 57/57/57
f 55/55/55 58/58/58 57/57/57
f 59/59/59 57/57/57 58/58/58
f 59/59/59 58/58/58 60/60/60
f 47/47/47 51/51/51 60/60/60
f 61/61/61 52/52/52 47/47/47
f 61/61/61 60/60/60 58/58/58
f 60/60/60 61/61/61 47/47/47
f 60/60/60 51/51/51 62/62/62
f 63/63/63 62/62/62 51/51/51
f 66/66/66 65/65/65 64/64/64
f 67/67/67 64/64/64 65/65/65
f 70/70/70 69/69/69 68/68/68
f 71/71/71 68/68/68 69/69/69
f 74/74/74 73/73/73 72/72/72
f 75/75/75 72/72/72 73/73/73
f 78/78/78 77/77/77 76/76/76
f 79/79/79 76/76/76 77/77/77
f 79/79/79 77/77/77 80/80/80
f 81/81/81 80/80/80 77/77/77
f 84/84/84 83/83/83 82/82/82
f 85/85/85 82/82/82 83/83/83
f 82/82/82 85/85/85 86/86/86
f 87/87/87 86/86/86 85/85/85
f 86/86/86 87/87/87 88/88/88
f 89/89/89 88/88/88 87/87/87
f 89/89/89 90/90/90 88/88/88
f 91/91/91 88/88/88 90/90/90
f 90/90/90 92/92/92 91/91/91
f 93/93/93 91/91/91 92/92/92
f 92/92/92 94/94/94 93/93/93
f 95/95/95 93/93/93 94/94/94
f 95/95/95 94/94/94 96/96/96
f 97/97/97 96/96/96 94/94/94
f 100/100/100 99/99/99 98/98/98
f 101/101/101 98/98/98 99/99/99
f 104/104/104 103/103/103 102/102/102
f 105/105/105 102/102/102 103/103/103
f 108/108/108 107/107/107 106/106/106
f 109/109/109 106/106/106 107/107/107
f 112/112/112 111/111/111 110/110/110
f 113/113/113 110/110/110 111/111/111
f 113/113/113 111/111/111 114/114/114
f 115/115/115 114/114/114 111/111/111
f 118/118/118 117/117/117 116/116/116
f 119/119/119 116/116/116 117/117/117
f 122/122/122 121/121/121 120/120/120
f 121/121/121 123/123/123 120/120/120
f 126/126/126 125/125/125 124/124/124
f 127/127/127 124/124/124 125/125/125
f 130/130/130 129/129/129 128/128/128
f 131/131/131 128/128/128 129/129/129
f 134/134/134 133/133/133 132/132/132
f 135/135/135 132/132/132 133/133/133
f 138/138/138 137/137/137 136/136/136
f 139/139/139 136/136/136 137/137/137
f 142/142/142 141/141/141 140/140/140
f 143/143/143 140/140/140 141/141/141
f 146/146/146 145/145/145 144/144/144
f 147/147/147 144/144/144 145/145/145
f 150/150/150 149/149/149 148/148/148
f 151/151/151 148/148/148 149/149/149
f 154/154/154 153/153/153 152/152/152
f 155/155/155 152/152/152 153/153/153
f 158/158/158 157/157/157 156/156/156
f 159/159/159 156/156/156 157/157/157
