g dibiao4_scene97
v -4.595246 2.687995 1.055996
v -4.211247 2.687995 -0.8640039
v -4.211247 2.687995 0.6719922
v -8.131284 2.687995 -0.898164
v -8.136729 2.687995 1.055996
v 8.136732 2.687995 -1.055996
v 8.136732 2.687995 1.055996
v 0.01275299 2.687995 1.055996
v -0.3712466 2.687995 -1.055996
v -0.3712466 2.687995 0.6719922
v -4.595246 1.919998 1.055996
v -8.136732 1.919998 0.48
v -8.136732 1.919998 1.055996
v -4.211247 1.919998 0.48
v -4.211247 1.919998 0.6719922
v 0.01275299 1.919998 1.055996
v -0.3712466 1.919998 0.48
v -0.3712466 1.919998 0.6719922
v 8.136732 1.919998 0.48
v 8.136732 1.919998 1.055996
v 0.3967532 3.455998 -0.2880078
v 0.2047531 3.455998 -0.8640039
v 0.2047531 3.455998 -0.2880078
v 0.3967532 3.455998 -0.8640039
v -4.979247 3.455998 -0.2880078
v -4.787248 3.455998 -0.8640039
v -4.979247 3.455998 -0.8640039
v -4.787247 3.455998 -0.2880078
v 0.5887533 3.839998 -0.48
v 0.3967532 3.839998 -0.8640039
v 0.3967532 3.839998 -0.48
v 0.5887533 3.839998 -0.9330078
v -5.171247 3.839998 -0.48
v -4.979247 3.839998 -0.8640039
v -5.171247 3.839998 -0.9330078
v -4.979247 3.839998 -0.48
v 8.136732 1.919998 1.055996
v 0.01275299 1.919998 1.055996
v 8.136732 2.687995 1.055996
v 0.01275299 2.687995 1.055996
v -8.136729 2.687995 1.055996
v -4.595246 2.687995 1.055996
v -4.595246 1.919998 1.055996
v -8.136732 1.919998 1.055996
v -4.211247 1.919998 0.6719922
v -4.211247 2.303997 0.48
v -4.211247 1.919998 0.48
v -4.211247 2.687995 0.6719922
v -4.211247 2.687995 0.48
v -4.211247 2.303997 -0.8640039
v -4.211247 2.687995 -0.8640039
v -0.3712466 2.303997 0.48
v -0.3712466 1.919998 0.6719922
v -0.3712466 1.919998 0.48
v -0.3712466 2.687995 0.6719922
v -0.3712466 2.687995 0.48
v -0.3712466 2.687995 -0.8640039
v -0.3712466 2.303997 -0.8640039
v 0.01275299 2.687995 1.055996
v 0.01275299 1.919998 1.055996
v -0.3712466 1.919998 0.6719922
v -0.3712466 2.687995 0.6719922
v -4.595246 2.687995 1.055996
v -4.211247 1.919998 0.6719922
v -4.595246 1.919998 1.055996
v -4.211247 2.687995 0.6719922
v -4.211247 2.327996 0.48
v -0.3712466 2.327996 0.48
v -0.3712466 2.303997 0.48
v -4.211247 2.303997 0.48
v 0.01275299 2.687995 -0.8640039
v 0.01275299 3.072 -0.09601562
v 0.01275299 3.072 -0.8640039
v 0.01275299 2.687995 0.09599609
v 0.01275299 3.072 0.09599609
v -4.595246 3.072 0.09599609
v -4.211247 2.687995 0.09599609
v -4.595246 2.687995 0.09599609
v -0.3712466 2.687995 0.09599609
v 0.01275299 3.072 0.09599609
v 0.01275299 2.687995 0.09599609
v -4.787248 3.455998 -0.09601562
v -4.595246 3.072 -0.09601562
v -4.787248 3.072 -0.09601562
v 0.2047531 3.455998 -0.09601562
v 0.01275299 3.072 -0.09601562
v 0.2047531 3.072 -0.09601562
v 0.01275299 3.072 0.09599609
v -4.595246 3.072 0.09599609
v -4.595246 3.072 -0.09601562
v 0.01275299 3.072 -0.09601562
v -0.3712466 2.687995 -0.8640039
v 0.01275299 2.687995 0.09599609
v 0.01275299 2.687995 -0.8640039
v -0.3712466 2.687995 0.09599609
v -4.211247 2.687995 -0.8640039
v -4.595246 2.687995 0.09599609
v -4.211247 2.687995 0.09599609
v -4.595246 2.687995 -0.8640039
v 0.2047531 3.455998 -0.09601562
v -4.787248 3.455998 -0.09601562
v -4.787247 3.455998 -0.2880078
v 0.2047531 3.455998 -0.2880078
v 0.2047531 3.072 -0.8640039
v 0.2047531 3.455998 -0.2880078
v 0.2047531 3.455998 -0.8640039
v 0.2047531 3.072 -0.09601562
v 0.2047531 3.455998 -0.09601562
v -4.211247 2.327996 0.2879883
v -0.3712466 2.327996 0.2879883
v -4.211247 2.327996 0.48
v -0.3712466 2.327996 0.48
v -4.595246 3.072 0.09599609
v -4.595246 2.687995 0.09599609
v -4.595246 3.072 -0.09601562
v -4.595246 2.687995 -0.8640039
v -4.595246 3.072 -0.8640039
v -4.787248 3.455998 -0.09601562
v -4.787248 3.072 -0.09601562
v -4.787247 3.455998 -0.2880078
v -4.787247 3.072 -0.8640039
v -4.787248 3.455998 -0.8640039
v -4.979247 3.839998 -0.2880078
v -4.787247 3.455998 -0.2880078
v -4.979247 3.455998 -0.2880078
v 0.2047531 3.455998 -0.2880078
v 0.3967532 3.839998 -0.2880078
v 0.3967532 3.455998 -0.2880078
v 0.7807534 4.607999 -0.6720117
v 0.7807534 4.223999 -0.9330078
v 0.7807534 4.223999 -0.6720117
v 0.7807534 4.607998 -0.9330078
v -5.363247 4.223999 -0.6720117
v -5.363247 4.223999 -0.9330078
v -5.363247 4.607998 -0.9330078
v -5.363247 4.607999 -0.6720117
v -5.171247 4.223999 -0.48
v -4.979247 3.839998 -0.48
v -5.171247 3.839998 -0.48
v 0.5887533 4.223999 -0.48
v 0.3967532 3.839998 -0.48
v 0.5887533 3.839998 -0.48
v -5.363247 4.607999 -0.6720117
v -5.171247 4.223999 -0.6720117
v -5.363247 4.223999 -0.6720117
v 0.5887533 4.223999 -0.6720117
v 0.7807534 4.607999 -0.6720117
v 0.7807534 4.223999 -0.6720117
v -5.171247 4.223999 -0.48
v -5.171247 3.839998 -0.48
v -5.171247 4.223999 -0.6720117
v -5.171247 3.839998 -0.9330078
v -5.171247 4.223999 -0.9330078
v 0.3967532 3.839998 -0.2880078
v -4.979247 3.839998 -0.2880078
v -4.979247 3.839998 -0.48
v 0.3967532 3.839998 -0.48
v 0.5887533 4.223999 -0.48
v -5.171247 4.223999 -0.48
v -5.171247 4.223999 -0.6720117
v 0.5887533 4.223999 -0.6720117
v 0.7807534 4.223999 -0.6720117
v 0.5887533 4.223999 -0.9330078
v 0.5887533 4.223999 -0.6720117
v 0.7807534 4.223999 -0.9330078
v -5.363247 4.223999 -0.6720117
v -5.171247 4.223999 -0.9330078
v -5.363247 4.223999 -0.9330078
v -5.171247 4.223999 -0.6720117
v -4.979247 3.839998 -0.2880078
v -4.979247 3.455998 -0.2880078
v -4.979247 3.839998 -0.48
v -4.979247 3.455998 -0.8640039
v -4.979247 3.839998 -0.8640039
v 0.3967532 3.455998 -0.8640039
v 0.3967532 3.839998 -0.48
v 0.3967532 3.839998 -0.8640039
v 0.3967532 3.455998 -0.2880078
v 0.3967532 3.839998 -0.2880078
v 0.5887533 3.839998 -0.9330078
v 0.5887533 4.223999 -0.6720117
v 0.5887533 4.223999 -0.9330078
v 0.5887533 3.839998 -0.48
v 0.5887533 4.223999 -0.48
v -5.363247 4.607998 -0.9330078
v 0.7807534 4.607998 -0.9330078
v -5.363247 4.607999 -0.6720117
v 0.7807534 4.607999 -0.6720117
v -4.211247 2.687995 0.2879883
v -0.3712466 2.687995 0.2879883
v -0.3712466 2.327996 0.2879883
v -4.211247 2.327996 0.2879883
v -0.3712466 2.687995 0.2879883
v -4.211247 2.687995 0.2879883
v -4.211247 2.687995 0.09599609
v -0.3712466 2.687995 0.09599609
v 0.2047531 3.072 -0.09601562
v 0.01275299 3.072 -0.8640039
v 0.01275299 3.072 -0.09601562
v 0.2047531 3.072 -0.8640039
v -4.787248 3.072 -0.09601562
v -4.595246 3.072 -0.8640039
v -4.787247 3.072 -0.8640039
v -4.595246 3.072 -0.09601562
v -0.3712466 2.303997 0.48
v -4.211247 1.919998 0.48
v -4.211247 2.303997 0.48
v -0.3712466 1.919998 0.48
v -1.832439 -1.152004 0.48
v -7.859245 -1.152004 0.48
v -8.136732 1.919998 0.48
v -1.832439 -3.37765 0.48
v -8.136732 -1.152004 0.48
v -7.859245 -3.364636 0.48
v -8.136732 -4.608 0.48
v -7.859245 -4.608 0.48
v 8.136732 -1.152004 0.48
v -0.3712466 1.919998 0.48
v 8.136732 1.919998 0.48
v -1.832439 -1.152004 0.48
v -1.832439 -3.37765 0.48
v 8.136732 -3.252504 0.48
vt 0.1413671 0.9989974
vt 0.1569561 0.9215568
vt 0.1569561 0.9835093
vt 0.001461471 0.9213611
vt 0.001065358 0.9989974
vt 0.4988786 0.876124
vt 0.4988786 0.9613087
vt 0.169073 0.9613087
vt 0.153484 0.876124
vt 0.153484 0.9458206
vt 0.1413671 0.9989974
vt 0.001065358 0.9757652
vt 0.001065358 0.9989974
vt 0.1569561 0.9757652
vt 0.1569561 0.9835093
vt 0.169073 0.9613087
vt 0.153484 0.9380765
vt 0.153484 0.9458206
vt 0.4988786 0.9380765
vt 0.4988786 0.9613087
vt 0.1981816 0.9428359
vt 0.1903871 0.9196037
vt 0.1903871 0.9428359
vt 0.1981816 0.9196037
vt 0.08936711 0.9257334
vt 0.09716165 0.902501
vt 0.08936711 0.902501
vt 0.09716165 0.9257334
vt 0.2059762 0.9428359
vt 0.1981816 0.9273477
vt 0.1981816 0.9428359
vt 0.2059762 0.9273477
vt 0.08157257 0.9257334
vt 0.08936711 0.9102452
vt 0.08157257 0.9102452
vt 0.08936711 0.9257334
vt 0.4971911 0.839061
vt 0.02351899 0.839061
vt 0.4971911 0.9012406
vt 0.02351899 0.9012406
vt 0.001096728 0.9989081
vt 0.281837 0.9989081
vt 0.281837 0.9367285
vt 0.001096728 0.9367285
vt 0.436676 0.8756326
vt 0.4678694 0.8600877
vt 0.436676 0.8600877
vt 0.4990627 0.8756326
vt 0.4990627 0.8600877
vt 0.4678694 0.7512735
vt 0.4990627 0.7512735
vt 0.3430959 0.8600877
vt 0.3119025 0.8756326
vt 0.3119025 0.8600877
vt 0.3742892 0.8756326
vt 0.3742892 0.8600877
vt 0.3742892 0.7512735
vt 0.3430959 0.7512735
vt 0.02351899 0.9012406
vt 0.02351899 0.839061
vt 0.001129713 0.839061
vt 0.001129713 0.9012406
vt 0.281837 0.9989081
vt 0.3130303 0.9367285
vt 0.281837 0.9367285
vt 0.3130303 0.9989081
vt 0.07396426 0.4678046
vt 0.3843903 0.4678046
vt 0.3843903 0.4658899
vt 0.07396426 0.4658899
vt 0.2165994 0.4525697
vt 0.2476419 0.4870328
vt 0.2476419 0.4525697
vt 0.2165994 0.4956487
vt 0.2476419 0.4956487
vt 0.04292165 0.4965239
vt 0.07396426 0.4658899
vt 0.04292165 0.4658899
vt 0.3843903 0.4658899
vt 0.4154329 0.4965239
vt 0.4154329 0.4658899
vt 0.07616749 0.4972512
vt 0.09168878 0.4666172
vt 0.07616749 0.4666172
vt 0.4797214 0.4972512
vt 0.4642 0.4666172
vt 0.4797214 0.4666172
vt 0.465654 0.490803
vt 0.09314278 0.490803
vt 0.09314278 0.475486
vt 0.465654 0.475486
vt 0.3425862 0.4387181
vt 0.3736289 0.4578643
vt 0.3736289 0.4387181
vt 0.3425862 0.4578643
vt 0.03216027 0.4387181
vt 0.001117671 0.4578643
vt 0.03216027 0.4578643
vt 0.001117671 0.4387181
vt 0.4811753 0.490803
vt 0.07762147 0.490803
vt 0.07762147 0.475486
vt 0.4811753 0.475486
vt 0.2165994 0.4602281
vt 0.2476419 0.4860755
vt 0.2476419 0.4602281
vt 0.2165994 0.4946913
vt 0.2476419 0.4946913
vt 0.001132332 0.4760142
vt 0.3115583 0.4760142
vt 0.001132332 0.4913312
vt 0.3115583 0.4913312
vt 0.03209452 0.4989742
vt 0.001051919 0.4989742
vt 0.03209452 0.4894011
vt 0.001051919 0.4515873
vt 0.03209452 0.4515873
vt 0.2476419 0.4956487
vt 0.2165994 0.4956487
vt 0.2476419 0.4860755
vt 0.2165994 0.4568776
vt 0.2476419 0.4568776
vt 0.06064618 0.4972512
vt 0.07616749 0.4666172
vt 0.06064618 0.4666172
vt 0.4797214 0.4666172
vt 0.4952427 0.4972512
vt 0.4952427 0.4666172
vt 0.4963141 0.4745499
vt 0.4652715 0.4592329
vt 0.4652715 0.4745499
vt 0.4963141 0.4592329
vt 0.4652715 0.4745499
vt 0.4652715 0.4592329
vt 0.4963141 0.4592329
vt 0.4963141 0.4745499
vt 0.01776939 0.4971518
vt 0.03329071 0.4665178
vt 0.01776939 0.4665178
vt 0.4834085 0.4971518
vt 0.4678872 0.4665178
vt 0.4834085 0.4665178
vt 0.002248102 0.4971518
vt 0.01776939 0.4665178
vt 0.002248102 0.4665178
vt 0.4834085 0.4665178
vt 0.4989298 0.4971518
vt 0.4989298 0.4665178
vt 0.4963141 0.4573183
vt 0.4652715 0.4573183
vt 0.4963141 0.4482238
vt 0.4652715 0.4391294
vt 0.4963141 0.4391294
vt 0.4966966 0.490803
vt 0.06210017 0.490803
vt 0.06210017 0.475486
vt 0.4966966 0.475486
vt 0.4842472 0.4910429
vt 0.01860816 0.4910429
vt 0.01860816 0.4757259
vt 0.4842472 0.4757259
vt 0.4880593 0.4507783
vt 0.472538 0.446949
vt 0.472538 0.4507783
vt 0.4880593 0.446949
vt 0.09531993 0.4503418
vt 0.1108412 0.4465126
vt 0.09531993 0.4465126
vt 0.1108412 0.4503418
vt 0.2476419 0.4946913
vt 0.2165994 0.4946913
vt 0.2476419 0.4875115
vt 0.2165994 0.4726731
vt 0.2476419 0.4726731
vt 0.2165994 0.4736305
vt 0.2476419 0.4879902
vt 0.2476419 0.4736305
vt 0.2165994 0.4946913
vt 0.2476419 0.4946913
vt 0.4652715 0.4424799
vt 0.4963141 0.4491811
vt 0.4963141 0.4424799
vt 0.4652715 0.456361
vt 0.4963141 0.456361
vt 0.001186976 0.4757259
vt 0.4967674 0.4757259
vt 0.001186976 0.4910429
vt 0.4967674 0.4910429
vt 0.07396426 0.4965239
vt 0.3843903 0.4965239
vt 0.3843903 0.4678046
vt 0.07396426 0.4678046
vt 0.4346114 0.490803
vt 0.1241854 0.490803
vt 0.1241854 0.475486
vt 0.4346114 0.475486
vt 0.3889884 0.6979649
vt 0.3811995 0.6668094
vt 0.3811995 0.6979649
vt 0.3889884 0.6668094
vt 0.1864778 0.6979649
vt 0.1942666 0.6668094
vt 0.1864778 0.6668094
vt 0.1942666 0.6979649
vt 0.312549 0.7813981
vt 0.1567716 0.7658203
vt 0.1567716 0.7813981
vt 0.312549 0.7658203
vt 0.2532728 0.6411983
vt 0.008783056 0.6411983
vt 0.0009941861 0.7658203
vt 0.2532728 0.5509104
vt 0.0009941861 0.6411983
vt 0.008785255 0.5514689
vt 0.0009941861 0.5009988
vt 0.008783056 0.5009988
vt 0.4989764 0.8743864
vt 0.153833 0.9990083
vt 0.4989764 0.9990083
vt 0.09455682 0.8743864
vt 0.09455682 0.7840982
vt 0.4989764 0.7891752
vn 0 1 0
vn 0 1 0
vn 0 1 0
vn 0 1 0
vn 0 1 0
vn 0 1 0
vn 0 1 0
vn 0 1 0
vn 0 1 0
vn 0 1 0
vn 0 -1 0
vn 0 -1 0
vn 0 -1 0
vn 0 -1 0
vn 0 -1 0
vn 0 -1 0
vn 0 -1 0
vn 0 -1 0
vn 0 -1 0
vn 0 -1 0
vn 0 -1 0
vn 0 -1 0
vn 0 -1 0
vn 0 -1 0
vn 0 -1 0
vn 0 -1 0
vn 0 -1 0
vn 0 -1 0
vn 0 -1 0
vn 0 -1 0
vn 0 -1 0
vn 0 -1 0
vn 0 -1 0
vn 0 -1 0
vn 0 -1 0
vn 0 -1 0
vn 0 0 1
vn 0 0 1
vn 0 0 1
vn 0 0 1
vn 0 0 1
vn 0 0 1
vn 0 0 1
vn 0 0 1
vn 0.9238808 0 0.3826806
vn 1 0 0
vn 1 0 0
vn 0.9238808 0 0.3826806
vn 1 0 0
vn 1 0 0
vn 1 0 0
vn -1 0 0
vn -0.9238806 0 0.3826809
vn -1 0 0
vn -0.9238806 0 0.3826809
vn -1 0 0
vn -1 0 0
vn -1 0 0
vn -0.7071107 0 0.7071028
vn -0.7071107 0 0.7071028
vn -0.9238806 0 0.3826809
vn -0.9238806 0 0.3826809
vn 0.7071112 0 0.7071022
vn 0.9238808 0 0.3826806
vn 0.7071112 0 0.7071022
vn 0.9238808 0 0.3826806
vn 0 0 1
vn 0 0 1
vn 0 0 1
vn 0 0 1
vn 1 0 0
vn 1 0 0
vn 1 0 0
vn 1 0 0
vn 1 0 0
vn 0 0 1
vn 0 0 1
vn 0 0 1
vn 0 0 1
vn 0 0 1
vn 0 0 1
vn 0 0 1
vn 0 0 1
vn 0 0 1
vn 0 0 1
vn 0 0 1
vn 0 0 1
vn 0 1 0
vn 0 1 0
vn 0 1 0
vn 0 1 0
vn 0 -1 0
vn 0 -1 0
vn 0 -1 0
vn 0 -1 0
vn 0 -1 0
vn 0 -1 0
vn 0 -1 0
vn 0 -1 0
vn 0 1 0
vn 0 1 0
vn 0 1 0
vn 0 1 0
vn 1 0 0
vn 1 0 0
vn 1 0 0
vn 1 0 0
vn 1 0 0
vn 0 1 0
vn 0 1 0
vn 0 1 0
vn 0 1 0
vn -1 0 0
vn -1 0 0
vn -1 0 0
vn -1 0 0
vn -1 0 0
vn -1 0 -3.179044E-06
vn -1 8.402469E-07 -1.498486E-06
vn -1 2.513632E-07 -1.287939E-06
vn -1 -5.482224E-07 3.654831E-07
vn -1 -1.589461E-06 1.059645E-06
vn 0 0 1
vn 0 0 1
vn 0 0 1
vn 0 0 1
vn 0 0 1
vn 0 0 1
vn 1 0 0
vn 1 0 0
vn 1 0 0
vn 1 0 0
vn -1 0 0
vn -1 0 0
vn -1 0 0
vn -1 0 0
vn 0 0 1
vn 0 0 1
vn 0 0 1
vn 0 0 1
vn 0 0 1
vn 0 0 1
vn 0 0 1
vn 0 0 1
vn 0 0 1
vn 0 0 1
vn 0 0 1
vn 0 0 1
vn -1 0 0
vn -1 0 0
vn -1 0 0
vn -1 0 0
vn -1 0 0
vn 0 1 0
vn 0 1 0
vn 0 1 0
vn 0 1 0
vn 0 1 0
vn 0 1 0
vn 0 1 0
vn 0 1 0
vn 0 -1 0
vn 0 -1 0
vn 0 -1 0
vn 0 -1 0
vn 0 -1 0
vn 0 -1 0
vn 0 -1 0
vn 0 -1 0
vn -1 0 0
vn -1 0 0
vn -1 0 0
vn -1 0 0
vn -1 0 0
vn 1 0 0
vn 1 0 0
vn 1 0 0
vn 1 0 0
vn 1 0 0
vn 1 0 0
vn 1 0 0
vn 1 0 0
vn 1 0 0
vn 1 0 0
vn 0 1 -4.677093E-06
vn 0 1 -4.677093E-06
vn 0 1 -4.677093E-06
vn 0 1 -4.677093E-06
vn 0 0 1
vn 0 0 1
vn 0 0 1
vn 0 0 1
vn 0 1 0
vn 0 1 0
vn 0 1 0
vn 0 1 0
vn 0 -1 0
vn 0 -1 0
vn 0 -1 0
vn 0 -1 0
vn 0 -1 0
vn 0 -1 0
vn 0 -1 0
vn 0 -1 0
vn 0 0 1
vn 0 0 1
vn 0 0 1
vn 0 0 1
vn 0 0 1
vn 0 0 1
vn 0 0 1
vn 0 0 1
vn 0 0 1
vn 0 0 1
vn 0 0 1
vn 0 0 1
vn 0 0 1
vn 0 0 1
vn 0 0 1
vn 0 0 1
vn 0 0 1
vn 0 0 1
g dibiao4_scene97_0
f 3/3/3 2/2/2 1/1/1
f 4/4/4 1/1/1 2/2/2
f 5/5/5 1/1/1 4/4/4
f 8/8/8 7/7/7 6/6/6
f 6/6/6 9/9/9 8/8/8
f 10/10/10 8/8/8 9/9/9
f 13/13/13 12/12/12 11/11/11
f 12/12/12 14/14/14 11/11/11
f 15/15/15 11/11/11 14/14/14
f 18/18/18 17/17/17 16/16/16
f 17/17/17 19/19/19 16/16/16
f 20/20/20 16/16/16 19/19/19
f 23/23/23 22/22/22 21/21/21
f 24/24/24 21/21/21 22/22/22
f 27/27/27 26/26/26 25/25/25
f 28/28/28 25/25/25 26/26/26
f 31/31/31 30/30/30 29/29/29
f 32/32/32 29/29/29 30/30/30
f 35/35/35 34/34/34 33/33/33
f 36/36/36 33/33/33 34/34/34
g dibiao4_scene97_1
f 39/39/39 38/38/38 37/37/37
f 40/40/40 38/38/38 39/39/39
f 43/43/43 42/42/42 41/41/41
f 41/41/41 44/44/44 43/43/43
f 47/47/47 46/46/46 45/45/45
f 45/45/45 46/46/46 48/48/48
f 49/49/49 48/48/48 46/46/46
f 46/46/46 50/50/50 49/49/49
f 51/51/51 49/49/49 50/50/50
f 54/54/54 53/53/53 52/52/52
f 55/55/55 52/52/52 53/53/53
f 56/56/56 52/52/52 55/55/55
f 56/56/56 57/57/57 52/52/52
f 58/58/58 52/52/52 57/57/57
f 61/61/61 60/60/60 59/59/59
f 62/62/62 61/61/61 59/59/59
f 65/65/65 64/64/64 63/63/63
f 66/66/66 63/63/63 64/64/64
f 69/69/69 68/68/68 67/67/67
f 67/67/67 70/70/70 69/69/69
f 73/73/73 72/72/72 71/71/71
f 74/74/74 71/71/71 72/72/72
f 75/75/75 74/74/74 72/72/72
f 78/78/78 77/77/77 76/76/76
f 77/77/77 79/79/79 76/76/76
f 80/80/80 76/76/76 79/79/79
f 79/79/79 81/81/81 80/80/80
f 84/84/84 83/83/83 82/82/82
f 82/82/82 83/83/83 85/85/85
f 86/86/86 85/85/85 83/83/83
f 86/86/86 87/87/87 85/85/85
f 90/90/90 89/89/89 88/88/88
f 88/88/88 91/91/91 90/90/90
f 94/94/94 93/93/93 92/92/92
f 95/95/95 92/92/92 93/93/93
f 98/98/98 97/97/97 96/96/96
f 99/99/99 96/96/96 97/97/97
f 102/102/102 101/101/101 100/100/100
f 100/100/100 103/103/103 102/102/102
f 106/106/106 105/105/105 104/104/104
f 107/107/107 104/104/104 105/105/105
f 108/108/108 107/107/107 105/105/105
f 111/111/111 110/110/110 109/109/109
f 112/112/112 110/110/110 111/111/111
f 115/115/115 114/114/114 113/113/113
f 114/114/114 115/115/115 116/116/116
f 117/117/117 116/116/116 115/115/115
f 120/120/120 119/119/119 118/118/118
f 119/119/119 120/120/120 121/121/121
f 122/122/122 121/121/121 120/120/120
f 125/125/125 124/124/124 123/123/123
f 124/124/124 126/126/126 123/123/123
f 127/127/127 123/123/123 126/126/126
f 126/126/126 128/128/128 127/127/127
f 131/131/131 130/130/130 129/129/129
f 132/132/132 129/129/129 130/130/130
f 135/135/135 134/134/134 133/133/133
f 135/135/135 133/133/133 136/136/136
f 139/139/139 138/138/138 137/137/137
f 137/137/137 138/138/138 140/140/140
f 141/141/141 140/140/140 138/138/138
f 141/141/141 142/142/142 140/140/140
f 145/145/145 144/144/144 143/143/143
f 144/144/144 146/146/146 143/143/143
f 147/147/147 143/143/143 146/146/146
f 146/146/146 148/148/148 147/147/147
f 151/151/151 150/150/150 149/149/149
f 150/150/150 151/151/151 152/152/152
f 153/153/153 152/152/152 151/151/151
f 156/156/156 155/155/155 154/154/154
f 154/154/154 157/157/157 156/156/156
f 160/160/160 159/159/159 158/158/158
f 158/158/158 161/161/161 160/160/160
f 164/164/164 163/163/163 162/162/162
f 165/165/165 162/162/162 163/163/163
f 168/168/168 167/167/167 166/166/166
f 169/169/169 166/166/166 167/167/167
f 172/172/172 171/171/171 170/170/170
f 171/171/171 172/172/172 173/173/173
f 174/174/174 173/173/173 172/172/172
f 177/177/177 176/176/176 175/175/175
f 178/178/178 175/175/175 176/176/176
f 179/179/179 178/178/178 176/176/176
f 182/182/182 181/181/181 180/180/180
f 183/183/183 180/180/180 181/181/181
f 184/184/184 183/183/183 181/181/181
f 187/187/187 186/186/186 185/185/185
f 188/188/188 186/186/186 187/187/187
f 191/191/191 190/190/190 189/189/189
f 189/189/189 192/192/192 191/191/191
f 195/195/195 194/194/194 193/193/193
f 193/193/193 196/196/196 195/195/195
g dibiao4_scene97_2
f 199/199/199 198/198/198 197/197/197
f 200/200/200 197/197/197 198/198/198
f 203/203/203 202/202/202 201/201/201
f 204/204/204 201/201/201 202/202/202
f 207/207/207 206/206/206 205/205/205
f 205/205/205 206/206/206 208/208/208
f 208/208/208 206/206/206 209/209/209
f 210/210/210 209/209/209 206/206/206
f 211/211/211 210/210/210 206/206/206
f 209/209/209 210/210/210 212/212/212
f 210/210/210 211/211/211 213/213/213
f 214/214/214 212/212/212 210/210/210
f 213/213/213 214/214/214 210/210/210
f 214/214/214 213/213/213 215/215/215
f 216/216/216 214/214/214 215/215/215
f 219/219/219 218/218/218 217/217/217
f 220/220/220 217/217/217 218/218/218
f 220/220/220 221/221/221 217/217/217
f 222/222/222 217/217/217 221/221/221
