g dibiao3_scene97
v -0.143999 11.97273 0.1173013
v -0.143999 8.13273 0.1173013
v -0.1919995 8.13273 0.1173013
v -0.1919995 11.97273 0.1173013
v -0.143999 11.97273 0.1173013
v -0.143999 8.13273 -0.1173013
v -0.143999 8.13273 0.1173013
v -0.143999 11.97273 -0.1173013
v -12.144 -4.827271 0.1173013
v -12.53976 -7.899271 0.1370212
v -12.53976 -4.827271 0.1370212
v -12.144 -7.899271 0.1173013
v -0.1919995 11.97273 0.1173013
v -0.1919995 8.13273 0.1173013
v -0.5759973 11.97273 0.1173013
v -0.5759973 8.13273 0.1173013
v -6.335999 10.24473 0.1173013
v -6.335997 12.93273 0.1173013
v -0.5759973 13.31673 -0.05685882
v -6.335999 13.31673 0.07185211
v -6.335999 5.636726 0.1173013
v -0.5759985 1.41273 0.1173013
v -6.72 9.092727 0.1173013
v -6.72 5.636726 0.1173013
v -7.103999 1.796728 0.1173013
v -8.255999 5.636726 0.1173013
v -8.255999 1.796728 0.1173013
v -0.5759985 0.4527295 0.1173013
v -7.103999 1.796728 0.1173013
v -0.5759985 1.41273 0.1173013
v -7.103999 0.4527295 0.1173013
v -7.103999 -3.771271 0.1173013
v -0.5759973 -6.267272 0.1173013
v -7.295999 -3.96327 0.1173013
v -5.037888 -6.459271 0.1173013
v 4.316589 -10.87527 0.1173013
v -0.383999 -6.459271 0.1173013
v 4.316589 -6.459271 0.1173013
v -4.8 -10.87527 0.1173013
v -0.5759985 -6.459271 0.1173013
v -0.5759973 -6.267272 0.1173013
v -5.037888 -6.459271 0.1173013
v 4.316589 -6.459271 0.1173013
v 7.103999 -10.87527 0.1173013
v 4.316589 -10.87527 0.1173013
v 9.792002 -6.65127 0.1173013
v 9.792002 -6.459271 0.1173013
v 9.792002 -10.87527 0.1173013
v 12.096 -6.65127 0.1173013
v 12.48 -6.459272 0.1173013
v 12.096 -6.843271 0.1173013
v 12.096 -10.87527 0.1173013
v 12.288 -6.65127 0.1173013
v 12.48 -6.65127 0.1173013
v -8.45979 -12.38622 0.1173013
v -4.8 -10.87527 0.1173013
v -7.241455 -13.31672 0.1173013
v -5.037888 -6.459271 0.1173013
v -12.144 -7.899271 0.1173013
v -12.144 -10.80967 0.1173013
v -7.295999 -3.96327 0.1173013
v -12.144 -4.827271 0.1173013
v -12.144 -3.96327 0.1173013
v -12.53976 -4.827271 -0.04707367
v -12.53976 -7.899271 0.1370212
v -12.53976 -7.899271 -0.04707367
v -12.53976 -4.827271 0.1370212
vt 0.01926834 0.4729928
vt 0.3083009 0.4729928
vt 0.3083009 0.4663985
vt 0.01926834 0.4663985
vt 0.002985016 0.4978914
vt 0.2908638 0.4657653
vt 0.2920176 0.4978914
vt 0.002985016 0.46566
vt 0.5892138 0.2490375
vt 0.5619613 0.001023188
vt 0.5619613 0.2490375
vt 0.5892138 0.001023188
vt 0.3281459 0.9293917
vt 0.3281459 0.7736282
vt 0.3125696 0.9293917
vt 0.3125696 0.7736282
vt 0.07892433 0.8592981
vt 0.07892433 0.9683325
vt 0.3125696 0.9839088
vt 0.07892433 0.9839088
vt 0.07892433 0.6723819
vt 0.3125696 0.5010421
vt 0.063348 0.8125691
vt 0.063348 0.6723819
vt 0.04777165 0.5166184
vt 0.001042603 0.6723819
vt 0.001042603 0.5166184
vt 0.4989939 0.9444653
vt 0.2341961 0.9989826
vt 0.4989939 0.9834062
vt 0.2341961 0.9444653
vt 0.2341961 0.7731255
vt 0.4989939 0.6718793
vt 0.2264079 0.7653374
vt 0.3179189 0.6640911
vt 0.4560921 0.6004315
vt 0.2652818 0.7795595
vt 0.4560921 0.7795595
vt 0.08615384 0.6004315
vt 0.2574937 0.7795595
vt 0.2574937 0.7873477
vt 0.07641861 0.7795595
vt 0.1188722 0.8274083
vt 0.2318007 0.6482802
vt 0.1188722 0.6482802
vt 0.3408351 0.8196201
vt 0.3408351 0.8274083
vt 0.3408351 0.6482802
vt 0.4342932 0.8196201
vt 0.4498694 0.8274083
vt 0.4342932 0.811832
vt 0.4342932 0.6482802
vt 0.4420813 0.8196201
vt 0.4498694 0.8196201
vt 0.2726331 0.5732773
vt 0.4210952 0.6346092
vt 0.3220394 0.5355534
vt 0.41136 0.8137372
vt 0.1231976 0.7553259
vt 0.1231976 0.6370429
vt 0.3198489 0.9149835
vt 0.1231976 0.8799367
vt 0.1231976 0.9149835
vt 0.07081939 0.5463687
vt 0.07081939 0.5154635
vt 0.07081939 0.5154635
vt 0.07081939 0.5463687
vn 0 0 1
vn 0 0 1
vn 0 0 1
vn 0 0 1
vn 1 0 0
vn 1 0 0
vn 1 0 0
vn 1 0 0
vn 0.01659323 0 0.9998623
vn 0.04976585 0 0.9987609
vn 0.04976599 0 0.9987609
vn 0.01659318 0 0.9998623
vn 0 0 1
vn 0 0 1
vn 0.00640315 0.038419 0.9992412
vn 0 0 1
vn 0 0 1
vn 0.01222013 0.06584861 0.9977548
vn 0.0214463 0.1280113 0.9915408
vn 0.0221853 0.1175084 0.9928241
vn 0 0 1
vn 0 0 1
vn 0 0 1
vn 0 0 1
vn 0 0 1
vn 0 0 1
vn 0 0 1
vn 0 0 1
vn 0 0 1
vn 0 0 1
vn 0 0 1
vn 0 0 1
vn 0 0 1
vn 0 0 1
vn 0 0 1
vn 0 0 1
vn 0 0 1
vn 0 0 1
vn 0 0 1
vn 0 0 1
vn 0 0 1
vn 0 0 1
vn 0 0 1
vn 0 0 1
vn 0 0 1
vn 0 0 1
vn 0 0 1
vn 0 0 1
vn 0 0 1
vn 0 0 1
vn 0 0 1
vn 0 0 1
vn 0 0 1
vn 0 0 1
vn 0 0 1
vn 0 0 1
vn 0 0 1
vn 0 0 1
vn 0.01659318 0 0.9998623
vn 0 0 1
vn 0 0 1
vn 0.01659323 0 0.9998623
vn 0 0 1
vn -1 3.973642E-07 0
vn -1 3.973642E-07 0
vn -1 3.973642E-07 0
vn -1 3.973642E-07 0
g dibiao3_scene97_0
f 3/3/3 2/2/2 1/1/1
f 4/4/4 3/3/3 1/1/1
f 7/7/7 6/6/6 5/5/5
f 8/8/8 5/5/5 6/6/6
f 11/11/11 10/10/10 9/9/9
f 12/12/12 9/9/9 10/10/10
g dibiao3_scene97_1
f 15/15/15 14/14/14 13/13/13
f 14/14/14 15/15/15 16/16/16
f 16/16/16 15/15/15 17/17/17
f 18/18/18 17/17/17 15/15/15
f 19/19/19 18/18/18 15/15/15
f 20/20/20 18/18/18 19/19/19
f 17/17/17 21/21/21 16/16/16
f 22/22/22 16/16/16 21/21/21
f 23/23/23 21/21/21 17/17/17
f 24/24/24 21/21/21 23/23/23
f 22/22/22 21/21/21 25/25/25
f 24/24/24 25/25/25 21/21/21
f 24/24/24 26/26/26 25/25/25
f 27/27/27 25/25/25 26/26/26
f 30/30/30 29/29/29 28/28/28
f 31/31/31 28/28/28 29/29/29
f 31/31/31 32/32/32 28/28/28
f 33/33/33 28/28/28 32/32/32
f 32/32/32 34/34/34 33/33/33
f 35/35/35 33/33/33 34/34/34
f 38/38/38 37/37/37 36/36/36
f 36/36/36 37/37/37 39/39/39
f 40/40/40 39/39/39 37/37/37
f 37/37/37 41/41/41 40/40/40
f 42/42/42 39/39/39 40/40/40
f 40/40/40 41/41/41 42/42/42
f 45/45/45 44/44/44 43/43/43
f 43/43/43 44/44/44 46/46/46
f 47/47/47 43/43/43 46/46/46
f 48/48/48 46/46/46 44/44/44
f 46/46/46 49/49/49 47/47/47
f 50/50/50 47/47/47 49/49/49
f 48/48/48 51/51/51 46/46/46
f 49/49/49 46/46/46 51/51/51
f 48/48/48 52/52/52 51/51/51
f 53/53/53 49/49/49 51/51/51
f 50/50/50 49/49/49 53/53/53
f 53/53/53 54/54/54 50/50/50
f 57/57/57 56/56/56 55/55/55
f 58/58/58 55/55/55 56/56/56
f 58/58/58 59/59/59 55/55/55
f 60/60/60 55/55/55 59/59/59
f 61/61/61 59/59/59 58/58/58
f 62/62/62 59/59/59 61/61/61
f 63/63/63 62/62/62 61/61/61
f 66/66/66 65/65/65 64/64/64
f 67/67/67 64/64/64 65/65/65
