g hmg_loader
v -0.5276722 0.02212432 -0.0197632
v -0.5276722 -0.004760018 0.01604855
v -0.5276722 -0.004760018 -0.0197632
v -0.5276722 0.02212432 0.01604855
v 0.01864758 0.02212423 -0.01976311
v -0.5276722 -0.004760018 -0.0197632
v 0.01864758 -0.004760107 -0.01976311
v -0.5276722 0.02212432 -0.0197632
v 0.01864758 -0.004760107 -0.01976311
v 0.01864758 0.02212423 0.01604864
v 0.01864758 0.02212423 -0.01976311
v 0.01864757 -0.004760107 0.01604864
v 0.01864758 0.02212423 -0.01976311
v -0.5276722 0.02212432 0.01604855
v -0.5276722 0.02212432 -0.0197632
v 0.01864758 0.02212423 0.01604864
v -0.5276722 0.02212432 0.01604855
v 0.01864757 -0.004760107 0.01604864
v -0.5276722 -0.004760018 0.01604855
v 0.01864758 0.02212423 0.01604864
v -0.01980843 -0.03433007 0.020591
v 0.0001216942 0.1125886 0.0298406
v 0.0001216703 -0.03433007 0.0298406
v -0.01980841 0.1125886 0.020591
v -0.02905802 -0.03433006 0.0006608972
v -0.029058 0.1125886 0.0006608972
v -0.01980842 -0.03433007 -0.0192692
v -0.0198084 0.1125886 -0.0192692
v 0.0001216798 -0.03433007 -0.02851879
v 0.0001217037 0.1125886 -0.02851879
v 0.02005178 -0.03433007 -0.0192692
v 0.0200518 0.1125886 -0.0192692
v 0.02930137 -0.03433007 0.0006609068
v 0.02930139 0.1125886 0.0006609068
v 0.02005177 -0.03433007 0.02059101
v 0.0200518 0.1125886 0.02059101
v 0.0001216703 -0.03433007 0.0298406
v 0.0001216942 0.1125886 0.0298406
v 0.0001216942 0.1125886 0.0298406
v 0.01726632 0.1125886 0.01780553
v 0.0200518 0.1125886 0.02059101
v 0.0001216949 0.1125886 0.02576238
v -0.01980841 0.1125886 0.020591
v 0.02522317 0.1125886 0.0006609061
v 0.02930139 0.1125886 0.0006609068
v -0.01702293 0.1125886 0.01780553
v -0.029058 0.1125886 0.0006608972
v 0.01726633 0.1125886 -0.01648372
v 0.0200518 0.1125886 -0.0192692
v -0.02497978 0.1125886 0.0006608979
v -0.0198084 0.1125886 -0.0192692
v 0.0001217031 0.1125886 -0.02444057
v 0.0001217037 0.1125886 -0.02851879
v -0.01702292 0.1125886 -0.01648373
v 0.01448084 0.06941289 0.01502005
v 0.02114495 0.06941289 0.0006609054
v 0.0001216919 0.06941289 0.000660902
v 0.0001216885 0.06941289 0.02168415
v 0.01448084 0.06941289 -0.01369824
v -0.01423746 0.06941289 0.01502005
v 0.0001216953 0.06941289 -0.02036235
v -0.02090156 0.0694129 0.0006608986
v -0.01423746 0.06941289 -0.01369825
vt 0.6401241 0.1234595
vt 0.6538502 0.1419377
vt 0.6531321 0.113818
vt 0.6396068 0.1329066
vt 0.4803708 0.1236873
vt 0.6531321 0.113818
vt 0.4661275 0.1146557
vt 0.6401241 0.1234595
vt 0.4661275 0.1146557
vt 0.4798535 0.1331341
vt 0.4803708 0.1236873
vt 0.4668456 0.1427753
vt 0.4803708 0.1236873
vt 0.6396068 0.1329066
vt 0.6401241 0.1234595
vt 0.4798535 0.1331341
vt 0.6396068 0.1329066
vt 0.4668456 0.1427753
vt 0.6538502 0.1419377
vt 0.4798535 0.1331341
vt 0.9437661 0.9505792
vt 0.950823 0.9978553
vt 0.9510514 0.9506143
vt 0.9435378 0.9978201
vt 0.9364811 0.9505439
vt 0.9362525 0.9977849
vt 0.9291959 0.9505087
vt 0.9289674 0.9977497
vt 0.9219107 0.9504737
vt 0.9216822 0.9977143
vt 0.9146256 0.9504384
vt 0.9143971 0.9976791
vt 0.9073403 0.9504032
vt 0.9071119 0.9976439
vt 0.9000553 0.9503679
vt 0.8998268 0.9976086
vt 0.8927703 0.9503326
vt 0.8925415 0.9975734
vt 0.7779636 0.04100585
vt 0.7668136 0.03716385
vt 0.7657693 0.03910404
vt 0.7774465 0.03892756
vt 0.7876691 0.03353214
vt 0.7595233 0.02876592
vt 0.757226 0.02943671
vt 0.7858438 0.03238946
vt 0.790032 0.02135158
vt 0.7617205 0.0176549
vt 0.7597888 0.01640683
vt 0.7878068 0.02181554
vt 0.7823708 0.01125824
vt 0.7706015 0.01111424
vt 0.770126 0.008996487
vt 0.781216 0.01315784
vt 0.7728767 0.02664971
vt 0.7720538 0.02544999
vt 0.7739325 0.02506971
vt 0.7743247 0.02704728
vt 0.7723854 0.02405864
vt 0.7754961 0.02610797
vt 0.7735049 0.02307963
vt 0.7759099 0.02467012
vt 0.77496 0.02348936
vn -1 0 0
vn -1 0 0
vn -1 0 0
vn -1 0 0
vn 0 0 -1
vn 0 0 -1
vn 0 0 -1
vn 0 0 -1
vn 1 0 0
vn 1 0 0
vn 1 0 0
vn 1 0 0
vn 0 1 0
vn 0 1 0
vn 0 1 0
vn 0 1 0
vn 0 0 1
vn 0 0 1
vn 0 0 1
vn 0 0 1
vn -0.7071068 0 0.7071068
vn 0 0.6234953 0.7818272
vn 0 0 1
vn -0.5449046 0.6373053 0.5449045
vn -1 0 0
vn -0.7818271 0.6234953 0
vn -0.7071066 0 -0.7071069
vn -0.5449045 0.6373053 -0.5449046
vn 0 0 -1
vn 0 0.6234953 -0.7818271
vn 0.7071069 0 -0.7071066
vn 0.5449046 0.6373053 -0.5449045
vn 1 0 0
vn 0.7818271 0.6234953 0
vn 0.7071065 0 0.7071069
vn 0.5449045 0.6373052 0.5449047
vn 0 0 1
vn 0 0.6234953 0.7818272
vn 0 0.6234953 0.7818272
vn -0.4061246 0.8186119 -0.4061247
vn 0.5449045 0.6373052 0.5449047
vn 0 0.8392648 -0.5437229
vn -0.5449046 0.6373053 0.5449045
vn -0.5437229 0.8392649 0
vn 0.7818271 0.6234953 0
vn 0.4061247 0.8186119 -0.4061247
vn -0.7818271 0.6234953 0
vn -0.4061248 0.818612 0.4061246
vn 0.5449046 0.6373053 -0.5449045
vn 0.5437229 0.8392648 0
vn -0.5449045 0.6373053 -0.5449046
vn 0 0.8392648 0.5437229
vn 0 0.6234953 -0.7818271
vn 0.4061246 0.8186119 0.4061248
vn -0.5242576 0.6710496 -0.524258
vn -0.7525087 0.6585823 0
vn 0 1 0
vn 0 0.6585821 -0.7525088
vn -0.5242577 0.6710495 0.5242577
vn 0.524258 0.6710495 -0.5242577
vn 0 0.6585821 0.7525089
vn 0.7525091 0.658582 0
vn 0.5242577 0.6710495 0.5242577
g hmg_loader_0
f 3/3/3 2/2/2 1/1/1
f 4/4/4 1/1/1 2/2/2
f 7/7/7 6/6/6 5/5/5
f 8/8/8 5/5/5 6/6/6
f 11/11/11 10/10/10 9/9/9
f 12/12/12 9/9/9 10/10/10
f 15/15/15 14/14/14 13/13/13
f 16/16/16 13/13/13 14/14/14
f 19/19/19 18/18/18 17/17/17
f 20/20/20 17/17/17 18/18/18
f 23/23/23 22/22/22 21/21/21
f 24/24/24 21/21/21 22/22/22
f 21/21/21 24/24/24 25/25/25
f 26/26/26 25/25/25 24/24/24
f 25/25/25 26/26/26 27/27/27
f 28/28/28 27/27/27 26/26/26
f 27/27/27 28/28/28 29/29/29
f 30/30/30 29/29/29 28/28/28
f 29/29/29 30/30/30 31/31/31
f 32/32/32 31/31/31 30/30/30
f 31/31/31 32/32/32 33/33/33
f 34/34/34 33/33/33 32/32/32
f 33/33/33 34/34/34 35/35/35
f 36/36/36 35/35/35 34/34/34
f 35/35/35 36/36/36 37/37/37
f 38/38/38 37/37/37 36/36/36
f 41/41/41 40/40/40 39/39/39
f 42/42/42 39/39/39 40/40/40
f 39/39/39 42/42/42 43/43/43
f 40/40/40 41/41/41 44/44/44
f 45/45/45 44/44/44 41/41/41
f 46/46/46 43/43/43 42/42/42
f 43/43/43 46/46/46 47/47/47
f 44/44/44 45/45/45 48/48/48
f 49/49/49 48/48/48 45/45/45
f 50/50/50 47/47/47 46/46/46
f 47/47/47 50/50/50 51/51/51
f 48/48/48 49/49/49 52/52/52
f 53/53/53 52/52/52 49/49/49
f 51/51/51 54/54/54 53/53/53
f 54/54/54 51/51/51 50/50/50
f 52/52/52 53/53/53 54/54/54
f 40/40/40 55/55/55 42/42/42
f 44/44/44 56/56/56 40/40/40
f 55/55/55 40/40/40 56/56/56
f 57/57/57 55/55/55 56/56/56
f 58/58/58 42/42/42 55/55/55
f 42/42/42 58/58/58 46/46/46
f 57/57/57 58/58/58 55/55/55
f 56/56/56 44/44/44 59/59/59
f 48/48/48 59/59/59 44/44/44
f 57/57/57 56/56/56 59/59/59
f 60/60/60 46/46/46 58/58/58
f 46/46/46 60/60/60 50/50/50
f 58/58/58 57/57/57 60/60/60
f 59/59/59 48/48/48 61/61/61
f 52/52/52 61/61/61 48/48/48
f 57/57/57 59/59/59 61/61/61
f 62/62/62 50/50/50 60/60/60
f 60/60/60 57/57/57 62/62/62
f 50/50/50 62/62/62 54/54/54
f 54/54/54 63/63/63 52/52/52
f 61/61/61 52/52/52 63/63/63
f 63/63/63 57/57/57 61/61/61
f 63/63/63 54/54/54 62/62/62
f 57/57/57 63/63/63 62/62/62
