g jianzhu12_scene97
v -4.032002 -5.892524 2.304004
v -5.568 -1.860525 2.304004
v -5.568 -5.892524 2.304004
v -2.496001 -1.860525 2.304004
v 5.183999 -5.892524 2.304004
v 5.567998 -2.052523 2.304004
v -4.032002 -7.620522 2.304004
v 5.567998 -7.620522 2.304004
v 5.183999 -7.620522 2.304004
v -4.032002 -10.23444 2.304004
v 5.567998 -10.23444 2.304004
v 5.183999 -10.23444 2.304004
v -2.496001 0.6354761 2.304004
v -3.648003 10.11652 2.304004
v -3.648003 4.475476 2.304004
v 5.567998 10.11652 2.304004
v 5.567998 -2.052523 2.304004
v -2.496001 -1.860525 2.304004
v 5.567998 -2.052522 -2.304004
v 5.567998 10.11652 0.7680078
v 5.567998 -2.052523 0.7680078
v 5.567998 10.11652 -2.304004
v 5.567998 -2.052523 0.7680078
v 5.567998 -7.620522 -2.304004
v 5.567998 -2.052522 -2.304004
v 5.567998 -7.620522 0.7680078
v 5.567998 -7.620522 0.7680078
v 5.567998 -10.23444 -2.304004
v 5.567998 -7.620522 -2.304004
v 5.567998 -10.23444 0.7680078
v -2.496001 -1.860522 -2.304004
v -5.568 -1.860524 0.7680078
v -2.496001 -1.860524 0.7680078
v -5.568 -1.860522 -2.304004
v -2.496001 0.6354761 0.7680078
v -2.496001 -1.860522 -2.304004
v -2.496001 -1.860524 0.7680078
v -2.496001 0.6354773 -2.304004
v -3.648003 10.11652 -2.304004
v -3.648003 4.475477 -2.304004
v -3.648003 4.475476 0.7680078
v -3.648003 10.11652 0.7680078
v -2.496001 0.6354761 0.7680078
v -3.648003 4.475477 -2.304004
v -2.496001 0.6354773 -2.304004
v -3.648003 4.475476 0.7680078
v -5.568 -5.892524 0.7680078
v -5.568 -5.892524 -2.304004
v -4.032002 -5.892524 -2.304004
v -4.032002 -5.892524 0.7680078
v -5.568 -5.892524 -2.304004
v -5.568 -5.892524 0.7680078
v -5.568 -1.860524 0.7680078
v -5.568 -1.860522 -2.304004
v -4.032002 -7.620522 -2.304004
v -4.032002 -5.892524 0.7680078
v -4.032002 -5.892524 -2.304004
v -4.032002 -7.620522 0.7680078
v -4.032002 -10.23444 -2.304004
v -4.032002 -10.23444 0.7680078
v 5.567998 -2.052523 2.304004
v 5.567998 10.11652 0.7680078
v 5.567998 10.11652 2.304004
v 5.567998 -2.052523 0.7680078
v 5.567998 -2.052523 2.304004
v 5.567998 -7.620522 0.7680078
v 5.567998 -2.052523 0.7680078
v 5.567998 -7.620522 2.304004
v 5.567998 -10.23444 0.7680078
v 5.567998 -10.23444 2.304004
v -2.496001 -1.860524 0.7680078
v -5.568 -1.860524 0.7680078
v -5.568 -1.860525 2.304004
v -2.496001 -1.860525 2.304004
v -2.496001 0.6354761 2.304004
v -2.496001 -1.860524 0.7680078
v -2.496001 -1.860525 2.304004
v -2.496001 0.6354761 0.7680078
v -3.648003 10.11652 0.7680078
v -3.648003 4.475476 0.7680078
v -3.648003 4.475476 2.304004
v -3.648003 10.11652 2.304004
v -3.648003 4.475476 0.7680078
v -2.496001 0.6354761 0.7680078
v -2.496001 0.6354761 2.304004
v -3.648003 4.475476 2.304004
v -4.032002 -5.892524 2.304004
v -5.568 -5.892524 0.7680078
v -4.032002 -5.892524 0.7680078
v -5.568 -5.892524 2.304004
v -5.568 -1.860524 0.7680078
v -5.568 -5.892524 0.7680078
v -5.568 -5.892524 2.304004
v -5.568 -1.860525 2.304004
v -4.032002 -7.620522 0.7680078
v -4.032002 -5.892524 2.304004
v -4.032002 -5.892524 0.7680078
v -4.032002 -7.620522 2.304004
v -4.032002 -10.23444 0.7680078
v -4.032002 -10.23444 2.304004
vt 0.8903764 0.177087
vt 0.9526614 0.340585
vt 0.9526614 0.177087
vt 0.8280915 0.340585
vt 0.5166666 0.177087
vt 0.5010954 0.3327994
vt 0.8903764 0.1070164
vt 0.5010954 0.1070164
vt 0.5166666 0.1070164
vt 0.8903764 0.001021863
vt 0.5010954 0.001021848
vt 0.5166666 0.001021863
vt 0.9521548 0.1143184
vt 0.9988686 0.4987758
vt 0.9988686 0.2700307
vt 0.6251587 0.4987758
vt 0.6251587 0.005319648
vt 0.9521548 0.01310527
vt 0.4990325 0.5010099
vt 0.001012992 0.7489575
vt 0.4990325 0.7489575
vt 0.001012992 0.5010099
vt 0.03899808 0.7489575
vt 0.4912997 0.5010099
vt 0.03899808 0.5010099
vt 0.4912997 0.7489575
vt 0.194663 0.7489575
vt 0.4069974 0.5010099
vt 0.194663 0.5010099
vt 0.4069974 0.7489575
vt 0.4064552 0.5010099
vt 0.1569095 0.7489575
vt 0.4064552 0.7489575
vt 0.1569095 0.5010099
vt 0.2585351 0.7489575
vt 0.4612909 0.5010099
vt 0.4612909 0.7489575
vt 0.2585351 0.5010099
vt 0.001001699 0.5010099
vt 0.459237 0.5010099
vt 0.459237 0.7489575
vt 0.001001699 0.7489575
vt 0.4990361 0.7489575
vt 0.187104 0.5010099
vt 0.4990361 0.5010099
vt 0.187104 0.7489575
vt 0.2564811 0.7489575
vt 0.2564811 0.5010099
vt 0.1317082 0.5010099
vt 0.1317082 0.7489575
vt 0.3543056 0.5010099
vt 0.3543056 0.7489575
vt 0.02677694 0.7489575
vt 0.02677694 0.5010099
vt 0.2295517 0.5010099
vt 0.08918218 0.7489575
vt 0.08918218 0.5010099
vt 0.2295517 0.7489575
vt 0.441886 0.5010099
vt 0.441886 0.7489575
vt 0.4946142 0.0633762
vt 0.001038936 0.001076176
vt 0.001038936 0.0633762
vt 0.4946142 0.001076176
vt 0.1332555 0.0633762
vt 0.3590931 0.001076176
vt 0.1332555 0.001076176
vt 0.3590931 0.0633762
vt 0.4651132 0.001076176
vt 0.4651132 0.0633762
vt 0.4989378 0.001019052
vt 0.3743378 0.001019052
vt 0.3743378 0.06331906
vt 0.4989378 0.06331906
vt 0.2467984 0.0633762
vt 0.348036 0.001076176
vt 0.348036 0.0633762
vt 0.2467984 0.001076176
vt 0.04693507 0.001076176
vt 0.2757353 0.001076176
vt 0.2757353 0.0633762
vt 0.04693507 0.0633762
vt 0.2445853 0.001076176
vt 0.4003353 0.001076176
vt 0.4003353 0.0633762
vt 0.2445853 0.0633762
vt 0.1121978 0.0633762
vt 0.1744978 0.001076176
vt 0.1121978 0.001076176
vt 0.1744978 0.0633762
vt 0.3168859 0.001076176
vt 0.4804235 0.001076176
vt 0.4804235 0.0633762
vt 0.3168859 0.0633762
vt 0.3590931 0.001076176
vt 0.2890056 0.0633762
vt 0.2890056 0.001076176
vt 0.3590931 0.0633762
vt 0.4651132 0.001076176
vt 0.4651132 0.0633762
vn 0 0 -1
vn 0 0 -1
vn 0 0 -1
vn 0 0 -1
vn 0 0 -1
vn 0 0 -1
vn 0 0 -1
vn 0 0 -1
vn 0 0 -1
vn 0 0 -1
vn 0 0 -1
vn 0 0 -1
vn 0 0 -1
vn 0 0 -1
vn 0 0 -1
vn 0 0 -1
vn 0 0 -1
vn 0 0 -1
vn -1 0 0
vn -1 0 0
vn -1 0 0
vn -1 0 0
vn -1 0 0
vn -1 0 0
vn -1 0 0
vn -1 0 0
vn -1 0 0
vn -1 0 0
vn -1 0 0
vn -1 0 0
vn 0 -1 -3.973628E-07
vn 0 -1 -5.960467E-07
vn 0 -1 -5.960467E-07
vn 0 -1 -3.973628E-07
vn 0.9894003 0.1452134 0
vn 1 0 0
vn 1 0 0
vn 0.9894003 0.1452134 0
vn 1 0 0
vn 0.9894003 0.1452133 0
vn 0.9894003 0.1452134 0
vn 1 0 0
vn 0.9894003 0.1452134 0
vn 0.9894003 0.1452133 0
vn 0.9894003 0.1452134 0
vn 0.9894003 0.1452134 0
vn 0 1 0
vn 0 1 0
vn 0 1 0
vn 0 1 0
vn 1 0 0
vn 1 0 0
vn 1 0 0
vn 1 0 0
vn 1 0 0
vn 1 0 0
vn 1 0 0
vn 1 0 0
vn 1 0 0
vn 1 0 0
vn -1 0 0
vn -1 0 0
vn -1 0 0
vn -1 0 0
vn -1 0 0
vn -1 0 0
vn -1 0 0
vn -1 0 0
vn -1 0 0
vn -1 0 0
vn 0 -1 -5.960467E-07
vn 0 -1 -5.960467E-07
vn 0 -1 -7.947306E-07
vn 0 -1 -7.947307E-07
vn 0.9894003 0.1452134 0
vn 1 0 0
vn 1 0 0
vn 0.9894003 0.1452134 0
vn 1 0 0
vn 0.9894003 0.1452134 0
vn 0.9894003 0.1452134 0
vn 1 0 0
vn 0.9894003 0.1452134 0
vn 0.9894003 0.1452134 0
vn 0.9894003 0.1452134 0
vn 0.9894003 0.1452134 0
vn 0 1 0
vn 0 1 0
vn 0 1 0
vn 0 1 0
vn 1 0 0
vn 1 0 0
vn 1 0 0
vn 1 0 0
vn 1 0 0
vn 1 0 0
vn 1 0 0
vn 1 0 0
vn 1 0 0
vn 1 0 0
g jianzhu12_scene97_0
f 3/3/3 2/2/2 1/1/1
f 4/4/4 1/1/1 2/2/2
f 4/4/4 5/5/5 1/1/1
f 5/5/5 4/4/4 6/6/6
f 1/1/1 5/5/5 7/7/7
f 5/5/5 6/6/6 8/8/8
f 9/9/9 7/7/7 5/5/5
f 9/9/9 5/5/5 8/8/8
f 7/7/7 9/9/9 10/10/10
f 8/8/8 11/11/11 9/9/9
f 12/12/12 10/10/10 9/9/9
f 11/11/11 12/12/12 9/9/9
f 15/15/15 14/14/14 13/13/13
f 14/14/14 16/16/16 13/13/13
f 17/17/17 13/13/13 16/16/16
f 18/18/18 13/13/13 17/17/17
g jianzhu12_scene97_1
f 21/21/21 20/20/20 19/19/19
f 22/22/22 19/19/19 20/20/20
f 25/25/25 24/24/24 23/23/23
f 26/26/26 23/23/23 24/24/24
f 29/29/29 28/28/28 27/27/27
f 30/30/30 27/27/27 28/28/28
f 33/33/33 32/32/32 31/31/31
f 34/34/34 31/31/31 32/32/32
f 37/37/37 36/36/36 35/35/35
f 38/38/38 35/35/35 36/36/36
f 41/41/41 40/40/40 39/39/39
f 42/42/42 41/41/41 39/39/39
f 45/45/45 44/44/44 43/43/43
f 46/46/46 43/43/43 44/44/44
f 49/49/49 48/48/48 47/47/47
f 50/50/50 49/49/49 47/47/47
f 53/53/53 52/52/52 51/51/51
f 53/53/53 51/51/51 54/54/54
f 57/57/57 56/56/56 55/55/55
f 58/58/58 55/55/55 56/56/56
f 55/55/55 58/58/58 59/59/59
f 60/60/60 59/59/59 58/58/58
f 63/63/63 62/62/62 61/61/61
f 64/64/64 61/61/61 62/62/62
f 67/67/67 66/66/66 65/65/65
f 68/68/68 65/65/65 66/66/66
f 66/66/66 69/69/69 68/68/68
f 69/69/69 70/70/70 68/68/68
f 73/73/73 72/72/72 71/71/71
f 71/71/71 74/74/74 73/73/73
f 77/77/77 76/76/76 75/75/75
f 78/78/78 75/75/75 76/76/76
f 81/81/81 80/80/80 79/79/79
f 82/82/82 81/81/81 79/79/79
f 85/85/85 84/84/84 83/83/83
f 86/86/86 85/85/85 83/83/83
f 89/89/89 88/88/88 87/87/87
f 90/90/90 87/87/87 88/88/88
f 93/93/93 92/92/92 91/91/91
f 94/94/94 93/93/93 91/91/91
f 97/97/97 96/96/96 95/95/95
f 98/98/98 95/95/95 96/96/96
f 95/95/95 98/98/98 99/99/99
f 100/100/100 99/99/99 98/98/98
