g jianzhu9_scene97
v 0.1266602 -6.254939 3.484521
v 0.07120606 -6.215867 3.44085
v 0.1266602 -6.255044 2.166904
v 0.07120117 -6.215964 2.188662
v 0.1266602 -5.234282 2.166904
v 0.07120606 -5.273355 2.188662
v 0.1266602 -5.234385 3.484521
v 0.07120117 -5.273457 3.44085
v 0.1266602 -3.58479 3.484521
v 0.07120606 -3.54572 3.44085
v 0.1266602 -3.584897 2.166904
v 0.07120117 -3.54582 2.188662
v 0.1266602 -2.564133 2.166904
v 0.07120606 -2.603208 2.188662
v 0.1266602 -2.564238 3.484521
v 0.07120117 -2.603311 3.44085
v 1.723135 -5.721294 0.1347168
v 1.723135 -5.721294 0.8253027
v 1.723135 -5.03071 0.1347168
v 1.723135 -5.03071 0.8253027
v 1.723135 -5.721294 0.1347168
v 1.723135 -5.03071 0.1347168
v 1.968 -5.76 0.09600586
v 1.968 -4.992002 0.09600586
v 1.723135 -5.721294 0.1347168
v 1.968 -5.76 0.09600586
v 1.723135 -5.721294 0.8253027
v 1.968 -5.76 0.8640137
v 1.723135 -5.03071 0.1347168
v 1.723135 -5.03071 0.8253027
v 1.968 -4.992002 0.09600586
v 1.968 -4.992002 0.8640137
v 1.723135 -5.721294 0.8253027
v 1.968 -5.76 0.8640137
v 1.723135 -5.03071 0.8253027
v 1.968 -4.992002 0.8640137
v 0.1266602 -6.289634 2.081631
v 0.1266602 -5.199692 2.081631
v 0.04402344 -6.305322 2.075283
v 0.04402344 -5.183999 2.075283
v 0.04402344 -6.305322 2.075283
v 0.04414063 -6.305322 3.557119
v 0.1266602 -6.289634 2.081631
v 0.1266797 -6.289514 3.549443
v 0.1266602 -5.234385 3.484521
v 0.07120117 -5.273457 3.44085
v 0.1266602 -6.254939 3.484521
v 0.07120606 -6.215867 3.44085
v 0.1266602 -6.255044 2.166904
v 0.07120117 -6.215964 2.188662
v 0.1266602 -5.234282 2.166904
v 0.07120606 -5.273355 2.188662
v 0.1266797 -6.289514 3.549443
v 0.04414063 -6.305322 3.557119
v 0.1266797 -5.199812 3.549443
v 0.04414063 -5.183999 3.557119
v 0.1266602 -5.199692 2.081631
v 0.1266797 -5.199812 3.549443
v 0.04402344 -5.183999 2.075283
v 0.04414063 -5.183999 3.557119
v 0.07120117 -5.273457 3.44085
v 0.07120117 -6.215964 2.188662
v 0.07120606 -6.215867 3.44085
v 0.07120606 -5.273355 2.188662
v 0.1266602 -3.61949 2.081631
v 0.1266602 -2.529546 2.081631
v 0.04402344 -3.635176 2.075283
v 0.04402344 -2.513853 2.075283
v 0.04402344 -3.635176 2.075283
v 0.04414063 -3.635176 3.557119
v 0.1266602 -3.61949 2.081631
v 0.1266797 -3.61937 3.549443
v 0.1266602 -2.564238 3.484521
v 0.07120117 -2.603311 3.44085
v 0.1266602 -3.58479 3.484521
v 0.07120606 -3.54572 3.44085
v 0.1266602 -3.584897 2.166904
v 0.07120117 -3.54582 2.188662
v 0.1266602 -2.564133 2.166904
v 0.07120606 -2.603208 2.188662
v 0.1266797 -3.61937 3.549443
v 0.04414063 -3.635176 3.557119
v 0.1266797 -2.529665 3.549443
v 0.04414063 -2.513853 3.557119
v 0.1266602 -2.529546 2.081631
v 0.1266797 -2.529665 3.549443
v 0.04402344 -2.513853 2.075283
v 0.04414063 -2.513853 3.557119
v 0.07120117 -2.603311 3.44085
v 0.07120117 -3.54582 2.188662
v 0.07120606 -3.54572 3.44085
v 0.07120606 -2.603208 2.188662
v 0.1266797 -5.199812 3.549443
v 0.1266602 -5.234385 3.484521
v 0.1266797 -6.289514 3.549443
v 0.1266602 -5.234282 2.166904
v 0.1266602 -6.254939 3.484521
v 0.1266602 -5.199692 2.081631
v 0.1266602 -6.289634 2.081631
v 0.1266602 -6.255044 2.166904
v 0.1266797 -2.529665 3.549443
v 0.1266602 -2.564238 3.484521
v 0.1266797 -3.61937 3.549443
v 0.1266602 -2.564133 2.166904
v 0.1266602 -3.58479 3.484521
v 0.1266602 -2.529546 2.081631
v 0.1266602 -3.61949 2.081631
v 0.1266602 -3.584897 2.166904
v 1.968 -6.911999 1.43999
v 1.584004 -6.911999 -1.056006
v 1.584004 -6.911999 1.43999
v 1.968 -6.911999 -1.056006
v 0.04799804 -3.840002 1.43999
v 1.968003 -3.840002 -0.09600586
v 1.968 -3.840002 1.43999
v 0.04799804 -3.840002 -0.09600586
v 1.968 -0.006365967 -0.09600586
v 1.968 -4.992002 -1.056006
v 1.968003 -3.840002 -0.09600586
v 1.968 -0.006363525 -3.495107
v 0.04799804 -1.536001 -0.09600586
v 1.968003 -3.840002 -0.09600586
v 0.04799804 -3.840002 -0.09600586
v 1.968 -0.006365967 -0.09600586
v -2.454004 -2.441406E-06 -0.09600586
v -2.451001 -1.536001 -0.09600586
v 0.04799804 -1.536001 -0.09600586
v 0.04799804 -1.92 3.936006
v 0.04800293 -1.536001 3.936006
v 0.04799804 -3.840002 1.43999
v 0.04799804 -3.840002 -0.09600586
v 0.04800293 -3.840002 3.936006
v 0.04799804 -6.911999 3.936006
v 0.04799804 -6.911999 1.43999
v 0.04799804 -3.840002 1.43999
v 1.584004 -6.911999 1.43999
v 0.04799804 -6.911999 1.43999
v 1.968 -3.840002 1.43999
v 1.968 -6.911999 1.43999
v 0.04800293 -1.536001 3.936006
v -2.255996 -1.536001 3.936006
v -2.255996 -1.536001 3.167998
v -2.255996 -1.536001 2.976006
v 0.04799804 -1.536001 -0.09600586
v -2.451001 -1.536001 -0.09600586
v -2.447998 -1.536001 2.976006
v -2.447998 7.103999 2.976006
v -2.451001 -1.536001 -0.09600586
v -2.447998 -1.536001 2.976006
v -2.447998 7.103999 -0.09600586
v 2.64 -4.992002 -1.056006
v 2.64 0 -4.127395
v 2.64 -4.992002 -2.015986
v 2.64 0.192002 -3.743994
v 2.64 0.192002 -4.127998
v 2.64 -7.103999 -2.015986
v 2.64 -4.992002 -1.056006
v 2.64 -4.992002 -2.015986
v 2.64 -7.103999 -1.056006
v 2.352002 0.192002 -4.127998
v 2.64 0.192002 -4.127998
v 2.352002 0.192002 -3.743994
v 2.64 0.192002 -3.743994
v 2.64 -4.992002 -1.056006
v 2.352002 0.192002 -3.743994
v 2.64 0.192002 -3.743994
v 1.968 -4.992002 -1.056006
v 1.968 -0.006363525 -3.495107
v 1.968 -6.911999 -1.056006
v 2.64 -7.103999 -1.056006
v 1.584004 -7.103999 -1.056006
v 1.584004 -6.911999 -1.056006
v 2.64 -7.103999 -1.056006
v 1.573281 -7.103999 -2.051943
v 1.584004 -7.103999 -1.056006
v 2.64 -7.103999 -2.015986
v 1.968 -4.992002 -1.056006
v 1.968 -4.992002 0.09600586
v 1.968003 -3.840002 -0.09600586
v 1.968 -3.840002 1.43999
v 1.968 -4.992002 0.8640137
v 1.968 -5.76 0.8640137
v 1.968 -6.911999 1.43999
v 1.968 -5.76 0.09600586
v 1.968 -6.911999 -1.056006
v 0.04800293 -1.536001 3.936006
v 0.04799804 -1.92 3.936006
v 0.24 -1.92 3.936006
v 0.24 -1.536001 3.936006
v 0.04800293 -3.840002 3.936006
v 0.04799804 -6.911999 3.936006
v 0.24 -6.911999 3.936006
v 0.24 -1.92 3.936006
v 0.04799804 -1.92 3.936006
v -0.72 -1.92 3.936006
v -0.143999 -1.92 4.127998
v -0.143999 -1.92 3.936006
v -0.72 -1.92 4.127998
v -2.64 -1.92 4.127998
v -2.64 -1.92 3.936006
v 0.24 -1.536001 4.127998
v 0.24 -1.92 3.936006
v 0.24 -1.92 4.127998
v 0.24 -1.536001 3.936006
v 0.24 -1.536001 3.936006
v 0.24 -1.536001 4.127998
v 0.04800293 -1.536001 3.936006
v -2.255996 -1.536001 3.936006
v -2.64 -1.536001 4.127998
v -2.64 -1.536001 3.936006
v -0.143999 -6.911999 3.936006
v -0.143999 -1.92 3.936006
v -0.143999 -6.911999 4.127998
v -0.143999 -1.92 4.127998
v 0.24 -6.911999 4.127998
v 0.24 -1.92 4.127998
v 0.24 -6.911999 3.936006
v 0.24 -1.92 3.936006
v -2.255996 -1.536001 2.976006
v -2.447998 7.103999 2.976006
v -2.447998 -1.536001 2.976006
v -2.255996 7.103999 2.976006
v -2.255996 7.103999 3.167998
v -2.255996 -1.536001 2.976006
v -2.255996 -1.536001 3.167998
v -2.255996 7.103999 2.976006
vt 0.02259827 0.7392578
vt 0.02711487 0.734375
vt 0.02259827 0.6367188
vt 0.02709961 0.6396484
vt 0.1019897 0.6367188
vt 0.09747314 0.6396484
vt 0.1019897 0.7392578
vt 0.09747314 0.734375
vt 0.02259827 0.7392578
vt 0.02711487 0.734375
vt 0.02259827 0.6367188
vt 0.02709961 0.6396484
vt 0.1019897 0.6367188
vt 0.09747314 0.6396484
vt 0.1019897 0.7392578
vt 0.09747314 0.734375
vt 0.7548828 0.8330078
vt 0.7548828 0.9560547
vt 0.8754883 0.8330078
vt 0.8754883 0.9560547
vt 0.7626953 0.7910156
vt 0.8671875 0.7910156
vt 0.7568359 0.7524414
vt 0.8730469 0.7524414
vt 0.7607422 0.9985352
vt 0.7543945 0.9589844
vt 0.8691406 0.9985352
vt 0.8754883 0.9589844
vt 0.7607422 0.9985352
vt 0.8691406 0.9985352
vt 0.7543945 0.9589844
vt 0.8754883 0.9589844
vt 0.7626953 0.7924805
vt 0.7568359 0.8310547
vt 0.8671875 0.7924805
vt 0.8730469 0.8310547
vt 0.01989746 0.6298828
vt 0.1046753 0.6298828
vt 0.01867676 0.6254883
vt 0.105896 0.6254883
vt 0.01299286 0.6293945
vt 0.01299286 0.7446289
vt 0.01989746 0.6298828
vt 0.01991272 0.7441406
vt 0.1019897 0.7392578
vt 0.09747314 0.734375
vt 0.02259827 0.7392578
vt 0.02711487 0.734375
vt 0.02259827 0.6367188
vt 0.02709961 0.6396484
vt 0.1019897 0.6367188
vt 0.09747314 0.6396484
vt 0.01991272 0.7441406
vt 0.01867676 0.7490234
vt 0.1046753 0.7441406
vt 0.105896 0.7490234
vt 0.1046753 0.6298828
vt 0.1046753 0.7441406
vt 0.1115723 0.6293945
vt 0.1115723 0.7446289
vt 0.03094482 0.6430664
vt 0.09436035 0.7324219
vt 0.09436035 0.6435547
vt 0.03092957 0.7324219
vt 0.01989746 0.6298828
vt 0.1046753 0.6298828
vt 0.01867676 0.6254883
vt 0.105896 0.6254883
vt 0.01299286 0.6293945
vt 0.01299286 0.7446289
vt 0.01989746 0.6298828
vt 0.01991272 0.7441406
vt 0.1019897 0.7392578
vt 0.09747314 0.734375
vt 0.02259827 0.7392578
vt 0.02711487 0.734375
vt 0.02259827 0.6367188
vt 0.02709961 0.6396484
vt 0.1019897 0.6367188
vt 0.09747314 0.6396484
vt 0.01991272 0.7441406
vt 0.01867676 0.7490234
vt 0.1046753 0.7441406
vt 0.105896 0.7490234
vt 0.1046753 0.6298828
vt 0.1046753 0.7441406
vt 0.1115723 0.6293945
vt 0.1115723 0.7446289
vt 0.03094482 0.6430664
vt 0.09436035 0.7324219
vt 0.09436035 0.6435547
vt 0.03092957 0.7324219
vt 0.1046753 0.7441406
vt 0.1019897 0.7392578
vt 0.01991272 0.7441406
vt 0.1019897 0.6367188
vt 0.02259827 0.7392578
vt 0.1046753 0.6298828
vt 0.01989746 0.6298828
vt 0.02259827 0.6367188
vt 0.1046753 0.7441406
vt 0.1019897 0.7392578
vt 0.01991272 0.7441406
vt 0.1019897 0.6367188
vt 0.02259827 0.7392578
vt 0.1046753 0.6298828
vt 0.01989746 0.6298828
vt 0.02259827 0.6367188
vt 0.9150496 0.9819992
vt 0.8838657 0.779303
vt 0.8838657 0.9819992
vt 0.9150496 0.779303
vt 0.7585297 0.9405898
vt 0.6026095 0.8158538
vt 0.6026095 0.9405898
vt 0.7585297 0.8158538
vt 0.998823 0.9985946
vt 0.5958214 0.9279681
vt 0.6889213 0.9980968
vt 0.9989123 0.7508174
vt 0.8746845 0.8996136
vt 0.9989411 0.7505056
vt 0.8746845 0.7505056
vt 0.9989411 0.998607
vt 0.7127619 0.9990188
vt 0.7127622 0.8996136
vt 0.9376613 0.7506067
vt 0.9064773 0.9989441
vt 0.9376613 0.9989441
vt 0.7505571 0.8452114
vt 0.7505571 0.7506067
vt 0.7505571 0.9989441
vt 0.5010849 0.9989441
vt 0.5010849 0.8452114
vt 0.5010161 0.9989714
vt 0.6257523 0.7505051
vt 0.5010161 0.7505051
vt 0.6569363 0.9989714
vt 0.6569363 0.7505051
vt 0.5551381 0.9989304
vt 0.6969918 0.9989304
vt 0.6969918 0.9516459
vt 0.6969918 0.9398248
vt 0.5551381 0.7506865
vt 0.7089977 0.7506865
vt 0.708813 0.9398248
vt 0.998936 0.9989441
vt 0.5010638 0.7506254
vt 0.5010638 0.9989441
vt 0.998936 0.7505092
vt 0.05485039 0.9533159
vt 0.2910843 0.9363686
vt 0.07326828 0.9189035
vt 0.2913749 0.9536794
vt 0.2981604 0.939866
vt 0.4135133 0.8758339
vt 0.4988172 0.9146084
vt 0.4988172 0.8758339
vt 0.4135133 0.9146084
vt 0.3583212 0.9387632
vt 0.3466888 0.9387632
vt 0.3583212 0.9542729
vt 0.3466888 0.9542729
vt 0.1933492 0.9170906
vt 0.4029526 0.9287731
vt 0.4027316 0.9170906
vt 0.1933492 0.9442328
vt 0.3923395 0.9442328
vt 0.1158002 0.9442328
vt 0.1080453 0.9170906
vt 0.1080453 0.9597426
vt 0.1158002 0.9597426
vt 0.04659875 0.9989212
vt 0.003528025 0.9604875
vt 0.003946796 0.9989212
vt 0.04659875 0.9601467
vt 0.68933 0.7798865
vt 0.68933 0.8734387
vt 0.7828822 0.8578466
vt 0.7828822 0.9825827
vt 0.68933 0.9358067
vt 0.6269619 0.9358067
vt 0.5334098 0.9825827
vt 0.6269619 0.8734387
vt 0.5334098 0.7798865
vt 0.04757508 0.08228542
vt 0.06312837 0.08228542
vt 0.06312837 0.07450877
vt 0.04757508 0.07450877
vt 0.1254834 0.1171243
vt 0.001057001 0.1171243
vt 0.001057001 0.1249009
vt 0.2032499 0.1249009
vt 0.2032499 0.1171243
vt 0.1857857 0.0311228
vt 0.2091157 0.03889945
vt 0.2091157 0.0311228
vt 0.1857857 0.03889945
vt 0.1080193 0.03889945
vt 0.1080193 0.0311228
vt 0.452204 0.06924669
vt 0.4366507 0.06147004
vt 0.4366507 0.06924669
vt 0.452204 0.06147004
vt 0.3378648 0.03355882
vt 0.3378648 0.04133547
vt 0.3456415 0.03355882
vt 0.4389613 0.03355882
vt 0.4545145 0.04133547
vt 0.4545145 0.03355882
vt 0.3565846 0.09305595
vt 0.1543917 0.09305595
vt 0.3565846 0.1008326
vt 0.1543917 0.1008326
vt 0.1255848 0.06924669
vt 0.3277776 0.06924669
vt 0.1255848 0.06147004
vt 0.3277776 0.06147004
vt 0.1483015 0.008765228
vt 0.4982505 0.0009885801
vt 0.1483015 0.0009885801
vt 0.4982505 0.008765228
vt 0.4085276 0.07750445
vt 0.05857842 0.0697278
vt 0.05857842 0.07750445
vt 0.4085276 0.0697278
vn 0.5760107 0.8174421 -6.512928E-05
vn 0.5760104 0.8174424 -6.515082E-05
vn 0.575998 0.8174511 -6.596028E-05
vn 0.5759974 0.8174515 -6.59969E-05
vn 0.5759598 -0.817478 -6.361744E-05
vn 0.5759602 -0.8174778 -6.364736E-05
vn 0.5759758 -0.8174668 -6.463718E-05
vn 0.5759767 -0.8174661 -6.469352E-05
vn 0.5759875 0.8174585 -6.664524E-05
vn 0.5759872 0.8174587 -6.666877E-05
vn 0.5759736 0.8174683 -6.755242E-05
vn 0.575973 0.8174687 -6.759241E-05
vn 0.5759835 -0.8174614 -6.513081E-05
vn 0.5759833 -0.8174614 -6.511864E-05
vn 0.575977 -0.8174659 -6.471642E-05
vn 0.5759767 -0.8174661 -6.469352E-05
vn 1 0 0
vn 1 0 0
vn 1 0 0
vn 1 0 0
vn 0.1561512 0 0.9877331
vn 0.1561512 0 0.9877331
vn 0.1561512 0 0.9877331
vn 0.1561512 0 0.9877331
vn 0.156132 0.9877363 0
vn 0.156132 0.9877363 0
vn 0.156132 0.9877363 0
vn 0.156132 0.9877363 0
vn 0.1561416 -0.9877346 0
vn 0.1561416 -0.9877346 0
vn 0.1561416 -0.9877346 0
vn 0.1561416 -0.9877346 0
vn 0.1561512 0 -0.9877331
vn 0.1561512 0 -0.9877331
vn 0.1561512 0 -0.9877331
vn 0.1561512 0 -0.9877331
vn 0.07658836 0 -0.9970627
vn 0.07658836 0 -0.9970627
vn 0.07658836 0 -0.9970627
vn 0.07658836 0 -0.9970627
vn 0.1865183 -0.9824515 -1.475036E-05
vn 0.1880496 -0.9821596 7.39918E-05
vn 0.1865733 -0.982441 -1.15604E-05
vn 0.1881108 -0.9821478 7.754345E-05
vn 0.6186704 0 -0.7856506
vn 0.6186717 1.10842E-07 -0.7856497
vn 0.6187031 2.989575E-06 -0.7856249
vn 0.6187055 3.205637E-06 -0.7856231
vn 0.3652213 0 0.9309208
vn 0.3652221 0 0.9309205
vn 0.3652484 -1.776226E-06 0.93091
vn 0.3652503 -1.892032E-06 0.9309094
vn 0.09259621 0 0.9957038
vn 0.09259621 0 0.9957038
vn 0.09259621 0 0.9957038
vn 0.09259621 0 0.9957038
vn 0.1865675 0.9824421 7.758835E-05
vn 0.188104 0.9821491 -1.170873E-05
vn 0.1866281 0.9824306 7.406704E-05
vn 0.1881586 0.9821386 -1.488008E-05
vn 1 9.248786E-07 -6.961458E-07
vn 1 -9.244E-07 6.957854E-07
vn 1 5.181199E-06 -3.89983E-06
vn 1 -5.180099E-06 3.899002E-06
vn 0.07658836 0 -0.9970627
vn 0.07658836 0 -0.9970627
vn 0.07658836 0 -0.9970627
vn 0.07658836 0 -0.9970627
vn 0.1864903 -0.9824568 -1.474891E-05
vn 0.1880215 -0.982165 7.399275E-05
vn 0.1865453 -0.9824463 -1.155908E-05
vn 0.1880828 -0.9821531 7.754425E-05
vn 0.6186705 0 -0.7856506
vn 0.6186717 1.10842E-07 -0.7856497
vn 0.6187032 2.98958E-06 -0.7856249
vn 0.6187055 3.205637E-06 -0.7856231
vn 0.3652213 0 0.9309208
vn 0.3652221 0 0.9309205
vn 0.3652485 -1.776218E-06 0.93091
vn 0.3652503 -1.892028E-06 0.9309094
vn 0.09259622 0 0.9957038
vn 0.09259621 0 0.9957038
vn 0.09259621 0 0.9957038
vn 0.09259621 0 0.9957038
vn 0.1865675 0.9824421 7.758835E-05
vn 0.188104 0.9821491 -1.170873E-05
vn 0.1866281 0.9824306 7.406704E-05
vn 0.1881586 0.9821386 -1.488008E-05
vn 1 9.248755E-07 -6.961451E-07
vn 1 -9.243907E-07 6.957804E-07
vn 1 5.181199E-06 -3.89984E-06
vn 1 -5.180086E-06 3.899002E-06
vn 1 -0.0001675105 -0.0002073389
vn 1 -0.0003179086 -0.0001315469
vn 1 0.0001681941 -0.0002112679
vn 1 -2.201393E-05 -7.714053E-06
vn 1 0.0003009971 -0.0001389681
vn 1 -8.047904E-06 -3.264507E-06
vn 1 8.469361E-06 -2.094554E-07
vn 1 0 0
vn 1 -0.0001675106 -0.0002073393
vn 1 -0.0003179074 -0.0001315476
vn 1 0.0001681904 -0.0002112572
vn 1 -2.201516E-05 -7.714134E-06
vn 1 0.0003009475 -0.0001389717
vn 1 -8.047959E-06 -3.264299E-06
vn 1 8.469821E-06 -2.094962E-07
vn 1 0 0
vn 0 -1 0
vn 0 -1 0
vn 0 -1 0
vn 0 -1 0
vn 0 1 0
vn 0 1 0
vn 0 1 0
vn 0 1 0
vn 1 0 -4.005215E-07
vn 1 -4.268817E-07 -4.639391E-07
vn 1 -6.09172E-07 -1.243184E-06
vn 1 0 0
vn 0 0 1
vn 0 0 1
vn 0 0 1
vn 0 0 1
vn 0 0 1
vn 0 0 1
vn 1 -7.686374E-07 0
vn 1 -5.232748E-06 -1.138731E-06
vn 1 -1.271569E-05 -1.211012E-06
vn 1 0 -6.410274E-07
vn 1 0 0
vn 1 4.768347E-07 -1.956243E-06
vn 1 -6.904266E-07 -8.497497E-07
vn 1 0 0
vn 0 0 1
vn 0 0 1
vn 0 0 1
vn 0 0 1
vn 0 0 1
vn 0 1 0
vn 0 1 0
vn 0 1 0
vn 0 1 0
vn 0 1 0
vn 0 1 0
vn 0 1 0
vn 1 -0.0002719737 -0.0002125894
vn 0.9999998 -7.558765E-05 -0.0007649229
vn 0.9999995 0 -0.000977512
vn 1 -0.0003475613 0
vn 1 0 0
vn 1 0 0
vn 1 0 0
vn 1 0 0
vn 1 0 0
vn 1 0 0
vn 1 0 0
vn 1 0 0
vn 1 0 0
vn 0 1 0
vn 0 1 0
vn 0 1 0
vn 0 1 0
vn 0 0.2369014 0.9715337
vn 0.1191984 0.4500605 0.8850069
vn 0 0.4603153 0.8877555
vn 0.00764134 0.2364192 0.971621
vn 0.3347043 0.4141079 0.846456
vn 0 0 1
vn 0 0 1
vn 0 0 1
vn 0 0 1
vn 0 -1 0
vn 0 -1 0
vn 0 -1 0
vn 0 -1 0
vn 1 -4.268817E-07 -4.639391E-07
vn 1 -1.036407E-06 3.465101E-07
vn 1 -6.09172E-07 -1.243184E-06
vn 1 -8.365516E-07 7.170522E-07
vn 1 0 0
vn 1 0 0
vn 1 0 0
vn 1 0 0
vn 1 0 0
vn 0 0 -1
vn 0 0 -1
vn 0 0 -1
vn 0 0 -1
vn 0 0 -1
vn 0 0 -1
vn 0 0 -1
vn 0 0 -1
vn 0 0 -1
vn 0 -1 0
vn 0 -1 0
vn 0 -1 0
vn 0 -1 0
vn 0 -1 0
vn 0 -1 0
vn 1 0 0
vn 1 0 0
vn 1 0 0
vn 1 0 0
vn 0 1 0
vn 0 1 0
vn 0 1 0
vn 0 1 0
vn 0 1 0
vn 0 1 0
vn -1 0 0
vn -1 0 0
vn -1 0 0
vn -1 0 0
vn 1 0 0
vn 1 0 0
vn 1 0 0
vn 1 0 0
vn 0 0 -1
vn 0 0 -1
vn 0 0 -1
vn 0 0 -1
vn 1 0 0
vn 1 0 0
vn 1 0 0
vn 1 0 0
g jianzhu9_scene97_0
f 3/3/3 2/2/2 1/1/1
f 3/3/3 4/4/4 2/2/2
f 7/7/7 6/6/6 5/5/5
f 7/7/7 8/8/8 6/6/6
f 11/11/11 10/10/10 9/9/9
f 11/11/11 12/12/12 10/10/10
f 15/15/15 14/14/14 13/13/13
f 15/15/15 16/16/16 14/14/14
f 19/19/19 18/18/18 17/17/17
f 19/19/19 20/20/20 18/18/18
f 23/23/23 22/22/22 21/21/21
f 23/23/23 24/24/24 22/22/22
f 27/27/27 26/26/26 25/25/25
f 27/27/27 28/28/28 26/26/26
f 31/31/31 30/30/30 29/29/29
f 31/31/31 32/32/32 30/30/30
f 35/35/35 34/34/34 33/33/33
f 35/35/35 36/36/36 34/34/34
f 39/39/39 38/38/38 37/37/37
f 39/39/39 40/40/40 38/38/38
f 43/43/43 42/42/42 41/41/41
f 43/43/43 44/44/44 42/42/42
f 47/47/47 46/46/46 45/45/45
f 47/47/47 48/48/48 46/46/46
f 51/51/51 50/50/50 49/49/49
f 51/51/51 52/52/52 50/50/50
f 55/55/55 54/54/54 53/53/53
f 55/55/55 56/56/56 54/54/54
f 59/59/59 58/58/58 57/57/57
f 59/59/59 60/60/60 58/58/58
f 63/63/63 62/62/62 61/61/61
f 64/64/64 61/61/61 62/62/62
f 67/67/67 66/66/66 65/65/65
f 67/67/67 68/68/68 66/66/66
f 71/71/71 70/70/70 69/69/69
f 71/71/71 72/72/72 70/70/70
f 75/75/75 74/74/74 73/73/73
f 75/75/75 76/76/76 74/74/74
f 79/79/79 78/78/78 77/77/77
f 79/79/79 80/80/80 78/78/78
f 83/83/83 82/82/82 81/81/81
f 83/83/83 84/84/84 82/82/82
f 87/87/87 86/86/86 85/85/85
f 87/87/87 88/88/88 86/86/86
f 91/91/91 90/90/90 89/89/89
f 92/92/92 89/89/89 90/90/90
f 95/95/95 94/94/94 93/93/93
f 93/93/93 94/94/94 96/96/96
f 95/95/95 97/97/97 94/94/94
f 93/93/93 96/96/96 98/98/98
f 99/99/99 97/97/97 95/95/95
f 98/98/98 96/96/96 100/100/100
f 99/99/99 100/100/100 97/97/97
f 98/98/98 100/100/100 99/99/99
f 103/103/103 102/102/102 101/101/101
f 101/101/101 102/102/102 104/104/104
f 103/103/103 105/105/105 102/102/102
f 101/101/101 104/104/104 106/106/106
f 107/107/107 105/105/105 103/103/103
f 106/106/106 104/104/104 108/108/108
f 107/107/107 108/108/108 105/105/105
f 106/106/106 108/108/108 107/107/107
g jianzhu9_scene97_1
f 111/111/111 110/110/110 109/109/109
f 112/112/112 109/109/109 110/110/110
f 115/115/115 114/114/114 113/113/113
f 116/116/116 113/113/113 114/114/114
f 119/119/119 118/118/118 117/117/117
f 120/120/120 117/117/117 118/118/118
f 123/123/123 122/122/122 121/121/121
f 124/124/124 121/121/121 122/122/122
f 124/124/124 125/125/125 121/121/121
f 126/126/126 121/121/121 125/125/125
f 129/129/129 128/128/128 127/127/127
f 130/130/130 127/127/127 128/128/128
f 131/131/131 127/127/127 130/130/130
f 132/132/132 130/130/130 128/128/128
f 132/132/132 133/133/133 130/130/130
f 133/133/133 134/134/134 130/130/130
f 137/137/137 136/136/136 135/135/135
f 138/138/138 135/135/135 136/136/136
f 136/136/136 139/139/139 138/138/138
f 142/142/142 141/141/141 140/140/140
f 142/142/142 140/140/140 143/143/143
f 144/144/144 143/143/143 140/140/140
f 145/145/145 143/143/143 144/144/144
f 146/146/146 143/143/143 145/145/145
f 149/149/149 148/148/148 147/147/147
f 150/150/150 147/147/147 148/148/148
f 153/153/153 152/152/152 151/151/151
f 154/154/154 151/151/151 152/152/152
f 154/154/154 152/152/152 155/155/155
f 158/158/158 157/157/157 156/156/156
f 159/159/159 156/156/156 157/157/157
f 162/162/162 161/161/161 160/160/160
f 163/163/163 161/161/161 162/162/162
f 166/166/166 165/165/165 164/164/164
f 167/167/167 164/164/164 165/165/165
f 168/168/168 167/167/167 165/165/165
f 167/167/167 169/169/169 164/164/164
f 169/169/169 170/170/170 164/164/164
f 169/169/169 171/171/171 170/170/170
f 172/172/172 171/171/171 169/169/169
f 175/175/175 174/174/174 173/173/173
f 176/176/176 173/173/173 174/174/174
f 179/179/179 178/178/178 177/177/177
f 179/179/179 180/180/180 178/178/178
f 181/181/181 178/178/178 180/180/180
f 181/181/181 180/180/180 182/182/182
f 180/180/180 183/183/183 182/182/182
f 178/178/178 184/184/184 177/177/177
f 182/182/182 183/183/183 184/184/184
f 185/185/185 177/177/177 184/184/184
f 185/185/185 184/184/184 183/183/183
g jianzhu9_scene97_2
f 188/188/188 187/187/187 186/186/186
f 189/189/189 188/188/188 186/186/186
f 192/192/192 191/191/191 190/190/190
f 190/190/190 193/193/193 192/192/192
f 193/193/193 190/190/190 194/194/194
f 197/197/197 196/196/196 195/195/195
f 195/195/195 196/196/196 198/198/198
f 195/195/195 198/198/198 199/199/199
f 199/199/199 200/200/200 195/195/195
f 203/203/203 202/202/202 201/201/201
f 204/204/204 201/201/201 202/202/202
f 207/207/207 206/206/206 205/205/205
f 207/207/207 208/208/208 206/206/206
f 209/209/209 206/206/206 208/208/208
f 209/209/209 208/208/208 210/210/210
f 213/213/213 212/212/212 211/211/211
f 212/212/212 213/213/213 214/214/214
f 217/217/217 216/216/216 215/215/215
f 216/216/216 217/217/217 218/218/218
f 221/221/221 220/220/220 219/219/219
f 222/222/222 219/219/219 220/220/220
f 225/225/225 224/224/224 223/223/223
f 226/226/226 223/223/223 224/224/224
