g jianzhu3_scene97
v 3.072001 -1.536003 -1.535986
v 3.072001 1.536001 1.536006
v 3.072001 1.536001 -1.535986
v 3.072001 -1.536003 1.536006
v 1.536001 3.071997 1.536006
v -1.535998 3.071997 -1.535986
v 1.536003 3.071997 -1.535986
v -1.535998 3.071997 1.536006
v 3.072001 1.536001 -1.535986
v 3.072001 1.536001 1.536006
v 1.536003 3.071997 -1.535986
v 1.536001 3.071997 1.536006
v -1.535998 3.071997 1.536006
v -3.072 1.536001 -1.535986
v -1.535998 3.071997 -1.535986
v -3.072 1.536001 1.536006
v 3.072001 -1.536003 1.536006
v 3.072001 -1.536003 -1.535986
v 1.536001 -3.072 1.536006
v 1.536001 -3.072 -1.535986
v 3.072001 -1.536003 -1.535986
v 3.072001 1.536001 -4.607998
v 3.072001 -1.536003 -4.607998
v 3.072001 1.536001 -1.535986
v -1.535998 3.071997 -4.607998
v 1.536003 3.071997 -4.607998
v -1.535998 3.071997 -1.535986
v 1.536003 3.071997 -1.535986
v 3.072001 1.536001 -1.535986
v 1.536003 3.071997 -4.607998
v 3.072001 1.536001 -4.607998
v 1.536003 3.071997 -1.535986
v -1.535998 3.071997 -1.535986
v -3.072 1.536001 -4.607998
v -1.535998 3.071997 -4.607998
v -3.072 1.536001 -1.535986
v 3.072001 -1.536003 -1.535986
v 3.072001 -1.536003 -4.607998
v 1.536001 -3.072 -1.535986
v 1.536001 -3.072 -4.607998
v -1.535998 -3.072 4.607998
v 1.536001 -3.072 1.536006
v -1.535998 -3.072 1.536006
v 1.536001 -3.072 4.607998
v -1.535998 3.071997 1.536006
v 1.536001 3.071997 1.536006
v -1.535998 3.071997 4.607998
v 1.536001 3.071997 4.607998
v -3.072 -1.536003 1.536006
v -3.072 1.536001 4.607998
v -3.072 -1.536003 4.607998
v -3.072 1.536001 1.536006
v 3.072001 -1.536003 4.607998
v 3.072001 1.536001 1.536006
v 3.072001 -1.536003 1.536006
v 3.072001 1.536001 4.607998
v 3.072001 1.536001 1.536006
v 3.072001 1.536001 4.607998
v 1.536001 3.071997 1.536006
v 1.536001 3.071997 4.607998
v -1.535998 3.071997 1.536006
v -1.535998 3.071997 4.607998
v -3.072 1.536001 1.536006
v -3.072 1.536001 4.607998
v 3.072001 -1.536003 1.536006
v 1.536001 -3.072 4.607998
v 3.072001 -1.536003 4.607998
v 1.536001 -3.072 1.536006
vt 0.8977501 0.02594326
vt 0.6494061 0.2235416
vt 0.6494061 0.02241947
vt 0.895929 0.2329384
vt 0.5743364 0.211805
vt 0.8237731 0.01068287
vt 0.5743364 0.01068287
vt 0.8237731 0.211805
vt 0.6494061 0.02241947
vt 0.6494061 0.2235416
vt 0.5246876 0.02241947
vt 0.5246876 0.2235416
vt 0.5870469 0.2235416
vt 0.7117653 0.02241947
vt 0.5870469 0.02241947
vt 0.7117653 0.2235416
vt 0.8496349 0.2235416
vt 0.8496349 0.02241947
vt 0.9743533 0.2235416
vt 0.9743533 0.02241947
vt 0.8745079 0.2499426
vt 0.6255972 0.001039996
vt 0.8745079 0.001039996
vt 0.6255972 0.2499426
vt 0.7505376 0.001039996
vt 0.5011008 0.001039996
vt 0.7505376 0.2499426
vt 0.5011008 0.2499426
vt 0.6255972 0.2499426
vt 0.5011418 0.001039996
vt 0.6255972 0.001039996
vt 0.5011418 0.2499426
vt 0.5633695 0.2499426
vt 0.6878248 0.001039996
vt 0.5633695 0.001039996
vt 0.6878248 0.2499426
vt 0.8745079 0.2499426
vt 0.8745079 0.001039996
vt 0.9989634 0.2499426
vt 0.9989634 0.001039996
vt 0.3906805 0.7489566
vt 0.1413057 0.5009543
vt 0.3906805 0.5009543
vt 0.1413057 0.7489566
vt 0.2504072 0.5009543
vt 0.001032367 0.5009543
vt 0.2504072 0.7489566
vt 0.001032367 0.7489566
vt 0.4365567 0.5009543
vt 0.1876744 0.7489566
vt 0.4365567 0.7489566
vt 0.1876744 0.5009543
vt 0.3743361 0.7489566
vt 0.1254538 0.5009543
vt 0.3743361 0.5009543
vt 0.1254538 0.7489566
vt 0.1254538 0.5009543
vt 0.1254538 0.7489566
vt 0.001012679 0.5009543
vt 0.001012679 0.7489566
vt 0.06323325 0.5009543
vt 0.06323325 0.7489566
vt 0.1876744 0.5009543
vt 0.1876744 0.7489566
vt 0.3743361 0.5009543
vt 0.4987772 0.7489566
vt 0.3743361 0.7489566
vt 0.4987772 0.5009543
vn 1 0 0
vn 1 0 0
vn 1 0 0
vn 1 0 0
vn 0.3826828 0.9238798 1.520648E-07
vn -0.3826827 0.9238798 0
vn 0.3826833 0.9238796 0
vn -0.3826827 0.9238798 0
vn 0.7071065 0.707107 0
vn 0.7071061 0.7071075 1.708842E-07
vn 0.3826833 0.9238796 0
vn 0.3826828 0.9238798 1.520648E-07
vn -0.3826827 0.9238798 0
vn -0.7071056 0.7071078 0
vn -0.3826827 0.9238798 0
vn -0.7071056 0.7071078 0
vn 0.7071059 -0.7071076 0
vn 0.7071059 -0.7071076 0
vn 0.5054488 -0.8628567 0
vn 0.7071059 -0.7071077 0
vn 1 0 0
vn 1 0 0
vn 1 0 0
vn 1 0 0
vn -0.3826827 0.9238798 0
vn 0.3826832 0.9238796 0
vn -0.3826827 0.9238798 0
vn 0.3826833 0.9238796 0
vn 0.7071065 0.707107 0
vn 0.3826832 0.9238796 0
vn 0.7071065 0.707107 0
vn 0.3826833 0.9238796 0
vn -0.3826827 0.9238798 0
vn -0.7071056 0.7071078 0
vn -0.3826827 0.9238798 0
vn -0.7071056 0.7071078 0
vn 0.7071059 -0.7071076 0
vn 0.7071059 -0.7071076 0
vn 0.7071059 -0.7071077 0
vn 0.7071059 -0.7071077 0
vn 0 -1 0
vn 0.5054488 -0.8628567 0
vn 0 -1 0
vn 0.3826829 -0.9238797 0
vn -0.3826827 0.9238798 0
vn 0.3826828 0.9238798 1.520648E-07
vn -0.3826827 0.9238798 0
vn 0.3826829 0.9238797 0
vn -1 0 0
vn -1 0 0
vn -1 0 0
vn -1 0 0
vn 1 0 0
vn 1 0 0
vn 1 0 0
vn 1 0 0
vn 0.7071061 0.7071075 1.708842E-07
vn 0.7071059 0.7071076 0
vn 0.3826828 0.9238798 1.520648E-07
vn 0.3826829 0.9238797 0
vn -0.3826827 0.9238798 0
vn -0.3826827 0.9238798 0
vn -0.7071056 0.7071078 0
vn -0.7071056 0.7071078 0
vn 0.7071059 -0.7071076 0
vn 0.3826829 -0.9238797 0
vn 0.7071059 -0.7071076 0
vn 0.5054488 -0.8628567 0
g jianzhu3_scene97_0
f 3/3/3 2/2/2 1/1/1
f 4/4/4 1/1/1 2/2/2
f 7/7/7 6/6/6 5/5/5
f 8/8/8 5/5/5 6/6/6
f 11/11/11 10/10/10 9/9/9
f 12/12/12 10/10/10 11/11/11
f 15/15/15 14/14/14 13/13/13
f 16/16/16 13/13/13 14/14/14
f 19/19/19 18/18/18 17/17/17
f 18/18/18 19/19/19 20/20/20
f 23/23/23 22/22/22 21/21/21
f 24/24/24 21/21/21 22/22/22
f 27/27/27 26/26/26 25/25/25
f 28/28/28 26/26/26 27/27/27
f 31/31/31 30/30/30 29/29/29
f 32/32/32 29/29/29 30/30/30
f 35/35/35 34/34/34 33/33/33
f 36/36/36 33/33/33 34/34/34
f 39/39/39 38/38/38 37/37/37
f 38/38/38 39/39/39 40/40/40
f 43/43/43 42/42/42 41/41/41
f 44/44/44 41/41/41 42/42/42
f 47/47/47 46/46/46 45/45/45
f 48/48/48 46/46/46 47/47/47
f 51/51/51 50/50/50 49/49/49
f 52/52/52 49/49/49 50/50/50
f 55/55/55 54/54/54 53/53/53
f 56/56/56 53/53/53 54/54/54
f 59/59/59 58/58/58 57/57/57
f 58/58/58 59/59/59 60/60/60
f 63/63/63 62/62/62 61/61/61
f 62/62/62 63/63/63 64/64/64
f 67/67/67 66/66/66 65/65/65
f 68/68/68 65/65/65 66/66/66
