g jianzhu8_scene97
v -4.640817 -2.906904 2.276318
v -4.601747 -2.851443 2.232646
v -4.640925 -2.906907 0.9586816
v -4.601847 -2.851443 0.9804394
v -3.62016 -2.906904 0.9586816
v -3.659236 -2.851443 0.9804394
v -3.620265 -2.906907 2.276318
v -3.659339 -2.851443 2.232646
v -7.121009 -2.907022 2.268642
v -7.081937 -2.85157 2.224971
v -7.121117 -2.907024 0.9510058
v -7.082037 -2.85157 0.9727637
v -6.100354 -2.907022 0.9510058
v -6.139429 -2.85157 0.9727637
v -6.100458 -2.907024 2.268642
v -6.139533 -2.85157 2.224971
v -3.839998 -2.735996 0.09598633
v -0.8640002 -2.735996 0.09598633
v -0.8640002 -2.735998 -2.976006
v -3.839998 -2.735998 -2.976006
v -7.871998 -2.735996 0.09598633
v -4.895997 -2.735996 0.09598633
v -4.895997 -2.735998 -2.976006
v -7.871998 -2.735998 -2.976006
v -4.675511 -2.906904 0.8734277
v -3.585572 -2.906904 0.8734277
v -4.691205 -2.824265 0.86708
v -3.569879 -2.824265 0.86708
v -4.691205 -2.824265 0.86708
v -4.691205 -2.824382 2.348916
v -4.675511 -2.906904 0.8734277
v -4.675396 -2.906914 2.34124
v -3.620265 -2.906907 2.276318
v -3.659339 -2.851443 2.232646
v -4.640817 -2.906904 2.276318
v -4.601747 -2.851443 2.232646
v -4.640925 -2.906907 0.9586816
v -4.601847 -2.851443 0.9804394
v -3.62016 -2.906904 0.9586816
v -3.659236 -2.851443 0.9804394
v -4.675396 -2.906914 2.34124
v -4.691205 -2.824382 2.348916
v -3.58569 -2.906914 2.34124
v -3.569879 -2.824382 2.348916
v -3.585572 -2.906904 0.8734277
v -3.58569 -2.906914 2.34124
v -3.569879 -2.824265 0.86708
v -3.569879 -2.824382 2.348916
v -4.601847 -2.851443 0.9804394
v -3.659339 -2.851443 2.232646
v -3.659236 -2.851443 0.9804394
v -4.601747 -2.851443 2.232646
v -7.155705 -2.907022 0.8657519
v -6.065764 -2.907022 0.8657519
v -7.171395 -2.824382 0.8594043
v -6.050071 -2.824382 0.8594043
v -7.171395 -2.824382 0.8594043
v -7.171395 -2.824499 2.34124
v -7.155705 -2.907022 0.8657519
v -7.155588 -2.907031 2.333565
v -6.100458 -2.907024 2.268642
v -6.139533 -2.85157 2.224971
v -7.121009 -2.907022 2.268642
v -7.081937 -2.85157 2.224971
v -7.121117 -2.907024 0.9510058
v -7.082037 -2.85157 0.9727637
v -6.100354 -2.907022 0.9510058
v -6.139429 -2.85157 0.9727637
v -7.155588 -2.907031 2.333565
v -7.171395 -2.824499 2.34124
v -6.065881 -2.907031 2.333565
v -6.050071 -2.824499 2.34124
v -6.065764 -2.907022 0.8657519
v -6.065881 -2.907031 2.333565
v -6.050071 -2.824382 0.8594043
v -6.050071 -2.824499 2.34124
v -7.082037 -2.85157 0.9727637
v -6.139533 -2.85157 2.224971
v -6.139429 -2.85157 0.9727637
v -7.081937 -2.85157 2.224971
v -3.58569 -2.906914 2.34124
v -3.620265 -2.906907 2.276318
v -4.675396 -2.906914 2.34124
v -3.62016 -2.906904 0.9586816
v -4.640817 -2.906904 2.276318
v -3.585572 -2.906904 0.8734277
v -4.675511 -2.906904 0.8734277
v -4.640925 -2.906907 0.9586816
v -6.065881 -2.907031 2.333565
v -6.100458 -2.907024 2.268642
v -7.155588 -2.907031 2.333565
v -6.100354 -2.907022 0.9510058
v -7.121009 -2.907022 2.268642
v -6.065764 -2.907022 0.8657519
v -7.155705 -2.907022 0.8657519
v -7.121117 -2.907024 0.9510058
v -8.928 -2.927998 2.975986
v -8.927999 -2.928 3.167998
v -8.831998 -2.928 2.975986
v -8.831998 -2.928 3.167998
v -8.063997 -2.928 3.167998
v -8.063997 -2.928 2.975986
v 1.220703E-06 -2.928 2.975986
v 0.09600098 -2.928 3.167998
v 0.09600037 -2.927998 2.975986
v 0.09600098 1.008 2.975986
v 0.09600098 0.2400024 3.167998
v 0.09600098 1.008 3.167998
v 0.09600098 0.2400024 2.975986
v 0.09600037 -2.927998 2.975986
v 0.09600098 -2.928 3.167998
v -8.927999 2.928 3.167998
v -8.927999 0.2400024 2.975986
v -8.927999 2.928 2.975986
v -8.927999 0.2400024 3.167998
v -8.927999 -2.928 3.167998
v -8.928 -2.927998 2.975986
v 8.832001 0.04800049 0.4799902
v 1.220703E-06 0.04800049 1.247998
v 8.832001 0.04800049 1.247998
v 1.220703E-06 0.04800049 0.09598633
v 8.832001 0.04800049 0.09598633
v 8.832001 0.04800049 -0.4800098
v 1.220703E-06 0.04800049 -0.4800098
v 1.220703E-06 0.04800049 -1.248018
v 8.832001 0.04800049 -1.248018
v 8.832001 0.04800049 -1.824014
v 1.220703E-06 0.04800049 -1.824014
v 1.220703E-06 0.04800049 -2.976006
v 8.832001 0.04800049 -2.976006
v 1.220703E-06 0.04800049 -2.976006
v 8.832001 0.04800049 -2.976006
v 1.220703E-06 0.04800049 -3.167998
v 8.928 0.04800049 -3.167998
v 1.220703E-06 1.008 2.975986
v 1.220703E-06 0.2400024 2.975986
v 0.09600098 1.008 2.975986
v 0.09600098 0.2400024 2.975986
v 1.220703E-06 0.04800049 2.975986
v 0.09600037 -2.927998 2.975986
v 1.220703E-06 -2.832 2.975986
v 1.220703E-06 -2.928 2.975986
v -8.063997 -2.832 2.975986
v -8.063997 -2.928 2.975986
v -8.831998 -2.832 2.975986
v -8.831998 -2.928 2.975986
v -8.928 -2.927998 2.975986
v -8.831998 -1.679998 2.975986
v -8.927999 0.2400024 2.975986
v -8.831998 0.2400024 2.975986
v -8.927999 2.928 2.975986
v -8.831998 2.928 2.975986
v -4.895997 -2.735996 0.09598633
v -7.871998 -2.832 0.09598633
v -4.895997 -2.832 0.09598633
v -7.871998 -2.735996 0.09598633
v -0.8640002 -2.735996 0.09598633
v -3.839998 -2.832 0.09598633
v -0.8640002 -2.832 0.09598633
v -3.839998 -2.735996 0.09598633
v -7.871998 -2.735996 0.09598633
v -7.871998 -2.832 -2.976006
v -7.871998 -2.832 0.09598633
v -7.871998 -2.735998 -2.976006
v -3.839998 -2.735996 0.09598633
v -3.839998 -2.832 -2.976006
v -3.839998 -2.832 0.09598633
v -3.839998 -2.735998 -2.976006
v -4.895997 -2.735998 -2.976006
v -4.895997 -2.832 0.09598633
v -4.895997 -2.832 -2.976006
v -4.895997 -2.735996 0.09598633
v -3.839998 -2.832 0.09598633
v -3.839998 -2.832 -2.976006
v -4.895997 -2.832 0.09598633
v -4.895997 -2.832 -2.976006
v -8.831998 -2.832 -2.974897
v -7.871998 -2.832 0.09598633
v -7.871998 -2.832 -2.976006
v -8.831998 -2.832 0.09820312
v 1.220703E-06 -2.832 0.09598633
v 1.220703E-06 -2.832 -2.976006
v -0.8640002 -2.832 0.09598633
v -0.8640002 -2.832 -2.976006
v 1.220703E-06 -2.832 -2.976006
v 1.220703E-06 0.04800049 -1.824014
v 1.220703E-06 0.04800049 -2.976006
v 1.220703E-06 0.04800049 -1.248018
v 1.220703E-06 -2.832 0.09598633
v 1.220703E-06 0.04800049 -0.4800098
v 1.220703E-06 0.04800049 0.09598633
v -0.8640002 -2.735998 -2.976006
v -0.8640002 -2.832 0.09598633
v -0.8640002 -2.832 -2.976006
v -0.8640002 -2.735996 0.09598633
v -8.831998 -2.832 0.09820312
v -8.831998 -1.665823 -2.973789
v -8.831998 -1.675537 0.1006726
v -8.831998 -2.832 -2.974897
v 1.220703E-06 0.2400024 1.247998
v 1.220703E-06 1.008 2.975986
v 1.220703E-06 1.008 1.247998
v 1.220703E-06 0.2400024 2.975986
v 1.220703E-06 0.04800049 2.975986
v 1.220703E-06 0.04800049 1.247998
v 1.220703E-06 -2.832 2.975986
v 1.220703E-06 -2.832 0.09598633
v 1.220703E-06 0.04800049 0.09598633
v -8.831998 0.2400024 2.975986
v -8.831998 2.928 0.1014319
v -8.831998 2.928 2.975986
v -8.831998 0.2400024 0.1014319
v -8.831998 -1.675537 0.1006726
v -8.831998 -1.679998 2.975986
v -8.831998 -2.832 0.09820312
v -8.831998 -2.832 2.975986
v -0.8640002 -2.832 0.09598633
v 1.220703E-06 -2.832 2.975986
v 1.220703E-06 -2.832 0.09598633
v -3.839998 -2.832 0.09598633
v -8.063997 -2.832 2.975986
v -4.895997 -2.832 0.09598633
v -7.871998 -2.832 0.09598633
v -8.831998 -2.832 0.09820312
v -8.831998 -2.832 2.975986
vt 0.02259827 0.7392578
vt 0.02711487 0.734375
vt 0.02259827 0.6367188
vt 0.02709961 0.6396484
vt 0.1019897 0.6367188
vt 0.09747314 0.6396484
vt 0.1019897 0.7392578
vt 0.09747314 0.734375
vt 0.02259827 0.7392578
vt 0.02711487 0.734375
vt 0.02259827 0.6367188
vt 0.02709961 0.6396484
vt 0.1019897 0.6367188
vt 0.09747314 0.6396484
vt 0.1019897 0.7392578
vt 0.09747314 0.734375
vt 0.2519531 0.373291
vt 0.4980469 0.373291
vt 0.4980469 0.1273193
vt 0.2519531 0.1273193
vt 0.2519531 0.373291
vt 0.4980469 0.373291
vt 0.4980469 0.1273193
vt 0.2519531 0.1273193
vt 0.01989746 0.6298828
vt 0.1046753 0.6298828
vt 0.01867676 0.6254883
vt 0.105896 0.6254883
vt 0.01299286 0.6293945
vt 0.01299286 0.7446289
vt 0.01989746 0.6298828
vt 0.01991272 0.7441406
vt 0.1019897 0.7392578
vt 0.09747314 0.734375
vt 0.02259827 0.7392578
vt 0.02711487 0.734375
vt 0.02259827 0.6367188
vt 0.02709961 0.6396484
vt 0.1019897 0.6367188
vt 0.09747314 0.6396484
vt 0.01991272 0.7441406
vt 0.01867676 0.7490234
vt 0.1046753 0.7441406
vt 0.105896 0.7490234
vt 0.1046753 0.6298828
vt 0.1046753 0.7441406
vt 0.1115723 0.6293945
vt 0.1115723 0.7446289
vt 0.09436035 0.7324219
vt 0.03094482 0.6430664
vt 0.03092957 0.7324219
vt 0.09436035 0.6435547
vt 0.01989746 0.6298828
vt 0.1046753 0.6298828
vt 0.01867676 0.6254883
vt 0.105896 0.6254883
vt 0.01299286 0.6293945
vt 0.01299286 0.7446289
vt 0.01989746 0.6298828
vt 0.01991272 0.7441406
vt 0.1019897 0.7392578
vt 0.09747314 0.734375
vt 0.02259827 0.7392578
vt 0.02711487 0.734375
vt 0.02259827 0.6367188
vt 0.02709961 0.6396484
vt 0.1019897 0.6367188
vt 0.09747314 0.6396484
vt 0.01991272 0.7441406
vt 0.01867676 0.7490234
vt 0.1046753 0.7441406
vt 0.105896 0.7490234
vt 0.1046753 0.6298828
vt 0.1046753 0.7441406
vt 0.1115723 0.6293945
vt 0.1115723 0.7446289
vt 0.09436035 0.7324219
vt 0.03094482 0.6430664
vt 0.03092957 0.7324219
vt 0.09436035 0.6435547
vt 0.1046753 0.7441406
vt 0.1019897 0.7392578
vt 0.01991272 0.7441406
vt 0.1019897 0.6367188
vt 0.02259827 0.7392578
vt 0.1046753 0.6298828
vt 0.01989746 0.6298828
vt 0.02259827 0.6367188
vt 0.1046753 0.7441406
vt 0.1019897 0.7392578
vt 0.01991272 0.7441406
vt 0.1019897 0.6367188
vt 0.02259827 0.7392578
vt 0.1046753 0.6298828
vt 0.01989746 0.6298828
vt 0.02259827 0.6367188
vt 0.5010565 0.001012096
vt 0.5010565 0.01160701
vt 0.506354 0.001012096
vt 0.506354 0.01160701
vt 0.5487337 0.01160701
vt 0.5487337 0.001012096
vt 0.9937202 0.001012096
vt 0.9990177 0.01160701
vt 0.9990177 0.001012096
vt 0.9645161 0.1178287
vt 0.902128 0.1334257
vt 0.9645161 0.1334257
vt 0.902128 0.1178287
vt 0.6447778 0.1178287
vt 0.6447778 0.1334257
vt 0.5087531 0.1019031
vt 0.727111 0.08630607
vt 0.5087531 0.08630607
vt 0.727111 0.1019031
vt 0.9844612 0.1019031
vt 0.9844612 0.08630607
vt 0.5010396 0.2062004
vt 0.9991184 0.2495116
vt 0.5010396 0.2495116
vt 0.9991184 0.1845448
vt 0.5010396 0.1845448
vt 0.5010396 0.1520614
vt 0.9991184 0.1520614
vt 0.9991184 0.1087502
vt 0.5010396 0.1087502
vt 0.5010396 0.0762668
vt 0.9991184 0.0762668
vt 0.9990501 0.01169288
vt 0.5010615 0.01169288
vt 0.4980524 0.839983
vt 0.00744137 0.839983
vt 0.4980524 0.8293175
vt 0.002108641 0.8293175
vt 0.5335931 0.9149356
vt 0.5335931 0.8829902
vt 0.5296 0.9149356
vt 0.5296 0.8829902
vt 0.5335931 0.8750039
vt 0.5296 0.7512156
vt 0.5335931 0.7552088
vt 0.5335931 0.7512156
vt 0.8690195 0.7552088
vt 0.8690195 0.7512156
vt 0.9009649 0.7552088
vt 0.9009649 0.7512156
vt 0.904958 0.7512156
vt 0.9009649 0.8031269
vt 0.904958 0.8829902
vt 0.9009649 0.8829902
vt 0.904958 0.994799
vt 0.9009649 0.994799
vt 0.7372448 0.7592019
vt 0.8610331 0.7552088
vt 0.7372448 0.7552088
vt 0.8610331 0.7592019
vt 0.5695316 0.7592019
vt 0.6933199 0.7552088
vt 0.5695316 0.7552088
vt 0.6933199 0.7592019
vt 0.7274231 0.7511832
vt 0.7352 0.9989851
vt 0.7352 0.7511832
vt 0.7274231 0.9989851
vt 0.7274231 0.7511832
vt 0.7352 0.9989851
vt 0.7352 0.7511832
vt 0.7274231 0.9989851
vt 0.9985808 0.9989851
vt 0.9908038 0.7511832
vt 0.9908038 0.9989851
vt 0.9985808 0.7511832
vt 0.8911151 0.7511832
vt 0.8911151 0.9989851
vt 0.9766629 0.7511832
vt 0.9766629 0.9989851
vt 0.8277308 0.9989851
vt 0.7499602 0.7511832
vt 0.7499602 0.9989851
vt 0.8277308 0.7511832
vt 0.8023361 0.7511832
vt 0.8023361 0.9989851
vt 0.8723296 0.7511832
vt 0.8723296 0.9989851
vt 0.7352 0.9989851
vt 0.5018883 0.905937
vt 0.5018883 0.9989851
vt 0.5018883 0.8594128
vt 0.7352 0.7511832
vt 0.5018883 0.7974623
vt 0.5018883 0.7511832
vt 0.9985808 0.9989851
vt 0.9908038 0.7511832
vt 0.9908038 0.9989851
vt 0.9985808 0.7511832
vt 0.7352 0.7511832
vt 0.6407269 0.9989851
vt 0.6407269 0.7511832
vt 0.7352 0.9989851
vt 0.8093717 0.5945692
vt 0.8717521 0.7349252
vt 0.8717521 0.5945692
vt 0.8093717 0.7349252
vt 0.7937767 0.7349252
vt 0.7937767 0.5945692
vt 0.5598509 0.7349252
vt 0.5598509 0.5009986
vt 0.7937767 0.5009986
vt 0.7193401 0.7349252
vt 0.5010088 0.5014393
vt 0.5010088 0.7349252
vt 0.7193465 0.5014392
vt 0.8754043 0.5013714
vt 0.8752913 0.7349252
vt 0.9688619 0.5013565
vt 0.9688619 0.7349252
vt 0.9502879 0.5009986
vt 0.9990032 0.7349252
vt 0.9990032 0.5009986
vt 0.7824912 0.5009986
vt 0.544328 0.7349252
vt 0.7229504 0.5009986
vt 0.5551537 0.5009986
vt 0.5010257 0.5011782
vt 0.5010257 0.7349252
vn 0.8174943 -0.5759365 -6.633742E-05
vn 0.8174942 -0.5759369 -6.631281E-05
vn 0.8174841 -0.575951 -6.538806E-05
vn 0.8174838 -0.5759517 -6.534621E-05
vn -0.817489 -0.5759444 -6.619919E-05
vn -0.8174885 -0.5759451 -6.624199E-05
vn -0.8174729 -0.5759671 -6.765783E-05
vn -0.817472 -0.5759684 -6.773844E-05
vn 0.81743 -0.5760279 -6.557464E-05
vn 0.8174299 -0.576028 -6.556885E-05
vn 0.8174276 -0.5760314 -6.535181E-05
vn 0.8174275 -0.5760316 -6.534201E-05
vn -0.8174495 -0.5760003 -6.543884E-05
vn -0.8174488 -0.5760013 -6.550262E-05
vn -0.8174255 -0.5760344 -6.761282E-05
vn -0.8174242 -0.5760362 -6.773293E-05
vn 0 -1 7.947307E-07
vn 0 -1 7.947307E-07
vn 0 -1 7.947307E-07
vn 0 -1 7.947307E-07
vn 0 -1 7.947306E-07
vn 0 -1 7.947307E-07
vn 0 -1 7.947306E-07
vn 0 -1 7.947307E-07
vn 0 -0.07658613 -0.997063
vn 0 -0.07658613 -0.997063
vn 0 -0.07658613 -0.997063
vn 0 -0.07658613 -0.997063
vn -0.9824418 -0.186569 -1.475437E-05
vn -0.9821562 -0.1880668 7.205306E-05
vn -0.9824316 -0.1866229 -1.163421E-05
vn -0.9821447 -0.1881268 7.552742E-05
vn -1.47993E-06 -0.6186374 -0.7856766
vn -1.428754E-06 -0.618638 -0.7856762
vn 0 -0.6186525 -0.7856647
vn 0 -0.6186537 -0.7856638
vn 8.734493E-07 -0.3651939 0.9309315
vn 8.48839E-07 -0.3651943 0.9309314
vn 0 -0.3652065 0.9309266
vn 0 -0.3652073 0.9309263
vn 0 -0.09260435 0.995703
vn 0 -0.09260436 0.995703
vn 0 -0.09260437 0.995703
vn 0 -0.09260437 0.995703
vn 0.9824431 -0.1865622 7.719525E-05
vn 0.9821514 -0.1880924 -1.172117E-05
vn 0.9824317 -0.1866225 7.368917E-05
vn 0.9821409 -0.1881467 -1.487913E-05
vn 0 -1 0
vn 0 -1 0
vn 0 -1 0
vn 0 -1 0
vn 0 -0.07658613 -0.997063
vn 0 -0.07658613 -0.997063
vn 0 -0.07658613 -0.997063
vn 0 -0.07658613 -0.997063
vn -0.9824498 -0.186527 -1.475066E-05
vn -0.9821591 -0.1880519 7.362435E-05
vn -0.9824394 -0.1865818 -1.157428E-05
vn -0.9821473 -0.1881129 7.716133E-05
vn -1.480091E-06 -0.6187047 -0.7856237
vn -1.428916E-06 -0.6187053 -0.7856232
vn 0 -0.6187198 -0.7856118
vn 0 -0.6187208 -0.7856109
vn 8.735846E-07 -0.3652497 0.9309096
vn 8.489756E-07 -0.3652501 0.9309095
vn 0 -0.3652622 0.9309046
vn 0 -0.365263 0.9309043
vn 0 -0.09260435 0.995703
vn 0 -0.09260436 0.995703
vn 0 -0.09260436 0.995703
vn 0 -0.09260435 0.995703
vn 0.9824431 -0.1865622 7.719525E-05
vn 0.9821514 -0.1880924 -1.172117E-05
vn 0.9824317 -0.1866225 7.368917E-05
vn 0.9821409 -0.1881467 -1.487913E-05
vn 0 -1 0
vn 0 -1 0
vn 0 -1 0
vn 0 -1 0
vn -6.185259E-05 -1 -7.832428E-05
vn -0.0001172789 -1 -5.088072E-05
vn 8.254208E-05 -1 -0.0001049847
vn -9.619288E-06 -1 -3.463941E-06
vn 0.000149036 -1 -7.003272E-05
vn -2.341629E-06 -1 -2.419623E-06
vn -1.302611E-05 -1 -2.128971E-05
vn -4.392621E-05 -1 -1.029367E-05
vn -6.185227E-05 -1 -7.832328E-05
vn -0.0001172744 -1 -5.088093E-05
vn 8.254249E-05 -1 -0.0001049861
vn -9.618478E-06 -1 -3.463869E-06
vn 0.0001490414 -1 -7.003244E-05
vn -2.341635E-06 -1 -2.419692E-06
vn -1.302544E-05 -1 -2.128924E-05
vn -4.392261E-05 -1 -1.029387E-05
vn -2.543074E-05 -1 -1.271472E-05
vn -7.506063E-06 -1 -3.75284E-06
vn -8.962371E-06 -1 -4.480958E-06
vn 0 -1 0
vn 0 -1 0
vn 0 -1 0
vn 8.962691E-06 -1 -4.48106E-06
vn 7.506109E-06 -1 -3.752816E-06
vn 2.543154E-05 -1 -1.271496E-05
vn 1 0 0
vn 1 0 0
vn 1 0 0
vn 1 0 0
vn 1 0 -3.05622E-06
vn 1 0 -3.17872E-06
vn -1 0 0
vn -1 0 1.225037E-07
vn -1 0 0
vn -1 0 0
vn -1 3.70473E-07 6.112437E-06
vn -1 3.853229E-07 6.357445E-06
vn 0 -1 0
vn 0 -1 0
vn 0 -1 0
vn 0 -1 0
vn 0 -1 0
vn 0 -1 0
vn 0 -1 0
vn 0 -1 0
vn 0 -1 0
vn 0 -1 0
vn 0 -1 0
vn 0 -1 0
vn 0 -1 0
vn 0 -1 0
vn 0 -1 0
vn 0 -1 0
vn 0 -1 0
vn 0 0 -1
vn 0 0 -1
vn 0 0 -1
vn 0 0 -1
vn 0 0 -1
vn 0 0 -1
vn 0 0 -1
vn 0 0 -1
vn 0 0 -1
vn 0 0 -1
vn 0 0 -1
vn 0 0 -1
vn 0 0 -1
vn 0 0 -1
vn 0 0 -1
vn 0 0 -1
vn 0 0 -1
vn 0 0 -1
vn 0 0 -1
vn 0 0 -1
vn 0 0 -1
vn 0 0 -1
vn 0 0 -1
vn 0 0 -1
vn 0 0 -1
vn 0 0 -1
vn 1 0 0
vn 1 0 0
vn 1 0 0
vn 1 0 0
vn 1 0 0
vn 1 0 0
vn 1 0 0
vn 1 0 0
vn -1 0 0
vn -1 0 0
vn -1 0 0
vn -1 0 0
vn 0 -1 0
vn 0 -1 0
vn 0 -1 0
vn 0 -1 0
vn 0 -1 0
vn 0 -1 0
vn 0 -1 0
vn 0 -1 0
vn 0 -1 0
vn 0 -1 0
vn 0 -1 0
vn 0 -1 0
vn 1 0 0
vn 1 0 0
vn 1 0 0
vn 1 0 0
vn 1 0 0
vn 1 0 0
vn 1 0 0
vn -1 0 0
vn -1 0 0
vn -1 0 0
vn -1 0 0
vn -1 0 0
vn -1 0 0
vn -1 0 0
vn -1 0 0
vn 1 0 0
vn 1 0 0
vn 1 0 0
vn 1 0 0
vn 1 0 0
vn 1 0 0
vn 1 0 0
vn 1 0 0
vn 1 0 0
vn -1 0 0
vn -1 0 0
vn -1 0 0
vn -1 0 0
vn -1 0 0
vn -1 0 0
vn -1 0 0
vn -1 0 0
vn 0 -1 0
vn 0 -1 0
vn 0 -1 0
vn 0 -1 0
vn 0 -1 0
vn 0 -1 0
vn 0 -1 0
vn 0 -1 0
vn 0 -1 0
g jianzhu8_scene97_0
f 3/3/3 2/2/2 1/1/1
f 3/3/3 4/4/4 2/2/2
f 7/7/7 6/6/6 5/5/5
f 7/7/7 8/8/8 6/6/6
f 11/11/11 10/10/10 9/9/9
f 11/11/11 12/12/12 10/10/10
f 15/15/15 14/14/14 13/13/13
f 15/15/15 16/16/16 14/14/14
f 19/19/19 18/18/18 17/17/17
f 19/19/19 17/17/17 20/20/20
f 23/23/23 22/22/22 21/21/21
f 23/23/23 21/21/21 24/24/24
f 27/27/27 26/26/26 25/25/25
f 27/27/27 28/28/28 26/26/26
f 31/31/31 30/30/30 29/29/29
f 31/31/31 32/32/32 30/30/30
f 35/35/35 34/34/34 33/33/33
f 35/35/35 36/36/36 34/34/34
f 39/39/39 38/38/38 37/37/37
f 39/39/39 40/40/40 38/38/38
f 43/43/43 42/42/42 41/41/41
f 43/43/43 44/44/44 42/42/42
f 47/47/47 46/46/46 45/45/45
f 47/47/47 48/48/48 46/46/46
f 51/51/51 50/50/50 49/49/49
f 52/52/52 49/49/49 50/50/50
f 55/55/55 54/54/54 53/53/53
f 55/55/55 56/56/56 54/54/54
f 59/59/59 58/58/58 57/57/57
f 59/59/59 60/60/60 58/58/58
f 63/63/63 62/62/62 61/61/61
f 63/63/63 64/64/64 62/62/62
f 67/67/67 66/66/66 65/65/65
f 67/67/67 68/68/68 66/66/66
f 71/71/71 70/70/70 69/69/69
f 71/71/71 72/72/72 70/70/70
f 75/75/75 74/74/74 73/73/73
f 75/75/75 76/76/76 74/74/74
f 79/79/79 78/78/78 77/77/77
f 80/80/80 77/77/77 78/78/78
f 83/83/83 82/82/82 81/81/81
f 81/81/81 82/82/82 84/84/84
f 83/83/83 85/85/85 82/82/82
f 81/81/81 84/84/84 86/86/86
f 87/87/87 85/85/85 83/83/83
f 86/86/86 84/84/84 88/88/88
f 87/87/87 88/88/88 85/85/85
f 86/86/86 88/88/88 87/87/87
f 91/91/91 90/90/90 89/89/89
f 89/89/89 90/90/90 92/92/92
f 91/91/91 93/93/93 90/90/90
f 89/89/89 92/92/92 94/94/94
f 95/95/95 93/93/93 91/91/91
f 94/94/94 92/92/92 96/96/96
f 95/95/95 96/96/96 93/93/93
f 94/94/94 96/96/96 95/95/95
g jianzhu8_scene97_1
f 99/99/99 98/98/98 97/97/97
f 98/98/98 99/99/99 100/100/100
f 99/99/99 101/101/101 100/100/100
f 102/102/102 101/101/101 99/99/99
f 101/101/101 102/102/102 103/103/103
f 103/103/103 104/104/104 101/101/101
f 105/105/105 104/104/104 103/103/103
f 108/108/108 107/107/107 106/106/106
f 107/107/107 109/109/109 106/106/106
f 109/109/109 107/107/107 110/110/110
f 111/111/111 110/110/110 107/107/107
f 114/114/114 113/113/113 112/112/112
f 113/113/113 115/115/115 112/112/112
f 115/115/115 113/113/113 116/116/116
f 117/117/117 116/116/116 113/113/113
f 120/120/120 119/119/119 118/118/118
f 119/119/119 121/121/121 118/118/118
f 122/122/122 118/118/118 121/121/121
f 123/123/123 122/122/122 121/121/121
f 121/121/121 124/124/124 123/123/123
f 125/125/125 123/123/123 124/124/124
f 126/126/126 123/123/123 125/125/125
f 126/126/126 125/125/125 127/127/127
f 128/128/128 127/127/127 125/125/125
f 129/129/129 127/127/127 128/128/128
f 130/130/130 127/127/127 129/129/129
f 133/133/133 132/132/132 131/131/131
f 134/134/134 132/132/132 133/133/133
g jianzhu8_scene97_2
f 137/137/137 136/136/136 135/135/135
f 136/136/136 137/137/137 138/138/138
f 136/136/136 138/138/138 139/139/139
f 138/138/138 140/140/140 139/139/139
f 141/141/141 139/139/139 140/140/140
f 142/142/142 141/141/141 140/140/140
f 141/141/141 142/142/142 143/143/143
f 144/144/144 143/143/143 142/142/142
f 144/144/144 145/145/145 143/143/143
f 145/145/145 144/144/144 146/146/146
f 146/146/146 147/147/147 145/145/145
f 145/145/145 147/147/147 148/148/148
f 148/148/148 147/147/147 149/149/149
f 150/150/150 148/148/148 149/149/149
f 150/150/150 149/149/149 151/151/151
f 152/152/152 150/150/150 151/151/151
f 155/155/155 154/154/154 153/153/153
f 156/156/156 153/153/153 154/154/154
f 159/159/159 158/158/158 157/157/157
f 160/160/160 157/157/157 158/158/158
f 163/163/163 162/162/162 161/161/161
f 164/164/164 161/161/161 162/162/162
f 167/167/167 166/166/166 165/165/165
f 168/168/168 165/165/165 166/166/166
f 171/171/171 170/170/170 169/169/169
f 172/172/172 169/169/169 170/170/170
f 175/175/175 174/174/174 173/173/173
f 174/174/174 175/175/175 176/176/176
f 179/179/179 178/178/178 177/177/177
f 180/180/180 177/177/177 178/178/178
f 183/183/183 182/182/182 181/181/181
f 182/182/182 183/183/183 184/184/184
f 187/187/187 186/186/186 185/185/185
f 186/186/186 188/188/188 185/185/185
f 189/189/189 185/185/185 188/188/188
f 190/190/190 189/189/189 188/188/188
f 191/191/191 189/189/189 190/190/190
f 194/194/194 193/193/193 192/192/192
f 195/195/195 192/192/192 193/193/193
f 198/198/198 197/197/197 196/196/196
f 199/199/199 196/196/196 197/197/197
f 202/202/202 201/201/201 200/200/200
f 203/203/203 200/200/200 201/201/201
f 203/203/203 204/204/204 200/200/200
f 200/200/200 204/204/204 205/205/205
f 204/204/204 206/206/206 205/205/205
f 206/206/206 207/207/207 205/205/205
f 208/208/208 205/205/205 207/207/207
f 211/211/211 210/210/210 209/209/209
f 212/212/212 209/209/209 210/210/210
f 209/209/209 212/212/212 213/213/213
f 213/213/213 214/214/214 209/209/209
f 213/213/213 215/215/215 214/214/214
f 216/216/216 214/214/214 215/215/215
f 219/219/219 218/218/218 217/217/217
f 217/217/217 218/218/218 220/220/220
f 221/221/221 220/220/220 218/218/218
f 222/222/222 220/220/220 221/221/221
f 223/223/223 222/222/222 221/221/221
f 224/224/224 223/223/223 221/221/221
f 225/225/225 224/224/224 221/221/221
