g lubian7_scene48
v -0.197132 0 0.197132
v -0.106687 0 0.257566
v 0 0 0.278787
v -0.278787 0 0
v -0.257566 0 0.106687
v 0.278787 0 0
v 0.197132 0 0.197132
v 0.106687 0 0.257566
v 0.257566 0 0.106687
v 0 0 -0.278787
v -0.197132 0 -0.197132
v -0.257566 0 -0.106687
v -0.106687 0 -0.257566
v 0.197132 0 -0.197132
v 0.106687 0 -0.257566
v 0.257566 0 -0.106687
v 0.106687 0 -0.257566
v 0.190091 0.036205 -0.190091
v 0.102876 0.036205 -0.248366
v 0.197132 0 -0.197132
v 0.248366 0.036205 -0.102876
v 0.257566 0 -0.106687
v 0.268829 0.036205 0
v 0.278787 0 0
v 0.248366 0.036205 0.102876
v 0.257566 0 0.106687
v 0.102876 0.036205 -0.248366
v 0 0 -0.278787
v 0.106687 0 -0.257566
v 0 0.036205 -0.268829
v -0.106687 0 -0.257566
v -0.102876 0.036205 -0.248366
v -0.197132 0 -0.197132
v -0.190091 0.036205 -0.190091
v -0.257566 0 -0.106687
v -0.248366 0.036205 -0.102876
v -0.248366 0.036205 -0.102876
v -0.278787 0 0
v -0.257566 0 -0.106687
v -0.268829 0.036205 0
v -0.257566 0 0.106687
v -0.248366 0.036205 0.102876
v -0.197132 0 0.197132
v -0.190091 0.036205 0.190091
v -0.106687 0 0.257566
v -0.102876 0.036205 0.248366
v -0.102876 0.036205 0.248366
v 0 0 0.278787
v -0.106687 0 0.257566
v 0 0.036205 0.268829
v 0.106687 0 0.257566
v 0.102876 0.036205 0.248366
v 0.197132 0 0.197132
v 0.190091 0.036205 0.190091
v 0.257566 0 0.106687
v 0.248366 0.036205 0.102876
v -0.248366 0.036205 -0.102876
v -0.234203 0.053267 0
v -0.268829 0.036205 0
v -0.216376 0.053267 -0.08962599
v -0.190091 0.036205 -0.190091
v -0.216375 0.053267 0.08962599
v -0.08962599 0.053267 0.216376
v -0.248366 0.036205 0.102876
v 0.216376 0.053267 0.08962599
v 0.08962599 0.053267 -0.216376
v -0.165607 0.053267 0.165607
v -0.190091 0.036205 0.190091
v -0.102876 0.036205 0.248366
v -0.165607 0.053267 -0.165607
v -0.102876 0.036205 -0.248366
v -0.08962599 0.053267 -0.216376
v 0 0.036205 -0.268829
v 0 0.053267 -0.234203
v 0.102876 0.036205 -0.248366
v 0.190091 0.036205 -0.190091
v 0 0.053267 0.234203
v 0 0.036205 0.268829
v 0.08962599 0.053267 0.216376
v 0.102876 0.036205 0.248366
v 0.165607 0.053267 0.165607
v 0.190091 0.036205 0.190091
v 0.248366 0.036205 0.102876
v 0.165607 0.053267 -0.165607
v 0.248366 0.036205 -0.102876
v 0.216376 0.053267 -0.08962599
v 0.268829 0.036205 0
v 0.234203 0.053267 0
vt 0.9469903 0.4908084
vt 0.9569764 0.4975416
vt 0.9687909 0.4999433
vt 0.9379433 0.4691594
vt 0.9403327 0.4807745
vt 0.9998465 0.4692883
vt 0.9906926 0.4910347
vt 0.9806306 0.4976612
vt 0.9974382 0.48107
vt 0.9691061 0.4383126
vt 0.9472171 0.4472275
vt 0.9404588 0.457186
vt 0.9572664 0.4405948
vt 0.9909195 0.4474538
vt 0.9809207 0.4407205
vt 0.9975643 0.4574878
vt 0.8944491 0.4405005
vt 0.8859256 0.4489124
vt 0.8953443 0.4426506
vt 0.8842612 0.4472652
vt 0.8796211 0.4582925
vt 0.877465 0.4573997
vt 0.8774146 0.4693512
vt 0.875082 0.4693512
vt 0.8796211 0.4804099
vt 0.877465 0.4812964
vt 0.8953443 0.4426506
vt 0.9064528 0.438124
vt 0.8944491 0.4405005
vt 0.9064528 0.4404502
vt 0.918469 0.4405005
vt 0.9175738 0.4426506
vt 0.9286443 0.4472652
vt 0.9269925 0.4489124
vt 0.9354405 0.4573997
vt 0.9332843 0.4582925
vt 0.9332843 0.4582925
vt 0.9379433 0.4691594
vt 0.9354405 0.4573997
vt 0.935491 0.4693512
vt 0.9354405 0.4812964
vt 0.9332843 0.4804099
vt 0.9286443 0.4914308
vt 0.9269925 0.4897837
vt 0.918469 0.4982018
vt 0.9175738 0.4960455
vt 0.9175738 0.4960455
vt 0.9064528 0.5005783
vt 0.918469 0.4982018
vt 0.9064528 0.4982459
vt 0.8944491 0.4982018
vt 0.8953443 0.4960455
vt 0.8842612 0.4914308
vt 0.8859256 0.4897837
vt 0.877465 0.4812964
vt 0.8796211 0.4804099
vt 0.9332843 0.4582925
vt 0.9324648 0.4693512
vt 0.935491 0.4693512
vt 0.9304852 0.459443
vt 0.9269925 0.4489124
vt 0.9304852 0.4792593
vt 0.9164138 0.4932666
vt 0.9332843 0.4804099
vt 0.8824203 0.4792593
vt 0.8965043 0.4454294
vt 0.924849 0.4876524
vt 0.9269925 0.4897837
vt 0.9175738 0.4960455
vt 0.924849 0.4510437
vt 0.9175738 0.4426506
vt 0.9164138 0.4454294
vt 0.9064528 0.4404502
vt 0.9064528 0.4434616
vt 0.8953443 0.4426506
vt 0.8859256 0.4489124
vt 0.9064528 0.4952407
vt 0.9064528 0.4982459
vt 0.8965043 0.4932666
vt 0.8953443 0.4960455
vt 0.8880565 0.4876524
vt 0.8859256 0.4897837
vt 0.8796211 0.4804099
vt 0.8880565 0.4510437
vt 0.8796211 0.4582925
vt 0.8824203 0.459443
vt 0.8774146 0.4693512
vt 0.8804408 0.4693512
vn 0 -1 0
vn 0 -1 0
vn 0 -1 0
vn 0 -1 0
vn 0 -1 0
vn 0 -1 0
vn 0 -1 0
vn 0 -1 0
vn 0 -1 0
vn 0 -1 0
vn 0 -1 0
vn 0 -1 0
vn 0 -1 0
vn 0 -1 0
vn 0 -1 0
vn 0 -1 0
vn 0.3689803 0.2651974 -0.8907996
vn 0.6817923 0.2651854 -0.6817887
vn 0.3689781 0.2651991 -0.8908001
vn 0.6817921 0.2651855 -0.681789
vn 0.8907994 0.2651974 -0.3689806
vn 0.8907983 0.2651991 -0.3689823
vn 0.9641943 0.2651969 1.636448E-07
vn 0.9641943 0.2651969 1.598143E-07
vn 0.8908001 0.2651991 0.3689781
vn 0.8907996 0.2651974 0.3689803
vn 0.3689781 0.2651991 -0.8908001
vn 1.598143E-07 0.2651969 -0.9641943
vn 0.3689803 0.2651974 -0.8907996
vn 1.636448E-07 0.2651969 -0.9641943
vn -0.3689823 0.2651991 -0.8907983
vn -0.3689806 0.2651975 -0.8907994
vn -0.681789 0.2651855 -0.6817921
vn -0.6817887 0.2651854 -0.6817923
vn -0.8907996 0.2651974 -0.3689803
vn -0.8908001 0.2651991 -0.3689781
vn -0.8908001 0.2651991 -0.3689781
vn -0.9641943 0.2651969 -1.598143E-07
vn -0.8907996 0.2651974 -0.3689803
vn -0.9641943 0.2651969 -1.636448E-07
vn -0.8907983 0.2651991 0.3689823
vn -0.8907994 0.2651975 0.3689806
vn -0.6817921 0.2651855 0.681789
vn -0.6817923 0.2651854 0.6817887
vn -0.3689803 0.2651974 0.8907996
vn -0.3689781 0.2651991 0.8908001
vn -0.3689781 0.2651991 0.8908001
vn -1.598143E-07 0.2651969 0.9641943
vn -0.3689803 0.2651974 0.8907996
vn -1.636448E-07 0.2651969 0.9641943
vn 0.3689823 0.2651991 0.8907983
vn 0.3689806 0.2651975 0.8907994
vn 0.681789 0.2651855 0.6817921
vn 0.6817887 0.2651854 0.6817923
vn 0.8907996 0.2651974 0.3689803
vn 0.8908001 0.2651991 0.3689781
vn -0.4083641 0.8970106 -0.1691474
vn -0.2534608 0.9673456 9.576192E-07
vn -0.4420033 0.8970134 8.029484E-07
vn -0.234171 0.9673447 -0.09699611
vn -0.312547 0.8970109 -0.3125476
vn -0.234165 0.9673464 0.09699392
vn -0.09699612 0.9673447 0.234171
vn -0.408357 0.8970144 0.1691437
vn 0.234171 0.9673447 0.09699612
vn 0.09699612 0.9673447 -0.234171
vn -0.1792261 0.967345 0.1792252
vn -0.3125476 0.8970109 0.312547
vn -0.1691474 0.8970106 0.4083641
vn -0.1792254 0.967345 -0.1792259
vn -0.1691485 0.8970104 -0.4083639
vn -0.0969969 0.9673447 -0.2341706
vn 7.131362E-07 0.8970127 -0.4420047
vn 5.72116E-07 0.9673458 -0.2534601
vn 0.1691474 0.8970106 -0.4083641
vn 0.3125476 0.8970109 -0.312547
vn -5.72116E-07 0.9673458 0.2534601
vn -7.13136E-07 0.8970127 0.4420047
vn 0.0969969 0.9673447 0.2341705
vn 0.1691485 0.8970104 0.4083639
vn 0.1792254 0.967345 0.1792259
vn 0.312547 0.8970109 0.3125476
vn 0.4083641 0.8970106 0.1691474
vn 0.1792259 0.967345 -0.1792254
vn 0.4083639 0.8970104 -0.1691485
vn 0.2341705 0.9673447 -0.0969969
vn 0.4420047 0.8970127 7.15817E-07
vn 0.2534601 0.9673458 5.745714E-07
g lubian7_scene48_0
f 3/3/3 2/2/2 1/1/1
f 4/4/4 3/3/3 1/1/1
f 5/5/5 4/4/4 1/1/1
f 6/6/6 3/3/3 4/4/4
f 7/7/7 3/3/3 6/6/6
f 8/8/8 3/3/3 7/7/7
f 9/9/9 7/7/7 6/6/6
f 10/10/10 6/6/6 4/4/4
f 11/11/11 10/10/10 4/4/4
f 12/12/12 11/11/11 4/4/4
f 13/13/13 10/10/10 11/11/11
f 14/14/14 6/6/6 10/10/10
f 15/15/15 14/14/14 10/10/10
f 16/16/16 6/6/6 14/14/14
f 19/19/19 18/18/18 17/17/17
f 20/20/20 17/17/17 18/18/18
f 18/18/18 21/21/21 20/20/20
f 22/22/22 20/20/20 21/21/21
f 21/21/21 23/23/23 22/22/22
f 24/24/24 22/22/22 23/23/23
f 23/23/23 25/25/25 24/24/24
f 26/26/26 24/24/24 25/25/25
f 29/29/29 28/28/28 27/27/27
f 30/30/30 27/27/27 28/28/28
f 28/28/28 31/31/31 30/30/30
f 32/32/32 30/30/30 31/31/31
f 31/31/31 33/33/33 32/32/32
f 34/34/34 32/32/32 33/33/33
f 33/33/33 35/35/35 34/34/34
f 36/36/36 34/34/34 35/35/35
f 39/39/39 38/38/38 37/37/37
f 40/40/40 37/37/37 38/38/38
f 38/38/38 41/41/41 40/40/40
f 42/42/42 40/40/40 41/41/41
f 41/41/41 43/43/43 42/42/42
f 44/44/44 42/42/42 43/43/43
f 43/43/43 45/45/45 44/44/44
f 46/46/46 44/44/44 45/45/45
f 49/49/49 48/48/48 47/47/47
f 50/50/50 47/47/47 48/48/48
f 48/48/48 51/51/51 50/50/50
f 52/52/52 50/50/50 51/51/51
f 51/51/51 53/53/53 52/52/52
f 54/54/54 52/52/52 53/53/53
f 53/53/53 55/55/55 54/54/54
f 56/56/56 54/54/54 55/55/55
f 59/59/59 58/58/58 57/57/57
f 60/60/60 57/57/57 58/58/58
f 57/57/57 60/60/60 61/61/61
f 58/58/58 59/59/59 62/62/62
f 58/58/58 62/62/62 60/60/60
f 62/62/62 63/63/63 60/60/60
f 64/64/64 62/62/62 59/59/59
f 63/63/63 65/65/65 60/60/60
f 65/65/65 66/66/66 60/60/60
f 62/62/62 64/64/64 67/67/67
f 67/67/67 63/63/63 62/62/62
f 68/68/68 67/67/67 64/64/64
f 67/67/67 68/68/68 63/63/63
f 69/69/69 63/63/63 68/68/68
f 70/70/70 61/61/61 60/60/60
f 61/61/61 70/70/70 71/71/71
f 70/70/70 60/60/60 72/72/72
f 72/72/72 71/71/71 70/70/70
f 60/60/60 66/66/66 72/72/72
f 71/71/71 72/72/72 73/73/73
f 74/74/74 73/73/73 72/72/72
f 66/66/66 74/74/74 72/72/72
f 73/73/73 74/74/74 75/75/75
f 66/66/66 75/75/75 74/74/74
f 75/75/75 66/66/66 76/76/76
f 63/63/63 69/69/69 77/77/77
f 78/78/78 77/77/77 69/69/69
f 77/77/77 79/79/79 63/63/63
f 77/77/77 78/78/78 79/79/79
f 80/80/80 79/79/79 78/78/78
f 79/79/79 65/65/65 63/63/63
f 79/79/79 80/80/80 81/81/81
f 81/81/81 65/65/65 79/79/79
f 82/82/82 81/81/81 80/80/80
f 81/81/81 82/82/82 65/65/65
f 83/83/83 65/65/65 82/82/82
f 84/84/84 76/76/76 66/66/66
f 76/76/76 84/84/84 85/85/85
f 84/84/84 66/66/66 86/86/86
f 86/86/86 85/85/85 84/84/84
f 86/86/86 66/66/66 65/65/65
f 85/85/85 86/86/86 87/87/87
f 65/65/65 83/83/83 88/88/88
f 87/87/87 88/88/88 83/83/83
f 88/88/88 86/86/86 65/65/65
f 88/88/88 87/87/87 86/86/86
