g lubian2_scene35
v 0.217467 0.361936 0.070469
v -0.508418 0.361943 0.070491
v -0.216511 0.36194 0.07048
v -0.508283 -0.362225 0.07051
v 0.218083 -0.362233 0.07048801
v -0.21625 -0.362229 0.070499
v -0.216511 0.36194 0.07048
v -0.508283 -0.362225 0.07051
v -0.21625 -0.362229 0.070499
v -0.508418 0.361943 0.070491
v 0.901568 -0.357119 0.210005
v 0.9014931 0.356557 -0.000266
v 0.901596 -0.357125 -0.000251
v 0.901564 0.361928 0.210221
v 0.901566 -0.189817 0.676886
v 0.9015689 0.195991 0.675925
v 0.8993871 0.141817 2.699252
v 0.8993871 -0.129043 2.699265
v 0.8993871 0.141817 2.699252
v -0.899185 -0.128941 2.699352
v -0.899185 0.141918 2.699338
v 0.8993871 -0.129043 2.699265
v 0.9014931 0.356557 -0.000266
v 0.545125 -0.36238 -0.001442
v 0.901596 -0.357125 -0.000251
v 0.544119 0.361821 -0.001457
v -0.901416 -0.357104 -0.001394
v -0.544634 0.361831 -0.001431
v -0.901416 0.356573 -0.000237
v -0.544496 -0.362367 -0.001416
v -0.180829 -0.362372 -0.001425
v 0.18122 0.361824 -0.001448
v -0.182177 0.361828 -0.00144
v 0.181899 -0.362376 -0.001434
v -0.508418 0.361943 0.070491
v -0.901416 0.356573 -0.000237
v -0.544634 0.361831 -0.001431
v -0.901595 0.361957 0.210528
v 0.217467 0.361936 0.070469
v 0.509537 0.361933 0.070458
v 0.901564 0.361928 0.210221
v 0.544119 0.361821 -0.001457
v 0.9014931 0.356557 -0.000266
v -0.901593 0.197569 0.677249
v 0.9015689 0.195991 0.675925
v -0.899185 0.141918 2.699338
v 0.8993871 0.141817 2.699252
v -0.216511 0.36194 0.07048
v 0.18122 0.361824 -0.001448
v 0.217467 0.361936 0.070469
v -0.182177 0.361828 -0.00144
v 0.509952 -0.362237 0.070477
v 0.544119 0.361821 -0.001457
v 0.509537 0.361933 0.070458
v 0.545125 -0.36238 -0.001442
v -0.901595 -0.35709 0.207986
v -0.544496 -0.362367 -0.001416
v -0.901416 -0.357104 -0.001394
v -0.508283 -0.362225 0.07051
v 0.901568 -0.357119 0.210005
v 0.218083 -0.362233 0.07048801
v 0.509952 -0.362237 0.070477
v 0.901596 -0.357125 -0.000251
v 0.545125 -0.36238 -0.001442
v 0.901566 -0.189817 0.676886
v -0.901592 -0.191207 0.674719
v 0.8993871 -0.129043 2.699265
v -0.899185 -0.128941 2.699352
v 0.218083 -0.362233 0.07048801
v -0.180829 -0.362372 -0.001425
v -0.21625 -0.362229 0.070499
v 0.181899 -0.362376 -0.001434
v -0.508418 0.361943 0.070491
v -0.544496 -0.362367 -0.001416
v -0.508283 -0.362225 0.07051
v -0.544634 0.361831 -0.001431
v -0.21625 -0.362229 0.070499
v -0.182177 0.361828 -0.00144
v -0.216511 0.36194 0.07048
v -0.180829 -0.362372 -0.001425
v 0.217467 0.361936 0.070469
v 0.181899 -0.362376 -0.001434
v 0.218083 -0.362233 0.07048801
v 0.18122 0.361824 -0.001448
v 0.218083 -0.362233 0.07048801
v 0.509537 0.361933 0.070458
v 0.217467 0.361936 0.070469
v 0.509952 -0.362237 0.070477
v -0.899185 -0.128941 2.699352
v -0.901593 0.197569 0.677249
v -0.899185 0.141918 2.699338
v -0.901592 -0.191207 0.674719
v -0.901595 0.361957 0.210528
v -0.901595 -0.35709 0.207986
v -0.901416 -0.357104 -0.001394
v -0.901416 0.356573 -0.000237
vt 0.257939 0.8260933
vt 0.257939 0.7779393
vt 0.257939 0.7972937
vt 0.257939 0.8454726
vt 0.257939 0.7972937
vt 0.257939 0.8260933
vt 0.2570103 0.8485353
vt 0.2762913 0.7650152
vt 0.2570103 0.7650152
vt 0.2763162 0.8485353
vt 0.2727291 0.8204736
vt 0.2511313 0.7799723
vt 0.2511313 0.8204736
vt 0.2727291 0.7799723
vt 0.3177432 0.8111812
vt 0.3177432 0.7892646
vt 0.4970272 0.792831
vt 0.4970272 0.8084046
vt 0.4194296 0.8710536
vt 0.4451128 0.7540169
vt 0.4194296 0.7540169
vt 0.4451128 0.8710536
vt 0.2764408 0.8146715
vt 0.2512309 0.8557528
vt 0.2764408 0.8554443
vt 0.2511562 0.8143629
vt 0.2519284 0.811574
vt 0.2771383 0.7704927
vt 0.2519284 0.7708012
vt 0.2771632 0.8118826
vt 0.2515818 0.8211164
vt 0.2776863 0.7771423
vt 0.2520032 0.7771423
vt 0.2777362 0.8185198
vt 0.257939 0.7779393
vt 0.2510607 0.7514446
vt 0.2510607 0.7755717
vt 0.2717208 0.7514446
vt 0.257939 0.8260933
vt 0.2574746 0.8470039
vt 0.2717208 0.8719298
vt 0.251669 0.8481753
vt 0.2510607 0.8719298
vt 0.3176684 0.7514446
vt 0.3176684 0.8719298
vt 0.4990313 0.7517578
vt 0.4990313 0.8716668
vt 0.257939 0.7972937
vt 0.2510607 0.8237132
vt 0.257939 0.8260933
vt 0.2510607 0.7996362
vt 0.2570103 0.7650152
vt 0.251669 0.8481753
vt 0.2574746 0.8470039
vt 0.2522772 0.7650152
vt 0.2717208 0.8719298
vt 0.2510607 0.8478152
vt 0.2510607 0.8719298
vt 0.257939 0.8454726
vt 0.2717208 0.7514446
vt 0.257939 0.7972937
vt 0.257939 0.7779393
vt 0.2510607 0.7514446
vt 0.2510607 0.7755717
vt 0.3176684 0.7514446
vt 0.3176684 0.8719298
vt 0.4990313 0.7517578
vt 0.4990313 0.8716668
vt 0.257939 0.7972937
vt 0.2515818 0.8211164
vt 0.257939 0.8260933
vt 0.2510607 0.7996362
vt 0.2763162 0.8485353
vt 0.2810493 0.7650152
vt 0.2762913 0.7650152
vt 0.2810493 0.8485353
vt 0.2570103 0.7650152
vt 0.2522772 0.8485353
vt 0.2570103 0.8485353
vt 0.2522772 0.7650152
vt 0.2763162 0.8485353
vt 0.2810493 0.7650152
vt 0.2762913 0.7650152
vt 0.2810493 0.8485353
vt 0.2762913 0.7650152
vt 0.2574746 0.8470039
vt 0.2763162 0.8485353
vt 0.2570103 0.7650152
vt 0.4970272 0.792831
vt 0.3177432 0.8111812
vt 0.4970272 0.8084046
vt 0.3177432 0.7892646
vt 0.2727291 0.8204736
vt 0.2727291 0.7799723
vt 0.2511313 0.7799723
vt 0.2511313 0.8204736
vn 1.000363E-05 0.9999999 -0.0004635087
vn -0.00431478 0.9999889 -0.001901734
vn 7.950583E-06 0.9978577 -0.06542144
vn -0.003605051 -0.9996287 0.02700986
vn -1.024258E-05 -0.9996175 0.02765914
vn -2.646854E-06 -0.967889 0.2513781
vn -3.769407E-05 -2.624335E-05 -1
vn -3.767743E-05 -2.625006E-05 -1
vn -3.76695E-05 -2.625325E-05 -1
vn -3.770201E-05 -2.624016E-05 -1
vn 1 6.920048E-05 2.755444E-05
vn 1 3.049383E-05 -0.0002528068
vn 1 0.0001442134 0.0001331663
vn 1 3.056377E-06 -0.0001898073
vn 0.9999999 -1.681911E-06 0.0004795854
vn 0.9999999 -6.533195E-06 0.0004733662
vn 0.9999994 -5.50658E-07 0.001077518
vn 0.9999994 0 0.001077419
vn 4.844951E-05 4.785713E-05 1
vn 4.776283E-05 5.241864E-05 1
vn 4.768213E-05 5.295471E-05 1
vn 4.853022E-05 4.732106E-05 1
vn 0.003334995 -1.737597E-05 -0.9999945
vn 0.003338708 -1.921621E-05 -0.9999944
vn 0.00334137 -2.053577E-05 -0.9999944
vn 0.003332388 -1.608338E-05 -0.9999945
vn -0.001023186 0.0004563059 -0.9999994
vn -0.002390723 0.001134966 -0.9999965
vn -0.00337045 0.00162117 -0.9999931
vn -6.194384E-05 -2.072431E-05 -1
vn -2.398407E-05 -1.976887E-05 -1
vn -2.284166E-05 -2.033999E-05 -1
vn -2.20151E-05 -2.075322E-05 -1
vn -2.481179E-05 -1.935506E-05 -1
vn -0.00431478 0.9999889 -0.001901734
vn -0.009713955 0.9997123 -0.02192789
vn -0.01471593 0.9998746 0.005853093
vn -0.003562952 0.9873169 0.1587219
vn 1.000363E-05 0.9999999 -0.0004635087
vn 0.0001770153 0.9999999 -0.0004624896
vn 0.005452775 0.9868369 0.1616271
vn 0.004261774 0.9999613 -0.007702019
vn 0.01480821 0.9995648 -0.0255108
vn 0.0005754552 0.9832298 0.1823697
vn 0.0007992293 0.9829656 0.1837882
vn 0.0004454566 0.9996324 0.02711026
vn 5.741901E-05 0.9996418 0.02676518
vn 7.950583E-06 0.9978577 -0.06542144
vn 9.347827E-06 0.9999988 -0.001561101
vn 1.000363E-05 0.9999999 -0.0004635087
vn 1.098801E-05 0.9999988 -0.001552032
vn -0.8985256 -0.001206102 -0.4389195
vn -0.9010146 -0.0005788876 -0.4337884
vn -0.9012159 -0.0005278294 -0.4333701
vn -0.8983224 -0.00125699 -0.4393351
vn -0.005511916 -0.9846491 0.1744582
vn -0.01161536 -0.999918 0.005390378
vn -0.01474406 -0.9998913 5.425276E-05
vn -0.003605051 -0.9996287 0.02700986
vn 0.004977467 -0.9845099 0.1752582
vn -1.024258E-05 -0.9996175 0.02765914
vn 0.004828679 -0.9996463 0.02615171
vn 0.01324809 -0.9999117 0.001088501
vn 0.01470877 -0.9998497 0.009181239
vn 0.0002351117 -0.98261 0.185681
vn 0.0003507127 -0.9827299 0.1850457
vn 0.0003104337 -0.9995373 0.0304148
vn -5.519062E-05 -0.9995275 0.03073975
vn -1.024258E-05 -0.9996175 0.02765914
vn -9.402796E-06 -0.9999981 0.001985151
vn -2.646854E-06 -0.967889 0.2513781
vn -1.088788E-05 -0.9999981 0.00199339
vn 0.8931587 0.000160467 -0.4497416
vn 0.8931801 0.0001551937 -0.4496992
vn 0.8931818 0.0001547605 -0.4496957
vn 0.8931569 0.0001609001 -0.4497451
vn -0.8974859 -0.001585453 -0.4410402
vn -0.9020703 -0.0004306844 -0.4315888
vn -0.9024395 -0.0003365575 -0.4308163
vn -0.89711 -0.001679022 -0.4418039
vn 0.8930119 0.0008228748 -0.4500323
vn 0.8932927 0.0007537598 -0.449475
vn 0.8933157 0.0007480822 -0.4494292
vn 0.8929889 0.0008285497 -0.450078
vn -3.767635E-05 -2.626042E-05 -1
vn -3.764629E-05 -2.627251E-05 -1
vn -3.763198E-05 -2.627827E-05 -1
vn -3.769067E-05 -2.625466E-05 -1
vn -0.9999993 -1.170579E-06 0.001190644
vn -0.9999999 -5.639163E-06 0.0005356781
vn -0.9999993 0 0.001190843
vn -0.9999999 -5.103856E-06 0.0005311631
vn -0.9999999 4.315744E-07 -0.0004697297
vn -0.9999999 1.689277E-06 -0.0004778382
vn -0.9999996 2.723242E-06 -0.0008538221
vn -0.9999996 1.376802E-06 -0.0008492536
g lubian2_scene35_0
f 3/3/3 2/2/2 1/1/1
f 6/6/6 5/5/5 4/4/4
f 9/9/9 8/8/8 7/7/7
f 8/8/8 10/10/10 7/7/7
f 13/13/13 12/12/12 11/11/11
f 14/14/14 11/11/11 12/12/12
f 11/11/11 14/14/14 15/15/15
f 16/16/16 15/15/15 14/14/14
f 16/16/16 17/17/17 15/15/15
f 18/18/18 15/15/15 17/17/17
f 21/21/21 20/20/20 19/19/19
f 22/22/22 19/19/19 20/20/20
f 25/25/25 24/24/24 23/23/23
f 26/26/26 23/23/23 24/24/24
f 29/29/29 28/28/28 27/27/27
f 30/30/30 27/27/27 28/28/28
f 33/33/33 32/32/32 31/31/31
f 34/34/34 31/31/31 32/32/32
f 37/37/37 36/36/36 35/35/35
f 38/38/38 35/35/35 36/36/36
f 35/35/35 38/38/38 39/39/39
f 39/39/39 38/38/38 40/40/40
f 38/38/38 41/41/41 40/40/40
f 40/40/40 41/41/41 42/42/42
f 43/43/43 42/42/42 41/41/41
f 38/38/38 44/44/44 41/41/41
f 45/45/45 41/41/41 44/44/44
f 44/44/44 46/46/46 45/45/45
f 47/47/47 45/45/45 46/46/46
f 50/50/50 49/49/49 48/48/48
f 51/51/51 48/48/48 49/49/49
f 54/54/54 53/53/53 52/52/52
f 55/55/55 52/52/52 53/53/53
f 58/58/58 57/57/57 56/56/56
f 59/59/59 56/56/56 57/57/57
f 60/60/60 56/56/56 59/59/59
f 61/61/61 60/60/60 59/59/59
f 62/62/62 60/60/60 61/61/61
f 60/60/60 62/62/62 63/63/63
f 64/64/64 63/63/63 62/62/62
f 60/60/60 65/65/65 56/56/56
f 66/66/66 56/56/56 65/65/65
f 65/65/65 67/67/67 66/66/66
f 68/68/68 66/66/66 67/67/67
f 71/71/71 70/70/70 69/69/69
f 72/72/72 69/69/69 70/70/70
f 75/75/75 74/74/74 73/73/73
f 76/76/76 73/73/73 74/74/74
f 79/79/79 78/78/78 77/77/77
f 80/80/80 77/77/77 78/78/78
f 83/83/83 82/82/82 81/81/81
f 84/84/84 81/81/81 82/82/82
f 87/87/87 86/86/86 85/85/85
f 86/86/86 88/88/88 85/85/85
f 91/91/91 90/90/90 89/89/89
f 92/92/92 89/89/89 90/90/90
f 90/90/90 93/93/93 92/92/92
f 94/94/94 92/92/92 93/93/93
f 94/94/94 93/93/93 95/95/95
f 96/96/96 95/95/95 93/93/93
