g M1911A1_magazine1
v -0.02740411 0.02392616 -0.1753927
v -0.08354903 -0.02392614 0.138642
v -0.02740412 -0.02392615 -0.1753927
v -0.08354902 0.02392617 0.138642
v 0.01225338 -0.01924441 0.1106644
v -0.02700224 0.02304708 0.1103086
v 0.01225338 0.0192444 0.1106644
v -0.02700225 -0.02304707 0.1103086
v -0.06864695 0.01889213 0.1096474
v -0.06864695 -0.01889211 0.1096474
v -0.02182806 0.02934733 -0.1832414
v -0.04761724 0.01637562 -0.1832414
v -0.04761725 -0.0163756 -0.1832414
v -0.02182807 -0.02934733 -0.1832414
v 0.0763076 0.02934732 -0.1832414
v 0.07630759 -0.02934734 -0.1832414
v 0.08354901 -0.02009282 -0.1832414
v 0.08354902 0.02009279 -0.1832414
v -0.06002514 0.03093517 0.1664448
v 0.07630759 0.02934732 -0.1753927
v 0.001113177 0.03014124 0.1830078
v -0.0178852 0.03093516 -0.1753928
v -0.07439124 0.03093517 0.1407247
v -0.02182806 0.02934733 -0.1832414
v 0.0763076 0.02934732 -0.1832414
v -0.02740411 0.02392616 -0.1753927
v -0.08354902 0.02392617 0.138642
v -0.04761724 0.01637562 -0.1832414
v -0.04761725 0.01637562 -0.1753927
v 0.07630759 0.02934732 -0.1753927
v 0.01331864 0.02009281 0.1832414
v 0.001113177 0.03014124 0.1830078
v 0.08354902 0.02009279 -0.1753928
v 0.08354902 0.02009279 -0.1832414
v 0.0763076 0.02934732 -0.1832414
v 0.08354901 -0.02009282 -0.1832414
v 0.08354901 -0.02009282 -0.1753928
v 0.01331863 -0.02009281 0.1832414
v 0.07630759 -0.02934734 -0.1832414
v 0.001113167 -0.03014124 0.1830078
v 0.07630758 -0.02934734 -0.1753927
v -0.01788521 -0.03093515 -0.1753928
v -0.06002516 -0.03093515 0.1664448
v -0.07439125 -0.03093515 0.1407247
v -0.08354903 -0.02392614 0.138642
v -0.02740412 -0.02392615 -0.1753927
v -0.02182807 -0.02934733 -0.1832414
v -0.04761725 -0.0163756 -0.1753927
v -0.04761725 -0.0163756 -0.1832414
v -0.04761725 -0.0163756 -0.1753927
v -0.04761724 0.01637562 -0.1832414
v -0.04761725 0.01637562 -0.1753927
v -0.04761725 -0.0163756 -0.1832414
v -0.02740412 -0.02392615 -0.1753927
v -0.04761725 0.01637562 -0.1753927
v -0.02740411 0.02392616 -0.1753927
v -0.04761725 -0.0163756 -0.1753927
v -0.07439125 -0.03093515 0.1407247
v -0.06002516 -0.02692414 0.1664448
v -0.06002516 -0.03093515 0.1664448
v -0.07389156 -0.02692414 0.141306
v -0.08354903 -0.02392614 0.138642
v -0.08147256 -0.02207022 0.1410574
v -0.08354902 0.02392617 0.138642
v -0.08147255 0.02207025 0.1410574
v -0.07439124 0.03093517 0.1407247
v -0.07389154 0.02692416 0.141306
v -0.06002514 0.03093517 0.1664448
v -0.06002514 0.02692416 0.1664448
v 0.01331864 0.02009281 0.1832414
v 0.0002978097 0.02633749 0.1829922
v 0.001113177 0.03014124 0.1830078
v 0.009755993 0.01921273 0.1831732
v 0.01331863 -0.02009281 0.1832414
v 0.009755988 -0.01921273 0.1831732
v 0.001113167 -0.03014124 0.1830078
v 0.0002978011 -0.02633749 0.1829922
v -0.06002516 -0.03093515 0.1664448
v -0.06002516 -0.02692414 0.1664448
v 0.001113177 0.03014124 0.1830078
v -0.06002514 0.02692416 0.1664448
v -0.06002514 0.03093517 0.1664448
v 0.0002978097 0.02633749 0.1829922
v -0.08147255 0.02207025 0.1410574
v -0.06864695 -0.01889211 0.1096474
v -0.08147256 -0.02207022 0.1410574
v -0.06864695 0.01889213 0.1096474
v -0.02700225 -0.02304707 0.1103086
v -0.08147256 -0.02207022 0.1410574
v -0.06864695 -0.01889211 0.1096474
v -0.07389156 -0.02692414 0.141306
v -0.06002516 -0.02692414 0.1664448
v 0.0002978011 -0.02633749 0.1829922
v 0.01225338 -0.01924441 0.1106644
v 0.009755988 -0.01921273 0.1831732
v -0.06864695 0.01889213 0.1096474
v -0.08147255 0.02207025 0.1410574
v -0.07389154 0.02692416 0.141306
v -0.02700224 0.02304708 0.1103086
v -0.06002514 0.02692416 0.1664448
v 0.0002978097 0.02633749 0.1829922
v 0.01225338 0.0192444 0.1106644
v 0.009755993 0.01921273 0.1831732
v 0.009755988 -0.01921273 0.1831732
v 0.01225338 0.0192444 0.1106644
v 0.009755993 0.01921273 0.1831732
v 0.01225338 -0.01924441 0.1106644
vt 0.6088619 0.4437038
vt 0.564167 0.721514
vt 0.5660232 0.4446118
vt 0.6019387 0.7220111
vt 0.2796266 0.1531614
vt 0.2511824 0.1631977
vt 0.2653329 0.1466622
vt 0.2779281 0.1747339
vt 0.2445976 0.1866269
vt 0.2666175 0.1961102
vt 0.02825717 0.0444203
vt 0.006243498 0.05561519
vt 0.006367231 0.08363402
vt 0.02847905 0.09463358
vt 0.1122124 0.04404914
vt 0.1124343 0.0942626
vt 0.1185944 0.08631802
vt 0.1184425 0.05193913
vt 0.6274652 0.7404577
vt 0.7074145 0.4363647
vt 0.6795529 0.7503916
vt 0.6202775 0.4439337
vt 0.611558 0.7240784
vt 0.6176994 0.43731
vt 0.7067782 0.4294948
vt 0.6088619 0.4437038
vt 0.6019387 0.7220111
vt 0.5988587 0.4272977
vt 0.5974449 0.4321813
vt 0.4123669 0.4353583
vt 0.4345959 0.7506741
vt 0.4269917 0.7512865
vt 0.4200132 0.4346706
vt 0.4196223 0.4273922
vt 0.4117768 0.4279616
vt 0.4569861 0.4264635
vt 0.4568242 0.4337496
vt 0.4697348 0.7462846
vt 0.4689045 0.4272299
vt 0.4846688 0.7468778
vt 0.4682786 0.4344272
vt 0.5545519 0.4443402
vt 0.5378873 0.7394167
vt 0.5544161 0.7233521
vt 0.564167 0.721514
vt 0.5660232 0.4446118
vt 0.5572052 0.4381147
vt 0.5776241 0.433592
vt 0.576109 0.428475
vt 0.5776241 0.433592
vt 0.5988587 0.4272977
vt 0.5974449 0.4321813
vt 0.576109 0.428475
vt 0.5660232 0.4446118
vt 0.5974449 0.4321813
vt 0.6088619 0.4437038
vt 0.5776241 0.433592
vt 0.5544161 0.7233521
vt 0.539379 0.7424389
vt 0.5378873 0.7394167
vt 0.5563581 0.7264613
vt 0.564167 0.721514
vt 0.5645934 0.7246215
vt 0.6019387 0.7220111
vt 0.6014276 0.7250377
vt 0.611558 0.7240784
vt 0.6095472 0.7271096
vt 0.6274652 0.7404577
vt 0.6258883 0.7433276
vt 0.4345959 0.7506741
vt 0.4301578 0.7553414
vt 0.4274692 0.7524505
vt 0.435326 0.7537738
vt 0.4697348 0.7462846
vt 0.4699936 0.7497551
vt 0.4846688 0.7468778
vt 0.4842648 0.7506096
vt 0.5378873 0.7394167
vt 0.539379 0.7424389
vt 0.6795529 0.7503916
vt 0.6258883 0.7433276
vt 0.6274652 0.7404577
vt 0.6791384 0.7540736
vt 0.2136439 0.2049262
vt 0.2666175 0.1961102
vt 0.2769219 0.228141
vt 0.2445976 0.1866269
vt 0.2779281 0.1747339
vt 0.2769219 0.228141
vt 0.2666175 0.1961102
vt 0.2872795 0.2214552
vt 0.3302832 0.2176251
vt 0.3270261 0.1226683
vt 0.2796266 0.1531614
vt 0.317938 0.1129453
vt 0.2445976 0.1866269
vt 0.2136439 0.2049262
vt 0.210371 0.1918195
vt 0.2511824 0.1631977
vt 0.1822115 0.1584624
vt 0.250668 0.09676722
vt 0.2653329 0.1466622
vt 0.2627674 0.09576356
vt 0.317938 0.1129453
vt 0.2653329 0.1466622
vt 0.2627674 0.09576356
vt 0.2796266 0.1531614
vn -0.9843911 0 -0.175995
vn -0.9843911 0 -0.175995
vn -0.9843911 0 -0.175995
vn -0.9843911 0 -0.175995
vn -0.0090631 0 0.999959
vn -0.01246662 0 0.9999223
vn -0.0090631 0 0.999959
vn -0.01246662 0 0.9999223
vn -0.01587662 0 0.999874
vn -0.01587662 0 0.999874
vn 0 0 -1
vn 0 0 -1
vn 0 0 -1
vn 0 0 -1
vn 0 0 -1
vn 0 0 -1
vn 0 0 -1
vn 0 0 -1
vn 0.009827681 0.9999516 0.0005268091
vn 0.4618207 0.8858957 0.04370708
vn 0.3306865 0.9413383 0.0672946
vn -0.2396884 0.968281 -0.07057767
vn -0.2379772 0.9703385 -0.04254672
vn -0.357798 0.931617 0.06379957
vn 0.43804 0.8989555 3.379803E-07
vn -0.5178234 0.8493744 0.1020883
vn -0.5891792 0.8011068 -0.1053368
vn -0.3716061 0.9260299 0.06616312
vn -0.3499294 0.9367761 0
vn 0.4618207 0.8858957 0.04370708
vn 0.8812627 0.4384058 0.1765686
vn 0.3306865 0.9413383 0.0672946
vn 0.9434835 0.3189414 0.09008494
vn 0.9453985 0.3259168 0
vn 0.43804 0.8989555 3.379803E-07
vn 0.9453984 -0.325917 0
vn 0.9428529 -0.3201956 0.09221321
vn 0.8808845 -0.4407785 0.1725013
vn 0.4451939 -0.8954145 -0.005931513
vn 0.3333209 -0.9405851 0.06478342
vn 0.466508 -0.8831312 0.04949295
vn -0.2446888 -0.9674053 -0.06522629
vn 0.009177878 -0.9999573 0.001131419
vn -0.2379746 -0.9703394 -0.04253796
vn -0.5891935 -0.8010985 -0.1053189
vn -0.4795034 -0.8617334 0.1658071
vn -0.3451433 -0.9370064 0.05380545
vn -0.4318965 -0.8994052 0.06734691
vn -0.4493501 -0.8933558 0
vn -1 0 -3.85787E-07
vn -1 0 -3.85787E-07
vn -1 0 -3.85787E-07
vn -1 0 -3.85787E-07
vn 0 0 1
vn 0 0 1
vn 0 0 1
vn 0 0 1
vn -0.6686982 -0.02662461 0.7430571
vn -0.8732616 0.00336775 0.48724
vn -0.8730431 0 0.487643
vn -0.6199383 -0.08481932 0.7800527
vn -0.5652393 -0.2597994 0.7829488
vn -0.618434 -0.2690016 0.7383615
vn -0.6338776 0.24537 0.73348
vn -0.6322793 0.1821506 0.7530233
vn -0.6477345 0.08270908 0.7573634
vn -0.5273774 0.05875225 0.8475974
vn -0.875394 -0.003366658 0.4833984
vn -0.8756263 0 0.4829894
vn -0.0191331 0 0.999817
vn -0.1347417 0.02481753 0.9905699
vn -0.1567137 0.0281969 0.9872415
vn -0.019133 0 0.999817
vn -0.01913292 2.696397E-07 0.999817
vn -0.01913301 4.442625E-07 0.999817
vn -0.154939 -0.02915961 0.9874936
vn -0.1332784 -0.02360067 0.9907976
vn -0.2643971 -0.002028334 0.9644117
vn -0.2645415 0 0.9643743
vn -0.1567137 0.0281969 0.9872415
vn -0.261583 0.002003097 0.9651788
vn -0.2614854 0 0.9652074
vn -0.1347417 0.02481753 0.9905699
vn 0.9257941 -2.767529E-07 0.3780283
vn 0.9257941 -2.717904E-07 0.3780283
vn 0.9257941 -2.540278E-07 0.3780283
vn 0.9257941 -2.967614E-07 0.3780283
vn -0.02297667 0.9949155 0.09805743
vn 0.2660125 0.8556031 0.4440504
vn 0.09612992 0.9856185 0.138979
vn 0.2193251 0.8704748 0.4406474
vn -0.04049229 0.9981607 0.04511833
vn -0.3339603 0.9422913 0.02361626
vn -0.1508494 0.9859491 0.07175565
vn -0.6012899 0.7987533 -0.02105888
vn 0.1506197 -0.9519986 0.2664813
vn 0.509293 -0.8102795 0.2899444
vn 0.1988295 -0.9620394 0.1869414
vn -0.03461481 -0.9941469 0.1023409
vn -0.04049261 -0.9981607 0.04511831
vn -0.3339606 -0.9422912 0.02361625
vn -0.1508497 -0.985949 0.07175564
vn -0.6012902 -0.7987531 -0.02105889
vn -0.9994074 0 -0.03442215
vn -0.9994074 0 -0.03442215
vn -0.9994074 0 -0.03442216
vn -0.9994074 0 -0.03442215
g M1911A1_magazine1_0
f 3/3/3 2/2/2 1/1/1
f 4/4/4 1/1/1 2/2/2
f 7/7/7 6/6/6 5/5/5
f 8/8/8 5/5/5 6/6/6
f 6/6/6 9/9/9 8/8/8
f 10/10/10 8/8/8 9/9/9
f 13/13/13 12/12/12 11/11/11
f 13/13/13 11/11/11 14/14/14
f 11/11/11 15/15/15 14/14/14
f 16/16/16 14/14/14 15/15/15
f 16/16/16 15/15/15 17/17/17
f 18/18/18 17/17/17 15/15/15
f 21/21/21 20/20/20 19/19/19
f 22/22/22 19/19/19 20/20/20
f 23/23/23 19/19/19 22/22/22
f 22/22/22 20/20/20 24/24/24
f 25/25/25 24/24/24 20/20/20
f 22/22/22 26/26/26 23/23/23
f 26/26/26 22/22/22 24/24/24
f 27/27/27 23/23/23 26/26/26
f 24/24/24 28/28/28 26/26/26
f 29/29/29 26/26/26 28/28/28
f 32/32/32 31/31/31 30/30/30
f 33/33/33 30/30/30 31/31/31
f 33/33/33 34/34/34 30/30/30
f 35/35/35 30/30/30 34/34/34
f 34/34/34 33/33/33 36/36/36
f 33/33/33 31/31/31 37/37/37
f 37/37/37 36/36/36 33/33/33
f 38/38/38 37/37/37 31/31/31
f 36/36/36 37/37/37 39/39/39
f 38/38/38 40/40/40 37/37/37
f 41/41/41 39/39/39 37/37/37
f 41/41/41 37/37/37 40/40/40
f 41/41/41 42/42/42 39/39/39
f 41/41/41 40/40/40 42/42/42
f 43/43/43 42/42/42 40/40/40
f 42/42/42 43/43/43 44/44/44
f 44/44/44 45/45/45 42/42/42
f 46/46/46 42/42/42 45/45/45
f 47/47/47 39/39/39 42/42/42
f 42/42/42 46/46/46 47/47/47
f 46/46/46 48/48/48 47/47/47
f 49/49/49 47/47/47 48/48/48
f 52/52/52 51/51/51 50/50/50
f 53/53/53 50/50/50 51/51/51
f 56/56/56 55/55/55 54/54/54
f 57/57/57 54/54/54 55/55/55
f 60/60/60 59/59/59 58/58/58
f 61/61/61 58/58/58 59/59/59
f 58/58/58 61/61/61 62/62/62
f 63/63/63 62/62/62 61/61/61
f 62/62/62 63/63/63 64/64/64
f 65/65/65 64/64/64 63/63/63
f 64/64/64 65/65/65 66/66/66
f 67/67/67 66/66/66 65/65/65
f 66/66/66 67/67/67 68/68/68
f 69/69/69 68/68/68 67/67/67
f 72/72/72 71/71/71 70/70/70
f 73/73/73 70/70/70 71/71/71
f 70/70/70 73/73/73 74/74/74
f 75/75/75 74/74/74 73/73/73
f 74/74/74 75/75/75 76/76/76
f 77/77/77 76/76/76 75/75/75
f 76/76/76 77/77/77 78/78/78
f 79/79/79 78/78/78 77/77/77
f 82/82/82 81/81/81 80/80/80
f 83/83/83 80/80/80 81/81/81
f 86/86/86 85/85/85 84/84/84
f 87/87/87 84/84/84 85/85/85
f 90/90/90 89/89/89 88/88/88
f 91/91/91 88/88/88 89/89/89
f 91/91/91 92/92/92 88/88/88
f 92/92/92 93/93/93 88/88/88
f 88/88/88 93/93/93 94/94/94
f 93/93/93 95/95/95 94/94/94
f 98/98/98 97/97/97 96/96/96
f 96/96/96 99/99/99 98/98/98
f 100/100/100 98/98/98 99/99/99
f 101/101/101 100/100/100 99/99/99
f 102/102/102 101/101/101 99/99/99
f 103/103/103 101/101/101 102/102/102
f 106/106/106 105/105/105 104/104/104
f 107/107/107 104/104/104 105/105/105
