g M4cai__magazine
v 0.1358545 -0.03104489 -0.1141598
v 0.09582404 -0.03103473 -0.3607308
v 0.07015379 -0.03104489 -0.3654227
v 0.1589644 -0.03103473 -0.1187785
v 0.175135 -0.03103473 -0.005577857
v 0.1517 -0.03104489 -0.003228824
v 0.1816029 -0.03103473 0.1060054
v 0.1580723 -0.03104489 0.1066881
v 0.1816029 -0.03103473 0.3391977
v 0.1580723 -0.03101441 0.3393969
v 0.0703956 -0.05394147 -0.3644839
v 0.1358545 -0.03104489 -0.1141598
v 0.07015379 -0.03104489 -0.3654227
v 0.1358524 -0.05394147 -0.1141598
v 0.1517 -0.03104489 -0.003228824
v 0.1517 -0.05394147 -0.003228824
v 0.1580723 -0.03104489 0.1066881
v 0.1580723 -0.05394146 0.1066881
v 0.1580723 -0.03101441 0.3393969
v 0.1580723 -0.05394146 0.3394111
v 0.1509603 -0.04738217 0.3602391
v 0.1509603 -0.02486151 0.3654227
v 0.1816029 0.03103474 0.1060054
v 0.1816029 -0.03103473 0.3391977
v 0.1816029 0.03103474 0.3391977
v 0.1816029 -0.03103473 0.1060054
v 0.175135 0.03103474 -0.005577857
v 0.175135 -0.03103473 -0.005577857
v 0.1589644 0.03103474 -0.1187785
v 0.1589644 -0.03103473 -0.1187785
v 0.09582404 -0.03103473 -0.3607308
v 0.09582404 0.03103474 -0.3607308
v -0.0752216 0.05394147 0.3393461
v -0.1050087 -0.05394147 0.3242137
v -0.1050087 0.05394147 0.3242137
v -0.0752216 -0.05394147 0.3393461
v 0.04338015 0.03098191 0.3393704
v 0.04642002 0.05394147 0.3393623
v 0.04338015 -0.03098191 0.3393704
v 0.04642003 -0.05394147 0.3393623
v 0.1580723 -0.03101441 0.3393969
v 0.1580723 0.03101442 0.3393969
v 0.1816029 0.03103474 0.3391977
v 0.1816029 -0.03103473 0.3391977
v -0.1050087 -0.05394147 0.3242137
v -0.1050087 0.05394147 0.1351158
v -0.1050087 0.05394147 0.3242137
v -0.1050087 -0.05394147 0.1351158
v -0.1094831 -0.05394147 0.03429204
v -0.1094831 0.05394147 0.03429204
v -0.1220836 -0.05394148 -0.05744262
v -0.1220836 0.05394146 -0.05744262
v -0.1816029 -0.05394148 -0.2967025
v -0.1816029 0.05394146 -0.2967025
v -0.1326642 -0.05394148 -0.3102397
v -0.1816029 0.05394146 -0.2967025
v -0.1816029 -0.05394148 -0.2967025
v -0.1326642 0.05394146 -0.3102397
v -0.1234674 -0.04581348 -0.3127248
v -0.1234674 0.04581347 -0.3127248
v -0.1013592 -0.04581348 -0.3187416
v -0.1013592 0.04581347 -0.3187416
v -0.09096756 -0.05394147 -0.3215843
v -0.09096756 0.05394147 -0.3215843
v 0.07015378 0.0310449 -0.3654227
v 0.0703956 0.05394147 -0.3644839
v 0.07015379 -0.03104489 -0.3654227
v 0.0703956 -0.05394147 -0.3644839
v 0.09582404 -0.03103473 -0.3607308
v 0.09582404 0.03103474 -0.3607308
v 0.1509603 -0.02486151 0.3654227
v 0.05090465 -0.04738218 0.3602391
v 0.05094935 -0.0248351 0.3654227
v 0.1509603 -0.04738217 0.3602391
v 0.1509603 -0.04738217 0.3602391
v 0.04642003 -0.05394147 0.3393623
v 0.05090465 -0.04738218 0.3602391
v 0.1580723 -0.05394146 0.3394111
v 0.1580723 -0.05394146 0.1066881
v -0.01040689 -0.05394147 0.1248928
v -0.01040689 -0.05394147 0.3181137
v -0.0752216 -0.05394147 0.3393461
v -0.05400954 -0.05394147 0.3181137
v -0.1050087 -0.05394147 0.3242137
v -0.1050087 -0.05394147 0.1351158
v -0.01556411 -0.05394147 0.02080159
v 0.1517 -0.05394147 -0.003228824
v -0.02056689 -0.04581348 0.3079537
v -0.05400954 -0.05394147 0.1296051
v -0.1094831 -0.05394147 0.03429204
v -0.02933091 -0.05394147 -0.07783774
v 0.1358524 -0.05394147 -0.1141598
v 0.0703956 -0.05394147 -0.3644839
v -0.09096756 -0.05394147 -0.3215843
v -0.1013592 -0.04581348 -0.3187416
v -0.03932021 -0.04581348 -0.07590128
v -0.1234674 -0.04581348 -0.3127248
v -0.02568955 -0.04581348 0.02175662
v -0.06209081 -0.04581348 -0.07035801
v -0.1326642 -0.05394148 -0.3102397
v -0.02056689 -0.04581348 0.1251448
v -0.07208215 -0.05394147 -0.06843773
v -0.1816029 -0.05394148 -0.2967025
v -0.1220836 -0.05394148 -0.05744262
v -0.04872634 -0.04581348 0.02608072
v -0.05885383 -0.05394147 0.02701947
v -0.04384954 -0.04581348 0.1293653
v -0.04384954 -0.04581348 0.3079537
v 0.1509603 -0.02486151 0.3654227
v 0.04338015 -0.03098191 0.3393704
v 0.1580723 -0.03101441 0.3393969
v 0.05094935 -0.0248351 0.3654227
v 0.04338015 -0.03098191 0.3393704
v 0.05090465 -0.04738218 0.3602391
v 0.04642003 -0.05394147 0.3393623
v 0.05094935 -0.0248351 0.3654227
v 0.09582404 0.03103474 -0.3607308
v 0.1358545 0.0310449 -0.1141598
v 0.07015378 0.0310449 -0.3654227
v 0.1589644 0.03103474 -0.1187785
v 0.175135 0.03103474 -0.005577857
v 0.1517 0.0310449 -0.003228824
v 0.1816029 0.03103474 0.1060054
v 0.1580723 0.0310449 0.1066881
v 0.1816029 0.03103474 0.3391977
v 0.1580723 0.03101442 0.3393969
v 0.1358545 0.0310449 -0.1141598
v 0.0703956 0.05394147 -0.3644839
v 0.07015378 0.0310449 -0.3654227
v 0.1358544 0.05394147 -0.1141598
v 0.1517 0.0310449 -0.003228824
v 0.1517 0.05394147 -0.003228824
v 0.1580723 0.0310449 0.1066881
v 0.1580723 0.05394148 0.1066881
v 0.1580723 0.03101442 0.3393969
v 0.1580723 0.05394148 0.3394111
v 0.1509603 0.04738218 0.3602391
v 0.1509603 0.02486153 0.3654227
v 0.05090464 0.04738218 0.3602391
v 0.1509603 0.02486153 0.3654227
v 0.05094935 0.02483511 0.3654227
v 0.1509603 0.04738218 0.3602391
v 0.04642002 0.05394147 0.3393623
v 0.1509603 0.04738218 0.3602391
v 0.05090464 0.04738218 0.3602391
v 0.1580723 0.05394148 0.3394111
v 0.1580723 0.05394148 0.1066881
v -0.01040689 0.05394147 0.1248928
v -0.01556411 0.05394147 0.02080159
v 0.1517 0.05394147 -0.003228824
v -0.01040689 0.05394147 0.3181137
v -0.0752216 0.05394147 0.3393461
v -0.05400954 0.05394147 0.3181137
v -0.1050087 0.05394147 0.3242137
v -0.1050087 0.05394147 0.1351158
v -0.02933091 0.05394147 -0.07783774
v 0.1358544 0.05394147 -0.1141598
v 0.0703956 0.05394147 -0.3644839
v -0.09096756 0.05394147 -0.3215843
v -0.1013592 0.04581347 -0.3187416
v -0.03932021 0.04581347 -0.07590128
v -0.1234674 0.04581347 -0.3127248
v -0.02568955 0.04581347 0.02175662
v -0.06209081 0.04581347 -0.07035801
v -0.1326642 0.05394146 -0.3102397
v -0.07208215 0.05394147 -0.06843773
v -0.1816029 0.05394146 -0.2967025
v -0.1220836 0.05394146 -0.05744262
v -0.04872634 0.04581347 0.02608072
v -0.05885383 0.05394147 0.02701947
v -0.1094831 0.05394147 0.03429204
v -0.02056689 0.04581347 0.1251448
v -0.05400954 0.05394147 0.1296051
v -0.04384954 0.04581347 0.1293653
v -0.02056689 0.04581347 0.3079537
v -0.04384954 0.04581347 0.3079537
v 0.04338015 0.03098191 0.3393704
v 0.1509603 0.02486153 0.3654227
v 0.1580723 0.03101442 0.3393969
v 0.05094935 0.02483511 0.3654227
v 0.05090464 0.04738218 0.3602391
v 0.04338015 0.03098191 0.3393704
v 0.04642002 0.05394147 0.3393623
v 0.05094935 0.02483511 0.3654227
vt 0.9489 0.3328
vt 0.9608 0.2362
vt 0.9489 0.2315
vt 0.9608 0.3328
vt 0.9608 0.3767
vt 0.9489 0.3767
vt 0.9608 0.4202
vt 0.9489 0.4202
vt 0.9608 0.5089
vt 0.9489 0.5089
vt 0.9405 0.2315
vt 0.9489 0.3328
vt 0.9489 0.2315
vt 0.9405 0.3328
vt 0.9489 0.3767
vt 0.9405 0.3767
vt 0.9489 0.4202
vt 0.9405 0.4202
vt 0.9489 0.5089
vt 0.9405 0.5089
vt 0.9404 0.5171
vt 0.9404 0.5254
vt 0.9835 0.4202
vt 0.9608 0.5089
vt 0.9835 0.5089
vt 0.9608 0.4202
vt 0.9835 0.3767
vt 0.9608 0.3767
vt 0.9835 0.3328
vt 0.9608 0.3328
vt 0.9608 0.2362
vt 0.9835 0.2362
vt 0.7952 0.5089
vt 0.8362 0.5012
vt 0.7953 0.5012
vt 0.8365 0.5089
vt 0.8037 0.5479
vt 0.7952 0.5479
vt 0.8269 0.5479
vt 0.8365 0.5479
vt 0.8269 0.593
vt 0.8037 0.593
vt 0.8037 0.6025
vt 0.8269 0.6025
vt 0.8362 0.5012
vt 0.7953 0.4202
vt 0.7953 0.5012
vt 0.8362 0.4202
vt 0.8362 0.3767
vt 0.7953 0.3767
vt 0.8362 0.3328
vt 0.7953 0.3328
vt 0.8362 0.2315
vt 0.7953 0.2315
vt 0.8556 0.2315
vt 0.8361 0.1871
vt 0.8362 0.2315
vt 0.8556 0.1871
vt 0.86 0.2293
vt 0.86 0.19
vt 0.8692 0.2293
vt 0.8692 0.19
vt 0.8738 0.2315
vt 0.8738 0.1871
vt 0.9405 0.1965
vt 0.9405 0.1871
vt 0.9405 0.2213
vt 0.9405 0.2315
vt 0.9519 0.2213
vt 0.9519 0.1965
vt 0.9404 0.5254
vt 0.8968 0.5171
vt 0.8968 0.5254
vt 0.9404 0.5171
vt 0.9404 0.5171
vt 0.8967 0.5089
vt 0.8968 0.5171
vt 0.9405 0.5089
vt 0.9405 0.4202
vt 0.8738 0.4202
vt 0.8738 0.4991
vt 0.8365 0.5089
vt 0.8556 0.4991
vt 0.8362 0.5012
vt 0.8362 0.4202
vt 0.8738 0.3767
vt 0.9405 0.3767
vt 0.8692 0.4949
vt 0.8556 0.4202
vt 0.8362 0.3767
vt 0.8738 0.3328
vt 0.9405 0.3328
vt 0.9405 0.2315
vt 0.8738 0.2315
vt 0.8692 0.2293
vt 0.8692 0.3328
vt 0.86 0.2293
vt 0.8692 0.3767
vt 0.86 0.3328
vt 0.8556 0.2315
vt 0.8692 0.4202
vt 0.8556 0.3328
vt 0.8362 0.2315
vt 0.8362 0.3328
vt 0.86 0.3767
vt 0.8556 0.3767
vt 0.86 0.4202
vt 0.86 0.4949
vt 0.9404 0.5254
vt 0.8968 0.5361
vt 0.9404 0.5361
vt 0.8968 0.5254
vt 0.8897 0.5171
vt 0.8968 0.5171
vt 0.8967 0.5089
vt 0.8968 0.5254
vt 0.9835 0.2362
vt 0.9929 0.3328
vt 0.9929 0.2315
vt 0.9835 0.3328
vt 0.9835 0.3767
vt 0.9929 0.3767
vt 0.9835 0.4202
vt 0.9929 0.4202
vt 0.9835 0.5089
vt 0.9929 0.5089
vt 0.6811 0.3328
vt 0.6909 0.2315
vt 0.6811 0.2315
vt 0.6909 0.3328
vt 0.6811 0.3767
vt 0.6909 0.3767
vt 0.6811 0.4202
vt 0.6909 0.4202
vt 0.6811 0.5089
vt 0.6909 0.5089
vt 0.6909 0.514
vt 0.6909 0.5223
vt 0.7357 0.514
vt 0.6909 0.5223
vt 0.7357 0.5223
vt 0.6909 0.514
vt 0.7357 0.5089
vt 0.6909 0.514
vt 0.7357 0.514
vt 0.6909 0.5089
vt 0.6909 0.4202
vt 0.7572 0.4202
vt 0.7572 0.3767
vt 0.6909 0.3767
vt 0.7572 0.4991
vt 0.7952 0.5089
vt 0.7759 0.4991
vt 0.7953 0.5012
vt 0.7953 0.4202
vt 0.7572 0.3328
vt 0.6909 0.3328
vt 0.6909 0.2315
vt 0.7572 0.2315
vt 0.7621 0.2315
vt 0.7621 0.3328
vt 0.7711 0.2315
vt 0.7621 0.3767
vt 0.7711 0.3328
vt 0.7759 0.2315
vt 0.7759 0.3328
vt 0.7953 0.2315
vt 0.7953 0.3328
vt 0.7711 0.3767
vt 0.7759 0.3767
vt 0.7953 0.3767
vt 0.7621 0.4202
vt 0.7759 0.4202
vt 0.7711 0.4202
vt 0.7621 0.4947
vt 0.7711 0.4947
vt 0.7357 0.5331
vt 0.6909 0.5223
vt 0.6909 0.5331
vt 0.7357 0.5223
vt 0.7357 0.514
vt 0.7427 0.514
vt 0.7357 0.5089
vt 0.7357 0.5223
vn 0.0004226416 -0.9999999 -8.507063E-05
vn 0.0004158237 -0.9999999 -0.000108708
vn 0.0004157205 -0.9999999 -0.0001086912
vn 0.0004227154 -0.9999999 -8.503751E-05
vn 0.0004292986 -0.9999999 -4.302645E-05
vn 0.0004292988 -0.9999999 -4.302625E-05
vn 0.0004314865 -0.9999999 -1.249716E-05
vn 0.0003906868 -1 -8.367491E-06
vn -0.0007798024 -0.9999998 0.0001226224
vn -0.002204203 -0.688987 -0.7247704
vn 0.9674723 -0.0001512718 -0.2529767
vn 0.9803002 -8.90605E-05 -0.1975135
vn 0.9674724 -0.0001550512 -0.2529763
vn 0.9802996 -8.146336E-05 -0.197516
vn 0.9950138 -5.649148E-06 -0.0997372
vn 0.9950137 0 -0.09973837
vn 0.9995809 0 -0.02894943
vn 0.9995808 0 -0.02895064
vn 0.986571 -0.01653277 0.1624939
vn 0.989111 9.127391E-05 0.1471713
vn 0.953952 -0.03518041 0.2978894
vn 0.9587321 -0.06377289 0.2770664
vn 0.999581 0 -0.02894572
vn 1 0 0
vn 1 0 0
vn 0.999581 0 -0.02894572
vn 0.9950147 0 -0.09972856
vn 0.9950147 0 -0.09972857
vn 0.9803478 0 -0.1972767
vn 0.9803478 0 -0.1972767
vn 0.9675954 0 -0.2525055
vn 0.9675955 0 -0.2525055
vn -0.232958 2.322943E-05 0.9724868
vn -0.4529217 0 0.8915502
vn -0.4529217 0 0.8915502
vn -0.232958 -2.32294E-05 0.9724868
vn -0.0001912837 0.0001157848 1
vn -0.00013382 0.0003711572 1
vn -0.0001912837 -0.0001157848 1
vn -0.0001338199 -0.0003711572 1
vn 0.004118295 0 0.9999915
vn 0.004118295 0 0.9999915
vn 0.008463761 0 0.9999642
vn 0.008463762 0 0.9999642
vn -1 0 0
vn -0.9997541 0 0.02217314
vn -1 0 0
vn -0.9997541 0 0.02217314
vn -0.9959143 0 0.09030335
vn -0.9959143 0 0.09030335
vn -0.9819741 0 0.1890153
vn -0.9819741 0 0.1890153
vn -0.970424 0 0.2414069
vn -0.970424 0 0.2414069
vn -0.2645653 0 -0.9643677
vn -0.2666039 0 -0.9638061
vn -0.2666039 0 -0.9638061
vn -0.2645654 0 -0.9643677
vn -0.2615696 0 -0.9651845
vn -0.2615696 0 -0.9651845
vn -0.2633415 0 -0.9647027
vn -0.2633415 0 -0.9647027
vn -0.2627239 -0.002312244 -0.9648684
vn -0.2627239 0.002312248 -0.9648684
vn -0.1158709 0.01316421 -0.9931769
vn -0.2567023 0.04230084 -0.9655644
vn -0.1158709 -0.01316422 -0.9931771
vn -0.2567022 -0.04230083 -0.9655644
vn 0.1797959 0 -0.9837039
vn 0.1797958 0 -0.9837039
vn -8.546866E-06 -0.2242707 0.9745269
vn -5.060654E-05 -0.2240932 0.9745677
vn -5.916921E-05 -0.2240571 0.9745759
vn 0 -0.2243068 0.9745185
vn -0.0001167155 -0.9538521 0.3002769
vn -5.98996E-06 -0.9957721 0.0918585
vn 0 -0.9540194 0.2997448
vn -5.886708E-05 -0.9908405 0.1350376
vn 0 -1 0
vn -0.3261764 -0.9452744 0.008075834
vn -0.09173051 -0.9915498 -0.09173048
vn 0 -1 0
vn 0.09173052 -0.9915498 -0.09173048
vn 0 -1 0
vn 0 -1 0
vn -0.3209334 -0.9466174 0.0302863
vn 0 -1 0
vn -0.2569551 -0.9316373 -0.2569553
vn 0.3352613 -0.9420919 -0.007911433
vn 0 -1 0
vn -0.3141138 -0.9473714 0.06180492
vn 0 -1 0
vn 0 -1 0
vn -0.3052137 -0.9491511 0.07717995
vn -0.3111998 -0.9470785 0.07872103
vn -0.3346004 -0.9400526 0.06590664
vn 0.3321424 -0.9394715 -0.08411116
vn -0.3375817 -0.9407569 0.03185831
vn 0.3146413 -0.9472464 -0.06103253
vn 0.3389545 -0.9368815 -0.08580729
vn -0.3354613 -0.9420174 0.008305439
vn 0.3344774 -0.9401666 -0.06489726
vn 0 -1 0
vn 0 -1 0
vn 0.3208444 -0.9466648 -0.02974415
vn 0.3377459 -0.9407164 -0.03131122
vn 0.3264113 -0.9451964 -0.007702535
vn 0.256955 -0.9316373 -0.2569554
vn 0.0003192427 0.9732023 -0.2299502
vn 0.0002705251 0.9732474 -0.2297596
vn -0.002204203 -0.688987 -0.7247704
vn 0.0002570194 0.9732599 -0.2297068
vn -0.9581738 -0.09701441 0.269242
vn -0.9577671 -0.09336075 0.2719667
vn -0.9607764 -0.1272951 0.2463834
vn -0.9539977 -0.06537788 0.2925988
vn 0.0004158278 0.9999999 -0.0001087332
vn 0.0004226395 0.9999999 -8.508259E-05
vn 0.000415725 0.9999999 -0.0001087165
vn 0.000422713 0.9999999 -8.50494E-05
vn 0.0004292986 0.9999999 -4.302645E-05
vn 0.0004292988 0.9999999 -4.302625E-05
vn 0.0004314865 0.9999999 -1.249716E-05
vn 0.0003906868 1 -8.367491E-06
vn -0.0007798024 0.9999998 0.0001226224
vn -0.002203879 0.6889871 -0.7247704
vn 0.9802992 4.867412E-06 -0.1975176
vn 0.9674723 0.0001465962 -0.2529771
vn 0.9674724 0.0001550521 -0.2529764
vn 0.9802992 4.849008E-07 -0.197518
vn 0.9950146 0 -0.09972946
vn 0.9950146 0 -0.09972949
vn 0.9995809 0 -0.02894943
vn 0.9995808 0 -0.02895063
vn 0.986571 0.01653277 0.1624939
vn 0.989111 -9.127383E-05 0.1471712
vn 0.953952 0.0351804 0.2978894
vn 0.9587321 0.06377289 0.2770664
vn -5.062787E-05 0.2240932 0.9745677
vn -8.573044E-06 0.2242707 0.9745269
vn -5.918956E-05 0.2240571 0.9745759
vn 0 0.2243068 0.9745185
vn -6.106276E-06 0.9957721 0.09185855
vn -0.0001169126 0.9538519 0.3002774
vn 0 0.9540194 0.2997448
vn -5.908213E-05 0.9908405 0.1350378
vn 0 1 0
vn -0.3261766 0.9452744 0.008075849
vn -0.3209337 0.9466174 0.0302863
vn 0 1 0
vn -0.09173054 0.9915498 -0.09173054
vn 0 1 0
vn 0.09173056 0.9915498 -0.09173055
vn 0 1 0
vn 0 1 0
vn -0.3141141 0.9473714 0.06180495
vn 0 1 0
vn 0 1 0
vn -0.305214 0.949151 0.07718002
vn -0.3112001 0.9470783 0.07872108
vn -0.3346005 0.9400526 0.06590664
vn 0.3321421 0.9394717 -0.08411111
vn -0.3375819 0.9407568 0.03185833
vn 0.3146414 0.9472464 -0.06103258
vn 0.3389542 0.9368817 -0.0858073
vn 0.3344774 0.9401666 -0.06489728
vn 0 1 0
vn 0 1 0
vn 0.3208446 0.9466647 -0.02974416
vn 0.3377461 0.9407164 -0.03131128
vn 0 1 0
vn -0.3354615 0.9420174 0.008305443
vn 0.3352615 0.9420919 -0.00791144
vn 0.3264114 0.9451963 -0.00770254
vn -0.2569551 0.9316372 -0.2569554
vn 0.2569551 0.9316372 -0.2569555
vn 0.0002706163 -0.9732474 -0.2297595
vn 0.0003193436 -0.9732023 -0.2299501
vn -0.002203879 0.6889871 -0.7247704
vn 0.0002571078 -0.9732599 -0.2297067
vn -0.9577671 0.09336048 0.2719667
vn -0.9581739 0.09701416 0.2692419
vn -0.9607764 0.1272948 0.2463833
vn -0.9539977 0.06537762 0.2925988
g M4cai__magazine_0
f 3/3/3 2/2/2 1/1/1
f 4/4/4 1/1/1 2/2/2
f 4/4/4 5/5/5 1/1/1
f 6/6/6 1/1/1 5/5/5
f 5/5/5 7/7/7 6/6/6
f 8/8/8 6/6/6 7/7/7
f 7/7/7 9/9/9 8/8/8
f 10/10/10 8/8/8 9/9/9
f 13/13/13 12/12/12 11/11/11
f 14/14/14 11/11/11 12/12/12
f 12/12/12 15/15/15 14/14/14
f 16/16/16 14/14/14 15/15/15
f 15/15/15 17/17/17 16/16/16
f 18/18/18 16/16/16 17/17/17
f 17/17/17 19/19/19 18/18/18
f 20/20/20 18/18/18 19/19/19
f 20/20/20 19/19/19 21/21/21
f 22/22/22 21/21/21 19/19/19
f 25/25/25 24/24/24 23/23/23
f 26/26/26 23/23/23 24/24/24
f 23/23/23 26/26/26 27/27/27
f 28/28/28 27/27/27 26/26/26
f 27/27/27 28/28/28 29/29/29
f 30/30/30 29/29/29 28/28/28
f 30/30/30 31/31/31 29/29/29
f 32/32/32 29/29/29 31/31/31
f 35/35/35 34/34/34 33/33/33
f 36/36/36 33/33/33 34/34/34
f 33/33/33 36/36/36 37/37/37
f 37/37/37 38/38/38 33/33/33
f 39/39/39 37/37/37 36/36/36
f 40/40/40 39/39/39 36/36/36
f 39/39/39 41/41/41 37/37/37
f 42/42/42 37/37/37 41/41/41
f 42/42/42 41/41/41 43/43/43
f 44/44/44 43/43/43 41/41/41
f 47/47/47 46/46/46 45/45/45
f 48/48/48 45/45/45 46/46/46
f 48/48/48 46/46/46 49/49/49
f 50/50/50 49/49/49 46/46/46
f 49/49/49 50/50/50 51/51/51
f 52/52/52 51/51/51 50/50/50
f 51/51/51 52/52/52 53/53/53
f 54/54/54 53/53/53 52/52/52
f 57/57/57 56/56/56 55/55/55
f 58/58/58 55/55/55 56/56/56
f 55/55/55 58/58/58 59/59/59
f 60/60/60 59/59/59 58/58/58
f 59/59/59 60/60/60 61/61/61
f 62/62/62 61/61/61 60/60/60
f 61/61/61 62/62/62 63/63/63
f 64/64/64 63/63/63 62/62/62
f 64/64/64 65/65/65 63/63/63
f 66/66/66 65/65/65 64/64/64
f 67/67/67 63/63/63 65/65/65
f 68/68/68 63/63/63 67/67/67
f 67/67/67 65/65/65 69/69/69
f 70/70/70 69/69/69 65/65/65
f 73/73/73 72/72/72 71/71/71
f 74/74/74 71/71/71 72/72/72
f 77/77/77 76/76/76 75/75/75
f 78/78/78 75/75/75 76/76/76
f 78/78/78 76/76/76 79/79/79
f 80/80/80 79/79/79 76/76/76
f 81/81/81 80/80/80 76/76/76
f 76/76/76 82/82/82 81/81/81
f 83/83/83 81/81/81 82/82/82
f 84/84/84 83/83/83 82/82/82
f 84/84/84 85/85/85 83/83/83
f 80/80/80 86/86/86 79/79/79
f 87/87/87 79/79/79 86/86/86
f 81/81/81 83/83/83 88/88/88
f 81/81/81 88/88/88 80/80/80
f 89/89/89 83/83/83 85/85/85
f 85/85/85 90/90/90 89/89/89
f 86/86/86 91/91/91 87/87/87
f 92/92/92 87/87/87 91/91/91
f 92/92/92 91/91/91 93/93/93
f 94/94/94 93/93/93 91/91/91
f 94/94/94 91/91/91 95/95/95
f 96/96/96 95/95/95 91/91/91
f 91/91/91 86/86/86 96/96/96
f 95/95/95 96/96/96 97/97/97
f 86/86/86 80/80/80 98/98/98
f 98/98/98 96/96/96 86/86/86
f 99/99/99 97/97/97 96/96/96
f 96/96/96 98/98/98 99/99/99
f 97/97/97 99/99/99 100/100/100
f 101/101/101 98/98/98 80/80/80
f 101/101/101 80/80/80 88/88/88
f 102/102/102 100/100/100 99/99/99
f 100/100/100 102/102/102 103/103/103
f 104/104/104 103/103/103 102/102/102
f 105/105/105 99/99/99 98/98/98
f 98/98/98 101/101/101 105/105/105
f 99/99/99 105/105/105 102/102/102
f 102/102/102 106/106/106 104/104/104
f 106/106/106 102/102/102 105/105/105
f 90/90/90 104/104/104 106/106/106
f 106/106/106 89/89/89 90/90/90
f 107/107/107 105/105/105 101/101/101
f 105/105/105 107/107/107 106/106/106
f 101/101/101 88/88/88 107/107/107
f 89/89/89 106/106/106 107/107/107
f 108/108/108 107/107/107 88/88/88
f 107/107/107 108/108/108 89/89/89
f 108/108/108 88/88/88 83/83/83
f 83/83/83 89/89/89 108/108/108
f 111/111/111 110/110/110 109/109/109
f 112/112/112 109/109/109 110/110/110
f 115/115/115 114/114/114 113/113/113
f 116/116/116 113/113/113 114/114/114
f 119/119/119 118/118/118 117/117/117
f 120/120/120 117/117/117 118/118/118
f 120/120/120 118/118/118 121/121/121
f 122/122/122 121/121/121 118/118/118
f 121/121/121 122/122/122 123/123/123
f 124/124/124 123/123/123 122/122/122
f 123/123/123 124/124/124 125/125/125
f 126/126/126 125/125/125 124/124/124
f 129/129/129 128/128/128 127/127/127
f 130/130/130 127/127/127 128/128/128
f 127/127/127 130/130/130 131/131/131
f 132/132/132 131/131/131 130/130/130
f 131/131/131 132/132/132 133/133/133
f 134/134/134 133/133/133 132/132/132
f 133/133/133 134/134/134 135/135/135
f 136/136/136 135/135/135 134/134/134
f 136/136/136 137/137/137 135/135/135
f 138/138/138 135/135/135 137/137/137
f 141/141/141 140/140/140 139/139/139
f 142/142/142 139/139/139 140/140/140
f 145/145/145 144/144/144 143/143/143
f 146/146/146 143/143/143 144/144/144
f 146/146/146 147/147/147 143/143/143
f 148/148/148 143/143/143 147/147/147
f 148/148/148 147/147/147 149/149/149
f 150/150/150 149/149/149 147/147/147
f 148/148/148 151/151/151 143/143/143
f 143/143/143 151/151/151 152/152/152
f 153/153/153 152/152/152 151/151/151
f 153/153/153 154/154/154 152/152/152
f 154/154/154 153/153/153 155/155/155
f 149/149/149 150/150/150 156/156/156
f 157/157/157 156/156/156 150/150/150
f 157/157/157 158/158/158 156/156/156
f 159/159/159 156/156/156 158/158/158
f 159/159/159 160/160/160 156/156/156
f 161/161/161 156/156/156 160/160/160
f 156/156/156 161/161/161 149/149/149
f 160/160/160 162/162/162 161/161/161
f 163/163/163 149/149/149 161/161/161
f 149/149/149 163/163/163 148/148/148
f 164/164/164 161/161/161 162/162/162
f 161/161/161 164/164/164 163/163/163
f 162/162/162 165/165/165 164/164/164
f 166/166/166 164/164/164 165/165/165
f 165/165/165 167/167/167 166/166/166
f 168/168/168 166/166/166 167/167/167
f 169/169/169 163/163/163 164/164/164
f 164/164/164 166/166/166 169/169/169
f 166/166/166 168/168/168 170/170/170
f 170/170/170 169/169/169 166/166/166
f 171/171/171 170/170/170 168/168/168
f 172/172/172 148/148/148 163/163/163
f 163/163/163 169/169/169 172/172/172
f 170/170/170 171/171/171 173/173/173
f 155/155/155 173/173/173 171/171/171
f 173/173/173 155/155/155 153/153/153
f 169/169/169 170/170/170 174/174/174
f 174/174/174 172/172/172 169/169/169
f 173/173/173 174/174/174 170/170/170
f 172/172/172 175/175/175 148/148/148
f 172/172/172 174/174/174 175/175/175
f 151/151/151 148/148/148 175/175/175
f 151/151/151 175/175/175 153/153/153
f 174/174/174 173/173/173 176/176/176
f 153/153/153 176/176/176 173/173/173
f 176/176/176 175/175/175 174/174/174
f 176/176/176 153/153/153 175/175/175
f 179/179/179 178/178/178 177/177/177
f 180/180/180 177/177/177 178/178/178
f 183/183/183 182/182/182 181/181/181
f 184/184/184 181/181/181 182/182/182
