g pro1_scene31
v -1.779075 1.055277 -0.003192749
v 1.779077 1.055277 3.423255
v 1.779077 1.055277 -0.003192749
v -1.779075 1.055277 3.423255
v 1.779077 1.055277 3.423255
v -1.779075 1.055277 3.423255
v 1.917034 1.193234 3.423255
v 1.779077 5.32748 3.423255
v 1.917034 5.189524 3.423255
v -1.917026 5.18951 3.423255
v -1.77907 5.327468 3.423255
v -1.917034 1.193234 3.423255
v 1.917034 1.193234 -0.003192749
v 1.917034 5.189524 3.423255
v 1.917034 5.189524 -0.003192749
v 1.917034 1.193234 3.423255
v 1.779077 1.055277 -0.003192749
v 1.779077 1.055277 3.423255
v -1.77907 5.327468 3.423255
v 1.779077 5.32748 -0.003192749
v 1.779077 5.32748 3.423255
v -1.77907 5.327468 -0.003192749
v -1.917034 1.193234 -0.003192749
v -1.917026 5.18951 3.423255
v -1.917034 1.193234 3.423255
v -1.917026 5.18951 -0.003192749
v -1.77907 5.327468 -0.003192749
v -1.77907 5.327468 3.423255
v -1.779075 1.055277 3.423255
v -1.917034 1.193234 -0.003192749
v -1.917034 1.193234 3.423255
v -1.779075 1.055277 -0.003192749
v 1.917034 5.189524 -0.003192749
v 1.779077 5.32748 3.423255
v 1.779077 5.32748 -0.003192749
v 1.917034 5.189524 3.423255
v 0.7567749 -5.32748 0.1130414
v 1.41074 -5.32748 0.8265302
v 1.41074 -5.32748 0.1130414
v 0.7567749 -5.32748 1.188781
v 0.7567749 -5.32748 1.188781
v 0.7567749 -2.063013 1.95662
v 0.7567749 -3.61222 1.95662
v 0.7567749 1.055275 0.1130414
v 0.7567749 -5.32748 0.1130414
v 0.7567749 -0.5138055 2.287427
v 0.7567749 0.3510376 3.010209
v 0.7567749 1.055275 2.94217
v 1.41074 1.055275 0.1130414
v 1.41074 0.3510376 2.752844
v 1.41074 1.055275 2.684807
v 1.41074 -0.5138055 2.030063
v 1.41074 -2.063013 1.699257
v 1.41074 -3.61222 1.699257
v 1.41074 -5.32748 0.8265302
v 1.41074 -5.32748 0.1130414
v 1.41074 0.3510376 2.752844
v 0.7567749 1.055275 2.94217
v 1.41074 1.055275 2.684807
v 0.7567749 0.3510376 3.010209
v 1.41074 -0.5138055 2.030063
v 0.7567749 -0.5138055 2.287427
v 1.41074 -2.063013 1.699257
v 0.7567749 -2.063013 1.95662
v 0.7567749 -3.61222 1.95662
v 1.41074 -3.61222 1.699257
v 0.7567749 -5.32748 1.188781
v 1.41074 -5.32748 0.8265302
vt 0.001537744 0.0008484829
vt 0.4427608 0.4989186
vt 0.4427608 0.0008484829
vt 0.001537744 0.4989186
vt 0.5395871 0.1394665
vt 0.5395871 0.05305392
vt 0.5362667 0.1428093
vt 0.4365541 0.1394665
vt 0.4399242 0.1428093
vt 0.4399242 0.04971115
vt 0.4365541 0.05305392
vt 0.5362667 0.04971115
vt 0.466004 0.0008484829
vt 0.9615436 0.4989186
vt 0.9615436 0.0008484829
vt 0.466004 0.4989186
vt 0.4427608 0.0008484829
vt 0.4427608 0.4989186
vt 0.4428057 0.4989186
vt 0.001582669 0.0008484829
vt 0.001582669 0.4989186
vt 0.4428057 0.0008484829
vt 0.9758615 0.0008484829
vt 0.4803219 0.4989186
vt 0.9758615 0.4989186
vt 0.4803219 0.0008484829
vt 0.4428057 0.0008484829
vt 0.4428057 0.4989186
vt 0.9974692 0.4989186
vt 0.9758615 0.0008484829
vt 0.9758615 0.4989186
vt 0.9974692 0.0008484829
vt 0.9615436 0.0008484829
vt 0.9888505 0.4989186
vt 0.9888505 0.0008484829
vt 0.9615436 0.4989186
vt 0.384791 0.00559995
vt 0.4697697 0.09829945
vt 0.4697697 0.00559995
vt 0.384791 0.1453715
vt 0.8326386 0.1453715
vt 0.4084425 0.2451442
vt 0.6097313 0.2451442
vt 0.003224646 0.00559995
vt 0.8326386 0.00559995
vt 0.2071037 0.2881317
vt 0.09472859 0.3820765
vt 0.003224646 0.37321
vt 0.9962881 0.006994701
vt 0.9047841 0.3499978
vt 0.9962881 0.3411811
vt 0.792409 0.2561028
vt 0.59112 0.2131153
vt 0.3897814 0.2131153
vt 0.166924 0.09969418
vt 0.166924 0.006994701
vt 0.3833368 0.873719
vt 0.4467216 0.8305884
vt 0.4926552 0.873719
vt 0.3620427 0.8381838
vt 0.2921024 0.873719
vt 0.2850044 0.8381838
vt 0.200868 0.873719
vt 0.2079661 0.8381838
vt 0.1309277 0.8381838
vt 0.1096337 0.873719
vt 0.05388939 0.8381838
vt 0.02500001 0.8701926
vn -0.3826798 -0.9238811 0
vn 0 -1 0
vn 0 -1 0
vn -0.3826797 -0.9238812 0
vn 0 0 1
vn 0 0 1
vn 0 0 1
vn 0 0 1
vn 0 0 1
vn 0 0 1
vn 0 0 1
vn 0 0 1
vn 0.9238797 -0.3826829 0
vn 0.9238796 0.3826831 0
vn 0.9238797 0.3826831 0
vn 0.9238798 -0.3826829 0
vn 0.7071075 -0.7071061 0
vn 0.7071075 -0.7071059 0
vn -3.344959E-06 1 0
vn -3.344959E-06 1 0
vn -3.344959E-06 1 0
vn -3.344959E-06 1 0
vn -1 1.832761E-06 0
vn -0.9238802 0.3826816 0
vn -1 1.832761E-06 0
vn -0.9238802 0.3826817 0
vn -0.7071106 0.7071028 0
vn -0.7071107 0.7071028 0
vn -0.3826797 -0.9238812 0
vn -0.7071013 -0.7071122 0
vn -0.7071012 -0.7071123 0
vn -0.3826798 -0.9238811 0
vn 0.9238797 0.3826831 0
vn 0.7071072 0.7071064 0
vn 0.7071072 0.7071064 0
vn 0.9238796 0.3826831 0
vn 0 -1 0
vn 0 -1 0
vn 0 -1 0
vn 0 -1 0
vn -1 0 0
vn -1 0 0
vn -1 0 0
vn -1 0 0
vn -1 0 0
vn -1 0 0
vn -1 0 0
vn -1 0 0
vn 1 0 0
vn 1 0 0
vn 1 0 0
vn 1 0 0
vn 1 0 0
vn 1 0 0
vn 1 0 0
vn 1 0 0
vn 0.3488676 -0.3040591 0.8864759
vn 0.364735 0.08953951 0.9267961
vn 0.3647343 0.08953874 0.9267966
vn 0.35409 -0.2551032 0.8997458
vn 0.3367719 -0.3927958 0.8557431
vn 0.3295826 -0.4359014 0.8374755
vn 0.3645325 -0.09546971 0.9262837
vn 0.3643605 -0.1002441 0.9258469
vn 0.3597998 -0.1862162 0.914258
vn 0.3715177 -0.20907 0.9045797
vn 0.4211803 -0.4024728 0.812787
vn 0.4426882 -0.4066227 0.7991779
g pro1_scene31_0
f 3/3/3 2/2/2 1/1/1
f 4/4/4 1/1/1 2/2/2
f 7/7/7 6/6/6 5/5/5
f 8/8/8 6/6/6 7/7/7
f 9/9/9 8/8/8 7/7/7
f 10/10/10 6/6/6 8/8/8
f 11/11/11 10/10/10 8/8/8
f 12/12/12 6/6/6 10/10/10
f 15/15/15 14/14/14 13/13/13
f 16/16/16 13/13/13 14/14/14
f 13/13/13 16/16/16 17/17/17
f 18/18/18 17/17/17 16/16/16
f 21/21/21 20/20/20 19/19/19
f 22/22/22 19/19/19 20/20/20
f 25/25/25 24/24/24 23/23/23
f 26/26/26 23/23/23 24/24/24
f 26/26/26 24/24/24 27/27/27
f 28/28/28 27/27/27 24/24/24
f 31/31/31 30/30/30 29/29/29
f 32/32/32 29/29/29 30/30/30
f 35/35/35 34/34/34 33/33/33
f 36/36/36 33/33/33 34/34/34
f 39/39/39 38/38/38 37/37/37
f 40/40/40 37/37/37 38/38/38
f 43/43/43 42/42/42 41/41/41
f 41/41/41 42/42/42 44/44/44
f 45/45/45 41/41/41 44/44/44
f 42/42/42 46/46/46 44/44/44
f 46/46/46 47/47/47 44/44/44
f 44/44/44 47/47/47 48/48/48
f 51/51/51 50/50/50 49/49/49
f 50/50/50 52/52/52 49/49/49
f 52/52/52 53/53/53 49/49/49
f 53/53/53 54/54/54 49/49/49
f 54/54/54 55/55/55 49/49/49
f 55/55/55 56/56/56 49/49/49
g pro1_scene31_1
f 59/59/59 58/58/58 57/57/57
f 60/60/60 57/57/57 58/58/58
f 57/57/57 60/60/60 61/61/61
f 62/62/62 61/61/61 60/60/60
f 61/61/61 62/62/62 63/63/63
f 64/64/64 63/63/63 62/62/62
f 64/64/64 65/65/65 63/63/63
f 66/66/66 63/63/63 65/65/65
f 65/65/65 67/67/67 66/66/66
f 68/68/68 66/66/66 67/67/67
