g pro2_scene31
v -3.119575 -2.869452 2.811479
v -4.302248 -2.552554 0.1857568
v 1.90633 -4.216139 -2.811481
v -1.041567 -3.426251 0.7124756
v -1.877859 -3.202168 2.212034
v 0.06510498 -3.722784 -0.1867847
v 1.306824 -4.055501 -0.7862329
v 2.345471 -4.333807 -1.836532
v 3.766357 1.159269 -1.942125
v 3.741894 2.634274 -2.811481
v 4.270422 2.492656 -1.638068
v 3.405564 -0.2125073 -1.928096
v 2.979827 -1.566881 -2.058251
v 2.71258 -2.963723 -1.836532
v 2.345471 -4.333807 -1.836532
v 1.90633 -4.216139 -2.811481
v 4.483652 3.112554 -3.087859
v -2.302214 4.93082 1.722548
v -2.869927 5.082941 0.4621338
v -0.8734252 4.547977 0.9194702
v 0.6226587 4.147104 0.2657861
v 2.216631 3.720001 -0.1705652
v 3.608931 3.346935 -1.054668
v 5.044009 2.962409 -1.843777
v -2.869927 5.082941 0.4621338
v -3.861331 -3.347733 3.087857
v -5.044006 -3.030835 0.4621338
v -3.426514 -1.724978 3.087857
v -3.271658 -0.02720825 2.466304
v -2.836841 1.595547 2.466304
v -2.650752 3.284949 1.914099
v -2.302214 4.93082 1.722548
v -5.044006 -3.030835 0.4621338
v 2.614556 -5.08294 -2.41075
v 2.309573 -5.001222 -3.087859
v 1.481062 -4.779223 -0.9520593
v 0.01034912 -4.385147 -0.2420605
v -1.325325 -4.027253 0.7677502
v -2.390615 -3.74181 2.37786
v -3.861331 -3.347733 3.087857
v 4.483652 3.112554 -3.087859
v 4.354228 1.40797 -2.409841
v 5.044009 2.962409 -1.843777
v 3.92573 -0.2164783 -2.395815
v 2.309573 -5.001222 -3.087859
v 3.410593 -1.817712 -2.574139
v 3.092703 -3.471796 -2.314551
v 2.614556 -5.08294 -2.41075
v -0.7421704 3.835775 0.6582031
v -2.466687 4.297859 0.1857568
v -1.897678 4.145393 1.449043
v 0.5095093 3.500389 0.08086792
v 1.738682 3.171034 -0.5464295
v 3.028899 2.82532 -1.038187
v 4.270422 2.492656 -1.638068
v 3.741894 2.634274 -2.811481
v -2.894902 -1.461202 2.495238
v -4.302248 -2.552554 0.1857568
v -3.119575 -2.869452 2.811479
v -2.807749 -0.01610474 1.873684
v -2.384021 1.338807 1.999376
v -2.265635 2.775536 1.447172
v -1.897678 4.145393 1.449043
v -2.466687 4.297859 0.1857568
v 3.92573 -0.2164783 -2.395815
v 2.979827 -1.566881 -2.058251
v 3.405564 -0.2125073 -1.928096
v 3.766357 1.159269 -1.942125
v 3.410593 -1.817712 -2.574139
v 4.354228 1.40797 -2.409841
v 2.71258 -2.963723 -1.836532
v 3.092703 -3.471796 -2.314551
v 4.270422 2.492656 -1.638068
v 5.044009 2.962409 -1.843777
v 3.608931 3.346935 -1.054668
v 3.028899 2.82532 -1.038187
v 2.216631 3.720001 -0.1705652
v 1.738682 3.171034 -0.5464295
v 2.345471 -4.333807 -1.836532
v 2.614556 -5.08294 -2.41075
v 1.481062 -4.779223 -0.9520593
v 1.306824 -4.055501 -0.7862329
v 0.6226587 4.147104 0.2657861
v 0.5095093 3.500389 0.08086792
v -0.7421704 3.835775 0.6582031
v -0.8734252 4.547977 0.9194702
v 0.01034912 -4.385147 -0.2420605
v 0.06510498 -3.722784 -0.1867847
v -1.041567 -3.426251 0.7124756
v -1.325325 -4.027253 0.7677502
v -1.877859 -3.202168 2.212034
v -2.390615 -3.74181 2.37786
v -1.897678 4.145393 1.449043
v -2.302214 4.93082 1.722548
v -2.650752 3.284949 1.914099
v -2.265635 2.775536 1.447172
v -2.836841 1.595547 2.466304
v -2.384021 1.338807 1.999376
v -3.119575 -2.869452 2.811479
v -3.861331 -3.347733 3.087857
v -3.426514 -1.724978 3.087857
v -2.894902 -1.461202 2.495238
v -3.271658 -0.02720825 2.466304
v -2.807749 -0.01610474 1.873684
vt 0.9757889 0.3132561
vt 0.9757889 0.005212359
vt 0.2217053 0.005212359
vt 0.6741552 0.2076596
vt 0.8249726 0.3132561
vt 0.5233389 0.1724773
vt 0.3725226 0.1724773
vt 0.2217053 0.1196045
vt 0.2635534 0.1071814
vt 0.1127361 0.005212359
vt 0.1127361 0.1428606
vt 0.4143698 0.1088212
vt 0.5651861 0.09356563
vt 0.7160031 0.1196045
vt 0.8668194 0.1196045
vt 0.8668194 0.005212359
vt 0.1012455 0.003671872
vt 0.9943685 0.1515568
vt 0.9943685 0.003671872
vt 0.815724 0.1406244
vt 0.6371294 0.1472335
vt 0.4584848 0.1793349
vt 0.2798404 0.1589112
vt 0.1012455 0.1496685
vt 0.04289745 0.003671872
vt 0.9360209 0.3117157
vt 0.9360209 0.003671872
vt 0.7574261 0.3117157
vt 0.5787816 0.2388168
vt 0.4001369 0.2388168
vt 0.221542 0.1740178
vt 0.04289745 0.1515568
vt 0.003132022 0.003671872
vt 0.8962552 0.08313019
vt 0.8962552 0.003671872
vt 0.7176107 0.1709865
vt 0.5390159 0.1709865
vt 0.3603714 0.2061191
vt 0.1817268 0.3117157
vt 0.003132022 0.3117157
vt 0.9943023 0.003671872
vt 0.8156578 0.08322959
vt 0.9943023 0.1496685
vt 0.6370133 0.08486942
vt 0.1011294 0.003671872
vt 0.4583688 0.06394891
vt 0.279774 0.09441039
vt 0.1011294 0.08313019
vt 0.2833168 0.1309344
vt 0.1325001 0.005212359
vt 0.1325001 0.1533954
vt 0.4341337 0.1335681
vt 0.5849503 0.1302883
vt 0.7357676 0.1429103
vt 0.8865839 0.1428606
vt 0.8865839 0.005212359
vt 0.3030809 0.2761358
vt 0.152264 0.005212359
vt 0.152264 0.3132561
vt 0.4538977 0.203237
vt 0.6047148 0.2179956
vt 0.7555316 0.1531966
vt 0.9063479 0.1533954
vt 0.9063479 0.005212359
vt 0.005325569 0.700411
vt 0.04329994 0.7903222
vt 0.04329994 0.7079961
vt 0.04329994 0.62567
vt 0.005325569 0.7979075
vt 0.005325569 0.6029143
vt 0.04329994 0.8726484
vt 0.005325569 0.8954523
vt 0.04329994 0.5433439
vt 0.005325569 0.5054178
vt 0.1028704 0.5054178
vt 0.1256261 0.5433439
vt 0.2003669 0.5054178
vt 0.2079522 0.5433439
vt 0.04329994 0.9549746
vt 0.005325569 0.9929489
vt 0.1028704 0.9929489
vt 0.1256261 0.9549746
vt 0.2978635 0.5054178
vt 0.2902783 0.5433439
vt 0.3726045 0.5433439
vt 0.3953601 0.5054178
vt 0.2003669 0.9929489
vt 0.2079522 0.9549746
vt 0.2902783 0.9549746
vt 0.2978635 0.9929489
vt 0.3726045 0.9549746
vt 0.3953601 0.9929489
vt 0.4549306 0.5433439
vt 0.4929049 0.5054178
vt 0.4929049 0.6029143
vt 0.4549306 0.62567
vt 0.4929049 0.700411
vt 0.4549306 0.7079961
vt 0.4549306 0.9549746
vt 0.4929049 0.9929489
vt 0.4929049 0.8954523
vt 0.4549306 0.8726484
vt 0.4929049 0.7979075
vt 0.4549306 0.7903222
vn 0.2588191 0.9659258 1.212984E-07
vn 0.2588195 0.9659257 4.372622E-07
vn 0.2588192 0.9659257 -2.637686E-07
vn 0.2588142 0.9659272 -4.684053E-06
vn 0.2588184 0.9659259 -1.386458E-07
vn 0.2588209 0.9659254 1.222908E-06
vn 0.2588183 0.9659259 -7.474768E-07
vn 0.2588195 0.9659257 -3.600068E-07
vn -0.8754257 0.2345695 0.4226192
vn -0.8754259 0.2345692 0.4226189
vn -0.8754262 0.234569 0.4226183
vn -0.8754253 0.2345697 0.4226198
vn -0.8754268 0.2345694 0.4226169
vn -0.8754309 0.2345688 0.4226089
vn -0.8754249 0.2345693 0.4226211
vn -0.8754242 0.2345693 0.4226224
vn 0.2588178 0.9659262 -6.39769E-07
vn 0.2588198 0.9659256 1.354783E-06
vn 0.2588198 0.9659256 1.33753E-06
vn 0.2588196 0.9659256 1.2784E-06
vn 0.2588171 0.9659264 -2.566003E-06
vn 0.2588188 0.9659258 -4.710185E-07
vn 0.258819 0.9659258 0
vn 0.2588166 0.9659265 -1.175119E-06
vn -0.8754263 0.2345695 0.4226178
vn -0.8754258 0.2345697 0.422619
vn -0.8754259 0.2345697 0.4226186
vn -0.8754252 0.23457 0.4226199
vn -0.8754249 0.2345702 0.4226206
vn -0.8754256 0.2345697 0.4226194
vn -0.8754287 0.234567 0.4226145
vn -0.8754263 0.23457 0.4226177
vn -0.2588191 -0.9659258 -2.406862E-07
vn -0.2588187 -0.9659259 1.073292E-06
vn -0.2588183 -0.9659261 2.240785E-06
vn -0.2588197 -0.9659256 -1.943143E-06
vn -0.2588194 -0.9659257 0
vn -0.2588191 -0.9659258 7.333645E-07
vn -0.2588191 -0.9659258 -5.583963E-07
vn -0.2588193 -0.9659257 -3.21024E-07
vn 0.8754267 -0.2345694 -0.4226172
vn 0.8754261 -0.2345698 -0.4226181
vn 0.8754268 -0.2345693 -0.4226169
vn 0.8754263 -0.2345698 -0.4226178
vn 0.8754259 -0.2345702 -0.4226184
vn 0.8754262 -0.2345698 -0.4226178
vn 0.8754254 -0.2345692 -0.42262
vn 0.8754261 -0.2345705 -0.422618
vn -0.2588192 -0.9659257 -1.164095E-06
vn -0.2588193 -0.9659257 -2.6993E-07
vn -0.2588195 -0.9659257 0
vn -0.2588191 -0.9659258 -6.671837E-07
vn -0.2588182 -0.9659261 4.843174E-06
vn -0.2588204 -0.9659255 -5.220864E-06
vn -0.2588189 -0.9659258 0
vn -0.2588187 -0.9659258 8.401923E-07
vn 0.8754259 -0.2345702 -0.4226183
vn 0.8754259 -0.23457 -0.4226185
vn 0.8754259 -0.2345705 -0.4226181
vn 0.8754262 -0.2345706 -0.4226174
vn 0.8754253 -0.2345689 -0.4226204
vn 0.8754268 -0.2345703 -0.4226166
vn 0.8754259 -0.2345697 -0.4226186
vn 0.8754258 -0.2345695 -0.4226191
vn 0.6545959 -0.2156887 0.7245568
vn 0.707792 -0.1775614 0.6837415
vn 0.6506101 -0.2244955 0.7254711
vn 0.665724 -0.2491465 0.7033759
vn 0.7210355 -0.1531888 0.6757522
vn 0.6395128 -0.3350732 0.6919172
vn 0.7301483 -0.09005672 0.6773282
vn 0.7107294 -0.1464995 0.6880418
vn 0.4636846 -0.3840638 0.7984307
vn 0.4486997 -0.3859378 0.8060524
vn 0.370105 -0.3594851 0.856617
vn 0.3337399 -0.4380113 0.8347238
vn 0.1408837 -0.5891498 0.7956471
vn 0.1277511 -0.5817149 0.8032978
vn 0.7238331 -0.1969331 0.6612738
vn 0.7291506 -0.2316821 0.6439432
vn 0.630577 -0.06791728 0.7731494
vn 0.5188215 -0.07030744 0.8519866
vn 0.3002752 -0.3545104 0.8855265
vn 0.3477439 -0.3135001 0.8836243
vn 0.3876406 -0.2600124 0.8843802
vn 0.4470199 -0.20561 0.8705733
vn 0.4926343 -0.1221837 0.8616163
vn 0.5237543 -0.1137515 0.8442405
vn 0.6878838 -0.2496274 0.6815439
vn 0.6959984 -0.2962575 0.6540776
vn 0.6336274 -0.3542433 0.6877702
vn 0.5256788 -0.2495863 0.8132456
vn 0.5294204 -0.07632643 0.8449191
vn 0.5082441 -0.03783328 0.8603816
vn 0.7070278 -0.0504439 0.7053844
vn 0.7628813 0.01228019 0.6464219
vn 0.7322374 0.005265665 0.6810291
vn 0.7309874 -0.02914554 0.6817681
vn 0.4550391 -0.09185281 0.8857214
vn 0.4082187 -0.1093809 0.9063075
vn 0.6711268 0.05778811 0.7390867
vn 0.7166142 0.1487761 0.6814175
vn 0.7610574 0.01253166 0.6485633
vn 0.7853998 -0.08414861 0.6132424
g pro2_scene31_0
f 3/3/3 2/2/2 1/1/1
f 4/4/4 3/3/3 1/1/1
f 5/5/5 4/4/4 1/1/1
f 6/6/6 3/3/3 4/4/4
f 7/7/7 3/3/3 6/6/6
f 8/8/8 3/3/3 7/7/7
f 11/11/11 10/10/10 9/9/9
f 9/9/9 10/10/10 12/12/12
f 12/12/12 10/10/10 13/13/13
f 13/13/13 10/10/10 14/14/14
f 14/14/14 10/10/10 15/15/15
f 10/10/10 16/16/16 15/15/15
f 19/19/19 18/18/18 17/17/17
f 18/18/18 20/20/20 17/17/17
f 20/20/20 21/21/21 17/17/17
f 21/21/21 22/22/22 17/17/17
f 22/22/22 23/23/23 17/17/17
f 23/23/23 24/24/24 17/17/17
f 27/27/27 26/26/26 25/25/25
f 26/26/26 28/28/28 25/25/25
f 28/28/28 29/29/29 25/25/25
f 29/29/29 30/30/30 25/25/25
f 30/30/30 31/31/31 25/25/25
f 31/31/31 32/32/32 25/25/25
f 35/35/35 34/34/34 33/33/33
f 34/34/34 36/36/36 33/33/33
f 36/36/36 37/37/37 33/33/33
f 37/37/37 38/38/38 33/33/33
f 38/38/38 39/39/39 33/33/33
f 39/39/39 40/40/40 33/33/33
f 43/43/43 42/42/42 41/41/41
f 42/42/42 44/44/44 41/41/41
f 41/41/41 44/44/44 45/45/45
f 44/44/44 46/46/46 45/45/45
f 46/46/46 47/47/47 45/45/45
f 47/47/47 48/48/48 45/45/45
f 51/51/51 50/50/50 49/49/49
f 49/49/49 50/50/50 52/52/52
f 52/52/52 50/50/50 53/53/53
f 53/53/53 50/50/50 54/54/54
f 54/54/54 50/50/50 55/55/55
f 50/50/50 56/56/56 55/55/55
f 59/59/59 58/58/58 57/57/57
f 57/57/57 58/58/58 60/60/60
f 60/60/60 58/58/58 61/61/61
f 61/61/61 58/58/58 62/62/62
f 62/62/62 58/58/58 63/63/63
f 58/58/58 64/64/64 63/63/63
g pro2_scene31_1
f 67/67/67 66/66/66 65/65/65
f 67/67/67 65/65/65 68/68/68
f 69/69/69 65/65/65 66/66/66
f 70/70/70 68/68/68 65/65/65
f 66/66/66 71/71/71 69/69/69
f 72/72/72 69/69/69 71/71/71
f 68/68/68 70/70/70 73/73/73
f 74/74/74 73/73/73 70/70/70
f 74/74/74 75/75/75 73/73/73
f 76/76/76 73/73/73 75/75/75
f 75/75/75 77/77/77 76/76/76
f 78/78/78 76/76/76 77/77/77
f 71/71/71 79/79/79 72/72/72
f 80/80/80 72/72/72 79/79/79
f 80/80/80 79/79/79 81/81/81
f 82/82/82 81/81/81 79/79/79
f 77/77/77 83/83/83 78/78/78
f 84/84/84 78/78/78 83/83/83
f 84/84/84 83/83/83 85/85/85
f 86/86/86 85/85/85 83/83/83
f 81/81/81 82/82/82 87/87/87
f 88/88/88 87/87/87 82/82/82
f 88/88/88 89/89/89 87/87/87
f 90/90/90 87/87/87 89/89/89
f 89/89/89 91/91/91 90/90/90
f 92/92/92 90/90/90 91/91/91
f 85/85/85 86/86/86 93/93/93
f 94/94/94 93/93/93 86/86/86
f 94/94/94 95/95/95 93/93/93
f 96/96/96 93/93/93 95/95/95
f 95/95/95 97/97/97 96/96/96
f 98/98/98 96/96/96 97/97/97
f 91/91/91 99/99/99 92/92/92
f 100/100/100 92/92/92 99/99/99
f 100/100/100 99/99/99 101/101/101
f 102/102/102 101/101/101 99/99/99
f 97/97/97 103/103/103 98/98/98
f 101/101/101 102/102/102 103/103/103
f 104/104/104 98/98/98 103/103/103
f 104/104/104 103/103/103 102/102/102
