g pro4_scene97
v -5.568 -3.263999 1.535996
v -4.799997 -4.032002 1.535996
v -5.568 -4.032002 1.535996
v -5.568 -1.344001 1.535996
v -4.799997 3.647998 1.535996
v -5.568 4.223999 1.535996
v -5.376008 4.416001 1.535996
v -4.799997 3.647998 1.535996
v 5.567998 4.416001 1.535996
v 5.567998 3.647998 1.535996
v -5.376008 4.416001 1.535996
v 5.951999 4.416001 1.152012
v 5.951999 3.647998 1.152012
v 5.567998 3.647998 1.535996
v 5.567998 4.416001 1.535996
v -4.799997 -4.416001 1.152012
v -5.568 -4.416001 1.152012
v -4.799997 -4.032002 1.535996
v -5.568 -4.032002 1.535996
v -5.568 -1.344001 1.535996
v -5.568 -3.263999 1.535996
v -5.951999 -3.263999 1.535996
v -5.951999 -1.344001 1.535996
v -5.951999 3.840002 -1.151992
v -5.951999 -1.535998 0.5760156
v -5.951999 3.840002 -1.535996
v -5.951999 -1.344001 1.535996
v -5.951999 -1.535998 0.5760156
v -5.951999 -3.263999 1.535996
v -5.951999 -3.263999 0.5760156
v -5.951999 -1.344001 1.535996
v 5.951999 3.647998 1.152012
v 5.951999 4.416001 0.5760156
v 5.951999 3.647998 0.5760156
v 5.951999 4.416001 1.152012
v -4.799997 -4.032002 0.5760156
v -4.799997 -4.416001 0.5760156
v -4.799997 -4.416001 1.152012
v -4.799997 -4.032002 1.535996
v -4.799997 3.647998 0.5760156
v -4.799997 -4.032002 1.535996
v -4.799997 3.647998 1.535996
v -4.799997 -4.032002 0.5760156
v -4.799997 3.647998 1.535996
v 5.567998 3.647998 1.535996
v -4.799997 3.647998 0.5760156
v 5.568 3.647998 0.5760156
v 5.568 3.647998 0.5760156
v 5.567998 3.647998 1.535996
v 5.951999 3.647998 1.152012
v 5.951999 3.647998 0.5760156
v 5.951999 4.416001 0.5760156
v 5.568 4.416003 -1.535996
v 5.951999 4.416003 -1.535996
v 5.567998 4.416001 1.535996
v 5.951999 4.416001 1.152012
v -5.568 -4.032002 0.5760156
v -5.568 -4.416001 1.152012
v -5.568 -4.416001 0.5760156
v -5.568 -4.032002 1.535996
v -5.568 -4.032002 1.535996
v -5.568 -4.032002 0.5760156
v -5.568 -3.263999 0.5760156
v -5.568 -3.263999 1.535996
v -5.568 4.224001 -1.535996
v -5.568 3.840002 -1.151992
v -5.568 3.840002 -1.535996
v -5.568 4.223999 1.535996
v -5.568 -1.344001 1.535996
v -5.376003 4.416003 -1.535996
v 5.567998 4.416001 1.535996
v -5.376008 4.416001 1.535996
v 5.568 4.416003 -1.535996
v -5.568 4.223999 1.535996
v -5.376003 4.416003 -1.535996
v -5.376008 4.416001 1.535996
v -5.568 4.224001 -1.535996
v -4.799997 -4.416001 0.5760156
v -5.568 -4.416001 1.152012
v -4.799997 -4.416001 1.152012
v -5.568 -4.416001 0.5760156
v -5.951999 -1.344001 1.535996
v -5.568 3.840002 -1.151992
v -5.568 -1.344001 1.535996
v -5.951999 3.840002 -1.151992
v -5.951999 3.840002 -1.535996
v -5.568 3.840002 -1.151992
v -5.951999 3.840002 -1.151992
v -5.568 3.840002 -1.535996
v -5.951999 -3.263999 0.5760156
v -5.951999 -3.263999 1.535996
v -5.568 -3.263999 1.535996
v -5.568 -3.263999 0.5760156
vt 0.453541 0.9989467
vt 0.4987853 0.9537941
vt 0.4987853 0.9989467
vt 0.3404305 0.9989467
vt 0.04634302 0.9537941
vt 0.01240985 0.9989467
vt 0.001098797 0.9876586
vt 0.04883748 0.8342601
vt 0.4803152 0.8023634
vt 0.4803152 0.83426
vt 0.02486601 0.8023635
vt 0.4364813 0.751134
vt 0.4988216 0.751134
vt 0.4988216 0.7958505
vt 0.4364813 0.7958505
vt 0.01058763 0.7558495
vt 0.07292795 0.7558495
vt 0.01058763 0.800566
vt 0.07292795 0.800566
vt 0.1991054 0.9377614
vt 0.1211808 0.9377614
vt 0.1211808 0.953251
vt 0.1991054 0.953251
vt 0.1610667 0.9502634
vt 0.3875641 0.9119688
vt 0.1542483 0.9364679
vt 0.398737 0.9499003
vt 0.4287909 0.9605234
vt 0.498923 0.9989405
vt 0.498923 0.9605234
vt 0.4209984 0.9989405
vt 0.2895416 0.9835736
vt 0.2583717 0.9605234
vt 0.2895416 0.9605234
vt 0.2583717 0.9835736
vt 0.4022318 0.9605234
vt 0.4178166 0.9605234
vt 0.4178166 0.9835736
vt 0.4022318 0.9989405
vt 0.1560544 0.9605234
vt 0.4677531 0.9989405
vt 0.1560544 0.9989405
vt 0.4677531 0.9605234
vt 0.4586642 0.9941234
vt 0.03787092 0.9941234
vt 0.4586642 0.9553993
vt 0.03787092 0.9553993
vt 0.4582055 0.8958197
vt 0.4582055 0.9345437
vt 0.4426205 0.9190541
vt 0.4426205 0.8958197
vt 0.4217262 0.9605234
vt 0.4061412 0.8760054
vt 0.4217262 0.8760054
vt 0.4061412 0.9989405
vt 0.4217262 0.9835736
vt 0.4582055 0.8958197
vt 0.4426205 0.9190541
vt 0.4426205 0.8958197
vt 0.4582055 0.9345437
vt 0.03787092 0.9941234
vt 0.03787092 0.9553993
vt 0.0690408 0.9553993
vt 0.0690408 0.9941234
vt 0.372947 0.8778443
vt 0.3580483 0.892652
vt 0.3580483 0.8778443
vt 0.372947 0.9963058
vt 0.1569149 0.9963058
vt 0.001220067 0.8760054
vt 0.4453909 0.9989405
vt 0.001219829 0.9989405
vt 0.4453909 0.8760054
vt 0.4515167 0.9328606
vt 0.3268372 0.9438727
vt 0.4515167 0.9438727
vt 0.3268372 0.9328606
vt 0.4335085 0.9553993
vt 0.4646784 0.9786338
vt 0.4335085 0.9786338
vt 0.4646784 0.9553993
vt 0.1991054 0.9416339
vt 0.4095021 0.9261442
vt 0.1991054 0.9261442
vt 0.4095021 0.9416339
vt 0.475293 0.9192476
vt 0.459708 0.9347371
vt 0.475293 0.9347371
vt 0.459708 0.9192476
vt 0.05576758 0.9605234
vt 0.05576758 0.9989405
vt 0.07135252 0.9989405
vt 0.07135252 0.9605234
vn 0 0 1
vn 0 -0.3826748 0.9238832
vn 0 -0.3826746 0.9238832
vn 0 0.11758 0.9930634
vn 0 0 1
vn 0 0 1
vn 0 0 1
vn 0 0 1
vn 0.3826732 0 0.9238838
vn 0.3826732 0 0.9238838
vn 0 0 1
vn 0.707091 0 0.7071225
vn 0.7070911 0 0.7071224
vn 0.3826732 0 0.9238838
vn 0.3826732 0 0.9238838
vn 0 -0.7070933 0.7071202
vn 0 -0.7070932 0.7071203
vn 0 -0.3826748 0.9238832
vn 0 -0.3826746 0.9238832
vn 0 0.11758 0.9930634
vn 0 0 1
vn 0 0 1
vn 0 0.2369014 0.9715336
vn -1 0 0
vn -1 0 0
vn -1 0 0
vn -1 0 0
vn -1 0 0
vn -1 0 0
vn -1 0 0
vn -1 0 0
vn 1 0 0
vn 1 0 0
vn 1 0 0
vn 1 0 0
vn 1 0 0
vn 1 0 0
vn 1 0 0
vn 1 0 0
vn 1 0 0
vn 1 0 0
vn 1 0 0
vn 1 0 0
vn 0 -1 0
vn 0 -1 0
vn 0 -1 0
vn 0 -1 0
vn 0 -1 0
vn 0 -1 0
vn 0 -1 0
vn 0 -1 0
vn 1.6324E-06 1 7.191529E-07
vn 1.137412E-07 1 9.546666E-07
vn 0 1 1.155962E-06
vn 3.208526E-07 1 6.581599E-07
vn 0 1 0
vn -1 0 0
vn -1 0 0
vn -1 0 0
vn -1 0 0
vn -1 0 0
vn -1 0 0
vn -1 0 0
vn -1 0 0
vn -0.9238819 0.3826777 3.041257E-07
vn -1 0 0
vn -1 0 0
vn -0.9238843 0.3826719 -2.700127E-07
vn -1 0 0
vn 0 1 7.947306E-07
vn 3.208526E-07 1 6.581599E-07
vn 0 1 7.947306E-07
vn 1.137412E-07 1 9.546666E-07
vn -0.9238843 0.3826719 -2.700127E-07
vn -0.7071162 0.7070974 4.988717E-07
vn -0.7071248 0.7070888 -5.620022E-07
vn -0.9238819 0.3826777 3.041257E-07
vn 0 -1 0
vn 0 -1 0
vn 0 -1 0
vn 0 -1 0
vn 0 0.2369014 0.9715336
vn 0 0.4603153 0.8877555
vn 0 0.11758 0.9930634
vn 0 0.4603153 0.8877555
vn 0 1 0
vn 0 1 0
vn 0 1 0
vn 0 1 0
vn 0 -1 0
vn 0 -1 0
vn 0 -1 0
vn 0 -1 0
g pro4_scene97_0
f 3/3/3 2/2/2 1/1/1
f 1/1/1 2/2/2 4/4/4
f 4/4/4 2/2/2 5/5/5
f 6/6/6 4/4/4 5/5/5
f 6/6/6 5/5/5 7/7/7
f 10/10/10 9/9/9 8/8/8
f 11/11/11 8/8/8 9/9/9
f 14/14/14 13/13/13 12/12/12
f 15/15/15 14/14/14 12/12/12
f 18/18/18 17/17/17 16/16/16
f 19/19/19 17/17/17 18/18/18
g pro4_scene97_1
f 22/22/22 21/21/21 20/20/20
f 23/23/23 22/22/22 20/20/20
f 26/26/26 25/25/25 24/24/24
f 27/27/27 24/24/24 25/25/25
f 30/30/30 29/29/29 28/28/28
f 29/29/29 31/31/31 28/28/28
f 34/34/34 33/33/33 32/32/32
f 35/35/35 32/32/32 33/33/33
f 38/38/38 37/37/37 36/36/36
f 39/39/39 38/38/38 36/36/36
f 42/42/42 41/41/41 40/40/40
f 43/43/43 40/40/40 41/41/41
f 46/46/46 45/45/45 44/44/44
f 47/47/47 45/45/45 46/46/46
f 50/50/50 49/49/49 48/48/48
f 51/51/51 50/50/50 48/48/48
f 54/54/54 53/53/53 52/52/52
f 52/52/52 53/53/53 55/55/55
f 56/56/56 52/52/52 55/55/55
f 59/59/59 58/58/58 57/57/57
f 60/60/60 57/57/57 58/58/58
f 63/63/63 62/62/62 61/61/61
f 63/63/63 61/61/61 64/64/64
f 67/67/67 66/66/66 65/65/65
f 66/66/66 68/68/68 65/65/65
f 69/69/69 68/68/68 66/66/66
f 72/72/72 71/71/71 70/70/70
f 73/73/73 70/70/70 71/71/71
f 76/76/76 75/75/75 74/74/74
f 77/77/77 74/74/74 75/75/75
f 80/80/80 79/79/79 78/78/78
f 81/81/81 78/78/78 79/79/79
f 84/84/84 83/83/83 82/82/82
f 85/85/85 82/82/82 83/83/83
f 88/88/88 87/87/87 86/86/86
f 89/89/89 86/86/86 87/87/87
f 92/92/92 91/91/91 90/90/90
f 93/93/93 92/92/92 90/90/90
