g pro7_scene97
v 3.215998 -0.192002 2.184854
v 3.36 -0.383999 2.184854
v 3.36 -0.192002 2.184854
v 3.024 -0.192002 2.184854
v 1.68 -0.383999 2.184854
v 1.488001 -0.383999 2.184854
v 0.1440002 -0.192002 2.184854
v -1.391999 -0.383999 2.184854
v -0.04799866 -0.192002 2.184854
v -1.584 -0.383999 2.184854
v -2.927999 -0.192002 2.184854
v -3.36 -0.383999 2.184854
v -3.12 -0.192002 2.184854
v -3.36 -0.192002 2.184854
v 3.36 -0.192002 2.376865
v 3.215998 -0.192002 2.184854
v 3.36 -0.192002 2.184854
v 3.024 -0.192002 2.184854
v 0.1440002 -0.192002 2.184854
v -0.04799866 -0.192002 2.184854
v -3.36 -0.192002 2.376865
v -2.927999 -0.192002 2.184854
v -3.12 -0.192002 2.184854
v -3.36 -0.192002 2.184854
v -1.391999 -0.2368237 2.184854
v -1.391999 -0.383999 1.780322
v -1.391999 -0.383999 2.184854
v -1.391999 0.2802771 -2.355146
v -1.391999 0.08975952 -2.376865
v -1.584 -0.383999 2.184854
v -1.584 -0.383999 1.780322
v -1.584 -0.2368237 2.184854
v -1.584 0.2802771 -2.355146
v -1.584 0.08975952 -2.376865
v -3.36 -0.192002 2.376865
v 3.36 -0.192002 2.376865
v 3.36 -0.383999 2.376865
v -3.36 -0.383999 2.376865
v 3.024 -0.192002 0.6107715
v 3.024 -0.192002 2.184854
v 3.024 -0.3713037 2.184854
v 3.024 -0.1823657 2.223252
v 3.024 -0.192002 2.222158
v 3.024 0.3391601 -2.355127
v 3.024 0.148324 -2.376865
v 3.215998 -0.3713037 2.184854
v 3.215998 -0.192002 2.184854
v 3.215998 -0.192002 0.6107715
v 3.215998 -0.1823657 2.223252
v 3.215998 -0.192002 2.222158
v 3.215998 0.3391601 -2.355127
v 3.215998 0.148324 -2.376865
v 3.024 -0.1823657 2.223252
v 3.215998 -0.1823657 2.223252
v 3.215998 -0.192002 2.222158
v 3.024 -0.192002 2.222158
v 3.215998 0.3391601 -2.355127
v 3.024 0.148324 -2.376865
v 3.215998 0.148324 -2.376865
v 3.024 0.3391601 -2.355127
v 3.024 -0.1823657 2.223252
v 3.024 0.3391601 -2.355127
v 3.215998 0.3391601 -2.355127
v 3.215998 -0.1823657 2.223252
v 3.215998 -0.192002 0.6107715
v 3.024 -0.3713037 2.184854
v 3.215998 -0.3713037 2.184854
v 3.024 -0.192002 0.6107715
v 3.215998 0.148324 -2.376865
v 3.024 0.148324 -2.376865
v 3.36 -0.192002 2.376865
v 3.36 -0.383999 2.184854
v 3.36 -0.383999 2.376865
v 3.36 -0.192002 2.184854
v -3.36 -0.383999 2.376865
v -3.36 -0.383999 2.184854
v -3.36 -0.192002 2.184854
v -3.36 -0.192002 2.376865
v -3.12 -0.1857288 2.223252
v -2.927999 -0.1857288 2.223252
v -2.928 -0.192002 2.222549
v -3.12 -0.192002 2.222549
v -0.04799866 -0.1857288 2.223252
v 0.1440002 -0.1857288 2.223252
v 0.1440002 -0.192002 2.222549
v -0.04799927 -0.192002 2.222549
v -2.927999 0.336001 -2.355127
v -3.12 0.1452051 -2.376865
v -2.927999 0.1452051 -2.376865
v -3.12 0.336001 -2.355127
v 0.1440002 0.336001 -2.355127
v -0.04799866 0.1452051 -2.376865
v 0.1440002 0.1452051 -2.376865
v -0.04799866 0.336001 -2.355127
v -0.04799927 -0.192002 0.5833691
v -0.04799866 -0.192002 2.184854
v -0.04799927 -0.3744238 2.184854
v -0.04799866 -0.1857288 2.223252
v -0.04799927 -0.192002 2.222549
v -0.04799866 0.336001 -2.355127
v -0.04799866 0.1452051 -2.376865
v 0.1440002 -0.3744238 2.184854
v 0.1440002 -0.192002 2.184854
v 0.1440002 -0.192002 0.5833691
v 0.1440002 -0.1857288 2.223252
v 0.1440002 -0.192002 2.222549
v 0.1440002 0.336001 -2.355127
v 0.1440002 0.1452051 -2.376865
v -3.12 -0.1857288 2.223252
v -3.12 0.336001 -2.355127
v -2.927999 0.336001 -2.355127
v -2.927999 -0.1857288 2.223252
v -0.04799866 -0.1857288 2.223252
v -0.04799866 0.336001 -2.355127
v 0.1440002 0.336001 -2.355127
v 0.1440002 -0.1857288 2.223252
v -2.928 -0.192002 0.5833691
v -3.12 -0.3744238 2.184854
v -2.928 -0.3744238 2.184854
v -3.12 -0.192002 0.5833691
v -2.927999 0.1452051 -2.376865
v -3.12 0.1452051 -2.376865
v 0.1440002 -0.192002 0.5833691
v -0.04799927 -0.3744238 2.184854
v 0.1440002 -0.3744238 2.184854
v -0.04799927 -0.192002 0.5833691
v 0.1440002 0.1452051 -2.376865
v -0.04799866 0.1452051 -2.376865
v -1.391999 0.2802771 -2.355146
v -1.584 0.08975952 -2.376865
v -1.391999 0.08975952 -2.376865
v -1.584 0.2802771 -2.355146
v -1.584 -0.2368237 2.184854
v -1.584 0.2802771 -2.355146
v -1.391999 0.2802771 -2.355146
v -1.391999 -0.2368237 2.184854
v -1.391999 -0.383999 1.780322
v -1.584 -0.4319995 2.201533
v -1.391999 -0.4319995 2.201533
v -1.584 -0.383999 1.780322
v -1.391999 0.08975952 -2.376865
v -1.584 0.08975952 -2.376865
v -3.12 -0.192002 0.5833691
v -3.12 -0.192002 2.184854
v -3.12 -0.3744238 2.184854
v -3.12 -0.1857288 2.223252
v -3.12 -0.192002 2.222549
v -3.12 0.336001 -2.355127
v -3.12 0.1452051 -2.376865
v -2.928 -0.3744238 2.184854
v -2.927999 -0.192002 2.184854
v -2.928 -0.192002 0.5833691
v -2.927999 -0.1857288 2.223252
v -2.928 -0.192002 2.222549
v -2.927999 0.336001 -2.355127
v -2.927999 0.1452051 -2.376865
v 1.488001 -0.2003369 2.184854
v 1.488001 -0.383999 2.184854
v 1.488001 -0.383999 2.083037
v 1.488001 -0.0110376 0.02344727
v 1.488001 -0.1593677 -0.4437402
v 1.488001 -0.08567871 -0.3624316
v 1.68 -0.2003369 2.184854
v 1.68 -0.383999 2.083037
v 1.68 -0.383999 2.184854
v 1.68 -0.0110376 0.02344727
v 1.68 -0.1593677 -0.4437402
v 1.68 -0.08567871 -0.3624316
v 1.488001 -0.2003369 2.184854
v 1.488001 -0.0110376 0.02344727
v 1.68 -0.0110376 0.02344727
v 1.68 -0.2003369 2.184854
v 1.68 -0.383999 2.083037
v 1.488001 -0.3950391 2.207217
v 1.68 -0.3950391 2.207217
v 1.488001 -0.383999 2.083037
v 1.68 -0.1593677 -0.4437402
v 1.488001 -0.1593677 -0.4437402
v 1.68 -0.08567871 -0.3624316
v 1.488001 -0.08567871 -0.3624316
v 1.488001 -0.1593677 -0.4437402
v 1.68 -0.1593677 -0.4437402
v 1.68 -0.08567871 -0.3624316
v 1.68 -0.0110376 0.02344727
v 1.488001 -0.08567871 -0.3624316
v 1.488001 -0.0110376 0.02344727
v 0.8640002 0.1036853 -2.226533
v 1.151999 0.05568359 -2.226533
v 0.7680005 0.199668 -2.226533
v 2.858264 0.4320019 -2.226533
v 2.88 0.241206 -2.226533
v 1.151999 0.05568359 -2.034541
v 2.858264 0.4320019 -2.034541
v 2.88 0.241206 -2.034541
v 0.7680005 0.199668 -2.034541
v 0.8640002 0.1036853 -2.034541
v 2.858264 0.4320019 -2.034541
v 2.88 0.241206 -2.226533
v 2.88 0.241206 -2.034541
v 2.858264 0.4320019 -2.226533
v 0.7680005 0.199668 -2.226533
v 2.858264 0.4320019 -2.226533
v 0.7680005 0.199668 -2.034541
v 2.858264 0.4320019 -2.034541
v 2.88 0.241206 -2.226533
v 1.151999 0.05568359 -2.226533
v 1.151999 0.05568359 -2.034541
v 2.88 0.241206 -2.034541
v 0.8640002 0.1036853 -2.226533
v 0.8640002 0.1036853 -2.034541
v 1.151999 0.05568359 -2.034541
v 1.151999 0.05568359 -2.226533
v 0.7680005 0.199668 -2.226533
v 0.7680005 0.199668 -2.034541
v 0.8640002 0.1036853 -2.034541
v 0.8640002 0.1036853 -2.226533
vt 0.2683105 0.01779175
vt 0.2661133 0.0147934
vt 0.2661133 0.01779175
vt 0.2714844 0.01779175
vt 0.2922363 0.0147934
vt 0.2954102 0.0147934
vt 0.3161621 0.01779175
vt 0.3400879 0.0147934
vt 0.3193359 0.01779175
vt 0.3432617 0.0147934
vt 0.3640137 0.01779175
vt 0.3708496 0.0147934
vt 0.3669434 0.01779175
vt 0.3708496 0.01779175
vt 0.2529297 0.01481628
vt 0.2553711 0.01182556
vt 0.2529297 0.01182556
vt 0.2583008 0.01182556
vt 0.3029785 0.01182556
vt 0.3061523 0.01182556
vt 0.357666 0.01481628
vt 0.3508301 0.01182556
vt 0.3540039 0.01182556
vt 0.357666 0.01182556
vt 0.2844238 0.01966858
vt 0.2905273 0.01667786
vt 0.2841797 0.01737976
vt 0.3557129 0.01966858
vt 0.3557129 0.01667786
vt 0.2841797 0.01667786
vt 0.2905273 0.01739502
vt 0.2844238 0.0144043
vt 0.3557129 0.01441193
vt 0.3557129 0.01739502
vt 0.3725586 0.03317261
vt 0.2680664 0.03317261
vt 0.2680664 0.03616333
vt 0.3725586 0.03616333
vt 0.3088379 0.01739502
vt 0.2844238 0.01462555
vt 0.2841797 0.01739502
vt 0.2839355 0.0144043
vt 0.2839355 0.01455688
vt 0.3557129 0.01441193
vt 0.3557129 0.01739502
vt 0.2841797 0.01667786
vt 0.2844238 0.01945496
vt 0.3088379 0.01667786
vt 0.2839355 0.01966858
vt 0.2839355 0.01951599
vt 0.3557129 0.01966858
vt 0.3557129 0.01667786
vt 0.3122559 0.02488708
vt 0.3122559 0.02787781
vt 0.3125 0.02787781
vt 0.3125 0.02488708
vt 0.3442383 0.02496338
vt 0.347168 0.0279541
vt 0.347168 0.02496338
vt 0.3442383 0.0279541
vt 0.270752 0.01669312
vt 0.3425293 0.01669312
vt 0.3425293 0.01371002
vt 0.270752 0.01371002
vt 0.3088379 0.02037048
vt 0.2841797 0.01737976
vt 0.2841797 0.02037048
vt 0.3088379 0.01737976
vt 0.3557129 0.02037048
vt 0.3557129 0.01737976
vt 0.3122559 0.02488708
vt 0.3154297 0.02787781
vt 0.3154297 0.02488708
vt 0.3122559 0.02787781
vt 0.347168 0.0279541
vt 0.347168 0.02496338
vt 0.3442383 0.02496338
vt 0.3442383 0.0279541
vt 0.3161621 0.01745605
vt 0.3161621 0.02044678
vt 0.3161621 0.02044678
vt 0.3161621 0.01745605
vt 0.3105469 0.02961731
vt 0.3105469 0.03259277
vt 0.3105469 0.03259277
vt 0.3105469 0.02961731
vt 0.3161621 0.03240967
vt 0.3190918 0.03540039
vt 0.3190918 0.03240967
vt 0.3161621 0.03540039
vt 0.3237305 0.02774048
vt 0.3266602 0.0307312
vt 0.3266602 0.02774048
vt 0.3237305 0.0307312
vt 0.3093262 0.01739502
vt 0.2844238 0.01457214
vt 0.2841797 0.01739502
vt 0.2839355 0.01441193
vt 0.2839355 0.01451111
vt 0.3557129 0.01441193
vt 0.3557129 0.01739502
vt 0.2841797 0.01667786
vt 0.2844238 0.01950073
vt 0.3093262 0.01667786
vt 0.2839355 0.01966858
vt 0.2839355 0.01956177
vt 0.3557129 0.01966858
vt 0.3557129 0.01667786
vt 0.2819824 0.0335083
vt 0.3537598 0.0335083
vt 0.3537598 0.03051758
vt 0.2819824 0.03051758
vt 0.2839355 0.01947021
vt 0.3557129 0.01947021
vt 0.3557129 0.01647949
vt 0.2839355 0.01647949
vt 0.307373 0.01856995
vt 0.2822266 0.01557922
vt 0.2822266 0.01856995
vt 0.307373 0.01557922
vt 0.3537598 0.01856995
vt 0.3537598 0.01557922
vt 0.307373 0.01759338
vt 0.2822266 0.01459503
vt 0.2822266 0.01759338
vt 0.307373 0.01459503
vt 0.3537598 0.01759338
vt 0.3537598 0.01459503
vt 0.3161621 0.03240967
vt 0.3190918 0.03540039
vt 0.3190918 0.03240967
vt 0.3161621 0.03540039
vt 0.2827148 0.0335083
vt 0.3537598 0.0335083
vt 0.3537598 0.03051758
vt 0.2827148 0.03051758
vt 0.2885742 0.01856995
vt 0.2819824 0.01557922
vt 0.2819824 0.01856995
vt 0.2885742 0.01557922
vt 0.3537598 0.01856995
vt 0.3537598 0.01557922
vt 0.3093262 0.01739502
vt 0.2844238 0.01457214
vt 0.2841797 0.01739502
vt 0.2839355 0.01441193
vt 0.2839355 0.01451111
vt 0.3557129 0.01441193
vt 0.3557129 0.01739502
vt 0.2841797 0.01667786
vt 0.2844238 0.01950073
vt 0.3093262 0.01667786
vt 0.2839355 0.01966858
vt 0.2839355 0.01956177
vt 0.3557129 0.01966858
vt 0.3557129 0.01667786
vt 0.2844238 0.01441193
vt 0.2841797 0.01725769
vt 0.2858887 0.01739502
vt 0.3183594 0.0144043
vt 0.3254395 0.01734924
vt 0.3242188 0.01608276
vt 0.2844238 0.01966858
vt 0.2858887 0.01667786
vt 0.2841797 0.01681519
vt 0.3183594 0.01966858
vt 0.3254395 0.01672363
vt 0.3242188 0.01799011
vt 0.2844238 0.01947021
vt 0.3183594 0.01947021
vt 0.3183594 0.01647949
vt 0.2844238 0.01647949
vt 0.2839355 0.01759338
vt 0.2819824 0.01459503
vt 0.2819824 0.01759338
vt 0.2839355 0.01459503
vt 0.3234863 0.01759338
vt 0.3234863 0.01459503
vt 0.3051758 0.02088928
vt 0.2993164 0.02088928
vt 0.2993164 0.02407837
vt 0.3051758 0.02407837
vt 0.309082 0.02153015
vt 0.309082 0.01580811
vt 0.3032227 0.02153015
vt 0.3032227 0.01580811
vt 0.2763672 0.01597595
vt 0.2807617 0.01722717
vt 0.2751465 0.01432037
vt 0.3078613 0.01441193
vt 0.3078613 0.01739502
vt 0.2807617 0.0168457
vt 0.3078613 0.01966858
vt 0.3078613 0.01667786
vt 0.2751465 0.01976013
vt 0.2763672 0.01809692
vt 0.3029785 0.02946472
vt 0.3059082 0.0324707
vt 0.3059082 0.02946472
vt 0.3029785 0.0324707
vt 0.2976074 0.03057861
vt 0.3303223 0.03057861
vt 0.2976074 0.02758789
vt 0.3303223 0.02758789
vt 0.3022461 0.01100159
vt 0.2751465 0.01100159
vt 0.2751465 0.01399231
vt 0.3022461 0.01399231
vt 0.3515625 0.01971436
vt 0.3457031 0.01971436
vt 0.3457031 0.02839661
vt 0.3515625 0.02839661
vt 0.3227539 0.02186584
vt 0.3168945 0.02186584
vt 0.3168945 0.02456665
vt 0.3227539 0.02456665
vn 0 0 -1
vn 0 0 -1
vn 0 0 -1
vn 0 0 -1
vn 0 0 -1
vn 0 0 -1
vn 0 0 -1
vn 0 0 -1
vn 0 0 -1
vn 0 0 -1
vn 0 0 -1
vn 0 0 -1
vn 0 0 -1
vn 0 0 -1
vn 0 1 0
vn 0 1 0
vn 0 1 0
vn 0 1 0
vn 0 1 0
vn 0 1 0
vn 0 1 0
vn 0 1 0
vn 0 1 0
vn 0 1 0
vn 1 0 0
vn 1 0 0
vn 1 0 0
vn 1 0 0
vn 1 0 0
vn -1 0 0
vn -1 0 0
vn -1 0 0
vn -1 0 0
vn -1 0 0
vn 0 0 1
vn 0 0 1
vn 0 0 1
vn 0 0 1
vn -1 0 0
vn -1 0 0
vn -1 0 0
vn -1 0 0
vn -1 0 0
vn -1 0 0
vn -1 0 0
vn 1 0 0
vn 1 0 0
vn 1 0 0
vn 1 0 0
vn 1 0 0
vn 1 0 0
vn 1 0 0
vn 0 -0.1127798 0.99362
vn 0 -0.1127798 0.99362
vn 0 -0.1127798 0.99362
vn 0 -0.1127798 0.99362
vn 0 0.1131788 -0.9935746
vn 0 0.1131788 -0.9935746
vn 0 0.1131788 -0.9935746
vn 0 0.1131788 -0.9935746
vn 0 0.9935747 0.1131787
vn 0 0.9935747 0.1131787
vn 0 0.9935747 0.1131787
vn 0 0.9935747 0.1131787
vn 0 -0.9935747 -0.1131782
vn 0 -0.9935748 -0.1131769
vn 0 -0.9935748 -0.1131769
vn 0 -0.9935747 -0.1131782
vn 0 -0.9935746 -0.1131795
vn 0 -0.9935746 -0.1131795
vn 1 0 0
vn 1 0 0
vn 1 0 0
vn 1 0 0
vn -1 0 0
vn -1 0 0
vn -1 0 0
vn -1 0 0
vn 0 -0.1113866 0.9937772
vn 0 -0.1113866 0.9937772
vn 0 -0.1113866 0.9937772
vn 0 -0.1113866 0.9937772
vn 0 -0.1113866 0.9937772
vn 0 -0.1113866 0.9937772
vn 0 -0.1113866 0.9937772
vn 0 -0.1113866 0.9937772
vn 0 0.1132024 -0.993572
vn 0 0.1132024 -0.993572
vn 0 0.1132024 -0.993572
vn 0 0.1132024 -0.993572
vn 0 0.1132024 -0.993572
vn 0 0.1132024 -0.993572
vn 0 0.1132024 -0.993572
vn 0 0.1132024 -0.993572
vn -1 3.09582E-06 3.4934E-07
vn -1 3.046121E-06 -1.884056E-07
vn -1 3.345825E-06 3.811161E-07
vn -1 8.175478E-05 -1.3291E-05
vn -1 9.911004E-05 -1.619171E-05
vn -1 1.516433E-07 -1.804608E-07
vn -1 0 -2.035419E-07
vn 1 0 0
vn 1 0 0
vn 1 0 0
vn 1 0 0
vn 1 0 0
vn 1 0 0
vn 1 0 0
vn 0 0.9935696 0.1132224
vn 0 0.9935696 0.1132224
vn 0 0.9935696 0.1132224
vn 0 0.9935696 0.1132224
vn 0 0.9935696 0.1132223
vn 0 0.9935696 0.1132223
vn 0 0.9935696 0.1132223
vn 0 0.9935696 0.1132223
vn 0 -0.9935747 -0.1131782
vn 0 -0.9935749 -0.1131761
vn 0 -0.9935749 -0.1131761
vn 0 -0.9935747 -0.1131782
vn 0 -0.9935744 -0.1131803
vn 0 -0.9935744 -0.1131803
vn 0 -0.9935747 -0.1131782
vn 0 -0.9935749 -0.1131761
vn 0 -0.9935749 -0.1131761
vn 0 -0.9935747 -0.1131782
vn 0 -0.9935744 -0.1131803
vn 0 -0.9935744 -0.1131803
vn 0 0.1132651 -0.9935648
vn 0 0.1132651 -0.9935648
vn 0 0.1132651 -0.9935648
vn 0 0.1132651 -0.9935648
vn 0 0.993576 0.1131672
vn 0 0.993576 0.1131672
vn 0 0.993576 0.1131672
vn 0 0.993576 0.1131672
vn 0 -0.9935691 -0.113227
vn 0 -0.9935693 -0.1132255
vn 0 -0.9935693 -0.1132255
vn 0 -0.9935691 -0.113227
vn 0 -0.993569 -0.1132284
vn 0 -0.993569 -0.1132284
vn -1 0 0
vn -1 0 0
vn -1 0 0
vn -1 0 0
vn -1 0 0
vn -1 0 0
vn -1 0 0
vn 1 -3.345825E-06 -3.811161E-07
vn 1 -3.046121E-06 1.884056E-07
vn 1 -3.09582E-06 -3.4934E-07
vn 1 -8.175478E-05 1.3291E-05
vn 1 -9.911004E-05 1.619171E-05
vn 1 -1.516433E-07 1.804608E-07
vn 1 0 2.035418E-07
vn -1 0 0
vn -1 0 0
vn -1 0 0
vn -1 0 0
vn -1 0 0
vn -1 0 0
vn 1 0 0
vn 1 0 0
vn 1 0 0
vn 1 0 0
vn 1 0 0
vn 1 0 0
vn 0 0.9961867 0.08724757
vn 0 0.9986558 -0.0518333
vn 0 0.9986558 -0.05183326
vn 0 0.9961867 0.08724757
vn 0 -0.9960715 -0.08855278
vn 0 -0.9960713 -0.08855447
vn 0 -0.9960713 -0.08855446
vn 0 -0.9960715 -0.08855278
vn 0 -0.9960717 -0.0885511
vn 0 -0.9960717 -0.0885511
vn 0 0.894415 -0.447238
vn 0 0.894415 -0.447238
vn 0 0.7409731 -0.6715346
vn 0 0.7409732 -0.6715347
vn 0 0.894415 -0.447238
vn 0 0.9986558 -0.05183326
vn 0 0.894415 -0.447238
vn 0 0.9986558 -0.0518333
vn 0 0 -1
vn 0 0 -1
vn 0 0 -1
vn 0 0 -1
vn 0 0 -1
vn 0 0 1
vn 0 0 1
vn 0 0 1
vn 0 0 1
vn 0 0 1
vn 0.9935734 0.1131898 0
vn 0.9935734 0.1131898 0
vn 0.9935734 0.1131898 0
vn 0.9935734 0.1131898 0
vn -0.1104703 0.9938794 0
vn -0.1104703 0.9938794 0
vn -0.1104703 0.9938794 0
vn -0.1104703 0.9938794 0
vn 0.106749 -0.994286 0
vn -0.02909693 -0.9995766 0
vn -0.02909689 -0.9995766 0
vn 0.106749 -0.994286 0
vn -0.4575448 -0.8891866 0
vn -0.4575448 -0.8891866 0
vn -0.02909689 -0.9995766 0
vn -0.02909693 -0.9995766 0
vn -0.7070439 -0.7071698 0
vn -0.7070439 -0.7071698 0
vn -0.4575448 -0.8891866 0
vn -0.4575448 -0.8891866 0
g pro7_scene97_0
f 3/3/3 2/2/2 1/1/1
f 1/1/1 2/2/2 4/4/4
f 2/2/2 5/5/5 4/4/4
f 5/5/5 6/6/6 4/4/4
f 7/7/7 4/4/4 6/6/6
f 6/6/6 8/8/8 7/7/7
f 9/9/9 7/7/7 8/8/8
f 8/8/8 10/10/10 9/9/9
f 11/11/11 9/9/9 10/10/10
f 10/10/10 12/12/12 11/11/11
f 13/13/13 11/11/11 12/12/12
f 14/14/14 13/13/13 12/12/12
f 17/17/17 16/16/16 15/15/15
f 18/18/18 15/15/15 16/16/16
f 19/19/19 15/15/15 18/18/18
f 19/19/19 20/20/20 15/15/15
f 21/21/21 15/15/15 20/20/20
f 22/22/22 21/21/21 20/20/20
f 21/21/21 22/22/22 23/23/23
f 23/23/23 24/24/24 21/21/21
f 27/27/27 26/26/26 25/25/25
f 25/25/25 26/26/26 28/28/28
f 29/29/29 28/28/28 26/26/26
f 32/32/32 31/31/31 30/30/30
f 31/31/31 32/32/32 33/33/33
f 33/33/33 34/34/34 31/31/31
f 37/37/37 36/36/36 35/35/35
f 35/35/35 38/38/38 37/37/37
f 41/41/41 40/40/40 39/39/39
f 40/40/40 42/42/42 39/39/39
f 42/42/42 40/40/40 43/43/43
f 39/39/39 42/42/42 44/44/44
f 45/45/45 39/39/39 44/44/44
f 48/48/48 47/47/47 46/46/46
f 47/47/47 48/48/48 49/49/49
f 50/50/50 47/47/47 49/49/49
f 48/48/48 51/51/51 49/49/49
f 51/51/51 48/48/48 52/52/52
f 55/55/55 54/54/54 53/53/53
f 53/53/53 56/56/56 55/55/55
f 59/59/59 58/58/58 57/57/57
f 60/60/60 57/57/57 58/58/58
f 63/63/63 62/62/62 61/61/61
f 64/64/64 63/63/63 61/61/61
f 67/67/67 66/66/66 65/65/65
f 68/68/68 65/65/65 66/66/66
f 65/65/65 68/68/68 69/69/69
f 70/70/70 69/69/69 68/68/68
f 73/73/73 72/72/72 71/71/71
f 74/74/74 71/71/71 72/72/72
f 77/77/77 76/76/76 75/75/75
f 77/77/77 75/75/75 78/78/78
f 81/81/81 80/80/80 79/79/79
f 79/79/79 82/82/82 81/81/81
f 85/85/85 84/84/84 83/83/83
f 83/83/83 86/86/86 85/85/85
f 89/89/89 88/88/88 87/87/87
f 90/90/90 87/87/87 88/88/88
f 93/93/93 92/92/92 91/91/91
f 94/94/94 91/91/91 92/92/92
f 97/97/97 96/96/96 95/95/95
f 96/96/96 98/98/98 95/95/95
f 98/98/98 96/96/96 99/99/99
f 95/95/95 98/98/98 100/100/100
f 101/101/101 95/95/95 100/100/100
f 104/104/104 103/103/103 102/102/102
f 103/103/103 104/104/104 105/105/105
f 106/106/106 103/103/103 105/105/105
f 104/104/104 107/107/107 105/105/105
f 107/107/107 104/104/104 108/108/108
f 111/111/111 110/110/110 109/109/109
f 112/112/112 111/111/111 109/109/109
f 115/115/115 114/114/114 113/113/113
f 116/116/116 115/115/115 113/113/113
f 119/119/119 118/118/118 117/117/117
f 120/120/120 117/117/117 118/118/118
f 117/117/117 120/120/120 121/121/121
f 122/122/122 121/121/121 120/120/120
f 125/125/125 124/124/124 123/123/123
f 126/126/126 123/123/123 124/124/124
f 123/123/123 126/126/126 127/127/127
f 128/128/128 127/127/127 126/126/126
f 131/131/131 130/130/130 129/129/129
f 132/132/132 129/129/129 130/130/130
f 135/135/135 134/134/134 133/133/133
f 136/136/136 135/135/135 133/133/133
f 139/139/139 138/138/138 137/137/137
f 140/140/140 137/137/137 138/138/138
f 137/137/137 140/140/140 141/141/141
f 142/142/142 141/141/141 140/140/140
f 145/145/145 144/144/144 143/143/143
f 144/144/144 146/146/146 143/143/143
f 146/146/146 144/144/144 147/147/147
f 143/143/143 146/146/146 148/148/148
f 149/149/149 143/143/143 148/148/148
f 152/152/152 151/151/151 150/150/150
f 151/151/151 152/152/152 153/153/153
f 154/154/154 151/151/151 153/153/153
f 152/152/152 155/155/155 153/153/153
f 155/155/155 152/152/152 156/156/156
f 159/159/159 158/158/158 157/157/157
f 157/157/157 160/160/160 159/159/159
f 161/161/161 159/159/159 160/160/160
f 162/162/162 161/161/161 160/160/160
f 165/165/165 164/164/164 163/163/163
f 166/166/166 163/163/163 164/164/164
f 166/166/166 164/164/164 167/167/167
f 168/168/168 166/166/166 167/167/167
f 171/171/171 170/170/170 169/169/169
f 172/172/172 171/171/171 169/169/169
f 175/175/175 174/174/174 173/173/173
f 174/174/174 176/176/176 173/173/173
f 177/177/177 173/173/173 176/176/176
f 178/178/178 177/177/177 176/176/176
f 181/181/181 180/180/180 179/179/179
f 179/179/179 182/182/182 181/181/181
f 185/185/185 184/184/184 183/183/183
f 184/184/184 185/185/185 186/186/186
f 189/189/189 188/188/188 187/187/187
f 188/188/188 189/189/189 190/190/190
f 190/190/190 191/191/191 188/188/188
f 194/194/194 193/193/193 192/192/192
f 193/193/193 195/195/195 192/192/192
f 196/196/196 192/192/192 195/195/195
f 199/199/199 198/198/198 197/197/197
f 200/200/200 197/197/197 198/198/198
f 203/203/203 202/202/202 201/201/201
f 204/204/204 202/202/202 203/203/203
f 207/207/207 206/206/206 205/205/205
f 205/205/205 208/208/208 207/207/207
f 211/211/211 210/210/210 209/209/209
f 212/212/212 211/211/211 209/209/209
f 215/215/215 214/214/214 213/213/213
f 216/216/216 215/215/215 213/213/213
