g qiang3_scene97
v -0.3840039 1.356792 -0.7679883
v -0.3840039 -5.363213 -3.84
v -0.3840039 -5.363213 -0.7679883
v -0.3840039 1.356793 -3.84
v -0.3840039 -9.316312 -3.84
v -0.3840039 -5.363213 -0.7679883
v -0.3840039 -5.363213 -3.84
v -0.3840039 -9.316312 -0.7679883
v 0.3840039 11.74721 -0.7679883
v 0.3840039 2.892789 -3.778943
v 0.3840039 2.892792 -0.7679883
v 0.3840039 11.74721 -3.778943
v 0.3840039 2.892789 -3.778943
v -0.3840039 1.356792 -0.7679883
v 0.3840039 2.892792 -0.7679883
v -0.3840039 1.356793 -3.84
v -0.3840039 0.5887866 3.84
v -0.3840039 2.892788 2.304004
v -0.3840039 1.356792 2.304004
v -0.3840039 -5.363213 2.304004
v -0.3840039 -5.363213 3.84
v -0.3840039 -5.363213 0.7680078
v -0.3840039 1.356788 0.9635742
v -0.3840039 -11.74721 3.84
v -0.3840039 -9.220313 2.304004
v -0.3840039 -11.74721 2.304004
v -0.3840039 -5.363213 3.84
v -0.3840039 -5.363213 2.304004
v -0.3840039 -5.363213 0.7680078
v -0.3840039 -9.316312 0.7680078
v 0.3840039 10.57279 2.304004
v 0.3840039 2.892792 0.9635742
v 0.3840039 2.892792 2.304004
v 0.3840039 11.74721 0.9635742
v 0.3840039 11.74721 1.535996
v 0.3840039 11.74721 -0.7679883
v 0.3840039 2.892792 -0.7679883
v 0.3840039 2.892792 0.9635742
v -0.3840039 1.356792 2.304004
v 0.3840039 2.892792 2.304004
v -0.3840039 1.356788 0.9635742
v 0.3840039 2.892792 -0.7679883
v -0.3840039 1.356792 -0.7679883
v -0.3840039 -5.363213 0.7680078
v -0.3840039 -9.316312 -0.7679883
v -0.3840039 -9.316312 0.7680078
v -0.3840039 -5.363213 -0.7679883
v -0.3840039 1.356788 0.9635742
v -0.3840039 -5.363213 -0.7679883
v -0.3840039 -5.363213 0.7680078
v -0.3840039 1.356792 -0.7679883
vt 0.9990177 0.2495072
vt 0.5012641 0.00107458
vt 0.5012641 0.2495072
vt 0.9990177 0.00107458
vt 0.5098714 0.00107458
vt 0.8308738 0.2495072
vt 0.8308738 0.00107458
vt 0.5098714 0.2495072
vt 0.9986868 0.2467627
vt 0.5021339 0.002190295
vt 0.5021305 0.2467627
vt 0.9986868 0.002207186
vt 0.6867499 0.00227466
vt 0.5463325 0.2494589
vt 0.6866506 0.2494589
vt 0.5463325 0.00227466
vt 0.8592038 0.2495068
vt 0.9977978 0.1247796
vt 0.905402 0.1247796
vt 0.5011701 0.1247796
vt 0.5011701 0.2495068
vt 0.5011701 0.007969632
vt 0.905402 0.007969632
vt 0.5011124 0.2495068
vt 0.6944207 0.1247796
vt 0.5011124 0.1247796
vt 0.9989467 0.2495068
vt 0.9989467 0.1247796
vt 0.9989467 0.007969632
vt 0.6944207 0.007969632
vt 0.930958 0.2494918
vt 0.5011238 0.1410599
vt 0.5011238 0.2494918
vt 0.9966892 0.1410569
vt 0.9966996 0.187409
vt 0.9966878 0.001093191
vt 0.5011238 0.001093102
vt 0.8356184 0.1410247
vt 0.6953003 0.2494649
vt 0.8356184 0.2494649
vt 0.6953003 0.1410247
vt 0.8356184 0.001047231
vt 0.6953003 0.001047231
vt 0.8652068 0.2032968
vt 0.5442044 0.07064204
vt 0.5442044 0.2032968
vt 0.8652068 0.07064204
vt 0.9984365 0.2032968
vt 0.5017767 0.07064204
vt 0.5017767 0.2032968
vt 0.9984366 0.07064204
vn 0.9732484 -0.2297551 -1.95609E-07
vn 1 0 0
vn 1 0 0
vn 0.9738654 -0.2271258 0
vn 1 0 0
vn 1 0 0
vn 1 0 0
vn 1 0 0
vn 1 0 0
vn 0.9726384 -0.2323246 0
vn 0.9732485 -0.2297547 0
vn 1 0 0
vn 0.9726384 -0.2323246 0
vn 0.9732484 -0.2297551 -1.95609E-07
vn 0.9732485 -0.2297547 0
vn 0.9738654 -0.2271258 0
vn 1 0 0
vn 1 0 0
vn 0.9934709 -0.1140855 1.80177E-07
vn 1 0 0
vn 1 0 0
vn 1 0 0
vn 0.9732486 -0.2297543 1.930103E-07
vn 1 0 0
vn 1 0 0
vn 1 0 0
vn 1 0 0
vn 1 0 0
vn 1 0 0
vn 1 0 0
vn 1 0 0
vn 0.9732486 -0.2297546 1.32422E-07
vn 0.9732485 -0.229755 0
vn 1 0 0
vn 1 0 0
vn 1 0 0
vn 0.9732485 -0.2297547 0
vn 0.9732486 -0.2297546 1.32422E-07
vn 0.9934709 -0.1140855 1.80177E-07
vn 0.9732485 -0.229755 0
vn 0.9732486 -0.2297543 1.930103E-07
vn 0.9732485 -0.2297547 0
vn 0.9732484 -0.2297551 -1.95609E-07
vn 1 0 0
vn 1 0 0
vn 1 0 0
vn 1 0 0
vn 0.9732486 -0.2297543 1.930103E-07
vn 1 0 0
vn 1 0 0
vn 0.9732484 -0.2297551 -1.95609E-07
g qiang3_scene97_0
f 3/3/3 2/2/2 1/1/1
f 4/4/4 1/1/1 2/2/2
f 7/7/7 6/6/6 5/5/5
f 8/8/8 5/5/5 6/6/6
f 11/11/11 10/10/10 9/9/9
f 12/12/12 9/9/9 10/10/10
f 15/15/15 14/14/14 13/13/13
f 16/16/16 13/13/13 14/14/14
f 19/19/19 18/18/18 17/17/17
f 17/17/17 20/20/20 19/19/19
f 20/20/20 17/17/17 21/21/21
f 20/20/20 22/22/22 19/19/19
f 23/23/23 19/19/19 22/22/22
f 26/26/26 25/25/25 24/24/24
f 25/25/25 27/27/27 24/24/24
f 27/27/27 25/25/25 28/28/28
f 28/28/28 25/25/25 29/29/29
f 30/30/30 29/29/29 25/25/25
f 33/33/33 32/32/32 31/31/31
f 31/31/31 32/32/32 34/34/34
f 35/35/35 31/31/31 34/34/34
f 34/34/34 32/32/32 36/36/36
f 37/37/37 36/36/36 32/32/32
f 40/40/40 39/39/39 38/38/38
f 41/41/41 38/38/38 39/39/39
f 38/38/38 41/41/41 42/42/42
f 43/43/43 42/42/42 41/41/41
f 46/46/46 45/45/45 44/44/44
f 47/47/47 44/44/44 45/45/45
f 50/50/50 49/49/49 48/48/48
f 51/51/51 48/48/48 49/49/49
