g qiangguan
v -0.9357078 0.03577498 0.4194423
v -0.9223498 0.04302229 0.4194423
v -0.9223498 0.009135704 0.4194423
v -0.9357078 0.009135704 0.4194423
v -0.9571955 0.03577493 0.4194423
v -0.9571955 0.009135704 0.4194423
v -0.9705535 0.04302234 0.4194423
v -0.9705535 0.009135704 0.4194423
v -0.9098158 0.08267961 0.3901602
v -0.9281337 0.1032698 0.4283885
v -0.9281337 0.1032698 0.3901602
v -0.9098158 0.08267961 0.4283885
v -0.9098158 0.06422996 0.3901602
v -0.9098158 0.06422997 0.4283885
v -0.9196323 0.0482521 0.3901602
v -0.9196323 0.04825211 0.4283885
v -0.9223498 0.04302229 0.3991064
v -0.9357078 0.03577498 0.3991064
v -0.9223498 0.04302229 0.4194423
v -0.9366351 0.0390273 0.3901602
v -0.9366351 0.0390273 0.4283885
v -0.9571955 0.03577493 0.3991064
v -0.9357078 0.03577498 0.4194423
v -0.9562682 0.03902727 0.3901602
v -0.9562682 0.03902728 0.4283885
v -0.9705535 0.04302234 0.3991064
v -0.9571955 0.03577493 0.4194423
v -0.9732708 0.0482521 0.3901602
v -0.9732708 0.04825211 0.4283885
v -0.9705535 0.04302234 0.4194423
v -0.9281337 0.1032698 0.3901602
v -0.9281337 0.1032698 0.4283885
v -0.9647695 0.1032698 0.4283885
v -0.9647695 0.1032698 0.3901602
v -0.9647695 0.1032698 0.3901602
v -0.9647695 0.1032698 0.4283885
v -0.9830874 0.08267961 0.4283885
v -0.9830874 0.08267961 0.3901602
v -0.9830874 0.06422997 0.4283885
v -0.9830874 0.06422996 0.3901602
v -0.9732708 0.04825211 0.4283885
v -0.9732708 0.0482521 0.3901602
v -0.9562682 0.03902728 0.4283885
v -0.9196323 0.04825211 0.4283885
v -0.9366351 0.0390273 0.4283885
v -0.9732708 0.04825211 0.4283885
v -0.9098158 0.06422997 0.4283885
v -0.9830874 0.06422997 0.4283885
v -0.9098158 0.08267961 0.4283885
v -0.9830874 0.08267961 0.4283885
v -0.9281337 0.1032698 0.4283885
v -0.9647695 0.1032698 0.4283885
v -0.9705535 0.04302234 0.3991064
v -0.9705535 0.04302234 0.4194423
v -0.9705535 0.009135704 0.4194423
v -0.9705535 0.009135703 0.3991064
v -0.9562682 0.03902727 0.3901602
v -0.9366351 0.0390273 0.3901602
v -0.9196323 0.0482521 0.3901602
v -0.9732708 0.0482521 0.3901602
v -0.9830874 0.06422996 0.3901602
v -0.9098158 0.06422996 0.3901602
v -0.9830874 0.08267961 0.3901602
v -0.9098158 0.08267961 0.3901602
v -0.9647695 0.1032698 0.3901602
v -0.9281337 0.1032698 0.3901602
v -0.9571955 0.03577493 0.3991064
v -0.9705535 0.04302234 0.3991064
v -0.9705535 0.009135703 0.3991064
v -0.9571955 0.009135703 0.3991064
v -0.9357078 0.03577498 0.3991064
v -0.9357078 0.009135703 0.3991064
v -0.9223498 0.04302229 0.3991064
v -0.9223498 0.009135703 0.3991064
v -0.9223498 0.04302229 0.4194423
v -0.9223498 0.04302229 0.3991064
v -0.9223498 0.009135703 0.3991064
v -0.9223498 0.009135704 0.4194423
vt 0.007968582 0.3230623
vt 0.005229868 0.3180144
vt 0.01803545 0.3180144
vt 0.01803545 0.3230623
vt 0.007968582 0.3311824
vt 0.01803545 0.3311824
vt 0.005229868 0.3362304
vt 0.01803545 0.3362304
vt 0.4455925 0.2662645
vt 0.432565 0.2545809
vt 0.4455266 0.2545083
vt 0.4326308 0.266337
vt 0.4456352 0.2738949
vt 0.4326735 0.2739675
vt 0.4456786 0.2816508
vt 0.4327169 0.2817234
vt 0.4430528 0.2839231
vt 0.4430849 0.2896661
vt 0.435368 0.2839662
vt 0.4457234 0.2896511
vt 0.4327618 0.2897236
vt 0.4431303 0.297786
vt 0.4354002 0.2897091
vt 0.4457688 0.2977712
vt 0.4328072 0.2978438
vt 0.4431626 0.303529
vt 0.4354456 0.297829
vt 0.4458136 0.3057717
vt 0.432852 0.3058442
vt 0.4354778 0.3035719
vt 0.4455266 0.2545083
vt 0.432565 0.2545809
vt 0.4324747 0.2384605
vt 0.4454364 0.2383879
vt 0.4454364 0.2383879
vt 0.4324747 0.2384605
vt 0.4324089 0.2267044
vt 0.4453706 0.2266319
vt 0.4323661 0.2190739
vt 0.4453278 0.2190014
vt 0.4323227 0.211318
vt 0.4452844 0.2112455
vt 0.7643453 0.6571659
vt 0.7783251 0.6535673
vt 0.7718677 0.6571408
vt 0.7578517 0.6535941
vt 0.7820149 0.6474372
vt 0.7541388 0.6474849
vt 0.7820302 0.6404092
vt 0.7541531 0.6404538
vt 0.7750902 0.6325105
vt 0.7610899 0.6325374
vt 0.005229868 0.2921136
vt 0.005229868 0.2844288
vt 0.01803545 0.2844288
vt 0.01803545 0.2921136
vt 0.4596468 0.1380436
vt 0.4665548 0.1371641
vt 0.4729351 0.1397005
vt 0.4541106 0.1420656
vt 0.4514019 0.1481265
vt 0.4770315 0.1448986
vt 0.4521927 0.1545945
vt 0.4778213 0.1513633
vt 0.4594956 0.1610589
vt 0.4723645 0.1594345
vt 0.007968582 0.2971615
vt 0.005229868 0.2921136
vt 0.01803545 0.2921136
vt 0.01803545 0.2971615
vt 0.007968582 0.3052817
vt 0.01803545 0.3052817
vt 0.005229868 0.3103296
vt 0.01803545 0.3103296
vt 0.005229868 0.3180144
vt 0.005229868 0.3103296
vt 0.01803545 0.3103296
vt 0.01803545 0.3180144
vn 0 0 1
vn 0 0 1
vn 0 0 1
vn 0 0 1
vn 0 0 1
vn 0 0 1
vn 0 0 1
vn 0 0 1
vn 0.9346478 0.355575 0
vn 0.7471328 0.6646748 0
vn 0.7471328 0.6646748 0
vn 0.9346477 0.3555751 0
vn 0.9622995 -0.2719921 0
vn 0.9622995 -0.2719921 0
vn 0.7559612 -0.6430696 -0.1224102
vn 0.7559612 -0.6430694 0.1224105
vn 0.8496807 -0.5119222 -0.1264057
vn 0.2314743 -0.9063476 -0.3534877
vn 0.8496805 -0.5119222 0.1264063
vn 0.2285259 -0.9071071 -0.3534582
vn 0.2285257 -0.9071066 0.3534595
vn -0.2314764 -0.9063466 -0.353489
vn 0.2314741 -0.9063472 0.353489
vn -0.2285254 -0.9071067 -0.3534594
vn -0.2285253 -0.9071062 0.3534607
vn -0.8496844 -0.5119159 -0.1264059
vn -0.2314762 -0.9063461 0.3534903
vn -0.7559611 -0.6430693 -0.1224116
vn -0.7559612 -0.643069 0.122412
vn -0.8496844 -0.5119159 0.1264064
vn 0 1 0
vn 0 1 0
vn 0 1 0
vn 0 1 0
vn -0.747131 0.6646768 0
vn -0.747131 0.6646768 0
vn -0.9346473 0.3555763 0
vn -0.9346473 0.3555762 0
vn -0.9622989 -0.2719942 0
vn -0.9622988 -0.2719942 0
vn -0.7559612 -0.643069 0.122412
vn -0.7559611 -0.6430693 -0.1224116
vn 0 0 1
vn 0 0 1
vn 0 0 1
vn 0 0 1
vn 0 0 1
vn 0 0 1
vn 0 0 1
vn 0 0 1
vn 0 0 1
vn 0 0 1
vn -0.8496844 -0.5119159 -0.1264059
vn -0.8496844 -0.5119159 0.1264064
vn -1 0 0
vn -1 0 0
vn 0 0 -1
vn 0 0 -1
vn 0 0 -1
vn 0 0 -1
vn 0 0 -1
vn 0 0 -1
vn 0 0 -1
vn 0 0 -1
vn 0 0 -1
vn 0 0 -1
vn 0 0 -1
vn 0 0 -1
vn 0 0 -1
vn 0 0 -1
vn 0 0 -1
vn 0 0 -1
vn 0 0 -1
vn 0 0 -1
vn 0.8496805 -0.5119222 0.1264063
vn 0.8496807 -0.5119222 -0.1264057
vn 1 0 0
vn 1 0 0
g qiangguan_0
f 3/3/3 2/2/2 1/1/1
f 4/4/4 3/3/3 1/1/1
f 4/4/4 1/1/1 5/5/5
f 6/6/6 4/4/4 5/5/5
f 6/6/6 5/5/5 7/7/7
f 8/8/8 6/6/6 7/7/7
f 11/11/11 10/10/10 9/9/9
f 10/10/10 12/12/12 9/9/9
f 9/9/9 12/12/12 13/13/13
f 12/12/12 14/14/14 13/13/13
f 13/13/13 14/14/14 15/15/15
f 14/14/14 16/16/16 15/15/15
f 15/15/15 16/16/16 17/17/17
f 15/15/15 17/17/17 18/18/18
f 16/16/16 19/19/19 17/17/17
f 20/20/20 15/15/15 18/18/18
f 16/16/16 21/21/21 19/19/19
f 20/20/20 18/18/18 22/22/22
f 21/21/21 23/23/23 19/19/19
f 24/24/24 20/20/20 22/22/22
f 21/21/21 25/25/25 23/23/23
f 24/24/24 22/22/22 26/26/26
f 25/25/25 27/27/27 23/23/23
f 28/28/28 24/24/24 26/26/26
f 25/25/25 29/29/29 27/27/27
f 28/28/28 26/26/26 30/30/30
f 29/29/29 30/30/30 27/27/27
f 29/29/29 28/28/28 30/30/30
f 33/33/33 32/32/32 31/31/31
f 34/34/34 33/33/33 31/31/31
f 37/37/37 36/36/36 35/35/35
f 38/38/38 37/37/37 35/35/35
f 39/39/39 37/37/37 38/38/38
f 40/40/40 39/39/39 38/38/38
f 41/41/41 39/39/39 40/40/40
f 42/42/42 41/41/41 40/40/40
f 45/45/45 44/44/44 43/43/43
f 44/44/44 46/46/46 43/43/43
f 46/46/46 44/44/44 47/47/47
f 48/48/48 46/46/46 47/47/47
f 48/48/48 47/47/47 49/49/49
f 50/50/50 48/48/48 49/49/49
f 50/50/50 49/49/49 51/51/51
f 52/52/52 50/50/50 51/51/51
f 55/55/55 54/54/54 53/53/53
f 56/56/56 55/55/55 53/53/53
f 59/59/59 58/58/58 57/57/57
f 60/60/60 59/59/59 57/57/57
f 60/60/60 61/61/61 59/59/59
f 61/61/61 62/62/62 59/59/59
f 61/61/61 63/63/63 62/62/62
f 63/63/63 64/64/64 62/62/62
f 63/63/63 65/65/65 64/64/64
f 65/65/65 66/66/66 64/64/64
f 69/69/69 68/68/68 67/67/67
f 70/70/70 69/69/69 67/67/67
f 70/70/70 67/67/67 71/71/71
f 72/72/72 70/70/70 71/71/71
f 72/72/72 71/71/71 73/73/73
f 74/74/74 72/72/72 73/73/73
f 77/77/77 76/76/76 75/75/75
f 78/78/78 77/77/77 75/75/75
