g qiang7_scene97
v 2.416382 7.884302 4.607998
v 0.8803833 7.884302 1.536006
v 2.416382 7.884302 1.536006
v -0.6556152 7.884302 4.607998
v -0.6556152 7.884302 1.536006
v -2.191619 6.348298 1.536006
v -2.191619 3.276301 4.607998
v -2.191619 3.276301 1.536006
v -2.191619 6.348298 4.607998
v -0.6556152 1.7403 4.607998
v 0.1123828 1.7403 1.536006
v -0.6556152 1.7403 1.536006
v 2.416382 1.7403 4.607998
v 2.416382 1.7403 1.536006
v -0.6556152 7.884302 1.536006
v -0.6556152 7.884302 4.607998
v -2.191619 6.348298 1.536006
v -2.191619 6.348298 4.607998
v -0.6556152 1.7403 1.536006
v -2.191619 3.276301 4.607998
v -0.6556152 1.7403 4.607998
v -2.191619 3.276301 1.536006
v 0.1123828 -6.851765 1.296318
v 0.1123828 -7.091443 1.536006
v -0.2716138 -6.851766 1.296338
v -0.2716162 -7.091443 1.536006
v -0.6556152 -7.091443 1.536006
v -0.6556152 -6.851766 1.296318
v -0.2716138 -6.851766 1.296338
v 0.1123828 -6.707703 0.5759863
v 0.1123828 -6.851765 1.296318
v -0.2716162 -6.707703 0.5759863
v -0.6556152 -6.707704 0.5759863
v -0.6556152 -6.851766 1.296318
v -0.6556152 -5.747703 1.536006
v -0.6556152 1.7403 -1.535986
v -0.6556152 1.7403 1.536006
v -0.6556152 -5.747703 -1.535986
v -0.6556152 -6.707704 0.5759863
v -0.6556152 -6.707703 -1.535986
v -0.6556152 -6.707704 1.343994
v -0.6556152 -6.5157 1.536006
v -0.6556152 -6.707704 0.5759863
v -0.6556152 -13.0464 -1.535986
v -0.6556152 -6.707703 -1.535986
v -0.6556152 -7.091443 1.536006
v -0.6556152 -6.851766 1.296318
v -0.6556152 -13.0464 1.536006
v -0.6556152 13.0464 -1.535986
v -0.6556152 7.884302 1.536006
v -0.6556152 7.884302 -1.535986
v -0.6556152 13.0464 1.536006
v -2.191619 6.348298 -1.535986
v -2.191619 3.276301 1.536006
v -2.191619 3.276301 -1.535986
v -2.191619 6.348298 1.536006
v -0.6556152 7.884302 1.536006
v -2.191619 6.348298 -1.535986
v -0.6556152 7.884302 -1.535986
v -2.191619 6.348298 1.536006
v -0.6556152 1.7403 1.536006
v -0.6556152 1.7403 -1.535986
v -2.191619 3.276301 1.536006
v -2.191619 3.276301 -1.535986
v -0.2716162 -6.707703 0.5759863
v 0.1123828 -6.707703 1.343994
v 0.1123828 -6.707703 0.5759863
v -0.6556152 -6.707704 1.343994
v -0.6556152 -6.707704 0.5759863
v -0.6556152 -6.5157 1.536006
v 0.1123828 -6.707703 1.343994
v -0.6556152 -6.707704 1.343994
v 0.1123828 -6.5157 1.536006
v -0.6556152 -5.747703 -1.535986
v -0.6556152 1.7403 -4.607998
v -0.6556152 1.7403 -1.535986
v -0.6556152 -5.747703 -4.607998
v -0.6556152 -6.707703 -1.535986
v -0.6556152 -6.707703 -4.607998
v -0.6556152 -6.707703 -1.535986
v -0.6556152 -13.0464 -4.607998
v -0.6556152 -6.707703 -4.607998
v -0.6556152 -13.0464 -1.535986
v -0.6556152 13.0464 -4.607998
v -0.6556152 7.884302 -1.535986
v -0.6556152 7.884302 -4.607998
v -0.6556152 13.0464 -1.535986
v -2.191619 6.348298 -4.607998
v -2.191619 3.276301 -1.535986
v -2.191619 3.276301 -4.607998
v -2.191619 6.348298 -1.535986
v -0.6556152 7.884302 -1.535986
v -2.191619 6.348298 -4.607998
v -0.6556152 7.884302 -4.607998
v -2.191619 6.348298 -1.535986
v -0.6556152 1.7403 -1.535986
v -0.6556152 1.7403 -4.607998
v -2.191619 3.276301 -1.535986
v -2.191619 3.276301 -4.607998
v -2.191504 4.69269 -2.555303
v -2.393159 4.911674 -4.543974
v -2.222353 4.890512 -2.550557
v -2.362309 4.713852 -4.548701
v -2.39438 4.48104 -4.548428
v -2.223574 4.459883 -2.55501
v -2.192861 4.214321 -2.560244
v -2.363662 4.235483 -4.553681
v -2.395693 4.016123 -4.553252
v -2.224893 3.994966 -2.559834
v -2.194102 3.774009 -2.564834
v -2.364912 3.795171 -4.558232
v -2.396772 3.633061 -4.557236
v -2.225976 3.611899 -2.563818
v -2.191514 5.782622 -2.905811
v -2.416382 6.040454 -4.478701
v -2.216831 5.922661 -2.892178
v -2.391055 5.900415 -4.492353
v -2.415825 5.734805 -4.501592
v -2.216274 5.617016 -2.915088
v -2.190893 5.443091 -2.93126
v -2.39044 5.560884 -4.517764
v -2.41522 5.404819 -4.526299
v -2.215669 5.287026 -2.939775
v -2.190317 5.130571 -2.954658
v -2.389868 5.248364 -4.541182
v -2.414717 5.132935 -4.54667
v -2.215171 5.015141 -2.960146
vt 0.3554893 0.7489695
vt 0.2307442 0.5005113
vt 0.3554893 0.5005113
vt 0.1059991 0.7489695
vt 0.1059991 0.5005113
vt 0.3745149 0.5005113
vt 0.125523 0.7489695
vt 0.125523 0.5005113
vt 0.3745149 0.7489695
vt 0.1059991 0.7489695
vt 0.1683717 0.5005113
vt 0.1059991 0.5005113
vt 0.3554893 0.7489695
vt 0.3554893 0.5005113
vt 0.4990108 0.5005113
vt 0.4990108 0.7489695
vt 0.3745149 0.5005113
vt 0.3745149 0.7489695
vt 0.001027057 0.5005113
vt 0.125523 0.7489695
vt 0.001027057 0.7489695
vt 0.125523 0.5005113
vt 0.6743267 0.1118233
vt 0.6743267 0.1391031
vt 0.7055035 0.1118233
vt 0.7055035 0.1391031
vt 0.7366803 0.1391031
vt 0.7366803 0.1118233
vt 0.6830205 0.144511
vt 0.6518437 0.08508007
vt 0.6518437 0.144511
vt 0.6830205 0.08508007
vt 0.7141973 0.08508007
vt 0.7141973 0.144511
vt 0.5577252 0.2494694
vt 0.9988824 0.001099954
vt 0.9988824 0.2494694
vt 0.5577252 0.001099954
vt 0.5011666 0.171854
vt 0.5011666 0.001099954
vt 0.5011666 0.2339464
vt 0.5124784 0.2494694
vt 0.9989566 0.171854
vt 0.5011475 0.001100131
vt 0.9989566 0.001099954
vt 0.9687991 0.2494694
vt 0.9876475 0.2300656
vt 0.5011475 0.2494694
vt 0.9740853 0.001102884
vt 0.554177 0.2494694
vt 0.554177 0.001099954
vt 0.97409 0.2494694
vt 0.8744808 0.007163661
vt 0.6256484 0.1936833
vt 0.6256484 0.007163661
vt 0.8744808 0.1936833
vt 0.9988969 0.1936833
vt 0.8744808 0.007163661
vt 0.9988969 0.007163661
vt 0.8744808 0.1936833
vt 0.5012322 0.1936833
vt 0.5012322 0.007163661
vt 0.6256484 0.1936833
vt 0.6256484 0.007163661
vt 0.7780852 0.1387293
vt 0.8092621 0.201083
vt 0.8092621 0.1387293
vt 0.7469083 0.201083
vt 0.7469083 0.1387293
vt 0.8929699 0.06183124
vt 0.9553238 0.04039715
vt 0.8929699 0.04039715
vt 0.9553238 0.06183124
vt 0.5577112 0.2494916
vt 0.9989268 0.001071222
vt 0.9989268 0.2494916
vt 0.5577112 0.001071222
vt 0.501145 0.2494916
vt 0.501145 0.001071222
vt 0.9988975 0.2494916
vt 0.5011322 0.001071222
vt 0.9988975 0.001071222
vt 0.5011326 0.2494916
vt 0.9494857 0.001074183
vt 0.5295775 0.2494916
vt 0.5295775 0.001071222
vt 0.9494904 0.2494916
vt 0.8744755 0.001071222
vt 0.6255902 0.2494916
vt 0.6255902 0.001071222
vt 0.8744755 0.2494916
vt 0.9989181 0.2494916
vt 0.8744755 0.001071222
vt 0.9989181 0.001071222
vt 0.8744755 0.2494916
vt 0.5011475 0.2494916
vt 0.5011475 0.001071222
vt 0.6255902 0.2494916
vt 0.6255902 0.001071222
vt 0.02856697 0.8022221
vt 0.0109774 0.6855801
vt 0.0109774 0.8022221
vt 0.02856697 0.6855801
vt 0.04623665 0.6855801
vt 0.04623665 0.8022221
vt 0.06088509 0.8022221
vt 0.06088509 0.6855801
vt 0.07397713 0.6855801
vt 0.07397713 0.8022221
vt 0.08716072 0.8022221
vt 0.08716072 0.6855801
vt 0.09710945 0.6855801
vt 0.09710945 0.8022221
vt 0.3471094 0.8152226
vt 0.3295313 0.6803435
vt 0.3295313 0.8152226
vt 0.3471094 0.6803435
vt 0.3646876 0.6803435
vt 0.3646876 0.8152226
vt 0.379336 0.8152226
vt 0.379336 0.6803435
vt 0.3925196 0.6803435
vt 0.3925196 0.8152226
vt 0.4057032 0.8152226
vt 0.4057032 0.6803435
vt 0.4154688 0.6803435
vt 0.4154688 0.8152226
vn 0 1 0
vn 0 1 0
vn 0 1 0
vn 0 1 0
vn 0 1 0
vn -0.9238795 0.3826834 0
vn -1 0 0
vn -1 0 0
vn -0.9238795 0.3826834 0
vn -0.382683 -0.9238797 0
vn 0 -1 0
vn -0.5054489 -0.8628565 0
vn 0 -1 0
vn 0 -1 0
vn -0.8628561 0.5054495 0
vn -0.7071068 0.7071068 0
vn -0.9238795 0.3826834 0
vn -0.9238795 0.3826834 0
vn -0.5054489 -0.8628565 0
vn -0.7071062 -0.7071073 0
vn -0.382683 -0.9238797 0
vn -0.7071062 -0.7071073 0
vn 2.119637E-05 0.8816847 0.4718391
vn 1.819432E-05 0.7071087 0.7071048
vn -1.084407E-06 0.8816721 0.4718624
vn 0 0.7070943 0.7071193
vn -1.940717E-05 0.7071097 0.7071038
vn -2.399885E-05 0.8816851 0.4718383
vn -1.084407E-06 0.8816721 0.4718624
vn 2.102757E-06 0.9805822 0.1961086
vn 2.119637E-05 0.8816847 0.4718391
vn -1.558601E-06 0.9805824 0.1961075
vn -5.219941E-06 0.9805822 0.1961086
vn -2.399885E-05 0.8816851 0.4718383
vn -1 0 0
vn -1 0 0
vn -1 0 0
vn -1 0 0
vn -1 0 0
vn -1 0 0
vn -1 0 0
vn -1 0 0
vn -1 0 0
vn -1 0 0
vn -1 0 0
vn -1 0 0
vn -1 0 0
vn -1 0 0
vn -1 0 0
vn -0.8628561 0.5054495 0
vn -0.9238795 0.3826834 0
vn -1 0 0
vn -0.9238795 0.3826834 0
vn -1 0 0
vn -1 0 0
vn -0.9238795 0.3826834 0
vn -0.8628561 0.5054495 0
vn -0.9238795 0.3826834 0
vn -0.9238795 0.3826834 0
vn -0.9238795 0.3826834 0
vn -0.5054489 -0.8628565 0
vn -0.7071062 -0.7071073 0
vn -0.7071062 -0.7071073 0
vn -0.7071062 -0.7071073 0
vn 1.589461E-06 -1 -2.345729E-07
vn 7.365276E-07 -0.9238843 0.3826719
vn 0 -1 0
vn 1.716007E-06 -0.9238839 0.3826728
vn 3.178922E-06 -1 0
vn 8.715454E-07 -0.707123 0.7070905
vn 7.365276E-07 -0.9238843 0.3826719
vn 1.716007E-06 -0.9238839 0.3826728
vn 0 -0.7071247 0.7070888
vn -1 0 0
vn -1 0 0
vn -1 0 0
vn -1 0 0
vn -1 0 0
vn -1 0 0
vn -1 0 0
vn -1 0 0
vn -1 0 0
vn -1 0 0
vn -1 0 0
vn -0.9238795 0.3826834 0
vn -0.9238795 0.3826834 0
vn -1 0 0
vn -0.9238795 0.3826835 0
vn -1 0 0
vn -1 0 0
vn -0.9238795 0.3826834 0
vn -0.9238795 0.3826834 0
vn -0.9238795 0.3826835 0
vn -0.9238795 0.3826834 0
vn -0.9238795 0.3826834 0
vn -0.7071062 -0.7071073 0
vn -0.7071062 -0.7071073 0
vn -0.7071062 -0.7071073 0
vn -0.7071062 -0.7071073 0
vn -0.9963101 -0.009815475 0.08526436
vn -0.9843708 -0.1554852 0.08269577
vn -0.9843696 -0.1554926 0.08269484
vn -0.9963099 -0.009822356 0.0852652
vn -0.9963302 0.005346917 0.08542604
vn -0.99633 0.005364468 0.0854273
vn -0.9962965 0.009430408 0.08546621
vn -0.9962967 0.009419667 0.08546424
vn -0.996344 0.002415403 0.08539703
vn -0.9963443 0.002392866 0.08539453
vn -0.9959604 0.02704926 0.08562276
vn -0.9959604 0.0270309 0.08562894
vn -0.9775091 0.1926483 0.08580567
vn -0.977492 0.1927384 0.08579756
vn -0.992111 -0.02432095 0.1229808
vn -0.9762723 -0.1871773 0.1088901
vn -0.976285 -0.1871025 0.1089042
vn -0.9921134 -0.02422755 0.1229803
vn -0.9922236 -0.007325433 0.1242524
vn -0.9922228 -0.007272277 0.1242621
vn -0.9922042 -0.002797254 0.1245912
vn -0.9922041 -0.002736135 0.1245934
vn -0.9922239 -0.01067195 0.1240076
vn -0.9922239 -0.01059374 0.124014
vn -0.9918882 0.01677325 0.1260023
vn -0.9918858 0.01685657 0.1260096
vn -0.9697086 0.2022388 0.1369839
vn -0.969701 0.2022762 0.1369829
g qiang7_scene97_0
f 3/3/3 2/2/2 1/1/1
f 4/4/4 1/1/1 2/2/2
f 2/2/2 5/5/5 4/4/4
f 8/8/8 7/7/7 6/6/6
f 9/9/9 6/6/6 7/7/7
f 12/12/12 11/11/11 10/10/10
f 13/13/13 10/10/10 11/11/11
f 14/14/14 13/13/13 11/11/11
f 17/17/17 16/16/16 15/15/15
f 16/16/16 17/17/17 18/18/18
f 21/21/21 20/20/20 19/19/19
f 22/22/22 19/19/19 20/20/20
f 25/25/25 24/24/24 23/23/23
f 25/25/25 26/26/26 24/24/24
f 27/27/27 26/26/26 25/25/25
f 28/28/28 27/27/27 25/25/25
f 31/31/31 30/30/30 29/29/29
f 32/32/32 29/29/29 30/30/30
f 33/33/33 29/29/29 32/32/32
f 29/29/29 33/33/33 34/34/34
f 37/37/37 36/36/36 35/35/35
f 38/38/38 35/35/35 36/36/36
f 38/38/38 39/39/39 35/35/35
f 40/40/40 39/39/39 38/38/38
f 39/39/39 41/41/41 35/35/35
f 42/42/42 35/35/35 41/41/41
f 45/45/45 44/44/44 43/43/43
f 44/44/44 46/46/46 43/43/43
f 47/47/47 43/43/43 46/46/46
f 44/44/44 48/48/48 46/46/46
f 51/51/51 50/50/50 49/49/49
f 52/52/52 49/49/49 50/50/50
f 55/55/55 54/54/54 53/53/53
f 56/56/56 53/53/53 54/54/54
f 59/59/59 58/58/58 57/57/57
f 60/60/60 57/57/57 58/58/58
f 63/63/63 62/62/62 61/61/61
f 62/62/62 63/63/63 64/64/64
f 67/67/67 66/66/66 65/65/65
f 68/68/68 65/65/65 66/66/66
f 65/65/65 68/68/68 69/69/69
f 72/72/72 71/71/71 70/70/70
f 73/73/73 70/70/70 71/71/71
f 76/76/76 75/75/75 74/74/74
f 77/77/77 74/74/74 75/75/75
f 74/74/74 77/77/77 78/78/78
f 79/79/79 78/78/78 77/77/77
f 82/82/82 81/81/81 80/80/80
f 81/81/81 83/83/83 80/80/80
f 86/86/86 85/85/85 84/84/84
f 87/87/87 84/84/84 85/85/85
f 90/90/90 89/89/89 88/88/88
f 91/91/91 88/88/88 89/89/89
f 94/94/94 93/93/93 92/92/92
f 95/95/95 92/92/92 93/93/93
f 98/98/98 97/97/97 96/96/96
f 97/97/97 98/98/98 99/99/99
g qiang7_scene97_1
f 102/102/102 101/101/101 100/100/100
f 103/103/103 100/100/100 101/101/101
f 103/103/103 104/104/104 100/100/100
f 105/105/105 100/100/100 104/104/104
f 105/105/105 104/104/104 106/106/106
f 107/107/107 106/106/106 104/104/104
f 107/107/107 108/108/108 106/106/106
f 109/109/109 106/106/106 108/108/108
f 109/109/109 108/108/108 110/110/110
f 111/111/111 110/110/110 108/108/108
f 111/111/111 112/112/112 110/110/110
f 113/113/113 110/110/110 112/112/112
f 116/116/116 115/115/115 114/114/114
f 117/117/117 114/114/114 115/115/115
f 117/117/117 118/118/118 114/114/114
f 119/119/119 114/114/114 118/118/118
f 119/119/119 118/118/118 120/120/120
f 121/121/121 120/120/120 118/118/118
f 121/121/121 122/122/122 120/120/120
f 123/123/123 120/120/120 122/122/122
f 123/123/123 122/122/122 124/124/124
f 125/125/125 124/124/124 122/122/122
f 125/125/125 126/126/126 124/124/124
f 127/127/127 124/124/124 126/126/126
