g qiang6_scene48
v -1.611905 2.405987 2.904202
v -1.611904 -2.400836 2.777256
v -1.611905 2.405987 2.777256
v -1.611904 -2.400836 2.904202
v -1.611905 2.405987 2.777256
v -1.544447 -2.400831 2.777252
v -1.54445 2.405982 2.777252
v -1.611904 -2.400836 2.777256
v -1.492165 -2.400836 2.904202
v -1.611905 2.405987 2.904202
v -1.492167 2.405987 2.904202
v -1.611904 -2.400836 2.904202
v -1.54445 2.405982 2.777252
v -1.611905 2.405987 2.904202
v -1.611905 2.405987 2.777256
v -1.492167 2.405987 2.904202
v -1.544447 -2.400831 2.777252
v -1.611904 -2.400836 2.904202
v -1.492165 -2.400836 2.904202
v -1.611904 -2.400836 2.777256
v -1.507576 -1.438902 3.667536
v -1.507576 -2.400831 2.893909
v -1.507576 -1.438902 2.893909
v -1.507576 -2.400831 3.667536
v -1.507576 -0.4779156 3.667536
v -1.507576 -1.438902 2.893909
v -1.507576 -0.4779156 2.893909
v -1.507576 -1.438902 3.667536
v -1.507576 0.4830707 3.667536
v -1.507576 -0.4779156 2.893909
v -1.507576 0.4830707 2.893909
v -1.507576 -0.4779156 3.667536
v -1.507576 1.444057 3.667536
v -1.507576 0.4830707 2.893909
v -1.507576 1.444057 2.893909
v -1.507576 0.4830707 3.667536
v -1.507576 2.405986 3.667536
v -1.507576 1.444057 2.893909
v -1.507576 2.405986 2.893909
v -1.507576 1.444057 3.667536
v -1.507579 2.600004 3.661872
v -1.934245 -2.600006 3.661881
v -1.507586 -2.600006 3.661872
v -1.934241 2.600006 3.66188
v -1.934239 -2.600006 3.819931
v -1.934241 2.600006 3.66188
v -1.934241 2.600009 3.819931
v -1.934245 -2.600006 3.661881
v 4.577637E-07 -2.600005 4.304285
v 1.934228 2.599995 5.07226
v 1.934241 -2.600004 5.07226
v -2.975464E-06 2.600003 4.304285
v -1.934239 -2.600006 3.819931
v -1.934241 2.600009 3.819931
v 1.844387 2.61785 4.984359
v 1.811076 -2.600004 5.083921
v 1.844388 -2.600004 4.98436
v 1.811076 2.617849 5.083921
v 1.980939 2.617849 5.085402
v 1.949371 -2.600005 4.985276
v 1.98094 -2.600005 5.085402
v 1.949369 2.61785 4.985276
v 1.895469 2.617849 5.146368
v 1.98094 -2.600005 5.085402
v 1.89547 -2.600005 5.146369
v 1.980939 2.617849 5.085402
v 1.811076 2.617849 5.083921
v 1.89547 -2.600005 5.146369
v 1.811076 -2.600004 5.083921
v 1.895469 2.617849 5.146368
v 1.949369 2.61785 4.985276
v 1.811076 2.617849 5.083921
v 1.844387 2.61785 4.984359
v 1.980939 2.617849 5.085402
v 1.895469 2.617849 5.146368
v 1.934241 -2.600009 0.001248932
v 1.934228 2.599995 5.07226
v 1.934228 2.599991 0.001248932
v 1.934241 -2.600004 5.07226
v -2.975464E-06 2.600003 4.304285
v 1.934228 2.599991 0.001248932
v 1.934228 2.599995 5.07226
v -1.585758 2.600001 3.66187
v -1.934241 2.600009 3.819931
v -1.934241 2.600006 3.66188
v -1.585755 2.600004 1.237179
v -1.585755 2.599999 0.001248932
v -1.428147 -2.400834 3.661872
v -1.58576 -2.400834 2.893909
v -1.428147 -2.400834 2.893909
v -1.585758 -2.400834 3.661872
v -1.428146 2.405986 2.893909
v -1.585758 2.405986 3.661872
v -1.428146 2.405986 3.661872
v -1.585758 2.405986 2.893909
v -1.428146 2.405986 2.893909
v -1.58576 -2.400834 2.893909
v -1.585758 2.405986 2.893909
v -1.428147 -2.400834 2.893909
v -1.585753 -2.600004 3.66187
v -1.58576 -2.400834 2.893909
v -1.585758 -2.400834 3.661872
v -1.585763 -2.600005 1.23718
v -1.585758 2.405986 2.893909
v -1.585755 2.600004 1.237179
v -1.585758 2.600001 3.66187
v -1.585758 2.405986 3.661872
v -1.666932 2.599999 0.00125
v -1.585755 2.600004 1.237179
v -1.666932 2.600004 1.23718
v -1.585755 2.599999 0.001248932
v -1.666932 2.600004 1.23718
v -1.585763 -2.600005 1.23718
v -1.666937 -2.600005 1.237181
v -1.585755 2.600004 1.237179
v -1.666932 2.599999 0.00125
v -1.666937 -2.600005 1.237181
v -1.666939 -2.600005 0.00125
v -1.666932 2.600004 1.23718
vt 0.5005494 0.7432168
vt 0.7494961 0.7359578
vt 0.5005494 0.7359578
vt 0.7494961 0.7432168
vt 0.5006249 0.7193819
vt 0.7495056 0.7334259
vt 0.5006249 0.7334384
vt 0.7495056 0.7193819
vt 0.7494829 0.7335506
vt 0.5005456 0.7194318
vt 0.5005456 0.7335506
vt 0.7494829 0.7194318
vt 0.6183963 0.7013841
vt 0.604028 0.6941002
vt 0.604028 0.7013841
vt 0.6217763 0.6941002
vt 0.6073956 0.7014216
vt 0.6217763 0.6941376
vt 0.604028 0.6941376
vt 0.6217763 0.7014216
vt 0.02691867 0.3622253
vt 0.04084961 0.3745028
vt 0.02691867 0.3745028
vt 0.04084961 0.3622253
vt 0.00125265 0.3622253
vt 0.0162656 0.3745028
vt 0.00125265 0.3745028
vt 0.0162656 0.3622253
vt 0.02691867 0.3622253
vt 0.04084961 0.3745028
vt 0.02691867 0.3745028
vt 0.04084961 0.3622253
vt 0.02691867 0.3622253
vt 0.04084961 0.3745028
vt 0.02691867 0.3745028
vt 0.04084961 0.3622253
vt 0.00125265 0.3622253
vt 0.0162656 0.3745028
vt 0.00125265 0.3745028
vt 0.0162656 0.3622253
vt 0.5005365 0.6735808
vt 0.7488543 0.692267
vt 0.7488543 0.6735808
vt 0.5005365 0.692267
vt 0.9995879 0.8609993
vt 0.7784258 0.8561154
vt 0.7784258 0.8609993
vt 0.9995879 0.8561154
vt 0.972652 0.8129224
vt 0.7509043 0.8748129
vt 0.972652 0.8748129
vt 0.7509043 0.8129224
vt 0.972652 0.7507484
vt 0.7509043 0.7507484
vt 0.9860055 0.8697973
vt 0.7606822 0.8720151
vt 0.7606822 0.8697973
vt 0.9860055 0.8720151
vt 0.9860055 0.8720151
vt 0.7606822 0.8697973
vt 0.7606822 0.8720151
vt 0.9860055 0.8697973
vt 0.9860055 0.8742327
vt 0.7606822 0.8720151
vt 0.7606822 0.8742327
vt 0.9860055 0.8720151
vt 0.9860055 0.8720151
vt 0.7606822 0.8742327
vt 0.7606822 0.8720151
vt 0.9860055 0.8742327
vt 0.7955108 0.8674176
vt 0.7968314 0.8633559
vt 0.7946885 0.8649008
vt 0.7981521 0.8674176
vt 0.7989745 0.8649008
vt 0.001052039 0.2510113
vt 0.2455469 0.4889027
vt 0.2455469 0.2510113
vt 0.001052039 0.4889027
vt 0.2575268 0.4632923
vt 0.032816 0.251014
vt 0.02777641 0.4989298
vt 0.4456632 0.4301936
vt 0.486878 0.4399827
vt 0.486878 0.4301109
vt 0.4456632 0.3119332
vt 0.4455135 0.2514982
vt 0.0201222 0.4975941
vt 0.02033438 0.4201419
vt 0.0201222 0.4248217
vt 0.0201222 0.4975941
vt 0.4805441 0.4248217
vt 0.4805441 0.4975941
vt 0.4805441 0.4975941
vt 0.4805017 0.4205381
vt 0.4805441 0.4248217
vt 0.02033438 0.4201419
vt 0.4805017 0.4205381
vt 0.0201222 0.4248217
vt 0.001027231 0.4975941
vt 0.02033438 0.4201419
vt 0.0201222 0.4975941
vt 0.001027231 0.2512724
vt 0.4805017 0.4205381
vt 0.4990027 0.251
vt 0.4990027 0.4989807
vt 0.4805441 0.4975941
vt 0.9004996 0.4210993
vt 0.8908539 0.4838474
vt 0.9004996 0.4838474
vt 0.8908539 0.4210993
vt 0.501291 0.4813164
vt 0.9987316 0.4962939
vt 0.9987316 0.4813164
vt 0.501291 0.4962939
vt 0.5012861 0.383121
vt 0.9988078 0.4958639
vt 0.9988078 0.383121
vt 0.5012861 0.4958639
vn -1 -3.809282E-07 0
vn -1 -3.809282E-07 0
vn -1 -3.809283E-07 0
vn -1 -3.809283E-07 0
vn -5.881315E-05 0 -1
vn -5.881289E-05 0 -1
vn -5.881315E-05 0 -1
vn -5.881289E-05 0 -1
vn 0 0 1
vn 0 0 1
vn 0 0 1
vn 0 0 1
vn 3.994284E-05 1 -1.723858E-05
vn 2.250723E-05 1 -2.65031E-05
vn 7.238542E-05 1 0
vn 0 1 -3.846246E-05
vn 3.994272E-05 -1 -1.723854E-05
vn 2.250721E-05 -1 -2.650305E-05
vn 0 -1 -3.846246E-05
vn 7.238509E-05 -1 0
vn -1 0 0
vn -1 0 0
vn -1 2.055454E-07 -2.55325E-07
vn -1 0 0
vn -1 2.708023E-07 -9.280972E-07
vn -1 2.055454E-07 -2.55325E-07
vn -1 4.763478E-07 -1.183422E-06
vn -1 0 0
vn -1 0 -1.183422E-06
vn -1 4.763478E-07 -1.183422E-06
vn -1 0 -1.183422E-06
vn -1 2.708023E-07 -9.280972E-07
vn -1 0 -1.183422E-06
vn -1 0 -1.183422E-06
vn -1 -2.05199E-07 -9.282774E-07
vn -1 0 -1.183422E-06
vn -1 -5.413641E-07 -5.102895E-07
vn -1 -2.05199E-07 -9.282774E-07
vn -1 -9.517622E-07 0
vn -1 0 -1.183422E-06
vn -1.874601E-05 -2.225006E-07 -1
vn -2.130894E-05 0 -1
vn -2.145806E-05 0 -1
vn -1.859689E-05 -2.347359E-07 -1
vn -1 7.436454E-07 3.219001E-05
vn -1 -2.1545E-07 6.349872E-07
vn -1 -2.347499E-07 0
vn -1 7.629454E-07 3.2825E-05
vn -0.3066388 -4.316709E-07 0.951826
vn -0.3690208 -3.992025E-07 0.9294212
vn -0.3690197 -8.572801E-07 0.9294216
vn -0.3066393 -1.659334E-07 0.9518257
vn -0.2429105 -1.287403E-07 0.9700487
vn -0.2429107 0 0.9700487
vn -0.9483264 0 -0.3172964
vn -0.9483229 -2.282808E-07 -0.317307
vn -0.9483229 -2.31242E-07 -0.3173072
vn -0.9483265 0 -0.3172963
vn 0.9537167 3.604262E-07 -0.3007063
vn 0.9537192 1.97373E-07 -0.3006985
vn 0.9537192 1.952301E-07 -0.3006984
vn 0.9537167 3.625691E-07 -0.3007064
vn 0.5806979 1.226149E-07 0.8141192
vn 0.5807095 4.074804E-07 0.8141109
vn 0.5807096 4.112242E-07 0.8141108
vn 0.5806978 1.188711E-07 0.8141192
vn -0.5948188 0 0.8038598
vn -0.5948173 0 0.803861
vn -0.5948173 0 0.803861
vn -0.5948188 0 0.8038598
vn -1.066884E-07 1 1.222514E-05
vn 0 1 8.150098E-06
vn -1.067543E-07 1 1.222504E-05
vn 0 1 8.150165E-06
vn 0 1 0
vn 1 2.318162E-06 0
vn 1 2.318162E-06 0
vn 1 2.318162E-06 0
vn 1 2.318162E-06 0
vn 2.283208E-06 1 -3.062231E-06
vn 2.887323E-06 1 -1.266184E-06
vn 4.145044E-06 1 -9.027069E-07
vn 7.326806E-06 1 -1.626644E-05
vn 1.434904E-05 1 -2.049432E-05
vn 1.663837E-05 1 -1.544694E-05
vn 2.394901E-06 1 -1.739053E-06
vn 1.213752E-06 1 -3.950719E-06
vn 0 1 0
vn 0 1 0
vn 0 1 0
vn 0 1 0
vn 0 -1 0
vn 0 -1 0
vn 0 -1 0
vn 0 -1 0
vn 0 0 1
vn 0 0 1
vn 0 0 1
vn 0 0 1
vn -1 -2.432726E-05 1.837132E-06
vn -1 -1.031006E-05 3.324295E-06
vn -1 -2.604807E-05 1.390842E-06
vn -1 -5.878155E-07 1.697313E-06
vn -1 2.987767E-06 -7.049216E-07
vn -1 1.729814E-06 -1.17895E-06
vn -1 6.732824E-07 0
vn -1 0 1.986917E-07
vn 0 1 -3.950719E-06
vn 2.394901E-06 1 -1.739053E-06
vn 0 1 -3.95072E-06
vn 1.213752E-06 1 -3.950719E-06
vn 1.129696E-05 1.76337E-07 1
vn 1.313966E-05 2.051002E-07 1
vn 1.315834E-05 2.053917E-07 1
vn 1.127828E-05 1.760454E-07 1
vn -1 1.176091E-06 2.567631E-07
vn -1 1.464849E-06 1.471671E-06
vn -1 1.525877E-06 1.728438E-06
vn -1 1.115063E-06 0
g qiang6_scene48_0
f 3/3/3 2/2/2 1/1/1
f 4/4/4 1/1/1 2/2/2
f 7/7/7 6/6/6 5/5/5
f 8/8/8 5/5/5 6/6/6
f 11/11/11 10/10/10 9/9/9
f 12/12/12 9/9/9 10/10/10
f 15/15/15 14/14/14 13/13/13
f 16/16/16 13/13/13 14/14/14
f 19/19/19 18/18/18 17/17/17
f 20/20/20 17/17/17 18/18/18
f 23/23/23 22/22/22 21/21/21
f 24/24/24 21/21/21 22/22/22
f 27/27/27 26/26/26 25/25/25
f 28/28/28 25/25/25 26/26/26
f 31/31/31 30/30/30 29/29/29
f 32/32/32 29/29/29 30/30/30
f 35/35/35 34/34/34 33/33/33
f 36/36/36 33/33/33 34/34/34
f 39/39/39 38/38/38 37/37/37
f 40/40/40 37/37/37 38/38/38
f 43/43/43 42/42/42 41/41/41
f 44/44/44 41/41/41 42/42/42
f 47/47/47 46/46/46 45/45/45
f 48/48/48 45/45/45 46/46/46
f 51/51/51 50/50/50 49/49/49
f 52/52/52 49/49/49 50/50/50
f 49/49/49 52/52/52 53/53/53
f 54/54/54 53/53/53 52/52/52
f 57/57/57 56/56/56 55/55/55
f 58/58/58 55/55/55 56/56/56
f 61/61/61 60/60/60 59/59/59
f 62/62/62 59/59/59 60/60/60
f 65/65/65 64/64/64 63/63/63
f 66/66/66 63/63/63 64/64/64
f 69/69/69 68/68/68 67/67/67
f 70/70/70 67/67/67 68/68/68
f 73/73/73 72/72/72 71/71/71
f 74/74/74 71/71/71 72/72/72
f 74/74/74 72/72/72 75/75/75
g qiang6_scene48_1
f 78/78/78 77/77/77 76/76/76
f 79/79/79 76/76/76 77/77/77
f 82/82/82 81/81/81 80/80/80
f 80/80/80 81/81/81 83/83/83
f 80/80/80 83/83/83 84/84/84
f 85/85/85 84/84/84 83/83/83
f 86/86/86 83/83/83 81/81/81
f 87/87/87 86/86/86 81/81/81
f 90/90/90 89/89/89 88/88/88
f 91/91/91 88/88/88 89/89/89
f 94/94/94 93/93/93 92/92/92
f 95/95/95 92/92/92 93/93/93
f 98/98/98 97/97/97 96/96/96
f 99/99/99 96/96/96 97/97/97
f 102/102/102 101/101/101 100/100/100
f 103/103/103 100/100/100 101/101/101
f 101/101/101 104/104/104 103/103/103
f 105/105/105 103/103/103 104/104/104
f 105/105/105 104/104/104 106/106/106
f 107/107/107 106/106/106 104/104/104
f 110/110/110 109/109/109 108/108/108
f 111/111/111 108/108/108 109/109/109
f 114/114/114 113/113/113 112/112/112
f 115/115/115 112/112/112 113/113/113
f 118/118/118 117/117/117 116/116/116
f 119/119/119 116/116/116 117/117/117
