g sky_scene35
v -2.834831 5.444333 1.467029
v -1.950219 6.002154 0
v -3.709537 5.105737 0
v -0.906674 6.070829 1.467029
v 0 6.311038 0
v -1.744329 5.36849 2.822382
v 0.968559 6.024839 1.610096
v 1.950218 6.002154 0
v -0.044377 5.444334 3.191624
v -1.439604 4.430642 4.257483
v 2.75773 5.443503 1.610096
v 3.709535 5.105738 0
v 0.383658 4.224698 4.672681
v -1.025291 3.155519 5.368489
v 1.658954 5.105738 3.317909
v 4.301858 4.378476 1.467029
v 5.105737 3.709536 0
v 3.235999 4.378476 3.191624
v 2.172828 3.643361 4.672681
v 0.872164 2.684245 5.644763
v -0.53293 1.640188 6.070829
v 1.950218 -6.002155 0
v 0.96856 -6.024839 1.610096
v 0 -6.311038 0
v 2.757731 -5.443502 1.610096
v 3.709536 -5.105737 0
v 1.658955 -5.105737 3.317909
v 4.301859 -4.378475 1.467029
v 5.105738 -3.709535 0
v 3.236 -4.378475 3.191624
v 2.172829 -3.64336 4.672681
v 4.566711 -3.317909 2.822382
v 5.493525 -2.738287 1.467029
v 6.002155 -1.950218 0
v 0 0 6.311038
v -0.53293 1.640188 6.070829
v -1.724596 0 6.070829
v -2.283355 1.658955 5.644763
v -1.025291 3.155519 5.368489
v -3.317909 0 5.368489
v -2.793601 3.192343 4.672681
v -1.439604 4.430642 4.257483
v -3.899369 1.670384 4.672681
v -4.658653 0 4.257483
v -3.164199 4.430642 3.191624
v -1.744329 5.36849 2.822382
v -2.834831 5.444333 1.467029
v -4.3432 3.155519 3.317909
v -4.324894 4.304892 1.610096
v -3.709537 5.105737 0
v -5.105738 3.709534 0
v -5.430662 2.782932 1.610096
v -6.002155 1.950217 0
v -5.191582 1.640188 3.191624
v -6.053881 1.013691 1.467029
v -6.311038 -1E-06 0
v -5.644763 0 2.822382
v -5.191582 -1.640188 3.191624
v -6.05388 -1.013692 1.467029
v -6.002155 -1.950218 0
v -5.430661 -2.782932 1.610096
v -5.105737 -3.709535 0
v -4.324893 -4.304891 1.610096
v -3.709535 -5.105737 0
v 0 0 6.311038
v -0.532929 -1.640188 6.070829
v 1.395227 -1.013692 6.070829
v -1.724596 0 6.070829
v 0.872164 -2.684245 5.644763
v -2.283355 -1.658955 5.644763
v -3.317909 0 5.368489
v -1.02529 -3.155519 5.368489
v -3.899369 -1.670384 4.672681
v -4.658653 0 4.257483
v -5.191582 -1.640188 3.191624
v -2.7936 -3.192343 4.672681
v -4.343199 -3.155519 3.317909
v -5.430661 -2.782932 1.610096
v -4.324893 -4.304891 1.610096
v 0.383658 -4.224697 4.672681
v 2.172829 -3.64336 4.672681
v 1.658955 -5.105737 3.317909
v -1.439603 -4.430642 4.257483
v -3.164198 -4.430642 3.191624
v -0.044375 -5.444333 3.191624
v 0.96856 -6.024839 1.610096
v -2.83483 -5.444333 1.467029
v -3.709535 -5.105737 0
v -1.950218 -6.002154 0
v -1.744328 -5.36849 2.822382
v -0.906673 -6.070829 1.467029
v 0 -6.311038 0
v 1.395227 1.013692 6.070829
v 0.872164 2.684245 5.644763
v -0.53293 1.640188 6.070829
v 0 0 6.311038
v 1.395227 -1.013692 6.070829
v 2.684245 1.950218 5.368489
v 2.172828 3.643361 4.672681
v 2.822382 0 5.644763
v 3.768929 2.738288 4.257483
v 3.235999 4.378476 3.191624
v 2.684245 -1.950218 5.368489
v 0.872164 -2.684245 5.644763
v 2.172829 -3.64336 4.672681
v 4.136483 0.940623 4.672681
v 4.56671 3.31791 2.822382
v 4.301858 4.378476 1.467029
v 3.768929 -2.738287 4.257483
v 3.236 -4.378475 3.191624
v 4.566711 -3.317909 2.822382
v 4.136483 -0.940622 4.672681
v 5.164156 -1.724595 3.191624
v 5.493525 -2.738287 1.467029
v 5.164156 1.724596 3.191624
v 5.493524 2.738288 1.467029
v 5.105737 3.709536 0
v 6.002154 1.950219 0
v 5.36849 1E-06 3.317909
v 6.029264 -0.940622 1.610096
v 6.002155 -1.950218 0
v 6.311038 1E-06 0
v 6.029264 0.940623 1.610096
vt 0.4382 0.8831
vt 0.3464 0.9768
vt 0.4998 0.9998
vt 0.3279 0.8474
vt 0.2097 0.9055
vt 0.405 0.7971
vt 0.2336 0.7717
vt 0.0989 0.7922
vt 0.3391 0.7429
vt 0.4299 0.7209
vt 0.1609 0.6711
vt 0.0261 0.6531
vt 0.3694 0.6536
vt 0.4563 0.6379
vt 0.2727 0.6667
vt 0.1169 0.5588
vt 0.0002 0.5002
vt 0.22 0.5798
vt 0.3152 0.5789
vt 0.4021 0.5725
vt 0.4812 0.5618
vt 0.655 0.02810001
vt 0.6765 0.1628
vt 0.7961 0.09740001
vt 0.5583 0.1238
vt 0.4993 0.002200007
vt 0.5886 0.2317
vt 0.4377 0.1174
vt 0.3464 0.0237
vt 0.49 0.2092
vt 0.5188 0.2991
vt 0.4045 0.2034
vt 0.3274 0.1536
vt 0.2097 0.09500003
vt 0.5017 0.5002
vt 0.4812 0.5618
vt 0.5544 0.5388
vt 0.5398 0.6165
vt 0.4563 0.6379
vt 0.6189 0.5857
vt 0.5188 0.7019
vt 0.4299 0.7209
vt 0.6062 0.6736
vt 0.6892 0.6365
vt 0.4905 0.7917
vt 0.405 0.7971
vt 0.4382 0.8831
vt 0.5886 0.7698
vt 0.5583 0.8772
vt 0.4998 0.9998
vt 0.6555 0.9734
vt 0.677 0.8386
vt 0.7966 0.9041
vt 0.6824 0.7302
vt 0.7786 0.7737
vt 0.908 0.7952
vt 0.7546 0.6843
vt 0.7761 0.6013
vt 0.8464 0.679
vt 0.9768 0.657
vt 0.8782 0.5627
vt 0.9998 0.5007
vt 0.8782 0.4382
vt 0.9763 0.3445
vt 0.5017 0.5002
vt 0.5544 0.4622
vt 0.4812 0.4392
vt 0.5544 0.5388
vt 0.5398 0.3845
vt 0.6238 0.5007
vt 0.6189 0.5857
vt 0.6189 0.4158
vt 0.6985 0.5471
vt 0.6892 0.6365
vt 0.7761 0.6013
vt 0.6985 0.4543
vt 0.7849 0.5007
vt 0.8782 0.5627
vt 0.8782 0.4382
vt 0.6057 0.3274
vt 0.5188 0.2991
vt 0.5886 0.2317
vt 0.6892 0.3645
vt 0.7756 0.4001
vt 0.6819 0.2712
vt 0.6765 0.1628
vt 0.8464 0.322
vt 0.9763 0.3445
vt 0.9075 0.2063
vt 0.7546 0.3171
vt 0.7781 0.2283
vt 0.7961 0.09740001
vt 0.4368 0.5002
vt 0.4021 0.5725
vt 0.4812 0.5618
vt 0.5017 0.5002
vt 0.4812 0.4392
vt 0.3567 0.5002
vt 0.3152 0.5789
vt 0.4021 0.429
vt 0.2693 0.5002
vt 0.22 0.5798
vt 0.4563 0.3625
vt 0.5398 0.3845
vt 0.5188 0.2991
vt 0.3152 0.4221
vt 0.1887 0.5002
vt 0.1169 0.5588
vt 0.4299 0.28
vt 0.49 0.2092
vt 0.4045 0.2034
vt 0.3694 0.3474
vt 0.3386 0.2581
vt 0.3274 0.1536
vt 0.22 0.4211
vt 0.1169 0.4421
vt 0.0002 0.5002
vt 0.0256 0.3474
vt 0.2722 0.3337
vt 0.2332 0.2292
vt 0.2097 0.09500003
vt 0.0984 0.2083
vt 0.1604 0.3293
vn 0.4497235 -0.861613 -0.2353122
vn 0.3072312 -0.9455607 -0.1073498
vn 0.5879974 -0.8017147 -0.107298
vn 0.1426093 -0.9614004 -0.235312
vn -0.004463715 -0.9942168 -0.1072981
vn 0.2763933 -0.850651 -0.4472133
vn -0.1547178 -0.9532691 -0.2595003
vn -0.3070404 -0.9449739 -0.1129177
vn 0.005270144 -0.8625312 -0.5059764
vn 0.2284966 -0.7032396 -0.6732334
vn -0.4351477 -0.862152 -0.2595004
vn -0.5807747 -0.8069623 -0.1072978
vn -0.06340714 -0.6722432 -0.7376101
vn 0.1622447 -0.4993375 -0.8510809
vn -0.2628655 -0.8090171 -0.5257309
vn -0.6804702 -0.6939656 -0.2353122
vn -0.804342 -0.5843887 -0.1073495
vn -0.5112465 -0.6947048 -0.5059766
vn -0.3438371 -0.581126 -0.7376102
vn -0.138956 -0.4276625 -0.8931943
vn 0.08383716 -0.2580241 -0.9624941
vn -0.3070404 0.9449739 -0.1129182
vn -0.1547178 0.953269 -0.2595007
vn -0.004463433 0.9942168 -0.1072982
vn -0.4351479 0.8621519 -0.2595007
vn -0.580775 0.806962 -0.1072979
vn -0.2628655 0.8090171 -0.525731
vn -0.6804703 0.6939657 -0.2353122
vn -0.804342 0.5843886 -0.1073495
vn -0.5112465 0.6947047 -0.5059767
vn -0.3438372 0.581126 -0.73761
vn -0.7236069 0.5257309 -0.4472137
vn -0.8702775 0.4327184 -0.2353124
vn -0.9469358 0.3029845 -0.1072983
vn 0 0 -1
vn 0.08383716 -0.2580241 -0.9624941
vn 0.2713026 0 -0.9624941
vn 0.3637916 -0.26431 -0.8931943
vn 0.1622447 -0.4993375 -0.8510809
vn 0.5250345 0 -0.8510809
vn 0.4464322 -0.5065863 -0.7376102
vn 0.2284966 -0.7032396 -0.6732334
vn 0.6197473 -0.2680383 -0.7376102
vn 0.7394301 0 -0.6732333
vn 0.5027196 -0.7008999 -0.5059766
vn 0.2763933 -0.850651 -0.4472133
vn 0.4497235 -0.861613 -0.2353122
vn 0.6881911 -0.4999999 -0.5257311
vn 0.6854871 -0.6802697 -0.2595004
vn 0.5879974 -0.8017147 -0.107298
vn 0.803843 -0.5840257 -0.1129173
vn 0.8588022 -0.441722 -0.2595004
vn 0.944177 -0.3114752 -0.1072974
vn 0.8219443 -0.2615246 -0.5059767
vn 0.9584148 -0.1614593 -0.2353123
vn 0.9942214 2.615563E-07 -0.1073492
vn 0.8944271 1.344143E-07 -0.4472138
vn 0.8219444 0.2615249 -0.5059765
vn 0.9584147 0.1614597 -0.2353124
vn 0.9441769 0.3114754 -0.1072982
vn 0.858802 0.4417222 -0.2595006
vn 0.8038427 0.5840261 -0.1129179
vn 0.6854871 0.6802697 -0.2595004
vn 0.5879974 0.8017147 -0.107298
vn 0 0 -1
vn 0.08383707 0.2580241 -0.9624941
vn -0.2194884 0.1594677 -0.9624941
vn 0.2713026 0 -0.9624941
vn -0.138956 0.4276626 -0.8931943
vn 0.3637915 0.2643101 -0.8931941
vn 0.5250345 0 -0.8510809
vn 0.1622446 0.4993376 -0.8510809
vn 0.6197473 0.2680385 -0.7376101
vn 0.7394301 0 -0.6732333
vn 0.8219444 0.2615249 -0.5059765
vn 0.4464321 0.5065864 -0.73761
vn 0.6881909 0.5000001 -0.525731
vn 0.858802 0.4417222 -0.2595006
vn 0.6854871 0.6802697 -0.2595004
vn -0.06340721 0.6722432 -0.73761
vn -0.3438372 0.581126 -0.73761
vn -0.2628655 0.8090171 -0.525731
vn 0.2284964 0.7032398 -0.6732334
vn 0.5027198 0.7009 -0.5059764
vn 0.005269874 0.8625312 -0.5059764
vn -0.1547178 0.953269 -0.2595007
vn 0.4497238 0.8616129 -0.2353121
vn 0.5879974 0.8017147 -0.107298
vn 0.3072312 0.9455606 -0.1073498
vn 0.2763931 0.850651 -0.4472134
vn 0.1426093 0.9614004 -0.2353123
vn -0.004463433 0.9942168 -0.1072982
vn -0.2194884 -0.1594677 -0.9624941
vn -0.138956 -0.4276625 -0.8931943
vn 0.08383716 -0.2580241 -0.9624941
vn 0 0 -1
vn -0.2194884 0.1594677 -0.9624941
vn -0.4247619 -0.3086075 -0.8510809
vn -0.3438371 -0.581126 -0.7376102
vn -0.449671 0 -0.8931943
vn -0.5982115 -0.4346262 -0.6732333
vn -0.5112465 -0.6947048 -0.5059766
vn -0.424762 0.3086076 -0.8510809
vn -0.138956 0.4276626 -0.8931943
vn -0.3438372 0.581126 -0.73761
vn -0.6589352 -0.1474308 -0.73761
vn -0.7236068 -0.5257312 -0.4472135
vn -0.6804702 -0.6939656 -0.2353122
vn -0.5982116 0.434626 -0.6732334
vn -0.5112465 0.6947047 -0.5059767
vn -0.7236069 0.5257309 -0.4472137
vn -0.6589352 0.1474307 -0.73761
vn -0.8186874 0.2715487 -0.5059766
vn -0.8702775 0.4327184 -0.2353124
vn -0.8186874 -0.271549 -0.5059766
vn -0.8702774 -0.4327185 -0.2353122
vn -0.804342 -0.5843887 -0.1073495
vn -0.9469358 -0.3029847 -0.1072979
vn -0.8506509 0 -0.525731
vn -0.9544232 0.1474306 -0.2595006
vn -0.9469358 0.3029845 -0.1072983
vn -0.9936044 -2.521033E-07 -0.1129178
vn -0.9544232 -0.1474308 -0.2595005
g sky_scene35_0
f 3/3/3 2/2/2 1/1/1
f 1/1/1 2/2/2 4/4/4
f 2/2/2 5/5/5 4/4/4
f 1/1/1 4/4/4 6/6/6
f 7/7/7 4/4/4 5/5/5
f 8/8/8 7/7/7 5/5/5
f 9/9/9 6/6/6 4/4/4
f 7/7/7 9/9/9 4/4/4
f 6/6/6 9/9/9 10/10/10
f 11/11/11 7/7/7 8/8/8
f 12/12/12 11/11/11 8/8/8
f 10/10/10 9/9/9 13/13/13
f 10/10/10 13/13/13 14/14/14
f 15/15/15 9/9/9 7/7/7
f 11/11/11 15/15/15 7/7/7
f 9/9/9 15/15/15 13/13/13
f 16/16/16 11/11/11 12/12/12
f 12/12/12 17/17/17 16/16/16
f 16/16/16 18/18/18 11/11/11
f 18/18/18 15/15/15 11/11/11
f 15/15/15 18/18/18 19/19/19
f 13/13/13 15/15/15 19/19/19
f 13/13/13 19/19/19 20/20/20
f 14/14/14 13/13/13 20/20/20
f 14/14/14 20/20/20 21/21/21
f 24/24/24 23/23/23 22/22/22
f 23/23/23 25/25/25 22/22/22
f 22/22/22 25/25/25 26/26/26
f 23/23/23 27/27/27 25/25/25
f 25/25/25 28/28/28 26/26/26
f 29/29/29 26/26/26 28/28/28
f 27/27/27 30/30/30 25/25/25
f 25/25/25 30/30/30 28/28/28
f 30/30/30 27/27/27 31/31/31
f 30/30/30 32/32/32 28/28/28
f 33/33/33 28/28/28 32/32/32
f 33/33/33 29/29/29 28/28/28
f 34/34/34 29/29/29 33/33/33
f 37/37/37 36/36/36 35/35/35
f 37/37/37 38/38/38 36/36/36
f 38/38/38 39/39/39 36/36/36
f 40/40/40 38/38/38 37/37/37
f 38/38/38 41/41/41 39/39/39
f 41/41/41 42/42/42 39/39/39
f 40/40/40 43/43/43 38/38/38
f 43/43/43 41/41/41 38/38/38
f 44/44/44 43/43/43 40/40/40
f 41/41/41 45/45/45 42/42/42
f 45/45/45 46/46/46 42/42/42
f 46/46/46 45/45/45 47/47/47
f 43/43/43 48/48/48 41/41/41
f 48/48/48 45/45/45 41/41/41
f 47/47/47 45/45/45 49/49/49
f 45/45/45 48/48/48 49/49/49
f 47/47/47 49/49/49 50/50/50
f 50/50/50 49/49/49 51/51/51
f 49/49/49 52/52/52 51/51/51
f 49/49/49 48/48/48 52/52/52
f 51/51/51 52/52/52 53/53/53
f 54/54/54 48/48/48 43/43/43
f 44/44/44 54/54/54 43/43/43
f 48/48/48 54/54/54 52/52/52
f 52/52/52 55/55/55 53/53/53
f 52/52/52 54/54/54 55/55/55
f 56/56/56 53/53/53 55/55/55
f 57/57/57 54/54/54 44/44/44
f 54/54/54 57/57/57 55/55/55
f 58/58/58 57/57/57 44/44/44
f 59/59/59 56/56/56 55/55/55
f 59/59/59 55/55/55 57/57/57
f 57/57/57 58/58/58 59/59/59
f 60/60/60 56/56/56 59/59/59
f 59/59/59 58/58/58 61/61/61
f 59/59/59 61/61/61 60/60/60
f 60/60/60 61/61/61 62/62/62
f 61/61/61 63/63/63 62/62/62
f 62/62/62 63/63/63 64/64/64
f 67/67/67 66/66/66 65/65/65
f 66/66/66 68/68/68 65/65/65
f 67/67/67 69/69/69 66/66/66
f 66/66/66 70/70/70 68/68/68
f 70/70/70 71/71/71 68/68/68
f 69/69/69 72/72/72 66/66/66
f 72/72/72 70/70/70 66/66/66
f 70/70/70 73/73/73 71/71/71
f 73/73/73 74/74/74 71/71/71
f 73/73/73 75/75/75 74/74/74
f 76/76/76 73/73/73 70/70/70
f 72/72/72 76/76/76 70/70/70
f 77/77/77 75/75/75 73/73/73
f 76/76/76 77/77/77 73/73/73
f 75/75/75 77/77/77 78/78/78
f 78/78/78 77/77/77 79/79/79
f 69/69/69 80/80/80 72/72/72
f 81/81/81 80/80/80 69/69/69
f 81/81/81 82/82/82 80/80/80
f 83/83/83 76/76/76 72/72/72
f 80/80/80 83/83/83 72/72/72
f 84/84/84 77/77/77 76/76/76
f 77/77/77 84/84/84 79/79/79
f 83/83/83 84/84/84 76/76/76
f 82/82/82 85/85/85 80/80/80
f 80/80/80 85/85/85 83/83/83
f 85/85/85 82/82/82 86/86/86
f 79/79/79 84/84/84 87/87/87
f 79/79/79 87/87/87 88/88/88
f 89/89/89 88/88/88 87/87/87
f 90/90/90 84/84/84 83/83/83
f 85/85/85 90/90/90 83/83/83
f 84/84/84 90/90/90 87/87/87
f 91/91/91 85/85/85 86/86/86
f 90/90/90 85/85/85 91/91/91
f 91/91/91 87/87/87 90/90/90
f 91/91/91 89/89/89 87/87/87
f 91/91/91 86/86/86 92/92/92
f 92/92/92 89/89/89 91/91/91
f 95/95/95 94/94/94 93/93/93
f 95/95/95 93/93/93 96/96/96
f 93/93/93 97/97/97 96/96/96
f 94/94/94 98/98/98 93/93/93
f 94/94/94 99/99/99 98/98/98
f 93/93/93 100/100/100 97/97/97
f 98/98/98 100/100/100 93/93/93
f 99/99/99 101/101/101 98/98/98
f 99/99/99 102/102/102 101/101/101
f 100/100/100 103/103/103 97/97/97
f 103/103/103 104/104/104 97/97/97
f 103/103/103 105/105/105 104/104/104
f 98/98/98 106/106/106 100/100/100
f 101/101/101 106/106/106 98/98/98
f 102/102/102 107/107/107 101/101/101
f 107/107/107 102/102/102 108/108/108
f 109/109/109 105/105/105 103/103/103
f 109/109/109 110/110/110 105/105/105
f 111/111/111 110/110/110 109/109/109
f 100/100/100 112/112/112 103/103/103
f 112/112/112 109/109/109 103/103/103
f 106/106/106 112/112/112 100/100/100
f 113/113/113 111/111/111 109/109/109
f 112/112/112 113/113/113 109/109/109
f 111/111/111 113/113/113 114/114/114
f 101/101/101 115/115/115 106/106/106
f 107/107/107 115/115/115 101/101/101
f 108/108/108 116/116/116 107/107/107
f 115/115/115 107/107/107 116/116/116
f 108/108/108 117/117/117 116/116/116
f 117/117/117 118/118/118 116/116/116
f 106/106/106 119/119/119 112/112/112
f 119/119/119 113/113/113 112/112/112
f 115/115/115 119/119/119 106/106/106
f 114/114/114 113/113/113 120/120/120
f 113/113/113 119/119/119 120/120/120
f 114/114/114 120/120/120 121/121/121
f 121/121/121 120/120/120 122/122/122
f 123/123/123 115/115/115 116/116/116
f 123/123/123 116/116/116 118/118/118
f 119/119/119 115/115/115 123/123/123
f 122/122/122 123/123/123 118/118/118
f 120/120/120 119/119/119 123/123/123
f 120/120/120 123/123/123 122/122/122
