g sky_scene31
v 0 16.02998 0
v 2.460229 15.3031 4.089644
v 4.953594 15.24556 0
v -2.302868 15.41998 3.726253
v -4.953594 15.24556 0
v -0.1127125 13.82851 8.106726
v 4.21382 12.96849 8.427488
v -7.200503 13.82851 3.726253
v -9.422208 12.96849 0
v -4.430514 13.63603 7.16885
v 0.9745268 10.73071 11.86861
v 5.518945 9.254132 11.86861
v -10.9853 10.9345 4.089644
v -12.96849 9.422208 0
v -13.79379 7.068741 4.089644
v -11.03174 8.015089 8.427488
v -8.037116 11.25379 8.106726
v -3.656607 11.25379 10.81401
v -7.095728 8.108554 11.86861
v -9.904412 4.242793 11.86861
v -5.799732 4.21382 14.3377
v -2.604295 8.015089 13.63596
v 2.215358 6.817916 14.3377
v 6.817916 4.953594 13.63596
v -1.353543 4.165996 15.4199
v -4.380507 0 15.4199
v 3.543894 2.574727 15.4199
v 7.168754 0 14.3377
v 0 0 16.03004
v 3.543894 -2.574727 15.4199
v 6.817916 -4.953594 13.63596
v -1.353543 -4.165996 15.4199
v -5.799732 -4.21382 14.3377
v -15.24556 4.953594 0
v -13.79379 7.068741 4.089644
v -12.96849 9.422208 0
v -15.37692 2.574727 3.726253
v -16.02998 0 0
v -13.18657 4.165996 8.106726
v -11.03174 8.015089 8.427488
v -9.904412 4.242793 11.86861
v -15.37692 -2.574727 3.726253
v -15.24556 -4.953594 0
v -14.33771 0 7.16885
v -11.83303 0 10.81401
v -13.79379 -7.068741 4.089644
v -12.96849 -9.422208 0
v -13.18657 -4.165996 8.106726
v -8.427443 0 13.63596
v -5.799732 4.21382 14.3377
v -4.380507 0 15.4199
v -5.799732 -4.21382 14.3377
v -9.904412 -4.242793 11.86861
v -10.9853 -10.9345 4.089644
v -9.422208 -12.96849 0
v -11.03174 -8.015089 8.427488
v -7.095728 -8.108554 11.86861
v -7.200503 -13.82851 3.726253
v -4.953594 -15.24556 0
v -8.037116 -11.25379 8.106726
v -2.604295 -8.015089 13.63596
v -1.353543 -4.165996 15.4199
v 2.215358 -6.817916 14.3377
v -3.656607 -11.25379 10.81401
v 0.9745268 -10.73071 11.86861
v -0.1127125 -13.82851 8.106726
v -4.430514 -13.63603 7.16885
v -2.302868 -15.41998 3.726253
v 0 -16.02998 0
v 2.460229 -15.3031 4.089644
v 4.953594 -15.24556 0
v 15.31441 -2.389187 4.089644
v 13.11692 -4.380507 8.106726
v 13.95353 -6.955234 3.726253
v 11.59947 -8.427443 7.16885
v 9.573021 -6.955234 10.81401
v 10.50667 -2.389187 11.86861
v 10.92676 -11.12123 3.726253
v 12.96849 -9.422208 0
v 15.24556 -4.953594 0
v 9.422208 -12.96849 0
v 8.219481 -11.12123 8.106726
v 7.004644 -13.82653 4.089644
v 4.953594 -15.24556 0
v 2.460229 -15.3031 4.089644
v 4.21382 -12.96849 8.427488
v -0.1127125 -13.82851 8.106726
v 0.9745268 -10.73071 11.86861
v 5.518945 -9.254132 11.86861
v 6.817916 -4.953594 13.63596
v 2.215358 -6.817916 14.3377
v -2.604295 -8.015089 13.63596
v 3.543894 -2.574727 15.4199
v -1.353543 -4.165996 15.4199
v 7.168754 0 14.3377
v 10.50667 2.389187 11.86861
v 6.817916 4.953594 13.63596
v 15.24556 -4.953594 0
v 15.31441 -2.389187 4.089644
v 13.95353 -6.955234 3.726253
v 16.02998 0 0
v 15.31441 2.389187 4.089644
v 15.24556 4.953594 0
v 13.63603 0 8.427488
v 13.11692 -4.380507 8.106726
v 10.50667 -2.389187 11.86861
v 10.50667 2.389187 11.86861
v 13.95353 6.955234 3.726253
v 12.96849 9.422208 0
v 13.11692 4.380507 8.106726
v 10.92676 11.12123 3.726253
v 9.422208 12.96849 0
v 9.573021 6.955234 10.81401
v 6.817916 4.953594 13.63596
v 5.518945 9.254132 11.86861
v 11.59947 8.427443 7.16885
v 8.219481 11.12123 8.106726
v 4.21382 12.96849 8.427488
v 7.004644 13.82653 4.089644
v 4.953594 15.24556 0
v 2.460229 15.3031 4.089644
vt 0.2097 0.9055
vt 0.2336 0.7717
vt 0.0989 0.7922
vt 0.3279 0.8474
vt 0.3464 0.9768
vt 0.3391 0.7429
vt 0.2727 0.6667
vt 0.4382 0.8831
vt 0.4998 0.9998
vt 0.405 0.7971
vt 0.3694 0.6536
vt 0.3152 0.5789
vt 0.5583 0.8772
vt 0.6555 0.9734
vt 0.677 0.8386
vt 0.5886 0.7698
vt 0.4905 0.7917
vt 0.4299 0.7209
vt 0.5188 0.7019
vt 0.6062 0.6736
vt 0.5398 0.6165
vt 0.4563 0.6379
vt 0.4021 0.5725
vt 0.3567 0.5002
vt 0.4812 0.5618
vt 0.5544 0.5388
vt 0.4368 0.5002
vt 0.4021 0.429
vt 0.5017 0.5002
vt 0.4812 0.4392
vt 0.4563 0.3625
vt 0.5544 0.4622
vt 0.6238 0.5007
vt 0.7966 0.9041
vt 0.677 0.8386
vt 0.6555 0.9734
vt 0.7786 0.7737
vt 0.908 0.7952
vt 0.6824 0.7302
vt 0.5886 0.7698
vt 0.6062 0.6736
vt 0.8464 0.679
vt 0.9768 0.657
vt 0.7546 0.6843
vt 0.6892 0.6365
vt 0.8782 0.5627
vt 0.9998 0.5007
vt 0.7761 0.6013
vt 0.6189 0.5857
vt 0.5398 0.6165
vt 0.5544 0.5388
vt 0.6238 0.5007
vt 0.6985 0.5471
vt 0.8782 0.4382
vt 0.9763 0.3445
vt 0.7849 0.5007
vt 0.6985 0.4543
vt 0.8464 0.322
vt 0.9075 0.2063
vt 0.7756 0.4001
vt 0.6189 0.4158
vt 0.5544 0.4622
vt 0.5398 0.3845
vt 0.6892 0.3645
vt 0.6057 0.3274
vt 0.6819 0.2712
vt 0.7546 0.3171
vt 0.7781 0.2283
vt 0.7961 0.09740001
vt 0.6765 0.1628
vt 0.655 0.02810001
vt 0.2332 0.2292
vt 0.3386 0.2581
vt 0.3274 0.1536
vt 0.4045 0.2034
vt 0.4299 0.28
vt 0.3694 0.3474
vt 0.4377 0.1174
vt 0.3464 0.0237
vt 0.2097 0.09500003
vt 0.4993 0.002200007
vt 0.49 0.2092
vt 0.5583 0.1238
vt 0.655 0.02810001
vt 0.6765 0.1628
vt 0.5886 0.2317
vt 0.6819 0.2712
vt 0.6057 0.3274
vt 0.5188 0.2991
vt 0.4563 0.3625
vt 0.5398 0.3845
vt 0.6189 0.4158
vt 0.4812 0.4392
vt 0.5544 0.4622
vt 0.4021 0.429
vt 0.3152 0.4221
vt 0.3567 0.5002
vt 0.2097 0.09500003
vt 0.2332 0.2292
vt 0.3274 0.1536
vt 0.0984 0.2083
vt 0.1604 0.3293
vt 0.0256 0.3474
vt 0.2722 0.3337
vt 0.3386 0.2581
vt 0.3694 0.3474
vt 0.3152 0.4221
vt 0.1169 0.4421
vt 0.0002 0.5002
vt 0.22 0.4211
vt 0.1169 0.5588
vt 0.0261 0.6531
vt 0.2693 0.5002
vt 0.3567 0.5002
vt 0.3152 0.5789
vt 0.1887 0.5002
vt 0.22 0.5798
vt 0.2727 0.6667
vt 0.1609 0.6711
vt 0.0989 0.7922
vt 0.2336 0.7717
vn -0.004467174 -0.9942183 -0.1072841
vn -0.1547166 -0.9532667 -0.2595099
vn -0.307042 -0.9449732 -0.1129196
vn 0.142601 -0.9614009 -0.2353152
vn 0.3072414 -0.9455558 -0.1073639
vn 0.005262681 -0.8625261 -0.5059852
vn -0.2628662 -0.8090138 -0.5257358
vn 0.4497291 -0.8616101 -0.2353123
vn 0.5879989 -0.8017158 -0.1072806
vn 0.2763892 -0.8506508 -0.447216
vn -0.06341074 -0.6722479 -0.7376055
vn -0.3438379 -0.581128 -0.7376081
vn 0.685487 -0.6802747 -0.2594878
vn 0.8038432 -0.5840295 -0.1128969
vn 0.8588002 -0.4417242 -0.2595029
vn 0.6881943 -0.4999936 -0.5257329
vn 0.5027133 -0.7009022 -0.5059797
vn 0.2284944 -0.7032431 -0.6732307
vn 0.4464315 -0.5065902 -0.7376078
vn 0.6197492 -0.2680377 -0.7376087
vn 0.3637904 -0.26431 -0.8931947
vn 0.1622425 -0.4993402 -0.8510798
vn -0.1389598 -0.4276589 -0.8931954
vn -0.424761 -0.3086094 -0.8510806
vn 0.08382881 -0.2580193 -0.9624961
vn 0.271303 0 -0.9624939
vn -0.2194914 -0.1594661 -0.9624937
vn -0.4496686 0 -0.8931954
vn 8.759955E-07 0 -1
vn -0.2194914 0.1594661 -0.9624937
vn -0.424761 0.3086094 -0.8510807
vn 0.08382881 0.2580193 -0.9624961
vn 0.3637904 0.26431 -0.8931947
vn 0.9441733 -0.3114832 -0.1073081
vn 0.8588002 -0.4417242 -0.2595029
vn 0.8038432 -0.5840295 -0.1128969
vn 0.9584134 -0.1614609 -0.2353171
vn 0.9942234 0 -0.10733
vn 0.8219455 -0.2615238 -0.5059752
vn 0.6881943 -0.4999936 -0.5257329
vn 0.6197492 -0.2680377 -0.7376087
vn 0.9584134 0.1614609 -0.2353171
vn 0.9441733 0.3114831 -0.1073081
vn 0.8944237 0 -0.4472204
vn 0.7394315 0 -0.6732318
vn 0.8588002 0.4417243 -0.259503
vn 0.8038432 0.5840295 -0.1128969
vn 0.8219455 0.2615237 -0.5059751
vn 0.5250322 0 -0.8510824
vn 0.3637904 -0.26431 -0.8931947
vn 0.271303 0 -0.9624939
vn 0.3637904 0.26431 -0.8931947
vn 0.6197492 0.2680378 -0.7376087
vn 0.6854869 0.6802747 -0.2594878
vn 0.5879989 0.8017158 -0.1072806
vn 0.6881942 0.4999936 -0.5257329
vn 0.4464314 0.5065902 -0.7376078
vn 0.4497291 0.8616101 -0.2353123
vn 0.3072414 0.9455558 -0.1073638
vn 0.5027134 0.7009022 -0.5059797
vn 0.1622425 0.4993402 -0.8510798
vn 0.08382881 0.2580193 -0.9624961
vn -0.1389598 0.427659 -0.8931954
vn 0.2284944 0.7032431 -0.6732307
vn -0.06341074 0.6722479 -0.7376055
vn 0.005262681 0.8625261 -0.5059852
vn 0.2763892 0.8506508 -0.4472159
vn 0.142601 0.9614009 -0.2353152
vn -0.004467174 0.9942183 -0.1072841
vn -0.1547167 0.9532667 -0.2595098
vn -0.3070421 0.9449732 -0.1129196
vn -0.9544229 0.1474354 -0.259499
vn -0.8186812 0.2715599 -0.5059805
vn -0.8702708 0.4327303 -0.235315
vn -0.7236063 0.5257304 -0.4472152
vn -0.598209 0.4346283 -0.6732342
vn -0.6589301 0.1474352 -0.7376137
vn -0.6804761 0.6939622 -0.2353063
vn -0.8043354 0.5843987 -0.1073437
vn -0.9469323 0.3029943 -0.1073021
vn -0.5807892 0.8069531 -0.1072874
vn -0.5112498 0.6947001 -0.5059798
vn -0.4351579 0.8621451 -0.2595061
vn -0.3070421 0.9449732 -0.1129196
vn -0.1547167 0.9532667 -0.2595098
vn -0.2628662 0.8090138 -0.5257358
vn 0.005262681 0.8625261 -0.5059852
vn -0.06341074 0.6722479 -0.7376055
vn -0.3438379 0.5811279 -0.7376081
vn -0.424761 0.3086094 -0.8510807
vn -0.1389598 0.427659 -0.8931954
vn 0.1622425 0.4993402 -0.8510798
vn -0.2194914 0.1594661 -0.9624937
vn 0.08382881 0.2580193 -0.9624961
vn -0.4496686 0 -0.8931954
vn -0.6589302 -0.1474353 -0.7376136
vn -0.424761 -0.3086094 -0.8510806
vn -0.9469323 0.3029943 -0.1073021
vn -0.9544229 0.1474354 -0.259499
vn -0.8702708 0.4327303 -0.235315
vn -0.9936069 0 -0.1128954
vn -0.9544229 -0.1474355 -0.259499
vn -0.9469323 -0.3029943 -0.1073021
vn -0.8506474 0 -0.5257365
vn -0.8186812 0.2715599 -0.5059805
vn -0.6589301 0.1474352 -0.7376137
vn -0.6589302 -0.1474353 -0.7376136
vn -0.8702708 -0.4327303 -0.2353151
vn -0.8043354 -0.5843987 -0.1073437
vn -0.8186812 -0.2715599 -0.5059805
vn -0.680476 -0.6939621 -0.2353063
vn -0.5807892 -0.8069531 -0.1072874
vn -0.5982089 -0.4346283 -0.6732342
vn -0.424761 -0.3086094 -0.8510806
vn -0.3438379 -0.581128 -0.7376081
vn -0.7236063 -0.5257304 -0.4472151
vn -0.5112498 -0.6947001 -0.5059798
vn -0.2628662 -0.8090138 -0.5257358
vn -0.4351579 -0.8621451 -0.2595061
vn -0.307042 -0.9449732 -0.1129196
vn -0.1547166 -0.9532667 -0.2595099
g sky_scene31_0
f 3/3/3 2/2/2 1/1/1
f 2/2/2 4/4/4 1/1/1
f 5/5/5 1/1/1 4/4/4
f 2/2/2 6/6/6 4/4/4
f 7/7/7 6/6/6 2/2/2
f 8/8/8 5/5/5 4/4/4
f 9/9/9 5/5/5 8/8/8
f 6/6/6 10/10/10 4/4/4
f 8/8/8 4/4/4 10/10/10
f 6/6/6 7/7/7 11/11/11
f 11/11/11 7/7/7 12/12/12
f 8/8/8 13/13/13 9/9/9
f 9/9/9 13/13/13 14/14/14
f 13/13/13 15/15/15 14/14/14
f 13/13/13 16/16/16 15/15/15
f 8/8/8 17/17/17 13/13/13
f 10/10/10 17/17/17 8/8/8
f 17/17/17 16/16/16 13/13/13
f 10/10/10 6/6/6 18/18/18
f 17/17/17 10/10/10 18/18/18
f 18/18/18 6/6/6 11/11/11
f 16/16/16 17/17/17 19/19/19
f 19/19/19 17/17/17 18/18/18
f 20/20/20 16/16/16 19/19/19
f 20/20/20 19/19/19 21/21/21
f 19/19/19 18/18/18 22/22/22
f 18/18/18 11/11/11 22/22/22
f 21/21/21 19/19/19 22/22/22
f 22/22/22 11/11/11 23/23/23
f 11/11/11 12/12/12 23/23/23
f 23/23/23 12/12/12 24/24/24
f 21/21/21 22/22/22 25/25/25
f 22/22/22 23/23/23 25/25/25
f 26/26/26 21/21/21 25/25/25
f 23/23/23 24/24/24 27/27/27
f 25/25/25 23/23/23 27/27/27
f 24/24/24 28/28/28 27/27/27
f 26/26/26 25/25/25 29/29/29
f 25/25/25 27/27/27 29/29/29
f 27/27/27 28/28/28 30/30/30
f 27/27/27 30/30/30 29/29/29
f 28/28/28 31/31/31 30/30/30
f 30/30/30 32/32/32 29/29/29
f 32/32/32 26/26/26 29/29/29
f 32/32/32 33/33/33 26/26/26
f 36/36/36 35/35/35 34/34/34
f 35/35/35 37/37/37 34/34/34
f 38/38/38 34/34/34 37/37/37
f 35/35/35 39/39/39 37/37/37
f 40/40/40 39/39/39 35/35/35
f 39/39/39 40/40/40 41/41/41
f 42/42/42 38/38/38 37/37/37
f 43/43/43 38/38/38 42/42/42
f 39/39/39 44/44/44 37/37/37
f 42/42/42 37/37/37 44/44/44
f 45/45/45 39/39/39 41/41/41
f 44/44/44 39/39/39 45/45/45
f 42/42/42 46/46/46 43/43/43
f 43/43/43 46/46/46 47/47/47
f 44/44/44 48/48/48 42/42/42
f 48/48/48 44/44/44 45/45/45
f 42/42/42 48/48/48 46/46/46
f 45/45/45 41/41/41 49/49/49
f 49/49/49 41/41/41 50/50/50
f 49/49/49 50/50/50 51/51/51
f 52/52/52 49/49/49 51/51/51
f 53/53/53 45/45/45 49/49/49
f 53/53/53 48/48/48 45/45/45
f 52/52/52 53/53/53 49/49/49
f 46/46/46 54/54/54 47/47/47
f 47/47/47 54/54/54 55/55/55
f 48/48/48 56/56/56 46/46/46
f 56/56/56 48/48/48 53/53/53
f 46/46/46 56/56/56 54/54/54
f 57/57/57 53/53/53 52/52/52
f 57/57/57 56/56/56 53/53/53
f 54/54/54 58/58/58 55/55/55
f 59/59/59 55/55/55 58/58/58
f 56/56/56 60/60/60 54/54/54
f 60/60/60 56/56/56 57/57/57
f 54/54/54 60/60/60 58/58/58
f 61/61/61 57/57/57 52/52/52
f 61/61/61 52/52/52 62/62/62
f 63/63/63 61/61/61 62/62/62
f 64/64/64 57/57/57 61/61/61
f 64/64/64 60/60/60 57/57/57
f 65/65/65 64/64/64 61/61/61
f 65/65/65 66/66/66 64/64/64
f 67/67/67 60/60/60 64/64/64
f 60/60/60 67/67/67 58/58/58
f 66/66/66 67/67/67 64/64/64
f 68/68/68 59/59/59 58/58/58
f 68/68/68 58/58/58 67/67/67
f 67/67/67 66/66/66 68/68/68
f 69/69/69 59/59/59 68/68/68
f 68/68/68 66/66/66 70/70/70
f 68/68/68 70/70/70 69/69/69
f 69/69/69 70/70/70 71/71/71
f 74/74/74 73/73/73 72/72/72
f 75/75/75 73/73/73 74/74/74
f 73/73/73 75/75/75 76/76/76
f 77/77/77 73/73/73 76/76/76
f 74/74/74 78/78/78 75/75/75
f 74/74/74 79/79/79 78/78/78
f 80/80/80 79/79/79 74/74/74
f 79/79/79 81/81/81 78/78/78
f 82/82/82 75/75/75 78/78/78
f 75/75/75 82/82/82 76/76/76
f 83/83/83 78/78/78 81/81/81
f 83/83/83 82/82/82 78/78/78
f 84/84/84 83/83/83 81/81/81
f 85/85/85 83/83/83 84/84/84
f 85/85/85 86/86/86 83/83/83
f 86/86/86 82/82/82 83/83/83
f 87/87/87 86/86/86 85/85/85
f 86/86/86 87/87/87 88/88/88
f 82/82/82 86/86/86 89/89/89
f 76/76/76 82/82/82 89/89/89
f 89/89/89 86/86/86 88/88/88
f 77/77/77 76/76/76 90/90/90
f 76/76/76 89/89/89 90/90/90
f 89/89/89 88/88/88 91/91/91
f 90/90/90 89/89/89 91/91/91
f 91/91/91 88/88/88 92/92/92
f 90/90/90 91/91/91 93/93/93
f 93/93/93 91/91/91 94/94/94
f 95/95/95 77/77/77 90/90/90
f 96/96/96 77/77/77 95/95/95
f 97/97/97 96/96/96 95/95/95
f 100/100/100 99/99/99 98/98/98
f 98/98/98 99/99/99 101/101/101
f 99/99/99 102/102/102 101/101/101
f 101/101/101 102/102/102 103/103/103
f 99/99/99 104/104/104 102/102/102
f 105/105/105 104/104/104 99/99/99
f 104/104/104 105/105/105 106/106/106
f 107/107/107 104/104/104 106/106/106
f 102/102/102 108/108/108 103/103/103
f 109/109/109 103/103/103 108/108/108
f 104/104/104 110/110/110 102/102/102
f 110/110/110 104/104/104 107/107/107
f 102/102/102 110/110/110 108/108/108
f 111/111/111 109/109/109 108/108/108
f 112/112/112 109/109/109 111/111/111
f 113/113/113 110/110/110 107/107/107
f 113/113/113 107/107/107 114/114/114
f 115/115/115 113/113/113 114/114/114
f 110/110/110 116/116/116 108/108/108
f 116/116/116 110/110/110 113/113/113
f 111/111/111 108/108/108 116/116/116
f 115/115/115 117/117/117 113/113/113
f 117/117/117 116/116/116 113/113/113
f 116/116/116 117/117/117 111/111/111
f 118/118/118 117/117/117 115/115/115
f 111/111/111 119/119/119 112/112/112
f 111/111/111 117/117/117 119/119/119
f 117/117/117 118/118/118 119/119/119
f 112/112/112 119/119/119 120/120/120
f 119/119/119 118/118/118 121/121/121
f 119/119/119 121/121/121 120/120/120
