g smg_magazine
v -0.06027789 0.03168516 0.2767526
v -0.06027789 0.02776331 0.2767526
v -0.06027788 0.02776331 0.2455591
v -0.06027767 0.03168516 -0.2679431
v -0.06027788 9.820509E-09 0.2311569
v -0.06027769 -0.03168514 -0.2679431
v -0.06027789 -0.02776329 0.2455591
v -0.0602779 -0.03168514 0.2767526
v -0.0602779 -0.02776329 0.2767526
v 0.05306027 -0.04347334 0.2766048
v 0.0006986816 -0.04347333 -0.2316385
v 0.0006984776 -0.04347333 0.2766048
v 0.05306049 -0.04347334 -0.2767526
v -0.025189 -0.04347333 -0.2316385
v -0.05306027 -0.04347332 -0.2767526
v -0.0251892 -0.04347333 0.2766048
v -0.05306049 -0.04347332 0.2766047
v 0.06027789 -0.03168516 -0.267943
v 0.06027769 0.03168514 0.2767526
v 0.0602779 0.03168514 -0.267943
v 0.06027767 -0.03168516 0.2767526
v -0.05306048 0.04347334 0.2766047
v -0.02518898 0.04347333 -0.2316385
v -0.02518918 0.04347333 0.2766048
v -0.05306026 0.04347334 -0.2767526
v 0.0006986957 0.04347333 -0.2316385
v 0.0530605 0.04347332 -0.2767526
v 0.0006984918 0.04347333 0.2766048
v 0.05306028 0.04347332 0.2766048
v 0.0530605 0.04347332 -0.2767526
v 0.05306028 0.03168514 0.2767526
v 0.05306028 0.04347332 0.2766048
v 0.05306049 0.03168514 -0.267943
v 0.05306049 -0.04347334 -0.2767526
v 0.05306048 -0.03168516 -0.267943
v 0.05306027 -0.04347334 0.2766048
v 0.05306027 -0.03168516 0.2767526
v -0.05306027 0.03168516 -0.2679431
v -0.06027769 -0.03168514 -0.2679431
v -0.05306028 -0.03168514 -0.2679431
v -0.06027767 0.03168516 -0.2679431
v -0.05306028 -0.03168514 -0.2679431
v -0.0602779 -0.03168514 0.2767526
v -0.05306049 -0.03168514 0.2767526
v -0.06027769 -0.03168514 -0.2679431
v -0.05306048 0.03168516 0.2767526
v -0.06027767 0.03168516 -0.2679431
v -0.05306027 0.03168516 -0.2679431
v -0.06027789 0.03168516 0.2767526
v 0.05306048 -0.03168516 -0.267943
v 0.0602779 0.03168514 -0.267943
v 0.05306049 0.03168514 -0.267943
v 0.06027789 -0.03168516 -0.267943
v 0.05306049 0.03168514 -0.267943
v 0.06027769 0.03168514 0.2767526
v 0.05306028 0.03168514 0.2767526
v 0.0602779 0.03168514 -0.267943
v 0.0530605 0.04347332 -0.2767526
v -0.05306027 -0.04347332 -0.2767526
v 0.05306049 -0.04347334 -0.2767526
v -0.05306026 0.04347334 -0.2767526
v -0.025189 -0.04347333 -0.2316385
v -0.0251892 -0.03653774 0.2766048
v -0.02518899 -0.03653774 -0.2316385
v -0.0251892 -0.04347333 0.2766048
v 0.0006986827 -0.03653775 -0.2316385
v 0.0006984776 -0.04347333 0.2766048
v 0.0006986816 -0.04347333 -0.2316385
v 0.0006984787 -0.03653775 0.2766048
v -0.02518899 -0.03653774 -0.2316385
v 0.0006984787 -0.03653775 0.2766048
v 0.0006986827 -0.03653775 -0.2316385
v -0.0251892 -0.03653774 0.2766048
v 0.0006986827 -0.03653775 -0.2316385
v -0.025189 -0.04347333 -0.2316385
v -0.02518899 -0.03653774 -0.2316385
v 0.0006986816 -0.04347333 -0.2316385
v -0.02518919 0.03653775 0.2766048
v -0.02518898 0.04347333 -0.2316385
v -0.02518898 0.03653775 -0.2316385
v -0.02518918 0.04347333 0.2766048
v 0.0006986946 0.03653775 -0.2316385
v 0.0006984918 0.04347333 0.2766048
v 0.0006984906 0.03653775 0.2766048
v 0.0006986957 0.04347333 -0.2316385
v 0.0006986946 0.03653775 -0.2316385
v -0.02518919 0.03653775 0.2766048
v -0.02518898 0.03653775 -0.2316385
v 0.0006984906 0.03653775 0.2766048
v -0.02518898 0.03653775 -0.2316385
v 0.0006986957 0.04347333 -0.2316385
v 0.0006986946 0.03653775 -0.2316385
v -0.02518898 0.04347333 -0.2316385
v -0.05306028 -0.03168514 -0.2679431
v -0.05306026 0.04347334 -0.2767526
v -0.05306027 0.03168516 -0.2679431
v -0.05306027 -0.04347332 -0.2767526
v -0.05306049 -0.03168514 0.2767526
v -0.05306049 -0.04347332 0.2766047
v 0.05306027 -0.03168516 0.2767526
v 0.06027789 -0.03168516 -0.267943
v 0.05306048 -0.03168516 -0.267943
v 0.06027767 -0.03168516 0.2767526
v -0.05306048 0.04347334 0.2766047
v -0.05306027 0.03168516 -0.2679431
v -0.05306026 0.04347334 -0.2767526
v -0.05306048 0.03168516 0.2767526
v -0.05306049 -0.04347332 0.2766047
v -0.0251892 -0.03653774 0.2766048
v -0.0251892 -0.04347333 0.2766048
v -0.05306049 -0.03168514 0.2767526
v -0.0602779 -0.02776329 0.2767526
v -0.0602779 -0.03168514 0.2767526
v 0.0006984787 -0.03653775 0.2766048
v 0.05214393 -0.02776331 0.2767501
v 0.05306027 -0.03168516 0.2767526
v 0.0006984776 -0.04347333 0.2766048
v 0.05306027 -0.04347334 0.2766048
v 0.05306028 0.03168514 0.2767526
v 0.06027767 -0.03168516 0.2767526
v 0.06027769 0.03168514 0.2767526
v 0.05226454 0.02776329 0.2767504
v 0.0006984906 0.03653775 0.2766048
v 0.05306028 0.04347332 0.2766048
v 0.0006984918 0.04347333 0.2766048
v -0.05306048 0.02776331 0.2767526
v -0.02518919 0.03653775 0.2766048
v -0.05306048 0.03168516 0.2767526
v -0.02518918 0.04347333 0.2766048
v -0.05306048 0.04347334 0.2766047
v -0.06027789 0.02776331 0.2767526
v -0.06027789 0.03168516 0.2767526
v -0.05796234 9.443259E-09 0.192903
v -0.05765827 0.02504996 0.2457268
v -0.05805203 0.02504996 0.1920494
v -0.05756858 9.379107E-09 0.2313302
v -0.05805204 -0.02504994 0.1920494
v -0.05765828 -0.02504994 0.2457268
v -0.05306048 0.02776331 0.2767526
v -0.06027788 0.02776331 0.2455591
v -0.06027789 0.02776331 0.2767526
v 0.05091064 0.02640662 0.2454726
v 0.05226454 0.02776329 0.2767504
v -0.05765827 0.02504996 0.2457268
v -0.05805203 0.02504996 0.1920494
v 0.04916298 0.02504994 0.1920697
v -0.06027789 -0.02776329 0.2455591
v 0.05214393 -0.02776331 0.2767501
v -0.0602779 -0.02776329 0.2767526
v 0.05091063 -0.02640663 0.2454726
v -0.05796234 9.443259E-09 0.192903
v 0.04916297 -0.02504996 0.1920697
v -0.05805204 -0.02504994 0.1920494
v 0.04916298 0.02504994 0.1920697
v -0.05805203 0.02504996 0.1920494
v 0.05214393 -0.02776331 0.2767501
v 0.05091064 0.02640662 0.2454726
v 0.05226454 0.02776329 0.2767504
v 0.05091063 -0.02640663 0.2454726
v 0.04916298 0.02504994 0.1920697
v 0.04916297 -0.02504996 0.1920697
v -0.06027788 0.02776331 0.2455591
v -0.05756858 9.379107E-09 0.2313302
v -0.06027788 9.820509E-09 0.2311569
v -0.05765827 0.02504996 0.2457268
v -0.05765828 -0.02504994 0.2457268
v -0.06027788 9.820509E-09 0.2311569
v -0.05756858 9.379107E-09 0.2313302
v -0.06027789 -0.02776329 0.2455591
v 0.05091063 -0.02640663 0.2454726
v -0.05765828 -0.02504994 0.2457268
v 0.04916297 -0.02504996 0.1920697
v 0.05091063 -0.02640663 0.2454726
v -0.05805204 -0.02504994 0.1920494
vt 0.01395501 0.9958631
vt 0.01834036 0.995891
vt 0.01856177 0.9610111
vt 0.02037164 0.7181182
vt 0.03647633 0.9508365
vt 0.05050163 0.7214485
vt 0.05424779 0.9601524
vt 0.05897982 0.9911274
vt 0.05507233 0.9912311
vt 0.1267967 0.9896271
vt 0.09571843 0.7387525
vt 0.1057809 0.9900683
vt 0.1232725 0.7117031
vt 0.0763537 0.7374759
vt 0.06084616 0.7124018
vt 0.07916589 0.9905517
vt 0.06803298 0.9908108
vt 0.1332941 0.7200865
vt 0.1799975 0.9889461
vt 0.1638224 0.7224383
vt 0.1363562 0.9896106
vt 0.2464475 0.9858847
vt 0.221008 0.7368029
vt 0.2355026 0.9863886
vt 0.235252 0.7112314
vt 0.2020976 0.7380102
vt 0.173811 0.7131428
vt 0.2097675 0.987231
vt 0.1889435 0.988372
vt 0.173811 0.7131428
vt 0.1842525 0.9886981
vt 0.1889435 0.988372
vt 0.1678403 0.7178814
vt 0.1232725 0.7117031
vt 0.1291811 0.7162226
vt 0.1267967 0.9896271
vt 0.1315469 0.9896381
vt 0.01627597 0.7140735
vt 0.05050163 0.7214485
vt 0.05469169 0.7169611
vt 0.02037164 0.7181182
vt 0.05469169 0.7169611
vt 0.05897982 0.9911274
vt 0.06328525 0.9910021
vt 0.05050163 0.7214485
vt 0.009000276 0.995718
vt 0.02037164 0.7181182
vt 0.01627597 0.7140735
vt 0.01395501 0.9958631
vt 0.1291811 0.7162226
vt 0.1638224 0.7224383
vt 0.1678403 0.7178814
vt 0.1332941 0.7200865
vt 0.1678403 0.7178814
vt 0.1799975 0.9889461
vt 0.1842525 0.9886981
vt 0.1638224 0.7224383
vt 0.9238887 0.9415122
vt 0.968369 0.995891
vt 0.9684134 0.9415482
vt 0.9238448 0.995855
vt 0.0763537 0.7374759
vt 0.08373976 0.9905065
vt 0.08021647 0.7413954
vt 0.07916589 0.9905517
vt 0.09200007 0.7432362
vt 0.1057809 0.9900683
vt 0.09571843 0.7387525
vt 0.1012444 0.990235
vt 0.08021647 0.7413954
vt 0.1012444 0.990235
vt 0.09200007 0.7432362
vt 0.08373976 0.9905065
vt 0.09200007 0.7432362
vt 0.0763537 0.7374759
vt 0.08021647 0.7413954
vt 0.09571843 0.7387525
vt 0.2310157 0.9866295
vt 0.221008 0.7368029
vt 0.2174149 0.7418064
vt 0.2355026 0.9863886
vt 0.2059821 0.7413941
vt 0.2097675 0.987231
vt 0.2136832 0.9871037
vt 0.2020976 0.7380102
vt 0.2059821 0.7413941
vt 0.2310157 0.9866295
vt 0.2174149 0.7418064
vt 0.2136832 0.9871037
vt 0.2174149 0.7418064
vt 0.2020976 0.7380102
vt 0.2059821 0.7413941
vt 0.221008 0.7368029
vt 0.05469169 0.7169611
vt 0.01040949 0.7093194
vt 0.01627597 0.7140735
vt 0.06084616 0.7124018
vt 0.06328525 0.9910021
vt 0.06803298 0.9908108
vt 0.1315469 0.9896381
vt 0.1332941 0.7200865
vt 0.1291811 0.7162226
vt 0.1363562 0.9896106
vt 0.2464475 0.9858847
vt 0.2354302 0.7156039
vt 0.235252 0.7112314
vt 0.2464505 0.985958
vt 0.9156266 0.9098597
vt 0.9086445 0.926735
vt 0.9130062 0.9273871
vt 0.9082128 0.9087512
vt 0.9064243 0.9038438
vt 0.9088908 0.9042122
vt 0.906211 0.9430151
vt 0.8936138 0.9858412
vt 0.8972445 0.9866345
vt 0.9120488 0.9436617
vt 0.907167 0.9877334
vt 0.8345515 0.9887508
vt 0.8974854 0.9937747
vt 0.8347924 0.995891
vt 0.8383307 0.9877325
vt 0.8142073 0.9491048
vt 0.8252804 0.9924717
vt 0.8087534 0.9512939
vt 0.8034003 0.9143598
vt 0.8065973 0.9339654
vt 0.8008836 0.9155113
vt 0.8023803 0.9361212
vt 0.7937159 0.9191762
vt 0.8013383 0.909293
vt 0.7986261 0.9105198
vt 0.8601932 0.9270451
vt 0.8285394 0.9030415
vt 0.8540717 0.9302608
vt 0.8544441 0.9033297
vt 0.8655353 0.9270229
vt 0.8863263 0.90302
vt 0.8034003 0.9143598
vt 0.8254817 0.9005862
vt 0.8013383 0.909293
vt 0.8474861 0.967316
vt 0.8383307 0.9877325
vt 0.8285394 0.9030415
vt 0.8540717 0.9302608
vt 0.8563334 0.9487577
vt 0.8881763 0.9008286
vt 0.8936138 0.9858412
vt 0.9064243 0.9038438
vt 0.8768392 0.9637905
vt 0.8601932 0.9270451
vt 0.8653208 0.9470834
vt 0.8655353 0.9270229
vt 0.8563334 0.9487577
vt 0.8540717 0.9302608
vt 0.8936138 0.9858412
vt 0.8474861 0.967316
vt 0.8383307 0.9877325
vt 0.8768392 0.9637905
vt 0.8563334 0.9487577
vt 0.8653208 0.9470834
vt 0.8254817 0.9005862
vt 0.8544441 0.9033297
vt 0.8545387 0.9007567
vt 0.8285394 0.9030415
vt 0.8863263 0.90302
vt 0.8545387 0.9007567
vt 0.8544441 0.9033297
vt 0.8881763 0.9008286
vt 0.8768392 0.9637905
vt 0.8863263 0.90302
vt 0.8653208 0.9470834
vt 0.8768392 0.9637905
vt 0.8655353 0.9270229
vn -1 0 -3.892287E-07
vn -1 0 -3.88276E-07
vn -1 0 -3.996661E-07
vn -1 0 -4.003687E-07
vn -1 0 -4.010259E-07
vn -1 0 -4.004865E-07
vn -1 0 -4.005282E-07
vn -1 0 -3.892287E-07
vn -1 0 -3.88276E-07
vn 0 -1 0
vn 0 -1 0
vn 0 -1 0
vn 0 -1 0
vn 0 -1 0
vn 0 -1 0
vn 0 -1 0
vn 0 -1 0
vn 1 0 4.002418E-07
vn 1 0 4.002418E-07
vn 1 0 4.002418E-07
vn 1 0 4.002418E-07
vn 0 1 0
vn 0 1 0
vn 0 1 0
vn 0 1 0
vn 0 1 0
vn 0 1 0
vn 0 1 0
vn 0 1 0
vn 1 0 4.414786E-07
vn 1 0 4.048566E-07
vn 1 0 4.049205E-07
vn 1 0 4.646474E-07
vn 1 0 5.919879E-07
vn 1 0 6.90422E-07
vn 1 0 4.003058E-07
vn 1 0 4.002418E-07
vn 0 0 -1
vn 0 0 -1
vn 0 0 -1
vn 0 0 -1
vn 0 -1 0
vn 0 -1 0
vn 0 -1 0
vn 0 -1 0
vn 0 1 0
vn 0 1 0
vn 0 1 0
vn 0 1 0
vn 0 0 -1
vn 0 0 -1
vn 0 0 -1
vn 0 0 -1
vn 0 1 0
vn 0 1 0
vn 0 1 0
vn 0 1 0
vn 4.565239E-07 0 -1
vn 4.565239E-07 0 -1
vn 4.565238E-07 0 -1
vn 4.565238E-07 0 -1
vn 1 0 4.021129E-07
vn 1 0 3.991858E-07
vn 1 0 4.021388E-07
vn 1 0 3.991599E-07
vn -1 0 -4.01301E-07
vn -1 0 -4.01301E-07
vn -1 0 -4.01301E-07
vn -1 0 -4.01301E-07
vn 0 -1 0
vn 0 -1 0
vn 0 -1 0
vn 0 -1 0
vn 0 0 1
vn 0 0 1
vn 0 0 1
vn 0 0 1
vn 1 0 4.021388E-07
vn 1 0 4.021388E-07
vn 1 0 4.021388E-07
vn 1 0 4.021388E-07
vn -1 0 -4.013017E-07
vn -1 0 -4.013932E-07
vn -1 0 -4.01394E-07
vn -1 0 -4.01301E-07
vn 0 1 0
vn 0 1 0
vn 0 1 0
vn 0 1 0
vn 0 0 1
vn 0 0 1
vn 0 0 1
vn 0 0 1
vn -1 0 -6.405114E-07
vn -1 0 -4.486918E-07
vn -1 0 -4.190877E-07
vn -1 0 -5.937935E-07
vn -1 0 -4.048566E-07
vn -1 0 -4.049205E-07
vn 0 -1 0
vn 0 -1 0
vn 0 -1 0
vn 0 -1 0
vn -1 0 -4.003058E-07
vn -1 0 -4.190877E-07
vn -1 0 -4.486918E-07
vn -1 0 -4.002418E-07
vn 0.002635133 -0.01059304 0.9999404
vn 0.0003956771 -0.01123959 0.9999368
vn -8.691137E-07 0 1
vn 0.005589244 0.004860684 0.9999726
vn 0.001257493 -0.0003033418 0.9999992
vn 0 0 1
vn -0.001029192 -0.01053293 0.999944
vn -0.002691703 -0.0006024456 0.9999962
vn -0.001071454 -0.003594107 0.999993
vn -0.002425778 -0.001767912 0.9999955
vn -4.647537E-07 -0.01253997 0.9999214
vn -0.001516778 0.003935537 0.9999912
vn 0 0 1
vn 0 0 1
vn -0.002708756 0.0005995227 0.9999962
vn -0.000112427 0.0111475 0.9999379
vn -0.001522202 0.01148874 0.9999329
vn -4.626146E-07 0 1
vn 0.002137846 0.001628892 0.9999964
vn 0.002111088 0.010139 0.9999464
vn 0.002217892 0.003115212 0.9999927
vn 0.003952126 0.003194553 0.9999871
vn -8.663208E-07 0.01253997 0.9999214
vn 0 0 1
vn 0 0 1
vn 0.9999573 0.0008963214 -0.00919246
vn 0.9999357 0.006878282 -0.009017618
vn 0.9999676 0.003330727 -0.007335488
vn 0.9999567 0.001455319 -0.009185694
vn 0.9999459 -0.004917977 -0.009170891
vn 0.9999428 -0.007796472 -0.007335193
vn -0.005847474 -0.9999684 0.005387397
vn -0.008840176 -0.8865043 0.4626358
vn 0 -1 0
vn 0.0006990276 -0.9993881 0.03497107
vn 7.246374E-07 -0.9990607 0.0433342
vn 0.008545687 -0.5243419 0.8514649
vn 0.008851384 -0.999934 0.007339526
vn -4.95503E-06 -0.9996774 0.02539654
vn -0.002101052 0.9999691 0.007573423
vn -0.01000839 0.999299 0.03607393
vn 0 1 0
vn -7.213303E-05 0.9994011 0.03460661
vn 0.0009741939 0 0.9999995
vn 0.006613569 -0.004982915 0.9999658
vn -0.000188888 -0.03405523 0.9994199
vn 0.00661357 0.004982913 0.9999658
vn -0.0001888774 0.03405522 0.9994199
vn -0.9991716 0.0007445827 0.04068719
vn -0.9992993 0.0007488499 0.03742194
vn -0.9990662 0.002169911 0.04315158
vn -0.9993472 0 0.0361273
vn -0.9994649 0 0.03270861
vn -0.9994649 0 0.03270859
vn -0.4596486 -0.4401742 0.7713429
vn -0.08356959 -0.4609473 0.8834839
vn -0.05671007 -0.4597394 0.8862413
vn -0.4972549 -0.4336512 0.7514547
vn -0.2360209 0.1797697 0.9549748
vn -0.08325971 0.4945086 0.8651758
vn -0.05538891 0.4976682 0.8655971
vn -0.2672664 0.1997953 0.9426826
vn 0.001547575 -0.06314865 0.9980029
vn 0.003689867 0.9999663 0.007345528
vn 0.00890668 0.9998031 0.01773123
vn -7.213303E-05 0.9994011 0.03460661
vn 0 1 0
g smg_magazine_0
f 3/3/3 2/2/2 1/1/1
f 4/4/4 3/3/3 1/1/1
f 3/3/3 4/4/4 5/5/5
f 4/4/4 6/6/6 5/5/5
f 7/7/7 5/5/5 6/6/6
f 7/7/7 6/6/6 8/8/8
f 9/9/9 7/7/7 8/8/8
f 12/12/12 11/11/11 10/10/10
f 13/13/13 10/10/10 11/11/11
f 11/11/11 14/14/14 13/13/13
f 15/15/15 13/13/13 14/14/14
f 14/14/14 16/16/16 15/15/15
f 17/17/17 15/15/15 16/16/16
f 20/20/20 19/19/19 18/18/18
f 21/21/21 18/18/18 19/19/19
f 24/24/24 23/23/23 22/22/22
f 25/25/25 22/22/22 23/23/23
f 23/23/23 26/26/26 25/25/25
f 27/27/27 25/25/25 26/26/26
f 26/26/26 28/28/28 27/27/27
f 29/29/29 27/27/27 28/28/28
f 32/32/32 31/31/31 30/30/30
f 33/33/33 30/30/30 31/31/31
f 30/30/30 33/33/33 34/34/34
f 35/35/35 34/34/34 33/33/33
f 34/34/34 35/35/35 36/36/36
f 37/37/37 36/36/36 35/35/35
f 40/40/40 39/39/39 38/38/38
f 41/41/41 38/38/38 39/39/39
f 44/44/44 43/43/43 42/42/42
f 45/45/45 42/42/42 43/43/43
f 48/48/48 47/47/47 46/46/46
f 49/49/49 46/46/46 47/47/47
f 52/52/52 51/51/51 50/50/50
f 53/53/53 50/50/50 51/51/51
f 56/56/56 55/55/55 54/54/54
f 57/57/57 54/54/54 55/55/55
f 60/60/60 59/59/59 58/58/58
f 61/61/61 58/58/58 59/59/59
f 64/64/64 63/63/63 62/62/62
f 65/65/65 62/62/62 63/63/63
f 68/68/68 67/67/67 66/66/66
f 69/69/69 66/66/66 67/67/67
f 72/72/72 71/71/71 70/70/70
f 73/73/73 70/70/70 71/71/71
f 76/76/76 75/75/75 74/74/74
f 77/77/77 74/74/74 75/75/75
f 80/80/80 79/79/79 78/78/78
f 81/81/81 78/78/78 79/79/79
f 84/84/84 83/83/83 82/82/82
f 85/85/85 82/82/82 83/83/83
f 88/88/88 87/87/87 86/86/86
f 89/89/89 86/86/86 87/87/87
f 92/92/92 91/91/91 90/90/90
f 93/93/93 90/90/90 91/91/91
f 96/96/96 95/95/95 94/94/94
f 97/97/97 94/94/94 95/95/95
f 94/94/94 97/97/97 98/98/98
f 99/99/99 98/98/98 97/97/97
f 102/102/102 101/101/101 100/100/100
f 103/103/103 100/100/100 101/101/101
f 106/106/106 105/105/105 104/104/104
f 107/107/107 104/104/104 105/105/105
f 110/110/110 109/109/109 108/108/108
f 111/111/111 108/108/108 109/109/109
f 109/109/109 112/112/112 111/111/111
f 113/113/113 111/111/111 112/112/112
f 109/109/109 114/114/114 112/112/112
f 115/115/115 112/112/112 114/114/114
f 114/114/114 116/116/116 115/115/115
f 114/114/114 117/117/117 116/116/116
f 118/118/118 116/116/116 117/117/117
f 116/116/116 119/119/119 115/115/115
f 116/116/116 120/120/120 119/119/119
f 121/121/121 119/119/119 120/120/120
f 122/122/122 115/115/115 119/119/119
f 119/119/119 123/123/123 122/122/122
f 119/119/119 124/124/124 123/123/123
f 125/125/125 123/123/123 124/124/124
f 123/123/123 126/126/126 122/122/122
f 123/123/123 127/127/127 126/126/126
f 128/128/128 126/126/126 127/127/127
f 127/127/127 129/129/129 128/128/128
f 130/130/130 128/128/128 129/129/129
f 126/126/126 128/128/128 131/131/131
f 132/132/132 131/131/131 128/128/128
f 135/135/135 134/134/134 133/133/133
f 136/136/136 133/133/133 134/134/134
f 133/133/133 136/136/136 137/137/137
f 138/138/138 137/137/137 136/136/136
f 141/141/141 140/140/140 139/139/139
f 139/139/139 140/140/140 142/142/142
f 143/143/143 139/139/139 142/142/142
f 144/144/144 142/142/142 140/140/140
f 144/144/144 145/145/145 142/142/142
f 146/146/146 142/142/142 145/145/145
f 149/149/149 148/148/148 147/147/147
f 150/150/150 147/147/147 148/148/148
f 153/153/153 152/152/152 151/151/151
f 152/152/152 154/154/154 151/151/151
f 155/155/155 151/151/151 154/154/154
f 158/158/158 157/157/157 156/156/156
f 156/156/156 157/157/157 159/159/159
f 157/157/157 160/160/160 159/159/159
f 161/161/161 159/159/159 160/160/160
f 164/164/164 163/163/163 162/162/162
f 165/165/165 162/162/162 163/163/163
f 168/168/168 167/167/167 166/166/166
f 169/169/169 166/166/166 167/167/167
f 166/166/166 169/169/169 170/170/170
f 173/173/173 172/172/172 171/171/171
f 174/174/174 171/171/171 172/172/172
