g taijie1_scene97
v 1.441028 1.812843 0.48
v 0.8986969 1.841271 0.48
v 1.184067 2.098199 0.48
v -1.983335 -1.270561 0.48
v -1.954931 -0.7281994 0.48
v -2.24029 -0.985166 0.48
v 1.840683 1.655997 0.2880078
v 1.441033 1.812843 0.2880078
v 1.583751 1.941345 0.2880078
v -1.869079 -1.684349 0.2880078
v -1.983339 -1.270538 0.2880078
v -2.126006 -1.399004 0.2880078
v 2.240281 1.499054 0.09599609
v 1.840682 1.655945 0.09599609
v 1.983345 1.784429 0.09599609
v -1.869058 -1.684388 0.09599609
v -1.754782 -2.09822 0.09599609
v -2.011745 -1.812839 0.09599609
v 1.184067 2.098199 0.48
v 1.441033 1.812843 0.2880078
v 1.441028 1.812843 0.48
v 1.184063 2.098219 -0.48
v 1.441072 1.812876 -0.48
v -2.24029 -0.9851453 -0.48
v -1.983339 -1.270538 0.2880078
v -1.98334 -1.270557 -0.48
v -2.24029 -0.985166 0.48
v -1.983335 -1.270561 0.48
v 1.441033 1.812843 0.2880078
v -1.983335 -1.270561 0.48
v 1.441028 1.812843 0.48
v -1.983339 -1.270538 0.2880078
v 1.583715 1.941317 -0.48
v 1.583751 1.941345 0.2880078
v 1.441072 1.812876 -0.48
v 1.441033 1.812843 0.2880078
v -1.98334 -1.270557 -0.48
v -1.983339 -1.270538 0.2880078
v -2.126006 -1.399004 0.2880078
v -2.12602 -1.39901 -0.48
v 1.583751 1.941345 0.2880078
v 1.840682 1.655945 0.09599609
v 1.840683 1.655997 0.2880078
v 1.583715 1.941317 -0.48
v 1.840667 1.655939 -0.48
v -2.12602 -1.39901 -0.48
v -1.869058 -1.684388 0.09599609
v -1.869111 -1.684368 -0.48
v -2.126006 -1.399004 0.2880078
v -1.869079 -1.684349 0.2880078
v -1.869058 -1.684388 0.09599609
v 1.840683 1.655997 0.2880078
v 1.840682 1.655945 0.09599609
v -1.869079 -1.684349 0.2880078
v -2.011745 -1.812839 0.09599609
v -2.01174 -1.812859 -0.48
v -1.869111 -1.684368 -0.48
v -1.869058 -1.684388 0.09599609
v 1.983365 1.78442 -0.48
v 1.983345 1.784429 0.09599609
v 1.840667 1.655939 -0.48
v 1.840682 1.655945 0.09599609
v 1.983345 1.784429 0.09599609
v 2.24029 1.499067 -0.48
v 2.240281 1.499054 0.09599609
v 1.983365 1.78442 -0.48
v -1.75486 -2.098182 -0.48
v -2.011745 -1.812839 0.09599609
v -1.754782 -2.09822 0.09599609
v -2.01174 -1.812859 -0.48
v 2.24029 1.499067 -0.48
v -1.754782 -2.09822 0.09599609
v 2.240281 1.499054 0.09599609
v -1.75486 -2.098182 -0.48
vt 0.4784573 0.4649573
vt 0.4472817 0.4959418
vt 0.4784573 0.4959418
vt 0.1043499 0.4649573
vt 0.1355256 0.4959418
vt 0.1043499 0.4959418
vt 0.4470294 0.4649573
vt 0.4314415 0.4959418
vt 0.4470294 0.4959418
vt 0.04174643 0.4649573
vt 0.05733422 0.4959418
vt 0.04174643 0.4959418
vt 0.4759166 0.4633238
vt 0.4603287 0.4943084
vt 0.4759166 0.4943084
vt 0.05504574 0.4943084
vt 0.03945795 0.4633238
vt 0.03945795 0.4943084
vt 0.05476704 0.4936068
vt 0.02359143 0.4853765
vt 0.02359143 0.4936068
vt 0.05476704 0.4519713
vt 0.02359143 0.4519713
vt 0.4015055 0.4481793
vt 0.4326811 0.4840052
vt 0.4326811 0.4481793
vt 0.4015055 0.4932037
vt 0.4326811 0.4932037
vt 0.4471804 0.4448327
vt 0.07307309 0.4603249
vt 0.4471804 0.4603249
vt 0.07307309 0.4448327
vt 0.06540754 0.4645282
vt 0.06540754 0.4800204
vt 0.08099534 0.4645282
vt 0.08099534 0.4800204
vt 0.4551028 0.4645282
vt 0.4551028 0.4800204
vt 0.4706905 0.4800204
vt 0.4706905 0.4645282
vt 0.04423845 0.4956126
vt 0.01306284 0.4878665
vt 0.01306284 0.4956126
vt 0.04423845 0.4641439
vt 0.01306284 0.4641439
vt 0.3570929 0.4577941
vt 0.3882686 0.4839373
vt 0.3882686 0.4577941
vt 0.3570929 0.4926517
vt 0.3882686 0.4926517
vt 0.03675169 0.4448327
vt 0.4420347 0.4603249
vt 0.4420347 0.4448327
vt 0.03675169 0.4603249
vt 0.4862784 0.4800204
vt 0.4862784 0.4684013
vt 0.4706905 0.4684013
vt 0.4706905 0.4800204
vt 0.04981971 0.4684013
vt 0.04981971 0.4800204
vt 0.06540754 0.4684013
vt 0.06540754 0.4800204
vt 0.1804954 0.4932746
vt 0.1493198 0.4467978
vt 0.1493198 0.4932746
vt 0.1804954 0.4467978
vt 0.4429756 0.4463357
vt 0.4118 0.4928125
vt 0.4429756 0.4928125
vt 0.4118 0.4463357
vt 0.4835284 0.4518619
vt 0.04706967 0.4983388
vt 0.4835284 0.4983388
vt 0.04706967 0.4518619
vn 0 0 1
vn 0 0 1
vn 0 0 1
vn 0 0 1
vn 0 0 1
vn 0 0 1
vn 0 0 1
vn 0 0 1
vn 0 0 1
vn 0 0 1
vn 0 0 1
vn 0 0 1
vn 0 0 1
vn 0 0 1
vn 0 0 1
vn 0 0 1
vn 0 0 1
vn 0 0 1
vn 0.7431098 0.6691695 1.316907E-05
vn 0.743099 0.6691816 2.185852E-05
vn 0.7431117 0.6691674 1.887547E-05
vn 0.7430564 0.6692287 5.006224E-05
vn 0.7430344 0.6692533 6.651323E-05
vn -0.743179 -0.6690925 7.791135E-06
vn -0.7431616 -0.6691119 -2.819547E-05
vn -0.7431915 -0.6690787 1.711391E-05
vn -0.7431544 -0.6691199 -2.986802E-05
vn -0.7431667 -0.6691063 -6.663946E-05
vn 0.6691417 -0.7431349 1.384842E-05
vn 0.6691381 -0.743138 -9.936759E-05
vn 0.6691418 -0.7431348 1.701785E-05
vn 0.6691381 -0.7431381 -0.0001025371
vn -0.6691449 0.7431319 3.676647E-06
vn -0.6691303 0.7431451 -1.234032E-06
vn -0.6691422 0.7431343 2.769146E-06
vn -0.6691276 0.7431475 -2.141142E-06
vn -0.6690956 0.7431763 2.291713E-06
vn -0.669152 0.7431256 -1.665374E-05
vn -0.6691415 0.743135 -1.31535E-05
vn -0.6690852 0.7431857 5.791937E-06
vn 0.7431701 0.6691026 -9.678035E-05
vn 0.7431616 0.669112 -9.81046E-05
vn 0.7431397 0.6691363 -0.0001876721
vn 0.7431626 0.669111 -3.848713E-05
vn 0.7431504 0.6691245 -2.63835E-05
vn -0.7431718 -0.6691006 3.439594E-05
vn -0.7431561 -0.6691182 3.633362E-05
vn -0.7431815 -0.6690898 4.401762E-05
vn -0.743152 -0.6691226 2.937884E-05
vn -0.7431432 -0.6691324 5.579737E-05
vn 0.6691374 -0.7431387 0.0002227263
vn 0.6691381 -0.743138 0.0001994726
vn 0.6691381 -0.743138 0.0001988741
vn 0.6691375 -0.7431386 0.0002233247
vn -0.6691136 0.7431602 6.373644E-05
vn -0.6693245 0.7429702 -3.086709E-05
vn -0.6692702 0.7430191 -6.500047E-06
vn -0.6690592 0.7432091 8.810182E-05
vn -0.6691177 0.7431564 -3.371363E-05
vn -0.6691944 0.7430874 6.475412E-07
vn -0.6691375 0.7431386 -2.486231E-05
vn -0.6692141 0.7430696 9.499771E-06
vn 0.743162 0.6691115 2.235661E-05
vn 0.7431592 0.6691147 1.950618E-05
vn 0.7431663 0.6691068 2.660161E-05
vn 0.7431548 0.6691195 1.526099E-05
vn -0.7431639 -0.6691093 3.15289E-05
vn -0.7431538 -0.6691206 4.169612E-05
vn -0.7431386 -0.6691376 5.683431E-05
vn -0.7431791 -0.6690924 1.638797E-05
vn 0.6691405 -0.743136 -1.637944E-05
vn 0.6691314 -0.7431442 -0.0001305988
vn 0.6691412 -0.7431354 -7.397384E-06
vn 0.6691307 -0.7431448 -0.0001395804
g taijie1_scene97_0
f 3/3/3 2/2/2 1/1/1
f 4/4/4 1/1/1 2/2/2
f 5/5/5 4/4/4 2/2/2
f 6/6/6 4/4/4 5/5/5
f 9/9/9 8/8/8 7/7/7
f 10/10/10 7/7/7 8/8/8
f 11/11/11 10/10/10 8/8/8
f 12/12/12 10/10/10 11/11/11
f 15/15/15 14/14/14 13/13/13
f 14/14/14 16/16/16 13/13/13
f 17/17/17 13/13/13 16/16/16
f 18/18/18 17/17/17 16/16/16
f 21/21/21 20/20/20 19/19/19
f 19/19/19 20/20/20 22/22/22
f 23/23/23 22/22/22 20/20/20
f 26/26/26 25/25/25 24/24/24
f 27/27/27 24/24/24 25/25/25
f 25/25/25 28/28/28 27/27/27
f 31/31/31 30/30/30 29/29/29
f 32/32/32 29/29/29 30/30/30
f 35/35/35 34/34/34 33/33/33
f 34/34/34 35/35/35 36/36/36
f 39/39/39 38/38/38 37/37/37
f 37/37/37 40/40/40 39/39/39
f 43/43/43 42/42/42 41/41/41
f 41/41/41 42/42/42 44/44/44
f 45/45/45 44/44/44 42/42/42
f 48/48/48 47/47/47 46/46/46
f 49/49/49 46/46/46 47/47/47
f 47/47/47 50/50/50 49/49/49
f 53/53/53 52/52/52 51/51/51
f 54/54/54 51/51/51 52/52/52
f 57/57/57 56/56/56 55/55/55
f 57/57/57 55/55/55 58/58/58
f 61/61/61 60/60/60 59/59/59
f 60/60/60 61/61/61 62/62/62
f 65/65/65 64/64/64 63/63/63
f 66/66/66 63/63/63 64/64/64
f 69/69/69 68/68/68 67/67/67
f 70/70/70 67/67/67 68/68/68
f 73/73/73 72/72/72 71/71/71
f 74/74/74 71/71/71 72/72/72
