g taijie6_scene97
v 2.81543 0.7680005 -0.1679331
v -2.815427 0.7680005 -0.3599448
v 2.81543 0.7680005 -0.3599448
v -2.815427 0.7680005 -0.1679331
v -2.815427 1.920002 -0.7439292
v 2.81543 1.920002 -0.7439292
v 2.81543 1.536001 -0.7439292
v -2.815427 1.536001 -0.7439292
v -2.815427 1.536001 -0.5519175
v 2.81543 1.536001 -0.5519175
v 2.81543 1.152007 -0.5519175
v -2.815427 1.152007 -0.5519175
v 2.81543 0.7680005 -0.3599448
v -2.815427 0.7680005 -0.3599448
v 2.81543 1.152004 -0.3599448
v -2.815427 1.152004 -0.3599448
v -2.815427 1.152007 -0.5519175
v 2.81543 1.152007 -0.5519175
v -2.815427 1.152004 -0.3599448
v 2.81543 1.152004 -0.3599448
v -2.815427 1.536001 -0.7439292
v 2.81543 1.536001 -0.7439292
v -2.815427 1.536001 -0.5519175
v 2.81543 1.536001 -0.5519175
v 2.81543 1.920002 -0.7439292
v -2.815427 1.920002 -0.7439292
v -2.815427 1.920002 -0.9359214
v 2.81543 1.920002 -0.9359214
v -2.815427 2.304001 -1.176071
v 2.81543 2.304001 -1.176071
v -2.815427 2.304001 -0.9359214
v 2.81543 2.304001 -0.9359214
v 2.81543 1.920002 -0.9359214
v -2.815427 1.920002 -0.9359214
v 2.81543 2.304001 -0.9359214
v -2.815427 2.304001 -0.9359214
v -2.815427 -0.767998 0.6000746
v 2.81543 -0.767998 0.6000746
v 2.81543 -1.152002 0.6000746
v -2.815427 -1.152002 0.6000746
v -2.815427 -1.152002 0.7920669
v 2.81543 -1.152002 0.7920669
v 2.81543 -1.536001 0.7920669
v -2.815427 -1.536001 0.7920669
v -2.815427 -2.303999 1.176071
v 2.81543 -2.303999 1.176071
v -2.815427 -2.303999 0.9359409
v 2.81543 -2.303999 0.9359409
v 2.81543 -1.92 0.9840786
v -2.815427 -1.92 1.176071
v -2.815427 -1.92 0.9840786
v 2.81543 -1.92 1.176071
v 2.81543 -1.92 0.9840786
v -2.815427 -1.92 0.9840786
v 2.81543 -1.536001 0.9840786
v -2.815427 -1.536001 0.9840786
v -2.815427 -1.536001 0.7920669
v 2.81543 -1.536001 0.7920669
v -2.815427 -1.536001 0.9840786
v 2.81543 -1.536001 0.9840786
v 2.81543 -2.303999 1.176071
v -2.815427 -2.303999 1.176071
v 2.81543 -1.92 1.176071
v -2.815427 -1.92 1.176071
v -2.815427 -1.152002 0.6000746
v 2.81543 -1.152002 0.6000746
v -2.815427 -1.152002 0.7920669
v 2.81543 -1.152002 0.7920669
v 2.81543 -0.383999 0.408063
v -2.815427 -0.383999 0.408063
v -2.815427 -0.383999 0.2160708
v 2.81543 -0.383999 0.2160708
v 2.81543 2.441406E-06 0.2160708
v -2.815427 2.441406E-06 0.2160708
v -2.815427 2.441406E-06 0.02405907
v 2.81543 2.441406E-06 0.02405907
v -2.815427 0.7680005 -0.1679331
v 2.81543 0.7680005 -0.1679331
v 2.81543 0.3840015 -0.1679331
v -2.815427 0.3840015 -0.1679331
v -2.815427 0.3840015 -0.1679331
v 2.81543 0.3840015 -0.1679331
v -2.815427 0.3840015 0.02405907
v 2.81543 0.3840015 0.02405907
v 2.81543 2.441406E-06 0.02405907
v -2.815427 2.441406E-06 0.02405907
v 2.81543 0.3840015 0.02405907
v -2.815427 0.3840015 0.02405907
v 2.81543 -0.383999 0.2160708
v -2.815427 -0.383999 0.2160708
v 2.81543 2.441406E-06 0.2160708
v -2.815427 2.441406E-06 0.2160708
v 2.81543 -0.767998 0.6000746
v -2.815427 -0.767998 0.6000746
v -2.815427 -0.767998 0.408063
v 2.81543 -0.767998 0.408063
v 2.81543 -0.767998 0.408063
v -2.815427 -0.767998 0.408063
v 2.81543 -0.383999 0.408063
v -2.815427 -0.383999 0.408063
vt 0.4886437 0.4907891
vt 0.03137821 0.4752929
vt 0.4885789 0.4752946
vt 0.03142863 0.4907869
vt 0.01137644 0.4979946
vt 0.4687204 0.4979811
vt 0.4689625 0.46698
vt 0.01156768 0.4669968
vt 0.02924149 0.4982503
vt 0.4865854 0.4982369
vt 0.4868275 0.4672357
vt 0.02943273 0.4672525
vt 0.4796202 0.4672525
vt 0.02227633 0.4672393
vt 0.479861 0.4982539
vt 0.02246755 0.4982371
vt 0.03564245 0.4761065
vt 0.492857 0.4761043
vt 0.03559202 0.4916005
vt 0.4927928 0.4915988
vt 0.03564245 0.4761065
vt 0.492857 0.4761043
vt 0.03559202 0.4916005
vt 0.4927928 0.4915988
vt 0.4928575 0.491601
vt 0.03564245 0.4915988
vt 0.03559202 0.4761047
vt 0.4927928 0.4761065
vt 0.03565529 0.4722221
vt 0.4918765 0.4722533
vt 0.03559202 0.4916005
vt 0.4927928 0.4915988
vt 0.4946445 0.4669968
vt 0.03730061 0.4669836
vt 0.4948852 0.4979981
vt 0.03749184 0.4979814
vt 0.005531013 0.49706
vt 0.4628749 0.4970465
vt 0.463117 0.4660453
vt 0.00572225 0.4660622
vt 0.0283704 0.49706
vt 0.4857143 0.4970465
vt 0.4859565 0.4660453
vt 0.02856163 0.4660622
vt 0.03564245 0.4930226
vt 0.492857 0.4930249
vt 0.03657245 0.4736772
vt 0.4927771 0.4736454
vt 0.492857 0.4775281
vt 0.03559202 0.4930244
vt 0.03564245 0.4775303
vt 0.4927928 0.4930226
vt 0.4782067 0.4666398
vt 0.02086288 0.4666265
vt 0.4784476 0.4976411
vt 0.02105412 0.4976243
vt 0.03564245 0.4775303
vt 0.492857 0.4775281
vt 0.03559202 0.4930244
vt 0.4927928 0.4930226
vt 0.4876628 0.4666398
vt 0.03031887 0.4666265
vt 0.4879035 0.4976411
vt 0.03051011 0.4976243
vt 0.03564245 0.4775303
vt 0.492857 0.4775281
vt 0.03559202 0.4930244
vt 0.4927928 0.4930226
vt 0.4886437 0.4907891
vt 0.03142863 0.4907869
vt 0.03137821 0.4752929
vt 0.4885789 0.4752946
vt 0.4886437 0.4907891
vt 0.03142863 0.4907869
vt 0.03137821 0.4752929
vt 0.4885789 0.4752946
vt 0.01408743 0.4983232
vt 0.4714313 0.4983097
vt 0.4716734 0.4673086
vt 0.01427866 0.4673254
vt 0.03142863 0.4752946
vt 0.4886432 0.4752923
vt 0.03137821 0.4907887
vt 0.4885789 0.4907869
vt 0.4597948 0.4673254
vt 0.002450878 0.4673122
vt 0.4600355 0.4983267
vt 0.002642102 0.4983099
vt 0.4911591 0.467222
vt 0.03381509 0.4672087
vt 0.4913997 0.4982233
vt 0.03400633 0.4982065
vt 0.4928575 0.4930249
vt 0.03564245 0.4930226
vt 0.03559202 0.4775285
vt 0.4927928 0.4775303
vt 0.4714313 0.467222
vt 0.01408743 0.4672087
vt 0.4716721 0.4982233
vt 0.01427866 0.4982065
vn 0 1 0
vn 0 1 0
vn 0 1 0
vn 0 1 0
vn 0 0 1
vn 0 0 1
vn 0 0 1
vn 0 0 1
vn 0 0 1
vn 0 0 1
vn 0 0 1
vn 0 0 1
vn 0 0 1
vn 0 0 1
vn 0 0 1
vn 0 0 1
vn 0 1 1.271747E-05
vn 0 1 1.271747E-05
vn 0 1 1.271747E-05
vn 0 1 1.271747E-05
vn 0 1 0
vn 0 1 0
vn 0 1 0
vn 0 1 0
vn 0 1 0
vn 0 1 0
vn 0 1 0
vn 0 1 0
vn 0 1 0
vn 0 1 0
vn 0 1 0
vn 0 1 0
vn 0 0 1
vn 0 0 1
vn 0 0 1
vn 0 0 1
vn 0 0 1
vn 0 0 1
vn 0 0 1
vn 0 0 1
vn 0 0 1
vn 0 0 1
vn 0 0 1
vn 0 0 1
vn 0 -1 0
vn 0 -1 0
vn 0 -1 0
vn 0 -1 0
vn 0 1 0
vn 0 1 0
vn 0 1 0
vn 0 1 0
vn 0 0 1
vn 0 0 1
vn 0 0 1
vn 0 0 1
vn 0 1 0
vn 0 1 0
vn 0 1 0
vn 0 1 0
vn 0 0 1
vn 0 0 1
vn 0 0 1
vn 0 0 1
vn 0 1 0
vn 0 1 0
vn 0 1 0
vn 0 1 0
vn 0 1 0
vn 0 1 0
vn 0 1 0
vn 0 1 0
vn 0 1 0
vn 0 1 0
vn 0 1 0
vn 0 1 0
vn 0 0 1
vn 0 0 1
vn 0 0 1
vn 0 0 1
vn 0 1 0
vn 0 1 0
vn 0 1 0
vn 0 1 0
vn 0 0 1
vn 0 0 1
vn 0 0 1
vn 0 0 1
vn 0 0 1
vn 0 0 1
vn 0 0 1
vn 0 0 1
vn 0 1 0
vn 0 1 0
vn 0 1 0
vn 0 1 0
vn 0 0 1
vn 0 0 1
vn 0 0 1
vn 0 0 1
g taijie6_scene97_0
f 3/3/3 2/2/2 1/1/1
f 4/4/4 1/1/1 2/2/2
f 7/7/7 6/6/6 5/5/5
f 5/5/5 8/8/8 7/7/7
f 11/11/11 10/10/10 9/9/9
f 9/9/9 12/12/12 11/11/11
f 15/15/15 14/14/14 13/13/13
f 16/16/16 14/14/14 15/15/15
f 19/19/19 18/18/18 17/17/17
f 20/20/20 18/18/18 19/19/19
f 23/23/23 22/22/22 21/21/21
f 24/24/24 22/22/22 23/23/23
f 27/27/27 26/26/26 25/25/25
f 25/25/25 28/28/28 27/27/27
f 31/31/31 30/30/30 29/29/29
f 32/32/32 30/30/30 31/31/31
f 35/35/35 34/34/34 33/33/33
f 36/36/36 34/34/34 35/35/35
f 39/39/39 38/38/38 37/37/37
f 37/37/37 40/40/40 39/39/39
f 43/43/43 42/42/42 41/41/41
f 41/41/41 44/44/44 43/43/43
f 47/47/47 46/46/46 45/45/45
f 48/48/48 46/46/46 47/47/47
f 51/51/51 50/50/50 49/49/49
f 52/52/52 49/49/49 50/50/50
f 55/55/55 54/54/54 53/53/53
f 56/56/56 54/54/54 55/55/55
f 59/59/59 58/58/58 57/57/57
f 60/60/60 58/58/58 59/59/59
f 63/63/63 62/62/62 61/61/61
f 64/64/64 62/62/62 63/63/63
f 67/67/67 66/66/66 65/65/65
f 68/68/68 66/66/66 67/67/67
f 71/71/71 70/70/70 69/69/69
f 69/69/69 72/72/72 71/71/71
f 75/75/75 74/74/74 73/73/73
f 73/73/73 76/76/76 75/75/75
f 79/79/79 78/78/78 77/77/77
f 77/77/77 80/80/80 79/79/79
f 83/83/83 82/82/82 81/81/81
f 84/84/84 82/82/82 83/83/83
f 87/87/87 86/86/86 85/85/85
f 88/88/88 86/86/86 87/87/87
f 91/91/91 90/90/90 89/89/89
f 92/92/92 90/90/90 91/91/91
f 95/95/95 94/94/94 93/93/93
f 93/93/93 96/96/96 95/95/95
f 99/99/99 98/98/98 97/97/97
f 100/100/100 98/98/98 99/99/99
