g taijie5_scene97
v 3.457869 -1.92684 0.6720117
v -3.888 0.9480835 0.6720117
v -3.888 1.343772 0.6720117
v 3.792 -1.254679 0.2880078
v -3.888 1.749058 0.2880078
v -3.888 2.164573 0.2880078
v -3.888 1.744236 0.2880078
v 3.888001 -0.8705688 0.09599609
v -3.829585 2.565538 -0.8640039
v 3.888001 -0.870542 -0.8640039
v -3.829595 2.565437 0.09599609
v -3.888 2.164573 -0.6719922
v 3.792 -1.254747 -0.6719922
v -3.888 2.164573 0.2880078
v 3.792 -1.254679 0.2880078
v 3.731915 -1.221539 0.09599609
v -3.888 2.171185 -0.8640039
v -3.888 2.171185 0.09599609
v 3.731915 -1.221539 -0.8640039
v 3.601797 -1.585576 0.2880078
v -3.888 1.744236 -0.48
v -3.888 1.744236 0.2880078
v 3.635815 -1.605538 -0.6719922
v -3.888 1.744236 -0.6719922
v 3.635788 -1.605538 0.2880078
v -3.888 1.343776 0.48
v 3.457869 -1.92684 0.6720117
v -3.888 1.343772 0.6720117
v -3.888 1.343776 0.2880078
v 3.45782 -1.926752 -0.2879883
v -3.888 1.343772 -0.2879883
v -3.888 0.923413 0.6720117
v 3.301722 -2.277539 0.6720117
v -3.888 0.923413 -0.2879883
v 3.301727 -2.277539 -0.2879883
v 3.059832 -2.56554 -0.09599609
v 1.769598 -1.991107 0.8640039
v 3.059783 -2.56554 0.8640039
v -0.07365295 -1.170444 0.8640039
v -3.552001 0.3800598 -0.09599609
v -3.888 0.5277966 0.8640039
v -3.888 0.5278369 -0.09599609
v -3.888 0.9481592 0.8640039
v -0.07365295 -1.170444 0.8640039
v -3.888 0.5277966 0.8640039
v 3.215999 -2.214676 0.8640039
v 1.769598 -1.991107 0.8640039
v 3.059783 -2.56554 0.8640039
v -3.888 0.923413 0.6720117
v 3.457869 -1.92684 0.6720117
v 3.301722 -2.277539 0.6720117
v -3.888 0.9480835 0.6720117
v -3.888 1.343776 0.48
v 3.601802 -1.585591 0.48
v 3.451233 -1.923821 0.48
v -3.888 1.749045 0.48
v 3.792 -1.254679 0.2880078
v 3.635788 -1.605538 0.2880078
v 3.601797 -1.585576 0.2880078
v -3.888 1.744236 0.2880078
v 3.731915 -1.221539 0.09599609
v -3.888 2.171185 0.09599609
v 3.888001 -0.8705688 0.09599609
v -3.829595 2.565437 0.09599609
v -3.888 2.434208 0.09599609
v 3.215999 -2.214676 0.8640039
v -3.888 0.9481592 0.8640039
v -3.888 0.9480835 0.6720117
v 3.215999 -2.214745 0.6720117
v 3.601797 -1.585576 0.2880078
v -3.888 1.749045 0.48
v -3.888 1.744236 0.2880078
v 3.601802 -1.585591 0.48
v -0.07365295 -1.170444 0.8640039
v 1.609836 -2.330759 0.8640039
v -0.2356268 -1.50912 0.8640039
v 1.769598 -1.991107 0.8640039
vt 0.4948191 0.4985369
vt 0.01271035 0.4694889
vt 0.002796454 0.4985369
vt 0.4973937 0.4988566
vt 0.0110105 0.4678721
vt 0.001091541 0.4988566
vt 0.01118762 0.4678721
vt 0.001132121 0.4988766
vt 0.4772783 0.4384394
vt 0.001132121 0.4384394
vt 0.4772783 0.4988766
vt 0.4979622 0.4384948
vt 0.001209085 0.4384948
vt 0.4979622 0.498826
vt 0.001209085 0.498826
vt 0.4989212 0.4988766
vt 0.02886221 0.4384394
vt 0.02886221 0.4988766
vt 0.4989212 0.4384394
vt 0.4956572 0.4982115
vt 0.001167424 0.4504054
vt 0.001167424 0.4982115
vt 0.4980103 0.4384538
vt 0.001167424 0.4384538
vt 0.4980103 0.4982115
vt 0.4982336 0.4860401
vt 0.001184706 0.4979116
vt 0.4982336 0.4979116
vt 0.4982336 0.4741686
vt 0.001184706 0.438554
vt 0.4982336 0.438554
vt 0.001172397 0.4982115
vt 0.4980492 0.4982115
vt 0.001172397 0.4385121
vt 0.4980492 0.4385121
vt 0.4978264 0.438466
vt 0.4055565 0.4982115
vt 0.4978264 0.4982115
vt 0.2738612 0.4982115
vt 0.02511486 0.438466
vt 0.001214824 0.4982115
vt 0.001214824 0.438466
vt 0.02727511 0.4988368
vt 0.2899882 0.4678522
vt 0.03761315 0.4678522
vt 0.4973838 0.4988368
vt 0.4119589 0.4678522
vt 0.4973838 0.4678522
vt 0.01326112 0.4675523
vt 0.4948191 0.4985369
vt 0.4948191 0.4675523
vt 0.01271035 0.4694889
vt 0.01167738 0.4688205
vt 0.4973838 0.4988368
vt 0.4973838 0.4688205
vt 0.001702087 0.4988368
vt 0.4973937 0.4988566
vt 0.4973937 0.4678721
vt 0.4950911 0.4678721
vt 0.01118762 0.4678721
vt 0.4965258 0.4678721
vt 0.008541714 0.4678721
vt 0.4965258 0.4988566
vt 0.002222504 0.4988566
vt 0.002222504 0.4872374
vt 0.00144498 0.4979116
vt 0.497474 0.4979116
vt 0.497474 0.4824194
vt 0.00144498 0.4824194
vt 0.004180224 0.4824194
vt 0.4975933 0.4979116
vt 0.4974127 0.4824194
vt 0.004180224 0.4979116
vt 0.1294448 0.4854143
vt 0.2926296 0.4777892
vt 0.1286532 0.4777892
vt 0.2932689 0.4854143
vn 0 0 1
vn 0 0 1
vn 0 0 1
vn 0 0 1
vn 0 0 1
vn 0 0 1
vn 0 0 1
vn 0.406735 0.9135462 3.097704E-05
vn 0.4067283 0.9135492 9.539083E-05
vn 0.4067356 0.9135459 2.555594E-05
vn 0.4067278 0.9135494 0.000100812
vn 0.4067331 0.913547 0
vn 0.4067268 0.9135499 -6.034298E-05
vn 0.4067326 0.9135473 -4.708678E-06
vn 0.4067262 0.9135501 -6.505178E-05
vn -0.4067487 -0.9135401 0
vn -0.4067487 -0.9135401 0
vn -0.4067486 -0.9135401 0
vn -0.4067486 -0.9135401 0
vn -0.4559283 -0.8900137 0.002213942
vn -0.4064979 -0.9136517 0.0001704807
vn -0.4062417 -0.9137657 0
vn -0.4093039 -0.9123874 0.004400442
vn -0.4067322 -0.9135474 0
vn -0.5064123 -0.8622915 -1.416661E-05
vn 0.4067388 0.9135444 8.579279E-06
vn 0.4067364 0.9135455 6.130219E-05
vn 0.4067388 0.9135445 1.742342E-05
vn 0.4067355 0.9135459 -3.828297E-07
vn 0.4067361 0.9135457 5.981987E-05
vn 0.4067318 0.9135476 -5.808219E-06
vn -0.4067241 -0.913551 0
vn -0.4067238 -0.9135511 -1.90828E-06
vn -0.4067241 -0.913551 -1.598094E-07
vn -0.4067239 -0.9135511 -2.068089E-06
vn -0.4067744 -0.9135286 -0.0001618493
vn -0.4067355 -0.913546 -1.422198E-05
vn -0.4067394 -0.9135442 -2.068784E-05
vn -0.4069113 -0.9134672 -0.0008433282
vn -0.4051632 -0.9142438 -0.001031706
vn -0.4057718 -0.9139734 -0.001366142
vn -0.4025959 -0.9153778 -3.841078E-05
vn 0 0 1
vn 0 0 1
vn 0 0 1
vn 0 0 1
vn 0 0 1
vn 0 0 1
vn 0 0 1
vn 0 0 1
vn 0 0 1
vn 0 0 1
vn 0 0 1
vn 0 0 1
vn 0 0 1
vn 0 0 1
vn 0 0 1
vn 0 0 1
vn 0 0 1
vn 0 0 1
vn 0 0 1
vn 0 0 1
vn 0 0 1
vn 0 0 1
vn 0 0 1
vn 0.4067285 0.913549 -0.0003260239
vn 0.4067293 0.9135487 -0.0003600176
vn 0.4067293 0.9135487 -0.0003594749
vn 0.4067284 0.913549 -0.0003254811
vn 0.4067254 0.9135505 -0.0002825283
vn 0.4061458 0.9135302 -0.02254096
vn 0.4061352 0.9135263 -0.02288509
vn 0.4067328 0.9135472 5.955913E-05
vn 0 0 1
vn 0 0 1
vn 0 0 1
vn 0 0 1
g taijie5_scene97_0
f 3/3/3 2/2/2 1/1/1
f 6/6/6 5/5/5 4/4/4
f 5/5/5 7/7/7 4/4/4
f 10/10/10 9/9/9 8/8/8
f 11/11/11 8/8/8 9/9/9
f 14/14/14 13/13/13 12/12/12
f 15/15/15 13/13/13 14/14/14
f 18/18/18 17/17/17 16/16/16
f 19/19/19 16/16/16 17/17/17
f 22/22/22 21/21/21 20/20/20
f 23/23/23 20/20/20 21/21/21
f 24/24/24 23/23/23 21/21/21
f 25/25/25 20/20/20 23/23/23
f 28/28/28 27/27/27 26/26/26
f 26/26/26 27/27/27 29/29/29
f 30/30/30 29/29/29 27/27/27
f 29/29/29 30/30/30 31/31/31
f 34/34/34 33/33/33 32/32/32
f 35/35/35 33/33/33 34/34/34
f 38/38/38 37/37/37 36/36/36
f 37/37/37 39/39/39 36/36/36
f 40/40/40 36/36/36 39/39/39
f 39/39/39 41/41/41 40/40/40
f 42/42/42 40/40/40 41/41/41
f 45/45/45 44/44/44 43/43/43
f 44/44/44 46/46/46 43/43/43
f 47/47/47 46/46/46 44/44/44
f 46/46/46 47/47/47 48/48/48
f 51/51/51 50/50/50 49/49/49
f 52/52/52 49/49/49 50/50/50
f 55/55/55 54/54/54 53/53/53
f 56/56/56 53/53/53 54/54/54
f 59/59/59 58/58/58 57/57/57
f 59/59/59 57/57/57 60/60/60
f 63/63/63 62/62/62 61/61/61
f 62/62/62 63/63/63 64/64/64
f 65/65/65 62/62/62 64/64/64
f 68/68/68 67/67/67 66/66/66
f 66/66/66 69/69/69 68/68/68
f 72/72/72 71/71/71 70/70/70
f 73/73/73 70/70/70 71/71/71
f 76/76/76 75/75/75 74/74/74
f 77/77/77 74/74/74 75/75/75
