g taijie7_scene97
v -1.151997 2.304001 0.5760059
v -1.151997 1.920002 -0.5760059
v -1.151997 2.304001 -0.5760059
v -1.151999 1.920002 0.5760059
v -1.151997 -1.919998 -0.5760059
v -1.151997 -1.919998 0.5760059
v -1.151997 -2.304001 0.5760059
v -1.151997 -2.304001 -0.5760059
v -0.767998 2.304001 0.3840137
v -0.767998 2.304001 -0.5760059
v -0.767998 2.495998 0.3840137
v -0.767998 2.495998 -0.5760059
v -0.767998 -2.304001 -0.5760059
v -0.767998 -2.304001 0.3840137
v -0.767998 -2.495998 0.3840137
v -0.767998 -2.495998 -0.5760059
v 1.152002 3.263999 -0.3839941
v 1.152002 -3.263999 -0.5760059
v 1.152002 -3.263999 -0.3839941
v 1.152002 3.263999 -0.5760059
v -0.767998 -2.304001 0.5760059
v -1.151997 -2.304001 0.5760059
v -1.151997 -1.919998 0.5760059
v -0.767998 2.304001 0.5760059
v -1.151999 1.920002 0.5760059
v -1.151997 2.304001 0.5760059
v 4.882812E-06 2.688 9.765625E-06
v 2.441406E-06 -2.688 9.765625E-06
v 4.882812E-06 -2.688 0.192002
v 2.441406E-06 2.688 0.192002
v 2.441406E-06 2.88 9.765625E-06
v 4.882812E-06 2.688 9.765625E-06
v 2.441406E-06 2.688 -0.5760059
v 2.441406E-06 2.88 -0.5760059
v 4.882812E-06 -2.688 -0.5760059
v 2.441406E-06 -2.688 9.765625E-06
v 4.882812E-06 -2.879997 9.765625E-06
v 2.441406E-06 -2.879997 -0.5760059
v 2.441406E-06 2.688 0.192002
v -0.383999 2.495998 0.192002
v -0.383999 2.688 0.192002
v 4.882812E-06 -2.688 0.192002
v -0.383999 -2.495998 0.192002
v -0.383999 -2.688 0.192002
v 0.3840015 2.88 9.765625E-06
v 4.882812E-06 2.688 9.765625E-06
v 2.441406E-06 2.88 9.765625E-06
v 0.3840015 -2.879997 9.765625E-06
v 2.441406E-06 -2.688 9.765625E-06
v 4.882812E-06 -2.879997 9.765625E-06
v -0.383999 2.495998 0.192002
v -0.383999 -2.495998 0.192002
v -0.383999 -2.495998 0.3840137
v -0.383999 2.495998 0.3840137
v -0.383999 -2.495998 0.192002
v -0.767998 -2.495998 0.3840137
v -0.383999 -2.495998 0.3840137
v -0.767998 -2.495998 -0.5760059
v -0.383999 -2.495998 -0.5760059
v 0.7680029 -3.263999 -0.3839941
v 1.152002 -3.263999 -0.3839941
v 0.7680029 -3.263999 -0.5760059
v 1.152002 -3.263999 -0.5760059
v -0.767998 -2.304001 0.3840137
v -1.151997 -2.304001 0.5760059
v -0.767998 -2.304001 0.5760059
v -1.151997 -2.304001 -0.5760059
v -0.767998 -2.304001 -0.5760059
v -0.383999 2.495998 0.3840137
v -0.767998 2.304001 0.3840137
v -0.767998 2.495998 0.3840137
v -0.383999 -2.495998 0.3840137
v -0.767998 -2.304001 0.3840137
v -0.767998 -2.495998 0.3840137
v 0.7680029 3.072002 -0.3839941
v 0.7680029 -3.072 -0.3839941
v 0.7680029 -3.072 -0.192002
v 0.7680029 3.072002 -0.192002
v 0.7680029 -3.263999 -0.3839941
v 0.7680029 -3.263999 -0.5760059
v 0.7680029 -3.072 -0.5760059
v 0.7680029 -3.072 -0.3839941
v 0.7680029 3.263999 -0.3839941
v 0.7680029 3.072002 -0.3839941
v 0.7680029 3.072002 -0.5760059
v 0.7680029 3.263999 -0.5760059
v -0.767998 2.304001 0.3840137
v -0.767998 -2.304001 0.3840137
v -0.767998 -2.304001 0.5760059
v -0.767998 2.304001 0.5760059
v 0.7680029 3.072002 -0.192002
v 0.3840015 2.88 -0.192002
v 0.3840015 3.072002 -0.192002
v 0.3840015 -2.879997 -0.192002
v 0.7680029 -3.072 -0.192002
v 0.3840015 -3.072 -0.192002
v 1.152002 3.263999 -0.3839941
v 0.7680029 3.072002 -0.3839941
v 0.7680029 3.263999 -0.3839941
v 1.152002 -3.263999 -0.3839941
v 0.7680029 -3.072 -0.3839941
v 0.7680029 -3.263999 -0.3839941
v 0.3840015 -2.879997 -0.192002
v 4.882812E-06 -2.879997 9.765625E-06
v 0.3840015 -2.879997 9.765625E-06
v 2.441406E-06 -2.879997 -0.5760059
v 0.3840015 -2.879997 -0.5760059
v 0.7680029 -3.072 -0.3839941
v 0.3840015 -3.072 -0.192002
v 0.7680029 -3.072 -0.192002
v 0.3840015 -3.072 -0.5760059
v 0.7680029 -3.072 -0.5760059
v 2.441406E-06 -2.688 9.765625E-06
v -0.383999 -2.688 0.192002
v 4.882812E-06 -2.688 0.192002
v -0.383999 -2.688 -0.5760059
v 4.882812E-06 -2.688 -0.5760059
v 0.3840015 2.88 -0.192002
v 0.3840015 -2.879997 -0.192002
v 0.3840015 -2.879997 9.765625E-06
v 0.3840015 2.88 9.765625E-06
v 0.3840015 3.072002 -0.192002
v 0.3840015 2.88 -0.192002
v 0.3840015 2.88 -0.5760059
v 0.3840015 3.072002 -0.5760059
v 0.3840015 -2.879997 -0.5760059
v 0.3840015 -2.879997 -0.192002
v 0.3840015 -3.072 -0.192002
v 0.3840015 -3.072 -0.5760059
v -0.383999 2.495998 0.192002
v -0.383999 2.495998 -0.5760059
v -0.383999 2.688 0.192002
v -0.383999 2.688 -0.5760059
v -0.383999 -2.495998 -0.5760059
v -0.383999 -2.495998 0.192002
v -0.383999 -2.688 0.192002
v -0.383999 -2.688 -0.5760059
v -1.151999 1.920002 0.5760059
v -1.151997 -1.919998 0.5760059
v -1.152002 -1.919998 0.7680176
v -1.152002 1.920002 0.7680176
v -1.152002 1.920002 0.7680176
v -1.152002 -1.919998 0.7680176
v -1.488003 -1.919998 0.7680176
v -1.488003 1.920002 0.7680176
vt 0.1699264 0.4819507
vt 0.2011021 0.4587122
vt 0.1699264 0.4587122
vt 0.2011021 0.4819507
vt 0.1660963 0.4587122
vt 0.1660963 0.4819507
vt 0.1972719 0.4819507
vt 0.1972719 0.4587122
vt 0.1699264 0.4819507
vt 0.1699264 0.4625854
vt 0.1543387 0.4819507
vt 0.1543387 0.4625854
vt 0.1972719 0.4625854
vt 0.1972719 0.4819507
vt 0.2128597 0.4819507
vt 0.2128597 0.4625854
vt 0.003177453 0.4861027
vt 0.4967018 0.4706104
vt 0.4967018 0.4861027
vt 0.003177453 0.4706104
vt 0.477728 0.4955572
vt 0.477728 0.4645726
vt 0.4465525 0.4645726
vt 0.1036206 0.4955572
vt 0.1347962 0.4645726
vt 0.1036206 0.4645726
vt 0.05363003 0.4714656
vt 0.4900886 0.4714656
vt 0.4900886 0.4869579
vt 0.05363003 0.4869579
vt 0.123163 0.4819507
vt 0.1387509 0.4819507
vt 0.1387509 0.4703315
vt 0.123163 0.4703315
vt 0.2284475 0.4703315
vt 0.2284475 0.4819507
vt 0.2440353 0.4819507
vt 0.2440353 0.4703315
vt 0.03742306 0.4967491
vt 0.05301088 0.4657646
vt 0.03742306 0.4657646
vt 0.4738818 0.4967491
vt 0.4582939 0.4657646
vt 0.4738818 0.4657646
vt 0.01655798 0.4967491
vt 0.0321458 0.4657646
vt 0.01655798 0.4657646
vt 0.4841922 0.4967491
vt 0.4686044 0.4657646
vt 0.4841922 0.4657646
vt 0.09272568 0.4714656
vt 0.4980086 0.4714656
vt 0.4980086 0.4869579
vt 0.09272568 0.4869579
vt 0.4826023 0.4889752
vt 0.4514267 0.4980365
vt 0.4826023 0.4980365
vt 0.4514267 0.453593
vt 0.4826023 0.453593
vt 0.4514267 0.4648117
vt 0.4826023 0.4648117
vt 0.4514267 0.4570449
vt 0.4826023 0.4570449
vt 0.2331972 0.4878697
vt 0.2020216 0.4975524
vt 0.2331972 0.4975524
vt 0.2020216 0.4404246
vt 0.2331972 0.4404246
vt 0.04101708 0.4955572
vt 0.05660489 0.4645726
vt 0.04101708 0.4645726
vt 0.4463 0.4955572
vt 0.4307122 0.4645726
vt 0.4463 0.4645726
vt 0.005332188 0.4706104
vt 0.498137 0.4706104
vt 0.498137 0.4861027
vt 0.005332188 0.4861027
vt 0.2752109 0.4819507
vt 0.2752109 0.4780776
vt 0.2596231 0.4780776
vt 0.2596231 0.4819507
vt 0.09198742 0.4819507
vt 0.1075752 0.4819507
vt 0.1075752 0.4780776
vt 0.09198742 0.4780776
vt 0.1083135 0.4714656
vt 0.4824208 0.4714656
vt 0.4824208 0.4869579
vt 0.1083135 0.4869579
vt 0.005287955 0.4985411
vt 0.02065087 0.4675565
vt 0.005287955 0.4675565
vt 0.4815386 0.4675565
vt 0.4969015 0.4985411
vt 0.4969015 0.4675565
vt 0.002653447 0.4985411
vt 0.01715475 0.4675565
vt 0.002653447 0.4675565
vt 0.495698 0.4985411
vt 0.4811967 0.4675565
vt 0.495698 0.4675565
vt 0.4826023 0.4889752
vt 0.4514267 0.4980365
vt 0.4826023 0.4980365
vt 0.4514267 0.4708526
vt 0.4826023 0.4708526
vt 0.4826023 0.4479836
vt 0.4514267 0.4557504
vt 0.4826023 0.4557504
vt 0.4514267 0.4406483
vt 0.4826023 0.4406483
vt 0.4826023 0.4889752
vt 0.4514267 0.4980365
vt 0.4826023 0.4980365
vt 0.4514267 0.4613599
vt 0.4826023 0.4613599
vt 0.03917662 0.4714656
vt 0.4953669 0.4714656
vt 0.4953669 0.4869579
vt 0.03917662 0.4869579
vt 0.1075752 0.4819507
vt 0.123163 0.4819507
vt 0.123163 0.4742045
vt 0.1075752 0.4742045
vt 0.2440353 0.4742045
vt 0.2440353 0.4819507
vt 0.2596231 0.4819507
vt 0.2596231 0.4742045
vt 0.1543387 0.4819507
vt 0.1543387 0.4664584
vt 0.1387509 0.4819507
vt 0.1387509 0.4664584
vt 0.2128597 0.4664584
vt 0.2128597 0.4819507
vt 0.2284475 0.4819507
vt 0.2284475 0.4664584
vt 0.1498012 0.4776351
vt 0.4615573 0.4776351
vt 0.4615573 0.4931273
vt 0.1498012 0.4931273
vt 0.1784536 0.4940199
vt 0.4902098 0.4940199
vt 0.4902098 0.4669084
vt 0.1784536 0.4669084
vn -1 5.055566E-06 -1.685167E-06
vn -1 1.302279E-06 -4.340874E-07
vn -1 0 0
vn -1 6.357845E-06 -2.119255E-06
vn -1 0 0
vn -1 0 0
vn -1 0 0
vn -1 0 0
vn -1 0 0
vn -1 0 0
vn -1 0 0
vn -1 0 0
vn -1 0 0
vn -1 0 0
vn -1 0 0
vn -1 0 0
vn 1 0 0
vn 1 0 0
vn 1 0 0
vn 1 0 0
vn 0 0 1
vn 0 0 1
vn 0 0 1
vn 0 0 1
vn 0 0 1
vn 0 0 1
vn 1 4.334883E-07 1.213817E-05
vn 1 -4.541305E-07 -1.271617E-05
vn 1 -4.334883E-07 -1.213817E-05
vn 1 4.541305E-07 1.271617E-05
vn -1 -1.011117E-05 3.370291E-06
vn -1 -1.271569E-05 4.238438E-06
vn -1 -2.604516E-06 8.681464E-07
vn -1 0 0
vn -1 7.506811E-06 2.502164E-06
vn -1 -1.271585E-05 -4.238438E-06
vn -1 -7.506811E-06 -2.502164E-06
vn -1 1.271585E-05 4.238438E-06
vn 0 0 1
vn 0 0 1
vn 0 0 1
vn 0 0 1
vn 0 0 1
vn 0 0 1
vn 0 0 1
vn 0 0 1
vn 0 0 1
vn 0 0 1
vn 0 0 1
vn 0 0 1
vn 1 0 0
vn 1 0 0
vn 1 0 0
vn 1 0 0
vn 0 -1 0
vn 0 -1 0
vn 0 -1 0
vn 0 -1 0
vn 0 -1 0
vn 0 -1 0
vn 0 -1 0
vn 0 -1 0
vn 0 -1 0
vn 0 -1 0
vn 0 -1 0
vn 0 -1 0
vn 0 -1 0
vn 0 -1 0
vn 0 0 1
vn 0 0 1
vn 0 0 1
vn 0 0 1
vn 0 0 1
vn 0 0 1
vn 1 0 0
vn 1 0 0
vn 1 0 0
vn 1 0 0
vn -1 0 0
vn -1 0 0
vn -1 0 0
vn -1 0 0
vn -1 0 0
vn -1 0 0
vn -1 0 0
vn -1 0 0
vn 1 0 0
vn 1 0 0
vn 1 0 0
vn 1 0 0
vn 0 0 1
vn 0 0 1
vn 0 0 1
vn 0 0 1
vn 0 0 1
vn 0 0 1
vn 0 0 1
vn 0 0 1
vn 0 0 1
vn 0 0 1
vn 0 0 1
vn 0 0 1
vn 0 -1 0
vn 0 -1 0
vn 0 -1 0
vn 0 -1 0
vn 0 -1 0
vn 0 -1 0
vn 0 -1 0
vn 0 -1 0
vn 0 -1 0
vn 0 -1 0
vn 0 -1 0
vn 0 -1 0
vn 0 -1 0
vn 0 -1 0
vn 0 -1 0
vn 1 0 0
vn 1 0 0
vn 1 0 0
vn 1 0 0
vn -1 0 0
vn -1 0 0
vn -1 0 0
vn -1 0 0
vn -1 0 0
vn -1 0 0
vn -1 0 0
vn -1 0 0
vn -1 0 0
vn -1 0 0
vn -1 0 0
vn -1 0 0
vn -1 0 0
vn -1 0 0
vn -1 0 0
vn -1 0 0
vn 1 0 1.31193E-05
vn 1 6.35783E-07 2.542976E-05
vn 1 6.155609E-07 2.502535E-05
vn 1 0 1.271488E-05
vn 0 0 1
vn 0 0 1
vn 0 0 1
vn 0 0 1
g taijie7_scene97_0
f 3/3/3 2/2/2 1/1/1
f 2/2/2 4/4/4 1/1/1
f 7/7/7 6/6/6 5/5/5
f 5/5/5 8/8/8 7/7/7
f 11/11/11 10/10/10 9/9/9
f 12/12/12 10/10/10 11/11/11
f 15/15/15 14/14/14 13/13/13
f 13/13/13 16/16/16 15/15/15
f 19/19/19 18/18/18 17/17/17
f 20/20/20 17/17/17 18/18/18
f 23/23/23 22/22/22 21/21/21
f 21/21/21 24/24/24 23/23/23
f 25/25/25 23/23/23 24/24/24
f 26/26/26 25/25/25 24/24/24
f 29/29/29 28/28/28 27/27/27
f 30/30/30 29/29/29 27/27/27
f 33/33/33 32/32/32 31/31/31
f 34/34/34 33/33/33 31/31/31
f 37/37/37 36/36/36 35/35/35
f 35/35/35 38/38/38 37/37/37
f 41/41/41 40/40/40 39/39/39
f 42/42/42 39/39/39 40/40/40
f 42/42/42 40/40/40 43/43/43
f 43/43/43 44/44/44 42/42/42
f 47/47/47 46/46/46 45/45/45
f 48/48/48 45/45/45 46/46/46
f 48/48/48 46/46/46 49/49/49
f 49/49/49 50/50/50 48/48/48
f 53/53/53 52/52/52 51/51/51
f 54/54/54 53/53/53 51/51/51
f 57/57/57 56/56/56 55/55/55
f 56/56/56 58/58/58 55/55/55
f 59/59/59 55/55/55 58/58/58
f 62/62/62 61/61/61 60/60/60
f 63/63/63 61/61/61 62/62/62
f 66/66/66 65/65/65 64/64/64
f 65/65/65 67/67/67 64/64/64
f 68/68/68 64/64/64 67/67/67
f 71/71/71 70/70/70 69/69/69
f 72/72/72 69/69/69 70/70/70
f 72/72/72 70/70/70 73/73/73
f 73/73/73 74/74/74 72/72/72
f 77/77/77 76/76/76 75/75/75
f 78/78/78 77/77/77 75/75/75
f 81/81/81 80/80/80 79/79/79
f 81/81/81 79/79/79 82/82/82
f 85/85/85 84/84/84 83/83/83
f 86/86/86 85/85/85 83/83/83
f 89/89/89 88/88/88 87/87/87
f 90/90/90 89/89/89 87/87/87
f 93/93/93 92/92/92 91/91/91
f 92/92/92 94/94/94 91/91/91
f 95/95/95 91/91/91 94/94/94
f 94/94/94 96/96/96 95/95/95
f 99/99/99 98/98/98 97/97/97
f 100/100/100 97/97/97 98/98/98
f 100/100/100 98/98/98 101/101/101
f 101/101/101 102/102/102 100/100/100
f 105/105/105 104/104/104 103/103/103
f 104/104/104 106/106/106 103/103/103
f 107/107/107 103/103/103 106/106/106
f 110/110/110 109/109/109 108/108/108
f 109/109/109 111/111/111 108/108/108
f 112/112/112 108/108/108 111/111/111
f 115/115/115 114/114/114 113/113/113
f 114/114/114 116/116/116 113/113/113
f 117/117/117 113/113/113 116/116/116
f 120/120/120 119/119/119 118/118/118
f 121/121/121 120/120/120 118/118/118
f 124/124/124 123/123/123 122/122/122
f 125/125/125 124/124/124 122/122/122
f 128/128/128 127/127/127 126/126/126
f 126/126/126 129/129/129 128/128/128
f 132/132/132 131/131/131 130/130/130
f 133/133/133 131/131/131 132/132/132
f 136/136/136 135/135/135 134/134/134
f 134/134/134 137/137/137 136/136/136
f 140/140/140 139/139/139 138/138/138
f 141/141/141 140/140/140 138/138/138
f 144/144/144 143/143/143 142/142/142
f 145/145/145 144/144/144 142/142/142
