g taijie2_scene97
v 2.688 -0.1919946 0.1350391
v 2.496001 -0.1919946 -0.519043
v 2.496001 -0.1919946 0.1350391
v 2.688 -0.1919946 -0.519043
v -2.688 -0.1919946 0.1350391
v -2.496 -0.1919946 -0.519043
v -2.687999 -0.1919946 -0.519043
v -2.496 -0.1919946 0.1350391
v 2.496001 -0.5759888 0.3270508
v 2.304 -0.5759888 -0.519043
v 2.304001 -0.5759888 0.3270508
v 2.496001 -0.5759888 -0.519043
v -2.496 -0.5759888 0.3270508
v -2.303999 -0.5759888 -0.519043
v -2.496 -0.5759888 -0.519043
v -2.303999 -0.5759888 0.3270508
v 2.880001 0.1920093 -0.05695312
v 2.688 0.1920093 -0.519043
v 2.688 0.1920093 -0.05695312
v 2.880001 0.1920093 -0.519043
v -2.88 0.1920093 -0.05695312
v -2.688 0.1920093 -0.519043
v -2.88 0.1920093 -0.519043
v -2.687999 0.1920093 -0.05695312
v 3.072 0.5760083 -0.2489648
v 2.880001 0.5760083 -0.519043
v 2.880001 0.5760083 -0.2489648
v 3.072 0.5760083 -0.519043
v -3.072 0.5760083 -0.2489648
v -2.88 0.5760083 -0.519043
v -3.072 0.5760083 -0.519043
v -2.88 0.5760083 -0.2489648
v 1.920001 -0.9599975 -0.440957
v 2.304 -0.9599975 0.519043
v 2.304001 -0.9599975 -0.440957
v 1.920001 -0.9599975 0.519043
v -1.92 -0.9599975 -0.440957
v -1.92 -0.9599975 0.519043
v -2.303999 -0.9599975 0.519043
v -2.303999 -0.9599975 -0.440957
v -2.303999 -0.5759888 0.519043
v -1.92 -0.9599975 0.519043
v -2.303999 -0.9599975 0.519043
v 2.304 -0.5759888 0.519043
v 1.920001 -0.9599975 0.519043
v 2.304 -0.9599975 0.519043
v -2.496 -0.1919946 0.3270508
v -2.303999 -0.5759888 0.3270508
v -2.496 -0.5759888 0.3270508
v 2.496001 -0.1919946 0.3270508
v 2.304001 -0.5759888 0.3270508
v 2.496001 -0.5759888 0.3270508
v 2.304001 -0.9599975 -0.519043
v 2.304001 -0.5759888 0.3270508
v 2.304 -0.5759888 -0.519043
v 2.304 -0.9599975 0.519043
v 2.304 -0.5759888 0.519043
v 2.688 -0.1919946 -0.519043
v 2.688 0.1920093 -0.05695312
v 2.688 0.1920093 -0.519043
v 2.688 -0.1919946 0.1350391
v 2.688 0.1920093 0.1350391
v -2.688 0.1920093 0.1350391
v -2.496 -0.1919946 0.1350391
v -2.688 -0.1919946 0.1350391
v 2.496001 -0.1919946 0.1350391
v 2.688 0.1920093 0.1350391
v 2.688 -0.1919946 0.1350391
v 2.880001 0.1920093 -0.519043
v 2.880001 0.5760083 -0.2489648
v 2.880001 0.5760083 -0.519043
v 2.880001 0.1920093 -0.05695312
v 2.880001 0.5760083 -0.05695312
v -2.88 0.5760083 -0.05695312
v -2.687999 0.1920093 -0.05695312
v -2.88 0.1920093 -0.05695312
v 2.880001 0.5760083 -0.05695312
v 2.688 0.1920093 -0.05695312
v 2.880001 0.1920093 -0.05695312
v -3.072 0.9600024 -0.2489648
v -2.88 0.5760083 -0.2489648
v -3.072 0.5760083 -0.2489648
v 3.072 0.9600024 -0.2489648
v 2.880001 0.5760083 -0.2489648
v 3.072 0.5760083 -0.2489648
v -2.688 0.1920093 0.1350391
v -2.688 -0.1919946 0.1350391
v -2.687999 0.1920093 -0.05695312
v -2.687999 -0.1919946 -0.519043
v -2.688 0.1920093 -0.519043
v 3.072 0.9600024 -0.2489648
v 3.072 0.5760083 -0.519043
v 3.072 0.5760083 -0.2489648
v 3.072 0.9600024 -0.519043
v -2.496 -0.1919946 0.3270508
v -2.496 -0.5759888 0.3270508
v -2.496 -0.1919946 0.1350391
v -2.496 -0.5759888 -0.519043
v -2.496 -0.1919946 -0.519043
v -2.303999 -0.5759888 0.519043
v -2.303999 -0.9599975 0.519043
v -2.303999 -0.5759888 0.3270508
v -2.303999 -0.9599975 -0.519043
v -2.303999 -0.5759888 -0.519043
v -3.072 0.5760083 -0.2489648
v -3.072 0.5760083 -0.519043
v -3.072 0.9600024 -0.519043
v -3.072 0.9600024 -0.2489648
v 2.496001 -0.5759888 -0.519043
v 2.496001 -0.1919946 0.1350391
v 2.496001 -0.1919946 -0.519043
v 2.496001 -0.5759888 0.3270508
v 2.496001 -0.1919946 0.3270508
v 2.496001 -0.1919946 0.3270508
v -2.496 -0.1919946 0.3270508
v -2.496 -0.1919946 0.1350391
v 2.496001 -0.1919946 0.1350391
v 2.304 -0.5759888 0.519043
v -2.303999 -0.5759888 0.519043
v -2.303999 -0.5759888 0.3270508
v 2.304001 -0.5759888 0.3270508
v 2.688 0.1920093 0.1350391
v -2.688 0.1920093 0.1350391
v -2.687999 0.1920093 -0.05695312
v 2.688 0.1920093 -0.05695312
v -2.88 0.5760083 -0.05695312
v -2.88 0.1920093 -0.05695312
v -2.88 0.5760083 -0.2489648
v -2.88 0.1920093 -0.519043
v -2.88 0.5760083 -0.519043
v 2.880001 0.5760083 -0.05695312
v -2.88 0.5760083 -0.05695312
v -2.88 0.5760083 -0.2489648
v 2.880001 0.5760083 -0.2489648
v -3.072 0.9600024 -0.519043
v 3.072 0.9600024 -0.519043
v -3.072 0.9600024 -0.2489648
v 3.072 0.9600024 -0.2489648
vt 0.2772277 0.4938347
vt 0.2616399 0.4822155
vt 0.2616399 0.4938347
vt 0.2772277 0.4822155
vt 0.05450604 0.4760087
vt 0.07009385 0.4643894
vt 0.05450604 0.4643894
vt 0.07009385 0.4760087
vt 0.4534742 0.4870901
vt 0.4378863 0.4715978
vt 0.4378863 0.4870901
vt 0.4534742 0.4715978
vt 0.04819116 0.4870901
vt 0.06377897 0.4715978
vt 0.04819116 0.4715978
vt 0.06377897 0.4870901
vt 0.2928156 0.4938347
vt 0.2772277 0.4860886
vt 0.2772277 0.4938347
vt 0.2928156 0.4860886
vt 0.03891824 0.4760087
vt 0.05450604 0.4682625
vt 0.03891824 0.4682625
vt 0.05450604 0.4760087
vt 0.3084033 0.4938347
vt 0.2928156 0.4899616
vt 0.2928156 0.4938347
vt 0.3084033 0.4899616
vt 0.02333043 0.4760087
vt 0.03891824 0.4721356
vt 0.02333043 0.4721356
vt 0.03891824 0.4760087
vt 0.4067107 0.4677247
vt 0.4378863 0.4870901
vt 0.4378863 0.4677247
vt 0.4067107 0.4870901
vt 0.09495458 0.4677247
vt 0.09495458 0.4870901
vt 0.06377897 0.4870901
vt 0.06377897 0.4677247
vt 0.05569955 0.4943579
vt 0.08672158 0.4633734
vt 0.05569955 0.4633734
vt 0.4279642 0.4943579
vt 0.3969421 0.4633734
vt 0.4279642 0.4633734
vt 0.04018852 0.4950509
vt 0.05569955 0.4640663
vt 0.04018852 0.4640663
vt 0.4434753 0.4950509
vt 0.4279642 0.4640663
vt 0.4434753 0.4640663
vt 0.1443168 0.4481514
vt 0.1754924 0.4883344
vt 0.1754924 0.4481514
vt 0.1443168 0.4985012
vt 0.1754924 0.4985012
vt 0.1443168 0.4718739
vt 0.1754924 0.4888186
vt 0.1754924 0.4718739
vt 0.1443168 0.497533
vt 0.1754924 0.497533
vt 0.0246775 0.4950509
vt 0.04018852 0.4640663
vt 0.0246775 0.4640663
vt 0.4434753 0.4640663
vt 0.4589863 0.4950509
vt 0.4589863 0.4640663
vt 0.07256272 0.4751097
vt 0.1037383 0.4843082
vt 0.1037383 0.4751097
vt 0.07256272 0.4930226
vt 0.1037383 0.4930226
vt 0.01724528 0.4953212
vt 0.03275631 0.4643366
vt 0.01724528 0.4643366
vt 0.4825761 0.4953212
vt 0.4670651 0.4643366
vt 0.4825761 0.4643366
vt 0.001734251 0.4953212
vt 0.01724528 0.4643366
vt 0.001734251 0.4643366
vt 0.4980871 0.4953212
vt 0.4825761 0.4643366
vt 0.4980871 0.4643366
vt 0.1754924 0.497533
vt 0.1443168 0.497533
vt 0.1754924 0.4888186
vt 0.1443168 0.4718739
vt 0.1754924 0.4718739
vt 0.4248973 0.4595653
vt 0.3937218 0.4440729
vt 0.3937218 0.4595653
vt 0.4248973 0.4440729
vt 0.1754924 0.4970488
vt 0.1443168 0.4970488
vt 0.1754924 0.4888186
vt 0.1443168 0.4641277
vt 0.1754924 0.4641277
vt 0.206668 0.4970488
vt 0.1754924 0.4970488
vt 0.206668 0.4883344
vt 0.1754924 0.4544451
vt 0.206668 0.4544451
vt 0.3937218 0.4595653
vt 0.3937218 0.4440729
vt 0.4248973 0.4440729
vt 0.4248973 0.4595653
vt 0.1443168 0.4602547
vt 0.1754924 0.4878503
vt 0.1754924 0.4602547
vt 0.1443168 0.4970488
vt 0.1754924 0.4970488
vt 0.4538689 0.4880801
vt 0.04858586 0.4880801
vt 0.04858586 0.4725878
vt 0.4538689 0.4725878
vt 0.4382811 0.4880801
vt 0.06417366 0.4880801
vt 0.06417366 0.4725878
vt 0.4382811 0.4725878
vt 0.4694567 0.4880801
vt 0.03299804 0.4880801
vt 0.03299804 0.4725878
vt 0.4694567 0.4725878
vt 0.1754924 0.4755531
vt 0.1443168 0.4755531
vt 0.1754924 0.4600608
vt 0.1443168 0.4445685
vt 0.1754924 0.4445685
vt 0.4892028 0.4932746
vt 0.02156845 0.4932746
vt 0.02156845 0.4777823
vt 0.4892028 0.4777823
vt 0.007899664 0.4777823
vt 0.4945027 0.4777823
vt 0.007899664 0.4932746
vt 0.4945027 0.4932746
vn 0 -1 0
vn 0 -1 0
vn 0 -1 0
vn 0 -1 0
vn 0 -1 0
vn 0 -1 0
vn 0 -1 0
vn 0 -1 0
vn 0 -1 0
vn 0 -1 0
vn 0 -1 0
vn 0 -1 0
vn 0 -1 0
vn 0 -1 0
vn 0 -1 0
vn 0 -1 0
vn 0 -1 0
vn 0 -1 0
vn 0 -1 0
vn 0 -1 0
vn 0 -1 0
vn 0 -1 0
vn 0 -1 0
vn 0 -1 0
vn 0 -1 0
vn 0 -1 0
vn 0 -1 0
vn 0 -1 0
vn 0 -1 0
vn 0 -1 0
vn 0 -1 0
vn 0 -1 0
vn 0 -1 0
vn 0 -1 0
vn 0 -1 0
vn 0 -1 0
vn 0 -1 0
vn 0 -1 0
vn 0 -1 0
vn 0 -1 0
vn 0 0 1
vn 0 0 1
vn 0 0 1
vn 0 0 1
vn 0 0 1
vn 0 0 1
vn 0 0 1
vn 0 0 1
vn 0 0 1
vn 0 0 1
vn 0 0 1
vn 0 0 1
vn 1 8.069309E-07 -3.662343E-07
vn 1 -4.476633E-07 1.32355E-06
vn 1 1.589421E-06 -7.213758E-07
vn 1 -9.131037E-07 1.35272E-06
vn 1 0 3.179044E-06
vn 1 0 0
vn 1 0 0
vn 1 0 0
vn 1 0 0
vn 1 0 0
vn 0 0 1
vn 0 0 1
vn 0 0 1
vn 0 0 1
vn 0 0 1
vn 0 0 1
vn 1 0 0
vn 1 0 0
vn 1 0 0
vn 1 0 0
vn 1 0 0
vn 0 0 1
vn 0 0 1
vn 0 0 1
vn 0 0 1
vn 0 0 1
vn 0 0 1
vn 0 0 1
vn 0 0 1
vn 0 0 1
vn 0 0 1
vn 0 0 1
vn 0 0 1
vn -1 0 -6.358087E-06
vn -1 1.582934E-06 -3.19206E-06
vn -1 2.570623E-07 -2.454359E-06
vn -1 -7.843661E-07 6.518206E-07
vn -1 -3.178882E-06 2.641701E-06
vn 1 0 0
vn 1 0 0
vn 1 0 0
vn 1 0 0
vn -1 0 0
vn -1 0 0
vn -1 0 0
vn -1 0 0
vn -1 0 0
vn -1 0 0
vn -1 0 0
vn -1 0 0
vn -1 0 0
vn -1 0 0
vn -1 0 0
vn -1 0 0
vn -1 0 0
vn -1 0 0
vn 1 0 0
vn 1 0 0
vn 1 0 0
vn 1 0 0
vn 1 0 0
vn 0 1 0
vn 0 1 0
vn 0 1 0
vn 0 1 0
vn 0 1 0
vn 0 1 0
vn 0 1 0
vn 0 1 0
vn 0 1 0
vn 0 1 0
vn 0 1 0
vn 0 1 0
vn -1 0 0
vn -1 0 0
vn -1 0 0
vn -1 0 0
vn -1 0 0
vn 0 1 0
vn 0 1 0
vn 0 1 0
vn 0 1 0
vn 0 1 0
vn 0 1 0
vn 0 1 0
vn 0 1 0
g taijie2_scene97_0
f 3/3/3 2/2/2 1/1/1
f 4/4/4 1/1/1 2/2/2
f 7/7/7 6/6/6 5/5/5
f 8/8/8 5/5/5 6/6/6
f 11/11/11 10/10/10 9/9/9
f 12/12/12 9/9/9 10/10/10
f 15/15/15 14/14/14 13/13/13
f 16/16/16 13/13/13 14/14/14
f 19/19/19 18/18/18 17/17/17
f 20/20/20 17/17/17 18/18/18
f 23/23/23 22/22/22 21/21/21
f 24/24/24 21/21/21 22/22/22
f 27/27/27 26/26/26 25/25/25
f 28/28/28 25/25/25 26/26/26
f 31/31/31 30/30/30 29/29/29
f 32/32/32 29/29/29 30/30/30
f 35/35/35 34/34/34 33/33/33
f 36/36/36 33/33/33 34/34/34
f 33/33/33 36/36/36 37/37/37
f 37/37/37 36/36/36 38/38/38
f 38/38/38 39/39/39 37/37/37
f 40/40/40 37/37/37 39/39/39
f 43/43/43 42/42/42 41/41/41
f 41/41/41 42/42/42 44/44/44
f 45/45/45 44/44/44 42/42/42
f 45/45/45 46/46/46 44/44/44
f 49/49/49 48/48/48 47/47/47
f 47/47/47 48/48/48 50/50/50
f 51/51/51 50/50/50 48/48/48
f 51/51/51 52/52/52 50/50/50
f 55/55/55 54/54/54 53/53/53
f 56/56/56 53/53/53 54/54/54
f 57/57/57 56/56/56 54/54/54
f 60/60/60 59/59/59 58/58/58
f 61/61/61 58/58/58 59/59/59
f 62/62/62 61/61/61 59/59/59
f 65/65/65 64/64/64 63/63/63
f 64/64/64 66/66/66 63/63/63
f 67/67/67 63/63/63 66/66/66
f 66/66/66 68/68/68 67/67/67
f 71/71/71 70/70/70 69/69/69
f 72/72/72 69/69/69 70/70/70
f 73/73/73 72/72/72 70/70/70
f 76/76/76 75/75/75 74/74/74
f 74/74/74 75/75/75 77/77/77
f 78/78/78 77/77/77 75/75/75
f 78/78/78 79/79/79 77/77/77
f 82/82/82 81/81/81 80/80/80
f 80/80/80 81/81/81 83/83/83
f 84/84/84 83/83/83 81/81/81
f 84/84/84 85/85/85 83/83/83
f 88/88/88 87/87/87 86/86/86
f 87/87/87 88/88/88 89/89/89
f 90/90/90 89/89/89 88/88/88
f 93/93/93 92/92/92 91/91/91
f 94/94/94 91/91/91 92/92/92
f 97/97/97 96/96/96 95/95/95
f 96/96/96 97/97/97 98/98/98
f 99/99/99 98/98/98 97/97/97
f 102/102/102 101/101/101 100/100/100
f 101/101/101 102/102/102 103/103/103
f 104/104/104 103/103/103 102/102/102
f 107/107/107 106/106/106 105/105/105
f 107/107/107 105/105/105 108/108/108
f 111/111/111 110/110/110 109/109/109
f 112/112/112 109/109/109 110/110/110
f 113/113/113 112/112/112 110/110/110
f 116/116/116 115/115/115 114/114/114
f 114/114/114 117/117/117 116/116/116
f 120/120/120 119/119/119 118/118/118
f 118/118/118 121/121/121 120/120/120
f 124/124/124 123/123/123 122/122/122
f 122/122/122 125/125/125 124/124/124
f 128/128/128 127/127/127 126/126/126
f 127/127/127 128/128/128 129/129/129
f 130/130/130 129/129/129 128/128/128
f 133/133/133 132/132/132 131/131/131
f 131/131/131 134/134/134 133/133/133
f 137/137/137 136/136/136 135/135/135
f 138/138/138 136/136/136 137/137/137
