g Terrain8_scene48
v 8.37539 0.9152551 0.080002
v 20.55275 -13.38115 0.080002
v 8.37539 -13.38115 0.080002
v 20.55275 12.90389 0.080002
v -9.656252 5.615597 0.080002
v -9.656252 0.9152551 0.080002
v -9.656252 12.90389 0.080002
v -18.03831 9.978884 0.080002
v -18.03831 5.615597 0.080002
v -18.03831 12.90389 0.080002
v -20.55275 9.978884 0.080002
v -20.55275 13.38115 0.080002
v -18.03831 13.38115 0.080002
v -20.55275 9.978884 -0.08000103
v -18.2727 9.978884 0.080002
v -18.2727 9.978884 -0.08000153
v -20.55275 9.978884 0.080002
v -20.55275 9.658884 -0.2400011
v -18.2727 9.658884 -0.08000205
v -18.2727 9.658884 -0.2400011
v -20.55275 9.658884 -0.08000205
v -18.2727 9.658884 -0.08000205
v -20.55275 9.978884 -0.08000103
v -18.2727 9.978884 -0.08000153
v -20.55275 9.658884 -0.08000205
v -20.55275 9.33888 -0.4
v -18.2727 9.33888 -0.240002
v -18.2727 9.33888 -0.4
v -20.55275 9.33888 -0.240002
v -20.55275 9.658884 -0.2400011
v -18.2727 9.33888 -0.240002
v -20.55275 9.33888 -0.240002
v -18.2727 9.658884 -0.2400011
v -20.55275 9.018874 -0.559999
v -18.2727 9.018874 -0.400001
v -18.2727 9.018874 -0.56
v -20.55275 9.018874 -0.400001
v -20.55275 9.33888 -0.4
v -18.2727 9.018874 -0.400001
v -20.55275 9.018874 -0.400001
v -18.2727 9.33888 -0.4
v -20.55275 8.698872 -0.719999
v -18.2727 8.698872 -0.56
v -18.2727 8.698872 -0.72
v -20.55275 8.698872 -0.56
v -20.55275 9.018874 -0.559999
v -18.2727 8.698872 -0.56
v -20.55275 8.698872 -0.56
v -18.2727 9.018874 -0.56
v -20.55275 8.378869 -0.879999
v -18.2727 8.378869 -0.72
v -18.2727 8.378869 -0.879999
v -20.55275 8.378869 -0.72
v -20.55275 8.698872 -0.719999
v -18.2727 8.378869 -0.72
v -20.55275 8.378869 -0.72
v -18.2727 8.698872 -0.72
v -20.55275 8.058865 -1.039998
v -18.2727 8.058865 -0.88
v -18.2727 8.058865 -1.039999
v -20.55275 8.058865 -0.88
v -20.55275 8.378869 -0.879999
v -18.2727 8.058865 -0.88
v -20.55275 8.058865 -0.88
v -18.2727 8.378869 -0.879999
v -20.55275 7.73886 -1.199998
v -18.2727 7.73886 -1.039999
v -18.2727 7.73886 -1.199998
v -20.55275 7.73886 -1.039999
v -20.55275 8.058865 -1.039998
v -18.2727 7.73886 -1.039999
v -20.55275 7.73886 -1.039999
v -18.2727 8.058865 -1.039999
v -20.55275 7.098852 -1.519997
v -18.2727 7.098852 -1.359998
v -18.2727 7.098852 -1.519997
v -20.55275 7.098852 -1.359998
v -20.55275 7.418857 -1.359997
v -18.2727 7.098852 -1.359998
v -20.55275 7.098852 -1.359998
v -18.2727 7.418857 -1.359998
v -20.55275 6.778852 -1.679996
v -18.2727 6.778852 -1.519998
v -18.2727 6.778852 -1.679997
v -20.55275 6.778852 -1.519998
v -20.55275 7.098852 -1.519997
v -18.2727 6.778852 -1.519998
v -20.55275 6.778852 -1.519998
v -18.2727 7.098852 -1.519997
v -20.55275 7.418857 -1.359997
v -18.2727 7.418857 -1.199999
v -18.2727 7.418857 -1.359998
v -20.55275 7.418857 -1.199999
v -20.55275 7.73886 -1.199998
v -18.2727 7.418857 -1.199999
v -20.55275 7.418857 -1.199999
v -18.2727 7.73886 -1.199998
v -20.55275 6.458851 -1.921434
v -18.2727 6.458851 -1.679998
v -18.2727 6.458851 -1.921434
v -20.55275 6.458851 -1.679998
v -20.55275 6.778852 -1.679996
v -18.2727 6.458851 -1.679998
v -20.55275 6.458851 -1.679998
v -18.2727 6.778852 -1.679997
vt 7.6706 0.00999999
vt 10.8975 -3.7866
vt 7.669 -3.7866
vt 10.8976 3.3111
vt 2.8962 1.255
vt 2.8962 0.00999999
vt 2.8962 3.3111
vt 0.6643 2.4107
vt 0.6643 1.255
vt 0.6648 3.3111
vt 0.01 2.4107
vt 0.0102 3.4418
vt 0.6648 3.4408
vt 0.6141 2.4093
vt 0.0107 2.3263
vt 0.0107 2.4093
vt 0.6141 2.3263
vt 0.3758497 0.820969
vt 0.4823126 0.8283849
vt 0.4823126 0.820969
vt 0.3758497 0.8283849
vt 0.456138 0.8131917
vt 0.3943385 0.8206077
vt 0.456138 0.8206077
vt 0.3943385 0.8131917
vt 0.3754945 0.8286237
vt 0.4819575 0.8360396
vt 0.4819575 0.8286237
vt 0.3754945 0.8360396
vt 0.3993011 0.8051818
vt 0.4611006 0.7977659
vt 0.3993011 0.7977659
vt 0.4611006 0.8051818
vt 0.3754945 0.836156
vt 0.4819575 0.843572
vt 0.4819575 0.836156
vt 0.3754945 0.843572
vt 0.375727 0.8208465
vt 0.4375265 0.8133141
vt 0.375727 0.8133141
vt 0.4375265 0.8208465
vt 0.3754945 0.8438106
vt 0.4819575 0.8512266
vt 0.4819575 0.8438106
vt 0.3754945 0.8512266
vt 0.375727 0.8128366
vt 0.4375265 0.8052981
vt 0.375727 0.8052981
vt 0.4375265 0.8128366
vt 0.3919534 0.836156
vt 0.4984042 0.843572
vt 0.4984042 0.836156
vt 0.3919534 0.843572
vt 0.3835136 0.8051818
vt 0.4452152 0.7977659
vt 0.3835136 0.7977659
vt 0.4452152 0.8051818
vt 0.3930768 0.8512266
vt 0.4995398 0.8586425
vt 0.4995398 0.8512266
vt 0.3930768 0.8586425
vt 0.3895949 0.8133141
vt 0.4513943 0.8056595
vt 0.3895949 0.8056595
vt 0.4513943 0.8133141
vt 0.3754945 0.820969
vt 0.4819575 0.8283849
vt 0.4819575 0.820969
vt 0.3754945 0.8283849
vt 0.4198398 0.8206077
vt 0.481627 0.8131917
vt 0.4198398 0.8131917
vt 0.481627 0.8206077
vt 0.3754945 0.836156
vt 0.4819575 0.843572
vt 0.4819575 0.836156
vt 0.3754945 0.843572
vt 0.375727 0.8208465
vt 0.4375265 0.8133141
vt 0.375727 0.8133141
vt 0.4375265 0.8208465
vt 0.3754945 0.8438106
vt 0.4819575 0.8512266
vt 0.4819575 0.8438106
vt 0.3754945 0.8512266
vt 0.375727 0.8128366
vt 0.4375265 0.8052981
vt 0.375727 0.8052981
vt 0.4375265 0.8128366
vt 0.3754945 0.8286237
vt 0.4819575 0.8360396
vt 0.4819575 0.8286237
vt 0.3754945 0.8360396
vt 0.4197174 0.8051818
vt 0.4815168 0.7977659
vt 0.4197174 0.7977659
vt 0.4815168 0.8051818
vt 0.3754945 0.8514655
vt 0.4819575 0.8588814
vt 0.4819575 0.8514655
vt 0.3754945 0.8588814
vt 0.375727 0.8054207
vt 0.4375387 0.7978823
vt 0.375727 0.7978823
vt 0.4375387 0.8054207
vn 0 0 1
vn 0 0 1
vn 0 0 1
vn 0 0 1
vn 0 0 1
vn 0 0 1
vn 0 0 1
vn 0 0 1
vn 0 0 1
vn 0 0 1
vn 0 0 1
vn 0 0 1
vn 0 0 1
vn 0 -1 0
vn 0 -1 0
vn 0 -1 0
vn 0 -1 0
vn 0 -1 0
vn 0 -1 0
vn 0 -1 0
vn 0 -1 0
vn 2.020045E-07 -1.77934E-06 1
vn 0 -3.078439E-06 1
vn 2.21683E-07 -1.639128E-06 1
vn 0 -3.218651E-06 1
vn 0 -1 0
vn 0 -1 0
vn 0 -1 0
vn 0 -1 0
vn 0 -2.86098E-06 1
vn 0 -2.86098E-06 1
vn 0 -2.86098E-06 1
vn 0 -2.86098E-06 1
vn 0 -1 0
vn 0 -1 0
vn 0 -1 0
vn 0 -1 0
vn 0 -3.099394E-06 1
vn 0 -3.099394E-06 1
vn 0 -3.099394E-06 1
vn 0 -3.099394E-06 1
vn 0 -1 0
vn 0 -1 0
vn 0 -1 0
vn 0 -1 0
vn 0 -2.824285E-06 1
vn 3.963859E-07 -2.751329E-07 1
vn 0 -3.099418E-06 1
vn 4.350005E-07 0 1
vn 0 -1 0
vn 0 -1 0
vn 0 -1 0
vn 0 -1 0
vn 0 -2.824285E-06 1
vn 3.963859E-07 -2.751329E-07 1
vn 0 -3.099418E-06 1
vn 4.350005E-07 0 1
vn 0 -1 0
vn 0 -1 0
vn 0 -1 0
vn 0 -1 0
vn 0 -3.099394E-06 1
vn 0 -3.099394E-06 1
vn 0 -3.099394E-06 1
vn 0 -3.099394E-06 1
vn 0 -1 0
vn 0 -1 0
vn 0 -1 0
vn 0 -1 0
vn 0 -2.82426E-06 1
vn 3.963854E-07 -2.75134E-07 1
vn 0 -3.099394E-06 1
vn 4.350005E-07 0 1
vn 0 -1 0
vn 0 -1 0
vn 0 -1 0
vn 0 -1 0
vn 0 -2.607009E-06 1
vn 3.658942E-07 -2.539698E-07 1
vn 0 -2.86098E-06 1
vn 4.015389E-07 0 1
vn 0 -1 0
vn 0 -1 0
vn 0 -1 0
vn 0 -1 0
vn 0 -2.861023E-06 1
vn 0 -2.861023E-06 1
vn 0 -2.861023E-06 1
vn 0 -2.861023E-06 1
vn 0 -1 0
vn 0 -1 0
vn 0 -1 0
vn 0 -1 0
vn 0 -3.337835E-06 1
vn 0 -3.337835E-06 1
vn 0 -3.337834E-06 1
vn 0 -3.337834E-06 1
vn 0 -1 0
vn 0 -1 0
vn 0 -1 0
vn 0 -1 0
vn 0 -5.902562E-06 1
vn 4.268771E-07 -3.15731E-06 1
vn 0 -6.198859E-06 1
vn 4.684621E-07 -2.861012E-06 1
g Terrain8_scene48_0
f 3/3/3 2/2/2 1/1/1
f 4/4/4 1/1/1 2/2/2
f 1/1/1 4/4/4 5/5/5
f 6/6/6 1/1/1 5/5/5
f 7/7/7 5/5/5 4/4/4
f 7/7/7 8/8/8 5/5/5
f 9/9/9 5/5/5 8/8/8
f 10/10/10 8/8/8 7/7/7
f 8/8/8 10/10/10 11/11/11
f 12/12/12 11/11/11 10/10/10
f 13/13/13 12/12/12 10/10/10
f 16/16/16 15/15/15 14/14/14
f 17/17/17 14/14/14 15/15/15
g Terrain8_scene48_1
f 20/20/20 19/19/19 18/18/18
f 21/21/21 18/18/18 19/19/19
f 24/24/24 23/23/23 22/22/22
f 25/25/25 22/22/22 23/23/23
f 28/28/28 27/27/27 26/26/26
f 29/29/29 26/26/26 27/27/27
f 32/32/32 31/31/31 30/30/30
f 33/33/33 30/30/30 31/31/31
f 36/36/36 35/35/35 34/34/34
f 37/37/37 34/34/34 35/35/35
f 40/40/40 39/39/39 38/38/38
f 41/41/41 38/38/38 39/39/39
f 44/44/44 43/43/43 42/42/42
f 45/45/45 42/42/42 43/43/43
f 48/48/48 47/47/47 46/46/46
f 49/49/49 46/46/46 47/47/47
f 52/52/52 51/51/51 50/50/50
f 53/53/53 50/50/50 51/51/51
f 56/56/56 55/55/55 54/54/54
f 57/57/57 54/54/54 55/55/55
f 60/60/60 59/59/59 58/58/58
f 61/61/61 58/58/58 59/59/59
f 64/64/64 63/63/63 62/62/62
f 65/65/65 62/62/62 63/63/63
f 68/68/68 67/67/67 66/66/66
f 69/69/69 66/66/66 67/67/67
f 72/72/72 71/71/71 70/70/70
f 73/73/73 70/70/70 71/71/71
f 76/76/76 75/75/75 74/74/74
f 77/77/77 74/74/74 75/75/75
f 80/80/80 79/79/79 78/78/78
f 81/81/81 78/78/78 79/79/79
f 84/84/84 83/83/83 82/82/82
f 85/85/85 82/82/82 83/83/83
f 88/88/88 87/87/87 86/86/86
f 89/89/89 86/86/86 87/87/87
f 92/92/92 91/91/91 90/90/90
f 93/93/93 90/90/90 91/91/91
f 96/96/96 95/95/95 94/94/94
f 97/97/97 94/94/94 95/95/95
f 100/100/100 99/99/99 98/98/98
f 101/101/101 98/98/98 99/99/99
f 104/104/104 103/103/103 102/102/102
f 105/105/105 102/102/102 103/103/103
