g Terrain2_scene35
v 24.27683 -4.365043 0.06496125
v 27.39683 -18.26522 0.06496125
v 24.27683 -18.26522 0.06496125
v 27.39683 -12.69673 0.06496125
v 27.39683 -4.365043 0.06496125
v 26.81683 -2.445043 0.06496125
v 24.27683 -2.445043 0.06496125
v 25.50906 0.7549567 0.06496125
v 24.92645 3.314957 0.06496125
v 19.75175 -2.445043 0.06496125
v 19.75336 13.95093 0.06496125
v 24.92645 16.11496 0.06496125
v 24.73283 16.96104 0.06496125
v 28.14902 -14.04923 0.06496125
v 24.21357 17.75654 0.06496125
v 31.54317 -16.3335 0.06496125
v 30.36113 -14.92574 0.06496125
v 31.54317 -18.26522 0.06496125
v 22.43683 18.40104 0.06496125
v 23.35683 18.27592 0.06496125
v 20.21774 18.40104 0.06496125
v 9.836833 18.40104 0.06496125
v 11.3721 13.94976 0.06496125
v 27.39683 -4.365043 0.06496125
v 26.81683 -2.445043 -0.09503875
v 27.39683 -4.365043 -0.09503875
v 26.81683 -2.445043 0.06496125
v 25.50906 0.7549567 -0.09503875
v 25.50906 0.7549567 0.06496125
v 24.92645 3.314957 -0.09503875
v 24.92645 3.314957 0.06496125
v 24.92645 16.11496 -0.09503875
v 24.92645 16.11496 0.06496125
v 24.73283 16.96104 -0.09503875
v 24.73283 16.96104 0.06496125
v 24.21357 17.75654 -0.09503875
v 24.21357 17.75654 0.06496125
v 23.35683 18.27592 -0.09503875
v 23.35683 18.27592 0.06496125
v 9.836833 18.40104 0.06496125
v 3.272961 5.874957 0.06496125
v -0.7231665 8.274955 0.06496125
v 11.3721 13.94976 0.06496125
v 23.35683 18.27592 0.06496125
v 22.43683 18.40104 -0.09503875
v 23.35683 18.27592 -0.09503875
v 22.43683 18.40104 0.06496125
v 20.21774 18.40104 -0.09503875
v 20.21774 18.40104 0.06496125
v 9.836833 18.40104 0.06496125
v 9.836833 18.40104 0.06496125
v 9.836833 18.40104 -0.09503875
v -0.7231665 8.274955 -0.09503875
v -0.7231665 8.274955 0.06496125
v -16.60317 8.274955 -0.09503875
v -16.60317 8.274955 0.06496125
v -31.54317 8.274957 0.06496125
v 3.272961 5.874957 0.06496125
v -31.54317 5.874958 0.06496125
v -0.7231665 8.274955 0.06496125
v -11.30317 5.51769 0.3849612
v -11.30317 -0.2050433 0.2249612
v -11.30317 5.51769 0.2249612
v -11.30317 -0.2050421 0.3849612
v -11.30317 5.51769 0.3849612
v -10.98317 -0.2050433 0.3849612
v -11.30317 -0.2050421 0.3849612
v -10.98317 5.51769 0.3849612
v -10.98317 -0.2050433 0.3849612
v -10.98317 5.51769 0.06496125
v -10.98317 -0.2050433 0.06496125
v -10.98317 5.51769 0.3849612
v -11.30317 5.51769 0.2249612
v -14.18317 -0.2050421 0.2249612
v -14.18317 5.51769 0.2249612
v -11.30317 -0.2050433 0.2249612
v 12.56289 5.874957 0.06496125
v -10.98329 -18.40104 0.06496125
v -10.98329 5.874957 0.06496125
v 12.56289 -18.40104 0.06496125
vt -2.0469 5.168
vt -3.0078 9.5234
vt -2.0469 9.5234
vt -3.0078 7.7773
vt -3.0078 5.168
vt -2.8281 4.5664
vt -2.0469 4.5664
vt -2.4258 3.5625
vt -2.2461 2.7578
vt -0.6537 4.5664
vt -0.65545 -0.57375
vt -2.2461 -1.25
vt -2.1875 -1.5156
vt -3.2461 8.1992
vt -2.0273 -1.7656
vt -4.3125 8.9141
vt -3.9375 8.4805
vt -4.3125 9.5234
vt -1.4805 -1.9688
vt -1.7656 -1.9297
vt -0.798 -1.9685
vt 2.3945 -1.9688
vt 1.9227 -0.5726
vt -3.0078 5.168
vt -2.8281 4.5664
vt -3.0078 5.168
vt -2.8281 4.5664
vt -2.4258 3.5625
vt -2.4258 3.5625
vt -2.2461 2.7578
vt -2.2461 2.7578
vt -2.2461 -1.25
vt -2.2461 -1.25
vt -2.1875 -1.5156
vt -2.1875 -1.5156
vt -2.0273 -1.7656
vt -2.0273 -1.7656
vt -1.7656 -1.9297
vt -1.7656 -1.9297
vt 1.5 -0.4609001
vt 5.713 0.8523
vt 6.0391 -0.5508001
vt 2.1622 0.8544
vt -1.7656 -1.9297
vt -1.4805 -1.9688
vt -1.7656 -1.9297
vt -1.4805 -1.9688
vt -0.798 -1.9688
vt -0.798 -1.9685
vt 2.3945 -1.9688
vt 2.3945 -1.9688
vt 2.3945 -1.9688
vt 5.6484 1.2031
vt 5.6484 1.2031
vt 10.5352 1.2031
vt 10.5352 1.2031
vt 15.1367 1.2031
vt 4.415965 1.957
vt 15.1367 1.957
vt 5.6484 1.2031
vt 0.998926 0.02702892
vt 0.5029932 0.04233663
vt 0.998926 0.04233663
vt 0.502739 0.02702892
vt 0.998926 0.02702892
vt 0.5019497 0.0009846683
vt 0.502739 0.02702892
vt 0.998926 0.0009846683
vt 0.5019593 0.2490577
vt 0.9989357 0.2218053
vt 0.5019593 0.2218053
vt 0.9989357 0.2490577
vt 0.2511128 0.08589681
vt 0.4990567 0.1638983
vt 0.3360265 0.0009745701
vt 0.4140204 0.2489431
vt -2.8439 1.0433
vt 5.2495 1.2375
vt 1.1019 -2.8964
vt 1.2895 5.1977
vn 0 0 1
vn 0 0 1
vn 0 0 1
vn 0 0 1
vn 0 0 1
vn 0 0 1
vn 0 0 1
vn 0 0 1
vn 0 0 1
vn 0 0 1
vn 0 0 1
vn 0 0 1
vn 0 0 1
vn 0 0 1
vn 0 0 1
vn 0 0 1
vn 0 0 1
vn 0 0 1
vn 0 0 1
vn 0 0 1
vn 0 0 1
vn 0 0 1
vn 0 0 1
vn 0.9572756 0.2891771 0
vn 0.9425325 0.3341144 0
vn 0.9572756 0.2891771 0
vn 0.9425325 0.3341144 0
vn 0.9535859 0.3011213 0
vn 0.9535859 0.3011212 0
vn 0.9937472 0.1116529 0
vn 0.9937472 0.111653 0
vn 0.9936801 0.1122493 0
vn 0.9936801 0.1122492 0
vn 0.9204237 0.3909224 0
vn 0.9204237 0.3909223 -2.249939E-07
vn 0.6952329 0.7187845 -5.256735E-06
vn 0.6952319 0.7187855 -5.146617E-06
vn 0.3335575 0.9427298 -3.359005E-07
vn 0.3335574 0.9427298 0
vn 0 0 1
vn 0 0 1
vn 0 0 1
vn 0 0 1
vn 0.3335574 0.9427298 0
vn 0.06753176 0.9977171 0
vn 0.3335575 0.9427298 -3.359005E-07
vn 0.06753173 0.9977171 1.751989E-07
vn -2.63019E-07 1 7.417163E-06
vn -2.750454E-07 1 7.629395E-06
vn -0.3729733 0.9278421 0
vn -0.3729733 0.9278421 0
vn -0.3729743 0.9278417 0
vn -0.3729735 0.9278421 0
vn -0.3729746 0.9278415 0
vn 0 1 0
vn 0 1 0
vn 0 0 1
vn 0 0 1
vn 0 0 1
vn 0 0 1
vn -1 0 0
vn -1 0 0
vn -1 0 0
vn -1 0 0
vn 0 0 1
vn 0 0 1
vn 0 0 1
vn 0 0 1
vn 1 0 0
vn 1 0 0
vn 1 0 0
vn 1 0 0
vn 0 0 1
vn 0 0 1
vn 0 0 1
vn 0 0 1
vn 0 0 1
vn 0 0 1
vn 0 0 1
vn 0 0 1
g Terrain2_scene35_0
f 3/3/3 2/2/2 1/1/1
f 4/4/4 1/1/1 2/2/2
f 5/5/5 1/1/1 4/4/4
f 5/5/5 6/6/6 1/1/1
f 1/1/1 6/6/6 7/7/7
f 8/8/8 7/7/7 6/6/6
f 8/8/8 9/9/9 7/7/7
f 10/10/10 7/7/7 9/9/9
f 10/10/10 9/9/9 11/11/11
f 12/12/12 11/11/11 9/9/9
f 12/12/12 13/13/13 11/11/11
f 4/4/4 2/2/2 14/14/14
f 13/13/13 15/15/15 11/11/11
f 2/2/2 16/16/16 14/14/14
f 17/17/17 14/14/14 16/16/16
f 2/2/2 18/18/18 16/16/16
f 11/11/11 15/15/15 19/19/19
f 20/20/20 19/19/19 15/15/15
f 21/21/21 11/11/11 19/19/19
f 21/21/21 22/22/22 11/11/11
f 23/23/23 11/11/11 22/22/22
f 26/26/26 25/25/25 24/24/24
f 27/27/27 24/24/24 25/25/25
f 25/25/25 28/28/28 27/27/27
f 29/29/29 27/27/27 28/28/28
f 28/28/28 30/30/30 29/29/29
f 31/31/31 29/29/29 30/30/30
f 30/30/30 32/32/32 31/31/31
f 33/33/33 31/31/31 32/32/32
f 32/32/32 34/34/34 33/33/33
f 35/35/35 33/33/33 34/34/34
f 34/34/34 36/36/36 35/35/35
f 37/37/37 35/35/35 36/36/36
f 36/36/36 38/38/38 37/37/37
f 39/39/39 37/37/37 38/38/38
f 42/42/42 41/41/41 40/40/40
f 43/43/43 40/40/40 41/41/41
f 46/46/46 45/45/45 44/44/44
f 47/47/47 44/44/44 45/45/45
f 45/45/45 48/48/48 47/47/47
f 49/49/49 47/47/47 48/48/48
f 49/49/49 48/48/48 50/50/50
f 52/52/52 51/51/51 48/48/48
f 52/52/52 53/53/53 51/51/51
f 54/54/54 51/51/51 53/53/53
f 53/53/53 55/55/55 54/54/54
f 56/56/56 54/54/54 55/55/55
f 59/59/59 58/58/58 57/57/57
f 60/60/60 57/57/57 58/58/58
g Terrain2_scene35_1
f 63/63/63 62/62/62 61/61/61
f 64/64/64 61/61/61 62/62/62
f 67/67/67 66/66/66 65/65/65
f 68/68/68 65/65/65 66/66/66
f 71/71/71 70/70/70 69/69/69
f 72/72/72 69/69/69 70/70/70
f 75/75/75 74/74/74 73/73/73
f 76/76/76 73/73/73 74/74/74
g Terrain2_scene35_2
f 79/79/79 78/78/78 77/77/77
f 80/80/80 77/77/77 78/78/78
