g Terrain1_scene32
v -3.9624 41.4528 -1.2192
v -15.39237 38.70959 -1.2192
v -15.39237 41.4528 -1.2192
v -3.9624 38.7096 -1.2192
v 38.1254 9.786695 0
v 21.57655 26.69539 0
v 38.1254 26.69539 0
v 17.79957 9.786693 0
v 5.181606 38.7096 0
v 16.61158 38.7096 0
v 21.57655 48.24132 0
v 16.61158 41.4528 0
v 5.181606 41.4528 0
v -3.9624 38.7096 0
v -17.79954 -9.51349 0
v -3.9624 41.4528 0
v -15.39237 38.70959 0
v -14.63039 48.24132 0
v -15.39237 41.4528 0
v -17.79955 43.8912 0
v -14.6304 57.10448 0
v -32.02769 43.89119 0
v -32.02769 57.10448 0
v 3.962419 -38.7096 0
v 15.39239 -38.7096 0
v 15.39239 -41.4528 0
v 17.79957 -43.8912 0
v 14.63041 -48.24132 0
v 3.962419 -41.4528 0
v 14.63041 -57.10448 0
v 32.02771 -43.8912 0
v 32.02771 -57.10448 0
v -21.57653 -48.24132 0
v -5.181587 -41.4528 0
v -16.61156 -41.4528 0
v -16.61156 -38.7096 0
v -5.181587 -38.7096 0
v -21.57653 -26.69539 0
v -21.57652 -9.513489 0
v -38.12538 -9.513489 0
v -38.12538 -26.69539 0
v -16.61156 -41.4528 -1.2192
v -5.181587 -38.7096 -1.2192
v -5.181587 -41.4528 -1.2192
v -16.61156 -38.7096 -1.2192
v 3.962419 -41.4528 -1.2192
v 15.39239 -38.7096 -1.2192
v 15.39239 -41.4528 -1.2192
v 3.962419 -38.7096 -1.2192
v 16.61158 41.4528 -1.2192
v 5.181606 38.7096 -1.2192
v 5.181606 41.4528 -1.2192
v 16.61158 38.7096 -1.2192
v 3.828389 -40.05951 -0.7886179
v 6.783304 -41.58946 -1.104514
v 3.828389 -41.58945 -0.9754247
v 6.783304 -40.05951 -1.107078
v 3.828389 -38.52957 -0.9227794
v 9.738217 -41.58945 -1.354908
v 6.783304 -38.52956 -1.139816
v 9.738217 -40.0595 -1.266554
v 12.69313 -41.58944 -1.23641
v 9.738217 -38.52956 -1.26275
v 12.69313 -40.0595 -1.150355
v 15.64805 -41.58944 -0.8378228
v 12.69313 -38.52956 -0.8174926
v 15.64805 -40.0595 -0.982326
v 15.64804 -38.52956 -1.015326
v -15.58722 40.08119 -0.9793376
v -12.6323 38.55125 -1.058028
v -15.58722 38.55125 -0.9754247
v -12.6323 40.0812 -0.9969791
v -15.58722 41.61114 -0.7218007
v -9.677387 38.55125 -0.9754247
v -12.6323 41.61114 -0.885209
v -9.677387 40.0812 -1.167087
v -6.722474 38.55126 -1.23641
v -9.677387 41.61114 -1.403114
v -6.722474 40.0812 -1.23641
v -3.76756 38.55126 -1.23641
v -6.722474 41.61114 -1.23641
v -3.76756 40.0812 -0.982326
v -3.76756 41.61114 -0.6884187
v -16.75699 -40.05951 -0.9793376
v -13.80207 -41.58945 -1.058028
v -16.75699 -41.58945 -0.9754247
v -13.80207 -40.0595 -0.9969791
v -16.75699 -38.52957 -0.7218007
v -10.84716 -41.58945 -0.9754247
v -13.80207 -38.52956 -0.885209
v -10.84716 -40.0595 -1.167087
v -7.892244 -41.58944 -1.23641
v -10.84716 -38.52956 -1.403114
v -7.892244 -40.0595 -1.23641
v -4.937331 -41.58944 -1.23641
v -7.892244 -38.52956 -1.23641
v -4.937331 -40.0595 -0.982326
v -4.937331 -38.52956 -0.6884187
v 4.99816 40.08119 -0.7886179
v 7.953074 38.55124 -1.104514
v 4.99816 38.55125 -0.9754247
v 7.953074 40.08119 -1.107078
v 4.99816 41.61114 -0.9227794
v 10.90799 38.55125 -1.354908
v 7.953074 41.61114 -1.139816
v 10.90799 40.0812 -1.266554
v 13.8629 38.55126 -1.23641
v 10.90799 41.61114 -1.26275
v 13.8629 40.0812 -1.150355
v 16.81782 38.55126 -0.8378228
v 13.8629 41.61114 -0.8174926
v 16.81782 40.0812 -0.982326
v 16.81781 41.61114 -1.015326
vt -5.2946 -6.958
vt -5.6101 -4.7021
vt -5.081 -4.7534
vt -5.8237 -6.9067
vt 6.7179 3.2096
vt 3.4488 6.4241
vt 6.6551 6.4856
vt 2.7799 3.1342
vt 0.2278 8.6909
vt 2.4423 8.7334
vt 3.3688 10.5985
vt 2.4321 9.2648
vt 0.2176 9.2224
vt -1.5438 8.657
vt -4.0455 -0.7372999
vt -1.554 9.1884
vt -3.7582 8.6145
vt -3.646 10.464
vt -3.7684 9.146
vt -4.2439 9.6095
vt -3.6789 12.1812
vt -7.0005 9.5566
vt -7.0495 12.1166
vt 0.2791 -6.313
vt 2.4936 -6.2706
vt 2.5038 -6.8021
vt 2.9792 -7.2656
vt 2.3814 -8.1201
vt 0.2893 -6.8445
vt 2.4143 -9.8373
vt 5.7358 -7.2127
vt 5.7849 -9.7727
vt -4.6335 -8.2546
vt -1.4823 -6.8785
vt -3.6968 -6.9209
vt -3.7069 -6.3895
vt -1.4925 -6.347
vt -4.7135 -4.0802
vt -4.7773 -0.7513
vt -7.9835 -0.8127999
vt -7.9197 -4.1417
vt 6.146 2.5856
vt 6.4614 0.3298
vt 5.9323 0.381
vt 6.6751 2.5343
vt -5.0318 9.0711
vt -4.7164 6.8153
vt -5.2455 6.8666
vt -4.5028 9.0198
vt 7.5913 8.8635
vt 7.2759 11.1194
vt 7.805 11.0681
vt 7.0622 8.9148
vt -5.3455 -4.7278
vt -5.6635 -5.2533
vt -5.6101 -4.7021
vt -5.3989 -5.2789
vt -5.081 -4.7534
vt -5.7169 -5.8044
vt -5.1344 -5.3046
vt -5.4523 -5.83
vt -5.7703 -6.3555
vt -5.1878 -5.8557
vt -5.5058 -6.3812
vt -5.8237 -6.9067
vt -5.2412 -6.4068
vt -5.5592 -6.9323
vt -5.2946 -6.958
vt -5.3455 -4.7278
vt -5.6635 -5.2533
vt -5.6101 -4.7021
vt -5.3989 -5.2789
vt -5.081 -4.7534
vt -5.7169 -5.8044
vt -5.1344 -5.3046
vt -5.4523 -5.83
vt -5.7703 -6.3555
vt -5.1878 -5.8557
vt -5.5058 -6.3812
vt -5.8237 -6.9067
vt -5.2412 -6.4068
vt -5.5592 -6.9323
vt -5.2946 -6.958
vt -5.3455 -4.7278
vt -5.6635 -5.2533
vt -5.6101 -4.7021
vt -5.3989 -5.2789
vt -5.081 -4.7534
vt -5.7169 -5.8044
vt -5.1344 -5.3046
vt -5.4523 -5.83
vt -5.7703 -6.3555
vt -5.1878 -5.8557
vt -5.5058 -6.3812
vt -5.8237 -6.9067
vt -5.2412 -6.4068
vt -5.5592 -6.9323
vt -5.2946 -6.958
vt -5.3455 -4.7278
vt -5.6635 -5.2533
vt -5.6101 -4.7021
vt -5.3989 -5.2789
vt -5.081 -4.7534
vt -5.7169 -5.8044
vt -5.1344 -5.3046
vt -5.4523 -5.83
vt -5.7703 -6.3555
vt -5.1878 -5.8557
vt -5.5058 -6.3812
vt -5.8237 -6.9067
vt -5.2412 -6.4068
vt -5.5592 -6.9323
vt -5.2946 -6.958
vn 0 0 1
vn 0 0 1
vn 0 0 1
vn 0 0 1
vn 0 0 1
vn 0 0 1
vn 0 0 1
vn 0 0 1
vn 0 0 1
vn 0 0 1
vn 0 0 1
vn 0 0 1
vn 0 0 1
vn 0 0 1
vn 0 0 1
vn 0 0 1
vn 0 0 1
vn 0 0 1
vn 0 0 1
vn 0 0 1
vn 0 0 1
vn 0 0 1
vn 0 0 1
vn 0 0 1
vn 0 0 1
vn 0 0 1
vn 0 0 1
vn 0 0 1
vn 0 0 1
vn 0 0 1
vn 0 0 1
vn 0 0 1
vn 0 0 1
vn 0 0 1
vn 0 0 1
vn 0 0 1
vn 0 0 1
vn 0 0 1
vn 0 0 1
vn 0 0 1
vn 0 0 1
vn 0 0 1
vn 0 0 1
vn 0 0 1
vn 0 0 1
vn 0 0 1
vn 0 0 1
vn 0 0 1
vn 0 0 1
vn 0 0 1
vn 0 0 1
vn 0 0 1
vn 0 0 1
vn 0.0851675 0.001571115 0.9963654
vn 0.08618629 -0.01705558 0.9961331
vn 0.04332309 -0.1210867 0.9916962
vn 0.0799588 0.01201381 0.9967258
vn 0.0966734 0.06708963 0.9930524
vn 0.01154736 -0.04866685 0.9987483
vn 0.0616849 0.01772667 0.9979382
vn 0.005028388 -0.0281772 0.9995903
vn -0.08641919 -0.05617692 0.9946737
vn -0.01560126 -0.03491347 0.9992686
vn -0.05940066 -0.08970166 0.9941958
vn -0.08019647 0.04848722 0.995599
vn -0.03982095 -0.2124232 0.976366
vn -0.05667739 0.05781888 0.9967169
vn -0.01919583 -0.05105155 0.9985115
vn 0.01361482 -0.08846791 0.9959859
vn -0.007634944 -0.03342067 0.9994122
vn 0.02794358 0.002556534 0.9996063
vn 0.02538897 -0.05103727 0.998374
vn 0.02092476 -0.1376954 0.9902535
vn 0.05928479 0.09920084 0.9932998
vn 0.07385961 -0.03875537 0.9965153
vn 0.07173634 0.111794 0.9911388
vn 0.02154982 0.01898833 0.9995875
vn 0.08465007 0.1286901 0.9880654
vn -0.04714116 -0.0152744 0.9987714
vn -0.05914138 -0.1142253 0.991693
vn -0.119575 0 0.9928252
vn -0.0843373 -0.1757475 0.9808161
vn -0.1146128 -0.1313324 0.9846906
vn 0.01361489 -0.08846787 0.9959859
vn -0.007634947 -0.03342067 0.9994122
vn 0.02794357 0.002556534 0.9996063
vn 0.02538901 -0.05103723 0.998374
vn 0.02092491 -0.1376953 0.9902535
vn 0.05928473 0.09920067 0.9932998
vn 0.07385968 -0.03875526 0.9965153
vn 0.07173628 0.1117938 0.9911388
vn 0.02154983 0.01898834 0.9995875
vn 0.08465002 0.1286899 0.9880654
vn -0.04714116 -0.0152744 0.9987714
vn -0.05914139 -0.1142253 0.991693
vn -0.1195751 0 0.9928252
vn -0.08433732 -0.1757474 0.9808161
vn -0.1146129 -0.1313321 0.9846906
vn 0.0851675 0.001571117 0.9963654
vn 0.0861863 -0.01705558 0.9961331
vn 0.04332309 -0.1210867 0.9916962
vn 0.0799588 0.01201384 0.9967258
vn 0.09667344 0.06708971 0.9930524
vn 0.01154733 -0.04866686 0.9987483
vn 0.06168493 0.01772673 0.9979382
vn 0.005028376 -0.02817721 0.9995903
vn -0.08641919 -0.05617692 0.9946737
vn -0.01560124 -0.03491347 0.9992686
vn -0.05940066 -0.08970182 0.9941958
vn -0.08019647 0.04848722 0.995599
vn -0.03982096 -0.2124236 0.976366
vn -0.05667739 0.0578189 0.9967169
vn -0.01919588 -0.05105153 0.9985115
g Terrain1_scene32_0
f 3/3/3 2/2/2 1/1/1
f 4/4/4 1/1/1 2/2/2
f 7/7/7 6/6/6 5/5/5
f 8/8/8 5/5/5 6/6/6
f 6/6/6 9/9/9 8/8/8
f 10/10/10 9/9/9 6/6/6
f 6/6/6 11/11/11 10/10/10
f 12/12/12 10/10/10 11/11/11
f 12/12/12 11/11/11 13/13/13
f 9/9/9 13/13/13 14/14/14
f 9/9/9 14/14/14 8/8/8
f 8/8/8 14/14/14 15/15/15
f 13/13/13 11/11/11 16/16/16
f 16/16/16 14/14/14 13/13/13
f 14/14/14 17/17/17 15/15/15
f 18/18/18 16/16/16 11/11/11
f 16/16/16 18/18/18 19/19/19
f 17/17/17 19/19/19 15/15/15
f 18/18/18 20/20/20 19/19/19
f 20/20/20 15/15/15 19/19/19
f 18/18/18 21/21/21 20/20/20
f 20/20/20 21/21/21 22/22/22
f 23/23/23 22/22/22 21/21/21
f 15/15/15 24/24/24 8/8/8
f 24/24/24 25/25/25 8/8/8
f 25/25/25 26/26/26 8/8/8
f 27/27/27 8/8/8 26/26/26
f 28/28/28 27/27/27 26/26/26
f 29/29/29 28/28/28 26/26/26
f 28/28/28 30/30/30 27/27/27
f 27/27/27 30/30/30 31/31/31
f 32/32/32 31/31/31 30/30/30
f 28/28/28 29/29/29 33/33/33
f 29/29/29 24/24/24 34/34/34
f 34/34/34 33/33/33 29/29/29
f 35/35/35 33/33/33 34/34/34
f 35/35/35 36/36/36 33/33/33
f 37/37/37 34/34/34 24/24/24
f 37/37/37 24/24/24 15/15/15
f 38/38/38 33/33/33 36/36/36
f 36/36/36 37/37/37 38/38/38
f 38/38/38 37/37/37 15/15/15
f 39/39/39 38/38/38 15/15/15
f 39/39/39 40/40/40 38/38/38
f 41/41/41 38/38/38 40/40/40
f 44/44/44 43/43/43 42/42/42
f 45/45/45 42/42/42 43/43/43
f 48/48/48 47/47/47 46/46/46
f 49/49/49 46/46/46 47/47/47
f 52/52/52 51/51/51 50/50/50
f 53/53/53 50/50/50 51/51/51
f 56/56/56 55/55/55 54/54/54
f 57/57/57 54/54/54 55/55/55
f 54/54/54 57/57/57 58/58/58
f 55/55/55 59/59/59 57/57/57
f 60/60/60 58/58/58 57/57/57
f 61/61/61 57/57/57 59/59/59
f 57/57/57 61/61/61 60/60/60
f 59/59/59 62/62/62 61/61/61
f 63/63/63 60/60/60 61/61/61
f 64/64/64 61/61/61 62/62/62
f 61/61/61 64/64/64 63/63/63
f 62/62/62 65/65/65 64/64/64
f 66/66/66 63/63/63 64/64/64
f 67/67/67 64/64/64 65/65/65
f 66/66/66 64/64/64 68/68/68
f 67/67/67 68/68/68 64/64/64
f 71/71/71 70/70/70 69/69/69
f 72/72/72 69/69/69 70/70/70
f 69/69/69 72/72/72 73/73/73
f 70/70/70 74/74/74 72/72/72
f 75/75/75 73/73/73 72/72/72
f 76/76/76 72/72/72 74/74/74
f 72/72/72 76/76/76 75/75/75
f 74/74/74 77/77/77 76/76/76
f 78/78/78 75/75/75 76/76/76
f 79/79/79 76/76/76 77/77/77
f 76/76/76 79/79/79 78/78/78
f 77/77/77 80/80/80 79/79/79
f 81/81/81 78/78/78 79/79/79
f 82/82/82 79/79/79 80/80/80
f 81/81/81 79/79/79 83/83/83
f 82/82/82 83/83/83 79/79/79
f 86/86/86 85/85/85 84/84/84
f 87/87/87 84/84/84 85/85/85
f 84/84/84 87/87/87 88/88/88
f 85/85/85 89/89/89 87/87/87
f 90/90/90 88/88/88 87/87/87
f 91/91/91 87/87/87 89/89/89
f 87/87/87 91/91/91 90/90/90
f 89/89/89 92/92/92 91/91/91
f 93/93/93 90/90/90 91/91/91
f 94/94/94 91/91/91 92/92/92
f 91/91/91 94/94/94 93/93/93
f 92/92/92 95/95/95 94/94/94
f 96/96/96 93/93/93 94/94/94
f 97/97/97 94/94/94 95/95/95
f 96/96/96 94/94/94 98/98/98
f 97/97/97 98/98/98 94/94/94
f 101/101/101 100/100/100 99/99/99
f 102/102/102 99/99/99 100/100/100
f 99/99/99 102/102/102 103/103/103
f 100/100/100 104/104/104 102/102/102
f 105/105/105 103/103/103 102/102/102
f 106/106/106 102/102/102 104/104/104
f 102/102/102 106/106/106 105/105/105
f 104/104/104 107/107/107 106/106/106
f 108/108/108 105/105/105 106/106/106
f 109/109/109 106/106/106 107/107/107
f 106/106/106 109/109/109 108/108/108
f 107/107/107 110/110/110 109/109/109
f 111/111/111 108/108/108 109/109/109
f 112/112/112 109/109/109 110/110/110
f 111/111/111 109/109/109 113/113/113
f 112/112/112 113/113/113 109/109/109
