g Terrain2_scene48
v 10.45454 6.138639 0.0500005
v -0.8058264 5.988639 0.0500005
v -0.911521 6.138639 0.0500005
v 10.34884 5.988639 0.0500005
v -1.039457 -9.880796 0.0500005
v -1.158794 -9.761463 5.00679E-07
v -1.158794 -9.761463 0.0500005
v -1.205192 -9.633527 5.00679E-07
v -1.205192 -9.633527 0.0500005
v -1.158794 -9.761463 5.00679E-07
v -1.039457 -9.880796 0.0500005
v -1.039457 -9.880796 5.00679E-07
v -0.911521 -9.927196 0.0500005
v -0.911521 -9.927196 5.00679E-07
v 10.45454 -9.927196 0.0500005
v 10.45454 -9.927196 5.00679E-07
v -1.055192 -9.527833 0.0500005
v -1.008646 -9.648006 -0.0500005
v -1.008646 -9.648006 0.0500005
v -1.055192 -9.527833 -0.0500005
v -1.055192 5.739274 0.0500005
v -1.055192 5.739274 -0.0499995
v -1.008646 5.859448 0.0500005
v -1.008713 5.859448 -0.0499995
v -0.926001 5.942093 0.0500005
v -0.926001 5.942093 -0.0499995
v 10.59821 -9.527833 -0.0500005
v 10.55166 -9.648006 0.0500005
v 10.55166 -9.648006 -0.0500005
v 10.59821 -9.527833 0.0500005
v 10.59821 5.739274 -0.0499995
v 10.59821 -9.527833 0.0500005
v 10.59821 -9.527833 -0.0500005
v 10.59821 5.739274 0.0500005
v 10.55166 5.859448 -0.0499995
v 10.55166 5.859448 0.0500005
v 10.46902 5.942093 -0.0499995
v 10.46902 5.942093 0.0500005
v -0.8058264 5.988639 0.0500005
v -0.926001 5.942093 -0.0499995
v -0.926001 5.942093 0.0500005
v -0.8058264 5.988639 -0.0499995
v 10.74821 -9.633527 0.0500005
v 10.59821 5.739274 0.0500005
v 10.74821 5.844968 0.0500005
v 10.59821 -9.527833 0.0500005
v -0.8058264 -9.777196 0.0500005
v 10.45454 -9.927196 0.0500005
v -0.911521 -9.927196 0.0500005
v 10.34884 -9.777196 0.0500005
v -1.205192 5.844968 5.00679E-07
v -1.205192 -9.633527 0.0500005
v -1.205192 -9.633527 5.00679E-07
v -1.205192 5.844968 0.0500005
v -1.158794 5.972904 5.00679E-07
v -1.158794 5.972904 0.0500005
v -1.039457 6.092241 5.00679E-07
v 10.46902 -9.73065 0.0500005
v 10.55166 -9.648006 -0.0500005
v 10.55166 -9.648006 0.0500005
v 10.46888 -9.73065 -0.0500005
v 10.34884 -9.777196 0.0500005
v 10.46888 -9.73065 -0.0500005
v 10.46902 -9.73065 0.0500005
v 10.34884 -9.777196 -0.0500005
v -1.039457 6.092241 0.0500005
v -0.911521 6.138639 5.00679E-07
v -0.911521 6.138639 0.0500005
v -1.039457 6.092241 5.00679E-07
v -1.158794 5.972904 0.0500005
v 10.58248 -9.880796 0.0500005
v 10.45454 -9.927196 5.00679E-07
v 10.45454 -9.927196 0.0500005
v 10.58248 -9.880796 5.00679E-07
v 10.70181 -9.761463 0.0500005
v 10.58248 -9.880796 5.00679E-07
v 10.70181 -9.761463 0.0500005
v 10.70181 -9.761463 5.00679E-07
v 10.74821 -9.633527 0.0500005
v 10.74821 -9.633527 5.00679E-07
v 10.74821 5.844968 0.0500005
v 10.74821 5.844968 5.00679E-07
v 10.45454 6.138639 5.00679E-07
v -0.911521 6.138639 0.0500005
v -0.911521 6.138639 5.00679E-07
v 10.45454 6.138639 0.0500005
v 10.58248 6.092241 5.00679E-07
v 10.58248 6.092241 0.0500005
v 10.70181 5.972904 5.00679E-07
v 10.58248 6.092241 0.0500005
v 10.58248 6.092241 5.00679E-07
v 10.70181 5.972904 0.0500005
v 10.74821 5.844968 5.00679E-07
v 10.74821 5.844968 0.0500005
v 10.46902 5.942093 0.0500005
v 10.34884 5.988639 -0.0499995
v 10.34884 5.988639 0.0500005
v 10.46902 5.942093 -0.0499995
v 10.34884 5.988639 0.0500005
v -0.8058264 5.988639 -0.0499995
v -0.8058264 5.988639 0.0500005
v 10.34884 5.988639 -0.0499995
v -0.926001 -9.73065 0.0500005
v -0.8058264 -9.777196 -0.0500005
v -0.8058264 -9.777196 0.0500005
v -0.926001 -9.73065 -0.0500005
v -1.008646 -9.648006 0.0500005
v -1.008646 -9.648006 -0.0500005
v -1.055192 5.739274 0.0500005
v -1.205192 -9.633527 0.0500005
v -1.205192 5.844968 0.0500005
v -1.055192 -9.527833 0.0500005
v -0.926001 -9.73065 0.0500005
v -1.158794 -9.761463 0.0500005
v -1.008646 -9.648006 0.0500005
v -1.039457 -9.880796 0.0500005
v -1.008646 -9.648006 0.0500005
v -1.205192 -9.633527 0.0500005
v -1.055192 -9.527833 0.0500005
v -1.158794 -9.761463 0.0500005
v 10.55166 -9.648006 0.0500005
v 10.58248 -9.880796 0.0500005
v 10.46902 -9.73065 0.0500005
v 10.70181 -9.761463 0.0500005
v 10.46902 5.942093 0.0500005
v 10.70181 5.972904 0.0500005
v 10.55166 5.859448 0.0500005
v 10.58248 6.092241 0.0500005
v -1.008646 5.859448 0.0500005
v -1.039457 6.092241 0.0500005
v -0.926001 5.942093 0.0500005
v -1.158794 5.972904 0.0500005
v 10.46902 -9.73065 0.0500005
v 10.45454 -9.927196 0.0500005
v 10.34884 -9.777196 0.0500005
v 10.58248 -9.880796 0.0500005
v 10.55166 5.859448 0.0500005
v 10.74821 5.844968 0.0500005
v 10.59821 5.739274 0.0500005
v 10.70181 5.972904 0.0500005
v -0.926001 5.942093 0.0500005
v -0.911521 6.138639 0.0500005
v -0.8058264 5.988639 0.0500005
v -1.039457 6.092241 0.0500005
v -0.8058264 -9.777196 0.0500005
v -1.039457 -9.880796 0.0500005
v -0.926001 -9.73065 0.0500005
v -0.911521 -9.927196 0.0500005
v 10.59821 -9.527833 0.0500005
v 10.70181 -9.761463 0.0500005
v 10.55166 -9.648006 0.0500005
v 10.74821 -9.633527 0.0500005
v 10.34884 5.988639 0.0500005
v 10.58248 6.092241 0.0500005
v 10.46902 5.942093 0.0500005
v 10.45454 6.138639 0.0500005
v -1.055192 5.739274 0.0500005
v -1.158794 5.972904 0.0500005
v -1.008646 5.859448 0.0500005
v -1.205192 5.844968 0.0500005
v -0.8058264 -9.777196 0.0500005
v 10.34884 -9.777196 -0.0500005
v 10.34884 -9.777196 0.0500005
v -0.8058264 -9.777196 -0.0500005
v -13.50501 1.598661 5.00679E-07
v -7.935007 -1.601344 5.00679E-07
v -13.50501 -1.601344 5.00679E-07
v -7.935007 1.598661 5.00679E-07
v -1.205192 -9.633527 5.00679E-07
v -7.935007 -12.84952 5.00679E-07
v -7.935007 12.84952 5.00679E-07
v -1.158794 -9.761463 5.00679E-07
v -1.205192 5.844968 5.00679E-07
v -1.039457 -9.880796 5.00679E-07
v -0.911521 -9.927196 5.00679E-07
v 10.45454 -9.927196 5.00679E-07
v -1.158794 5.972904 5.00679E-07
v -1.039457 6.092241 5.00679E-07
v -0.911521 6.138639 5.00679E-07
v 13.50501 -12.84952 5.00679E-07
v 13.50501 12.84952 5.00679E-07
v 10.58248 -9.880796 5.00679E-07
v 10.45454 6.138639 5.00679E-07
v 10.70181 -9.761463 5.00679E-07
v 10.74821 -9.633527 5.00679E-07
v 10.74821 5.844968 5.00679E-07
v 10.58248 6.092241 5.00679E-07
v 10.70181 5.972904 5.00679E-07
v -0.8058264 -9.777196 -0.0500005
v 10.46888 -9.73065 -0.0500005
v 10.34884 -9.777196 -0.0500005
v 10.59821 -9.527833 -0.0500005
v 10.55166 -9.648006 -0.0500005
v 10.34884 5.988639 -0.0499995
v 10.55166 5.859448 -0.0499995
v 10.59821 5.739274 -0.0499995
v 10.46902 5.942093 -0.0499995
v -1.055192 5.739274 -0.0499995
v -1.008646 -9.648006 -0.0500005
v -0.926001 -9.73065 -0.0500005
v -1.055192 -9.527833 -0.0500005
v -0.926001 5.942093 -0.0499995
v -0.8058264 5.988639 -0.0499995
v -1.008713 5.859448 -0.0499995
vt -3.5687 0.1173
vt -6.9033 0.005200028
vt -6.9344 0.1173
vt -3.59735 0.005200028
vt 4.5453 0.07779998
vt 4.5802 0.1151
vt 4.5799 0.07749999
vt 4.6105 0.1149
vt 4.6102 0.0772
vt 4.5802 0.1151
vt 4.5453 0.07779998
vt 4.5456 0.1154
vt 4.5082 0.07810003
vt 4.5085 0.1157
vt 1.1528 0.07810003
vt 1.1525 0.1158
vt 4.6919 0.06270003
vt 4.6565 0.004800022
vt 4.6565 0.06279999
vt 4.6919 0.004899979
vt 9.1861 0.06270003
vt 9.1861 0.004899979
vt 9.2214 0.06270003
vt 9.2214 0.004899979
vt 9.2457 0.06270003
vt 9.2457 0.004899979
vt 1.0377 0.004599988
vt 0.7943 0.06270003
vt 0.7943 0.004599988
vt 1.0377 0.06270003
vt -3.4838 0.004599988
vt 1.0377 0.06270003
vt 1.0377 0.004599988
vt -3.4838 0.06270003
vt -3.7864 0.004599988
vt -3.7864 0.06270003
vt -3.8108 0.004599988
vt -3.8108 0.06270003
vt 9.281 0.06270003
vt 9.2457 0.004899979
vt 9.2457 0.06270003
vt 9.281 0.004899979
vt 1.06755 0.1173
vt -3.4862 0.005200028
vt -3.5151 0.1173
vt 1.0377 0.005200028
vt 4.4759 0.005200028
vt 1.1411 0.1173
vt 4.5077 0.1173
vt 1.16905 0.005200028
vt 9.212 0.1155
vt 4.6744 0.07810003
vt 4.6744 0.1155
vt 9.212 0.07800001
vt 9.2513 0.1155
vt 9.2513 0.07800001
vt 9.2857 0.1155
vt 0.8187 0.06270003
vt 0.7943 0.004599988
vt 0.7943 0.06270003
vt 0.8187 0.004599988
vt 0.8542 0.06270003
vt 0.8187 0.004599988
vt 0.8187 0.06270003
vt 0.8542 0.004599988
vt 9.2857 0.07800001
vt 9.3227 0.1155
vt 9.3227 0.07800001
vt 9.2857 0.1155
vt 9.2513 0.07800001
vt 1.1463 0.07810003
vt 1.1834 0.1158
vt 1.1834 0.07810003
vt 1.1463 0.1158
vt 1.1116 0.07810003
vt 1.1463 0.1158
vt 1.1116 0.07810003
vt 1.1116 0.1158
vt 1.0722 0.07810003
vt 1.0722 0.1158
vt -3.5119 0.07810003
vt -3.5119 0.1158
vt -3.5688 0.1158
vt -6.9344 0.07810003
vt -6.9344 0.1158
vt -3.5687 0.07810003
vt -3.533 0.1159
vt -3.5329 0.07819998
vt -3.4841 0.1161
vt -3.5329 0.07819998
vt -3.533 0.1159
vt -3.4839 0.07840002
vt -3.4538 0.1162
vt -3.4536 0.07850003
vt -3.8108 0.06270003
vt -3.8463 0.004599988
vt -3.8463 0.06270003
vt -3.8108 0.004599988
vt -3.5998 0.06270003
vt -6.9033 0.004599988
vt -6.9033 0.06270003
vt -3.5998 0.004599988
vt 4.6321 0.06279999
vt 4.5966 0.004800022
vt 4.5966 0.06279999
vt 4.6321 0.004800022
vt 4.6565 0.06279999
vt 4.6565 0.004800022
vt 9.1979 0.005200028
vt 4.6451 0.1173
vt 9.2292 0.1173
vt 4.6764 0.005200028
vt 4.5464 0.005200028
vt 4.5817 0.1173
vt 4.5753 0.005200028
vt 4.5412 0.1173
vt 4.596 0.005200028
vt 4.617 0.1173
vt 4.6297 0.005200028
vt 4.5817 0.1173
vt 1.0883 0.005200028
vt 1.12215 0.1173
vt 1.1196 0.005200028
vt 1.0845 0.1173
vt -3.5608 0.005200028
vt -3.5293 0.1173
vt -3.53 0.005200028
vt -3.565 0.1173
vt 9.2213 0.005200028
vt 9.252899 0.1173
vt 9.2497 0.005200028
vt 9.215799 0.1173
vt 1.1332 0.005200028
vt 1.1528 0.1173
vt 1.16905 0.005200028
vt 1.12215 0.1173
vt -3.53 0.005200028
vt -3.5032 0.1173
vt -3.4862 0.005200028
vt -3.5416 0.1173
vt 9.2638 0.005200028
vt 9.2842 0.1173
vt 9.2964 0.005200028
vt 9.252899 0.1173
vt 4.4961 0.005200028
vt 4.5412 0.1173
vt 4.5288 0.005200028
vt 4.5077 0.1173
vt 1.0533 0.005200028
vt 1.1 0.1173
vt 1.0883 0.005200028
vt 1.06755 0.1173
vt -3.59735 0.005200028
vt -3.5478 0.1173
vt -3.5608 0.005200028
vt -3.5828 0.1173
vt 9.1706 0.005200028
vt 9.215799 0.1173
vt 9.203 0.005200028
vt 9.1826 0.1172
vt 4.4759 0.06270003
vt 1.1724 0.004499972
vt 1.1724 0.06270003
vt 4.4759 0.004499972
vt -2.8341 2.946
vt -0.6395 1.6964
vt -2.8341 1.6964
vt -0.6395 2.946
vt 1.969 -1.4402
vt -0.6395 -2.6961
vt -0.6395 7.3395
vt 1.9871 -1.4902
vt 1.969 4.6042
vt 2.0337 -1.5368
vt 2.0837 -1.5549
vt 6.5222 -1.5549
vt 1.9871 4.6542
vt 2.0337 4.7008
vt 2.0837 4.7189
vt 7.7134 -2.6961
vt 7.7134 7.3395
vt 6.5721 -1.5368
vt 6.5222 4.7189
vt 6.6187 -1.4902
vt 6.6369 -1.4402
vt 6.6369 4.6042
vt 6.5721 4.7008
vt 6.6187 4.6542
vt 0.3739389 0.7169684
vt 0.3730153 0.996403
vt 0.3739389 0.9940033
vt 0.3689756 0.9989752
vt 0.3713666 0.9980432
vt 0.001031219 0.9940033
vt 0.003603474 0.9980432
vt 0.005994462 0.9989752
vt 0.001954815 0.996403
vt 0.005994462 0.712005
vt 0.3713666 0.7129288
vt 0.3730153 0.7145774
vt 0.3689756 0.712005
vt 0.001954815 0.7145774
vt 0.001031219 0.7169684
vt 0.003603474 0.7129288
vn 0 0 1
vn 0 0 1
vn 0 0 1
vn 0 0 1
vn -0.53681 -0.8437032 0
vn -0.8436981 -0.5368181 0
vn -0.8436981 -0.5368181 0
vn -0.984908 -0.1730784 0
vn -0.984908 -0.173079 0
vn -0.8436981 -0.5368181 0
vn -0.53681 -0.8437032 0
vn -0.53681 -0.8437032 0
vn -0.1730841 -0.984907 0
vn -0.1730843 -0.9849069 0
vn 0.1730829 -0.9849073 0
vn 0.1730826 -0.9849073 0
vn 0.9829797 0.1837139 0
vn 0.8378486 0.5459027 0
vn 0.8378485 0.5459028 0
vn 0.9829797 0.1837145 0
vn 0.9829799 -0.1837128 0
vn 0.9829988 -0.183612 -0.0001338098
vn 0.837902 -0.5458205 -0.000428135
vn 0.8379604 -0.5457309 -0.0004533414
vn 0.5458047 -0.8379124 -0.0001092582
vn 0.5457281 -0.8379623 0
vn -0.9829797 0.183714 0
vn -0.8378505 0.5458996 0
vn -0.8377507 0.5460529 0.0002184492
vn -0.9829797 0.1837144 0
vn -0.9829799 -0.1837128 0
vn -0.9829797 0.1837144 0
vn -0.9829797 0.183714 0
vn -0.98298 -0.1837123 0
vn -0.8378536 -0.5458952 0
vn -0.8378536 -0.5458951 0
vn -0.5459027 -0.8378486 0
vn -0.5459027 -0.8378486 0
vn 0.1837123 -0.98298 0
vn 0.5457281 -0.8379623 0
vn 0.5458047 -0.8379124 -0.0001092582
vn 0.183712 -0.9829801 0
vn 0 0 1
vn 0 0 1
vn 0 0 1
vn 0 0 1
vn 0 0 1
vn 0 0 1
vn 0 0 1
vn 0 0 1
vn -0.9849076 0.1730805 0
vn -0.984908 -0.173079 0
vn -0.984908 -0.1730784 0
vn -0.9849077 0.1730799 0
vn -0.8437013 0.5368129 0
vn -0.8437013 0.536813 0
vn -0.536813 0.8437013 0
vn -0.5458364 0.8378916 0.0005143201
vn -0.8377507 0.5460529 0.0002184492
vn -0.8378505 0.5458996 0
vn -0.5455021 0.8381093 0.0006282309
vn -0.1838213 0.9829597 0.0001037117
vn -0.5455021 0.8381093 0.0006282309
vn -0.5458364 0.8378916 0.0005143201
vn -0.1838988 0.9829453 0
vn -0.5368129 0.8437014 0
vn -0.1730799 0.9849077 0
vn -0.1730802 0.9849077 0
vn -0.536813 0.8437013 0
vn -0.8437013 0.536813 0
vn 0.5368151 -0.8436998 0
vn 0.1730826 -0.9849073 0
vn 0.1730829 -0.9849073 0
vn 0.5368152 -0.8436998 0
vn 0.8436998 -0.5368151 0
vn 0.5368152 -0.8436998 0
vn 0.8436998 -0.5368151 0
vn 0.8436998 -0.5368151 0
vn 0.9849073 -0.1730826 0
vn 0.9849072 -0.1730831 0
vn 0.9849069 0.1730846 0
vn 0.984907 0.1730841 0
vn 0.1730787 0.984908 0
vn -0.1730802 0.9849077 0
vn -0.1730799 0.9849077 0
vn 0.1730785 0.984908 0
vn 0.5368181 0.8436981 0
vn 0.5368181 0.843698 0
vn 0.8437032 0.53681 0
vn 0.5368181 0.843698 0
vn 0.5368181 0.8436981 0
vn 0.8437032 0.53681 0
vn 0.984907 0.1730841 0
vn 0.9849069 0.1730846 0
vn -0.5459027 -0.8378486 0
vn -0.183714 -0.9829797 0
vn -0.1837136 -0.9829798 0
vn -0.5459027 -0.8378486 0
vn -0.1837136 -0.9829798 0
vn 0.183712 -0.9829801 0
vn 0.1837123 -0.98298 0
vn -0.183714 -0.9829797 0
vn 0.5458951 0.8378536 0
vn 0.1837123 0.98298 0
vn 0.183712 0.9829801 0
vn 0.5458952 0.8378536 0
vn 0.8378485 0.5459028 0
vn 0.8378486 0.5459027 0
vn 0 0 1
vn 0 0 1
vn 0 0 1
vn 0 0 1
vn 0 0 1
vn 0 0 1
vn 0 0 1
vn 0 0 1
vn 0 0 1
vn 0 0 1
vn 0 0 1
vn 0 0 1
vn 0 0 1
vn 0 0 1
vn 0 0 1
vn 0 0 1
vn 0 0 1
vn 0 0 1
vn 0 0 1
vn 0 0 1
vn 0 0 1
vn 0 0 1
vn 0 0 1
vn 0 0 1
vn 0 0 1
vn 0 0 1
vn 0 0 1
vn 0 0 1
vn 0 0 1
vn 0 0 1
vn 0 0 1
vn 0 0 1
vn 0 0 1
vn 0 0 1
vn 0 0 1
vn 0 0 1
vn 0 0 1
vn 0 0 1
vn 0 0 1
vn 0 0 1
vn 0 0 1
vn 0 0 1
vn 0 0 1
vn 0 0 1
vn 0 0 1
vn 0 0 1
vn 0 0 1
vn 0 0 1
vn 0 0 1
vn 0 0 1
vn 0 0 1
vn 0 0 1
vn 0.183712 0.9829801 0
vn -0.1838988 0.9829453 0
vn -0.1838213 0.9829597 0.0001037117
vn 0.1837123 0.98298 0
vn 0 0 1
vn 0 0 1
vn 0 0 1
vn 0 0 1
vn 0 0 1
vn 0 0 1
vn 0 0 1
vn 0 0 1
vn 0 0 1
vn 0 0 1
vn 0 0 1
vn 0 0 1
vn 0 0 1
vn 0 0 1
vn 0 0 1
vn 0 0 1
vn 0 0 1
vn 0 0 1
vn 0 0 1
vn 0 0 1
vn 0 0 1
vn 0 0 1
vn 0 0 1
vn 0 0 1
vn 0 0 1
vn 0 0 1
vn 0 -1.024456E-07 1
vn 0 0 1
vn 1.585152E-07 -1.010751E-07 1
vn 0 0 1
vn 0 0 1
vn -1.693428E-07 0 1
vn 0 0 1
vn 0 0 1
vn 0 0 1
vn 1.012371E-07 1.589364E-07 1
vn 0 0 1
vn 0 0 1
vn 0 0 1
vn 0 0 1
g Terrain2_scene48_0
f 3/3/3 2/2/2 1/1/1
f 4/4/4 1/1/1 2/2/2
f 7/7/7 6/6/6 5/5/5
f 6/6/6 7/7/7 8/8/8
f 9/9/9 8/8/8 7/7/7
f 12/12/12 11/11/11 10/10/10
f 11/11/11 12/12/12 13/13/13
f 14/14/14 13/13/13 12/12/12
f 13/13/13 14/14/14 15/15/15
f 16/16/16 15/15/15 14/14/14
f 19/19/19 18/18/18 17/17/17
f 20/20/20 17/17/17 18/18/18
f 17/17/17 20/20/20 21/21/21
f 22/22/22 21/21/21 20/20/20
f 21/21/21 22/22/22 23/23/23
f 24/24/24 23/23/23 22/22/22
f 23/23/23 24/24/24 25/25/25
f 26/26/26 25/25/25 24/24/24
f 29/29/29 28/28/28 27/27/27
f 30/30/30 27/27/27 28/28/28
f 33/33/33 32/32/32 31/31/31
f 34/34/34 31/31/31 32/32/32
f 31/31/31 34/34/34 35/35/35
f 36/36/36 35/35/35 34/34/34
f 35/35/35 36/36/36 37/37/37
f 38/38/38 37/37/37 36/36/36
f 41/41/41 40/40/40 39/39/39
f 42/42/42 39/39/39 40/40/40
f 45/45/45 44/44/44 43/43/43
f 46/46/46 43/43/43 44/44/44
f 49/49/49 48/48/48 47/47/47
f 50/50/50 47/47/47 48/48/48
f 53/53/53 52/52/52 51/51/51
f 54/54/54 51/51/51 52/52/52
f 51/51/51 54/54/54 55/55/55
f 56/56/56 55/55/55 54/54/54
f 55/55/55 56/56/56 57/57/57
f 60/60/60 59/59/59 58/58/58
f 61/61/61 58/58/58 59/59/59
f 64/64/64 63/63/63 62/62/62
f 65/65/65 62/62/62 63/63/63
f 68/68/68 67/67/67 66/66/66
f 69/69/69 66/66/66 67/67/67
f 66/66/66 69/69/69 70/70/70
f 73/73/73 72/72/72 71/71/71
f 74/74/74 71/71/71 72/72/72
f 71/71/71 74/74/74 75/75/75
f 78/78/78 77/77/77 76/76/76
f 77/77/77 78/78/78 79/79/79
f 80/80/80 79/79/79 78/78/78
f 79/79/79 80/80/80 81/81/81
f 82/82/82 81/81/81 80/80/80
f 85/85/85 84/84/84 83/83/83
f 86/86/86 83/83/83 84/84/84
f 83/83/83 86/86/86 87/87/87
f 88/88/88 87/87/87 86/86/86
f 91/91/91 90/90/90 89/89/89
f 92/92/92 89/89/89 90/90/90
f 89/89/89 92/92/92 93/93/93
f 94/94/94 93/93/93 92/92/92
f 97/97/97 96/96/96 95/95/95
f 98/98/98 95/95/95 96/96/96
f 101/101/101 100/100/100 99/99/99
f 102/102/102 99/99/99 100/100/100
f 105/105/105 104/104/104 103/103/103
f 106/106/106 103/103/103 104/104/104
f 103/103/103 106/106/106 107/107/107
f 108/108/108 107/107/107 106/106/106
f 111/111/111 110/110/110 109/109/109
f 112/112/112 109/109/109 110/110/110
f 115/115/115 114/114/114 113/113/113
f 116/116/116 113/113/113 114/114/114
f 119/119/119 118/118/118 117/117/117
f 120/120/120 117/117/117 118/118/118
f 123/123/123 122/122/122 121/121/121
f 124/124/124 121/121/121 122/122/122
f 127/127/127 126/126/126 125/125/125
f 128/128/128 125/125/125 126/126/126
f 131/131/131 130/130/130 129/129/129
f 132/132/132 129/129/129 130/130/130
f 135/135/135 134/134/134 133/133/133
f 136/136/136 133/133/133 134/134/134
f 139/139/139 138/138/138 137/137/137
f 140/140/140 137/137/137 138/138/138
f 143/143/143 142/142/142 141/141/141
f 144/144/144 141/141/141 142/142/142
f 147/147/147 146/146/146 145/145/145
f 148/148/148 145/145/145 146/146/146
f 151/151/151 150/150/150 149/149/149
f 152/152/152 149/149/149 150/150/150
f 155/155/155 154/154/154 153/153/153
f 156/156/156 153/153/153 154/154/154
f 159/159/159 158/158/158 157/157/157
f 160/160/160 157/157/157 158/158/158
f 163/163/163 162/162/162 161/161/161
f 164/164/164 161/161/161 162/162/162
f 167/167/167 166/166/166 165/165/165
f 168/168/168 165/165/165 166/166/166
f 168/168/168 166/166/166 169/169/169
f 166/166/166 170/170/170 169/169/169
f 171/171/171 168/168/168 169/169/169
f 172/172/172 169/169/169 170/170/170
f 173/173/173 171/171/171 169/169/169
f 172/172/172 170/170/170 174/174/174
f 170/170/170 175/175/175 174/174/174
f 175/175/175 170/170/170 176/176/176
f 171/171/171 173/173/173 177/177/177
f 178/178/178 171/171/171 177/177/177
f 178/178/178 179/179/179 171/171/171
f 180/180/180 176/176/176 170/170/170
f 171/171/171 179/179/179 181/181/181
f 180/180/180 182/182/182 176/176/176
f 183/183/183 181/181/181 179/179/179
f 182/182/182 180/180/180 184/184/184
f 185/185/185 184/184/184 180/180/180
f 185/185/185 180/180/180 186/186/186
f 181/181/181 186/186/186 180/180/180
f 183/183/183 187/187/187 181/181/181
f 181/181/181 188/188/188 186/186/186
f 188/188/188 181/181/181 187/187/187
g Terrain2_scene48_1
f 191/191/191 190/190/190 189/189/189
f 190/190/190 192/192/192 189/189/189
f 193/193/193 192/192/192 190/190/190
f 192/192/192 194/194/194 189/189/189
f 195/195/195 194/194/194 192/192/192
f 196/196/196 195/195/195 192/192/192
f 197/197/197 194/194/194 195/195/195
f 194/194/194 198/198/198 189/189/189
f 189/189/189 198/198/198 199/199/199
f 200/200/200 189/189/189 199/199/199
f 198/198/198 201/201/201 199/199/199
f 202/202/202 198/198/198 194/194/194
f 203/203/203 202/202/202 194/194/194
f 204/204/204 198/198/198 202/202/202
